<svg id="e3cab653-2ce6-46ca-8a88-3f58684a0670" data-name="Layer 1" xmlns="http://www.w3.org/2000/svg" xmlns:xlink="http://www.w3.org/1999/xlink" viewBox="0 0 2917.3333 2074.6667"><defs><linearGradient id="e5441874-6bfa-47bf-acf1-bf0c7f8facae" x1="2381.0411" y1="289.9296" x2="945.5415" y2="1242.0923" gradientUnits="userSpaceOnUse"><stop offset="0" stop-color="#ae24fe"/><stop offset="0.4926" stop-color="#662aed"/><stop offset="1" stop-color="#0026bf"/></linearGradient><linearGradient id="afe5b341-d65c-445b-a6a2-e829f1e85dcc" x1="627.6027" y1="1245.7053" x2="1505.6589" y2="1245.7053" gradientUnits="userSpaceOnUse"><stop offset="0" stop-color="#fff100"/><stop offset="0.4975" stop-color="#e9b000"/><stop offset="1" stop-color="#986a00"/></linearGradient><linearGradient id="e9ef74b7-32ae-48d4-a002-e7b18e624801" x1="1681.0317" y1="1485.2192" x2="2507.5338" y2="201.9669" gradientUnits="userSpaceOnUse"><stop offset="0" stop-color="#ff54ff"/><stop offset="0.4926" stop-color="#9c00bf"/><stop offset="1" stop-color="#5a00a9"/></linearGradient><linearGradient id="a1dba610-5738-42b1-8ed4-553af02f23b6" x1="2156.5815" y1="1347.904" x2="1331.7363" y2="1296.3531" gradientUnits="userSpaceOnUse"><stop offset="0" stop-color="#2e3192"/><stop offset="1" stop-color="#1bffff"/></linearGradient><linearGradient id="b2d7acbc-ddd8-4dc1-99af-35e5b572a044" x1="476.9943" y1="363.1791" x2="933.741" y2="1755.1654" gradientUnits="userSpaceOnUse"><stop offset="0" stop-color="#e9d700"/><stop offset="0.4975" stop-color="#ff8e00"/><stop offset="1" stop-color="#ff2f15"/></linearGradient><linearGradient id="a6c1511f-3609-49cd-97f9-03ee557e6993" x1="1450.0701" y1="985.4727" x2="212.74" y2="516.6457" gradientUnits="userSpaceOnUse"><stop offset="0" stop-color="#e900dd"/><stop offset="0.4975" stop-color="#d40076"/><stop offset="1" stop-color="#a90004"/></linearGradient></defs><rect x="-598.3333" y="-859.6667" width="4000" height="4000" style="fill:#fff"/><path d="M1467.9245,984.262c57.63,39.2671,145.9346,50.835,208.9453,2.8892,97.834-74.3907,138.8819-255.4131,221.3809-333.9385-145.9346,105.8052-288.543,219.4609-430.3262,331.0493Z" style="fill-rule:evenodd"/><path d="M699.3244,879.6976c45.1861,39.2656,118.5645,147.13,162.09,192.5991,48.5127,51.2441,125.6153,26.0322,164.5855-21.9058C919.0485,990.0472,810.0163,932.5984,699.3244,879.6976Z" style="fill-rule:evenodd"/><path d="M2377.4851,725.9534c44.7754-111.1777,80.84-216.1543,97.4228-300.4634,34.4082-284.7617-168.7334-390.1543-407.5156-289.7246-268.6445,113.2466-634.29,437.272-827.4756,568.6934-54.7153,37.1977-90.3691,27.6968-140.1274,1.6562,156.71,82.6592,306.3657,156.6387,408.3481,150.4366,37.7246-2.066,74.2129-13.2251,107.3789-36.37,96.584-75.2187,186.1348-143.8247,271.5332-205.4062,76.7051-55.3809,188.626-120.2705,291.8535-123.9863,132.2539-5.3741,233.8125,102.9077,198.5821,235.164Z" style="fill-rule:evenodd;fill:url(#e5441874-6bfa-47bf-acf1-bf0c7f8facae)"/><path d="M627.6027,1283.4876c34.4112,34.7129,69.6411,64.8867,103.2271,89.2715,82.5,59.5166,149.6592,68.6045,245.0146,30.5879,167.06-66.9571,406.27-221.5293,529.8145-338.0811-137.2251,85.9639-733.3672,350.4766-878.0562,218.2217Z" style="fill-rule:evenodd;fill:url(#afe5b341-d65c-445b-a6a2-e829f1e85dcc)"/><path d="M1698.4226,1409.5433c44.3613,14.4619,85.4121,26.4463,122.7089,35.1269,139.2959,32.6494,237.1426-13.6406,297.252-144.6494,71.3105-156.2295,179.0977-374.8623,259.1016-574.0674,35.23-132.2563-66.3282-240.5381-198.5821-235.164-80.43,2.8955-165.8144,42.9824-235.88,86.3759,114.0049-66.9555,243.3409-5.374,185.3,165.7305-53.0586,157.0576-128.9278,335.5947-209.3438,489.34-43.9531,84.7256-104.8975,212.4346-220.5566,177.3077Z" style="fill-rule:evenodd;fill:url(#e9ef74b7-32ae-48d4-a002-e7b18e624801)"/><path d="M1698.4226,1409.5433c112.7695,33.8877,173.289-86.38,217.2431-170.6944-35.2431,62.8282-76.2939,75.6367-136.8135,76.0449-137.6357.4209-336.2187-28.1-434.0517-47.5283,135.9795,61.9942,254.1318,109.5293,353.6221,142.1778Z" style="fill-rule:evenodd;fill:url(#a1dba610-5738-42b1-8ed4-553af02f23b6)"/><path d="M792.5988,1217.3626c-85.8095-87.6191-180.33-211.1948-228.8291-339.7324-27.7817-73.562-32.7646-153.7442-.4243-216.565C612.68,566.0081,737.884,533.7718,834.4846,570.9715,768.9787,540.7962,706.3781,516.823,649.99,504.014,389.6422,446.1482,274.3941,653.6233,358.9713,884.242c49.3346,134.7344,157.1207,288.478,268.6314,399.2456,58.4556,53.7305,191.5318,42.1543,338.2852,3.3066-71.7183,16.9434-123.12-18.1836-173.2891-69.4316Z" style="fill-rule:evenodd;fill:url(#b2d7acbc-ddd8-4dc1-99af-35e5b572a044)"/><path d="M834.4846,570.9715c-96.6006-37.2-221.8047-4.9634-271.1392,90.0937-32.34,62.8208-27.3574,143.003.4243,216.565-23.6333-64.4722,21.1284-92.9893,82.4966-64.89q215.1651,99.1913,438.186,227.7305c103.2276,59.0967,172.0469,61.5752,266.9878-13.2261,94.1094-73.5693,181.5762-142.5854,264.0762-207.063-33.166,23.1446-69.6543,34.3037-107.3789,36.37-101.9824,6.2021-251.6382-67.7774-408.3481-150.4366-88.7154-46.289-179.4947-95.8852-265.3047-135.1435Z" style="fill-rule:evenodd;fill:url(#a6c1511f-3609-49cd-97f9-03ee557e6993)"/><path d="M194.7477,1782.1761q-38.7-5.4009-63.9-31.8-27.9-29.0962-27.9-73.2,0-40.7959,25.2-70.5,25.2-29.7,66.6-35.4v41.7q-23.3994,6.3-37.2,23.25-13.8024,16.9527-13.8,40.95,0,22.8018,13.5,39.75,13.5,16.9527,37.5,23.55Zm95.4-171.3-32.1,26.1a64.0512,64.0512,0,0,0-15.45-14.7q-7.952-5.0976-21.45-9v-42.3Q263.7428,1576.3753,290.1481,1610.8763Zm.6,131.3994q-15.3,18.3033-27.9,25.8-15.0044,9-41.7,13.8008v-41.7q14.3994-3.895,19.8-6.9,8.395-4.7944,17.1-16.5Z"/><path d="M510.0456,1663.3763h-41.1q-5.7019-23.0976-22.35-37.0508-16.6494-13.95-39.75-13.9492-22.5,0-39.45,13.1992-16.9527,13.2056-22.65,37.8008h-41.4q4.1982-43.2012,36.3-69,29.0953-23.4009,67.2-23.4,37.8,0,65.7,22.2Q503.7431,1618.08,510.0456,1663.3763Zm0,26.6992q-5.4,38.4053-30.9,63.6006-28.5051,28.2027-72.3,28.2-37.5045,0-66-22.8008-31.8018-25.4941-37.5-69h41.4q5.3994,24.0059,21.75,37.3506,16.3476,13.3521,40.35,13.35,21.8956,0,37.5-11.7,17.3956-13.1967,24.3-39Z"/><path d="M571.2438,1776.4759h-40.8v-200.4h40.8Zm76.8,0h-55.8v-40.2h55.8Z"/><path d="M704.7419,1776.4759h-40.8v-200.4h40.8Zm76.8,0h-55.8v-40.2h55.8Z"/><path d="M864.6393,1780.3763q-31.2048-4.8031-48.3-25.2-19.5051-23.0976-19.5-64.5V1576.0755h40.8v110.7q0,24.3,4.8,34.3506,4.7959,10.0547,22.2,16.9492Zm94.2-89.7q0,37.2027-17.7,60.6-17.7048,23.4009-50.1,29.1006v-42.3008q16.3125-6.2988,21.6563-16.6494t5.3437-34.65v-110.7h40.8Z"/><path d="M1110.0358,1714.8353q0,30.53-20.1,49.083-18.3018,17.0582-45,17.0576-30.3046,0-48.3-19.1113-16.8046-17.9151-16.8-44.1885h40.5q3.2973,23.105,24.6,23.1,10.8,0,17.55-6.9609t6.75-17.63q0-15.1026-16.2-22.8086l18.9-36.9q18,8.6837,27,20.6484Q1110.0312,1691.7919,1110.0358,1714.8353Zm-9-85.3594h-42.3q-3.3047-17.1006-16.8-17.1a17.9309,17.9309,0,0,0-12.3,4.5088q-5.1049,4.5074-5.1,13.2187a12.5687,12.5687,0,0,0,4.6733,10.3692q4.6692,3.7543,17.0347,8.2588l-18.7783,36.6611q-21.7126-6.0043-32.2686-18.6182Q983.736,1653.26,983.736,1630.137a56.8766,56.8766,0,0,1,16.95-41.2919q16.9454-17.269,41.55-17.27,24.8972,0,40.5,13.2Q1101.0312,1600.076,1101.0358,1629.4759Z"/><path d="M1171.8346,1776.4759h-40.8v-200.4h40.8Z"/><path d="M1400.1305,1663.3763h-41.1q-5.7018-23.0976-22.35-37.0508-16.6494-13.95-39.75-13.9492-22.5,0-39.45,13.1992-16.9525,13.2056-22.65,37.8008h-41.4q4.1984-43.2012,36.3-69,29.0955-23.4009,67.2-23.4,37.8,0,65.7,22.2Q1393.8281,1618.08,1400.1305,1663.3763Zm0,26.6992q-5.4,38.4053-30.9,63.6006-28.5051,28.2027-72.3,28.2-37.5043,0-66-22.8008-31.8016-25.4941-37.5-69h41.4q5.3994,24.0059,21.75,37.3506,16.3477,13.3521,40.35,13.35,21.8958,0,37.5-11.7,17.3958-13.1967,24.3-39Z"/><path d="M1595.13,1782.7005,1420.529,1625.2757v-55.5752l133.8,120.9756v-115.8H1595.13Zm-133.8008-6.2246h-40.8V1660.8216l40.8,36.7822Z"/><path d="M1711.9577,1686.2132l-45.5762,90.2627h-45.9053l68.6446-135.4922Zm120.6191,90.2627H1786.611l-17.7285-33.6h-57.9844l20.03-40.3271,18.2431.1269-45.5947-90.249,22.8-45.7266Z" style="fill:#777"/><path d="M1945.0788,1732.6712l-23.6992,50.33-84.3047-208.125h44.3994Zm107.3906-.8906-20.6953,51.2207-55.1992-117.2256-16.6367,35.78-20.625-51.544,37.2617-80.3115Zm63.6055-156.9043-50.166,124.0586-23.878-50.9951,29.9766-73.0635Z" style="fill:#777"/><path d="M2212.3532,1686.2132l-45.5762,90.2627h-45.9053l68.6446-135.4922Zm120.6191,90.2627h-45.9658l-17.7285-33.6h-57.9844l20.03-40.3271,18.2432.1269-45.5948-90.249,22.8-45.7266Z" style="fill:#777"/><path d="M2389.67,1776.4759h-40.8v-200.4h40.8Zm109.2-140.4q0,24.9053-13.2,40.2-17.0991,20.1021-54,20.1006h-15.3v-40.2h12.9q29.7,0,29.7-20.25,0-19.645-27.7969-19.65H2416.37v-40.2h12.3467q33.7221,0,51.9375,16.5Q2498.8649,1609.0785,2498.87,1636.0755Zm-1.2,140.4H2454.47l-21-59.7a109.8782,109.8782,0,0,0,22.05-1.95,58.8457,58.8457,0,0,0,18.45-7.35Z" style="fill:#777"/><path d="M2560.9674,1776.4759h-40.8007v-200.4h40.8007Zm102.8995-160.2h-76.2v-40.2h76.2Zm0,80.4h-76.2v-40.2h76.2Zm0,79.8h-76.2v-40.2h76.2Z" style="fill:#777"/><path d="M573.6608,1952.0472h-25.2l-33.48-67.08h-.48v67.08h-14.28v-80.04h25.08l33.48,67.08h.48v-67.08h14.4Z"/><path d="M640.2609,1952.0472h-54.12v-80.04h53.76v12.72h-39.12v20.88h37.2v11.16h-37.2v22.6807h39.48Z"/><path d="M720.3,1952.0472H702.66l-19.8-33.72-20.04,33.72h-18l26.04-41.28-24.12-38.76h17.64l18.48,31.8,18.24-31.8h17.4l-23.52,38.76Z"/><path d="M781.0177,1885.5667h-23.28v66.48h-15.36v-66.48h-22.92v-13.56h61.5595Z"/><path d="M854.6974,1909.5667q0,28.9219-5.16,35.7608-5.52,7.32-28.68,7.3193-20.52,0-28.08-6.96-6.9609-6.4789-6.96-23.2792v-21.7208q0-18,8.76-24.12,7.3183-5.1576,27-5.1591,19.44,0,25.68,4.08,7.4392,4.922,7.44,20.64h-15q0-7.3638-3.4424-9.5625t-14.9121-2.1973q-12.6781,0-16.7846,3.7119-3.3809,3.1143-3.3809,12.0938v22.5117q0,11.4946,4.56,14.6084,3.4789,2.3951,15.12,2.3935,12.3582,0,15.6-3.3593,3.24-3.359,3.24-15.36h-19.92v-11.4Z"/><path d="M917.5773,1952.0472h-54.12v-80.04h53.76v12.72h-39.12v20.88h37.2v11.16h-37.2v22.6807h39.48Z"/><path d="M1003.6164,1952.0472h-25.2l-33.48-67.08h-.48v67.08h-14.28v-80.04h25.08l33.48,67.08h.48v-67.08h14.4Z"/><path d="M1105.4953,1885.5667h-23.28v66.48h-15.36v-66.48h-22.92v-13.56h61.56Z"/><path d="M1180.255,1952.0472h-15.48l-5.16-15.36h-34.32l-4.8,15.36h-15.84l26.4-80.04h22.32Zm-24-26.76-13.8-41.52-13.56,41.52Z"/><path d="M1252.0143,1929.0072q0,12.24-5.04,17.64t-17.52,5.4h-41.88v-80.04h40.56q11.2779,0,16.32,4.08,5.64,4.5617,5.64,15.96,0,7.6816-2.16,11.28-2.64,4.44-9.72,6.12l.72,1.56q7.4393,1.08,10.44,5.64Q1252.0124,1920.7279,1252.0143,1929.0072Zm-17.04-34.68q0-5.5181-2.04-7.5606-2.0412-2.039-7.68-2.04h-22.68v20.7607h19.32q7.56,0,10.08-1.9209Q1234.9728,1901.289,1234.9743,1894.3275Zm1.8,33.6q0-6.7193-2.64-8.88t-9.6-2.16h-21.96v22.68h19.44q8.28,0,11.04-1.8Q1236.7729,1935.369,1236.7746,1927.9271Z"/><path d="M1315.3732,1952.0472h-52.2v-80.04h15.48v66.6h36.72Z"/><path d="M1375.4914,1952.0472h-54.12v-80.04h53.76v12.72h-39.12v20.88h37.2v11.16h-37.2v22.6807h39.48Z"/><path d="M1481.8092,1927.3324q0,15.7617-6.6,20.5371-6.12,4.4195-26.2793,4.4179-19.0811,0-24.48-4.1611-6.24-4.7548-6.24-21.5195h14.28q0,8.9619,2.88,11.2021,2.88,2.2383,14.16,2.2383,10.44,0,13.32-1.4248,4.1982-2.1372,4.1992-9.9736,0-7.002-3.9688-9.2608-2.8887-1.6581-10.3467-1.6611h-5.2929q-15.88,0-21.4131-3.4893-7.8179-4.9322-7.8184-20.332,0-13.8354,6.8536-18.2871,6.13-3.9713,24.5283-3.9717,18.8745,0,24.7666,4.92,5.53,4.563,5.5312,18.8409H1465.49q0-7.2012-3.0117-9.6006t-13.0088-2.3994q-9.999,0-13.1289,2.04-3.1318,2.042-3.1309,8.52,0,6.12,2.3457,8.46t8.4805,2.34h8.0606q14.7948,0,20.6914,3.2237Q1481.81,1912.886,1481.8092,1927.3324Z"/><path d="M1558.1286,1926.0882q0,15.6227-6.6592,21.0918-6.6606,5.4667-25.98,5.4668-18.36,0-24.48-3.7256-8.64-5.2866-8.64-22.7138v-54.2h15.2393v54.2158q0,8.4141,3.541,10.94,3.5376,2.5254,14.34,2.5234,10.9176,0,13.92-2.0429,3.7178-2.5239,3.72-11.3008v-54.3359h15Z"/><path d="M1636.0085,1896.7269q0,12.24-3.6,16.6807-2.6427,3.36-10.8008,5.1591v.48q6.7193,0,10.08,4.08,3.3573,4.081,3.36,11.4v17.5195h-15.24v-16.32q0-5.2792-3.1807-7.8594t-8.8193-2.58h-21.36v26.76h-14.76v-80.04h38.5195q13.919,0,19.8613,5.34Q1636.0075,1882.6879,1636.0085,1896.7269Zm-15.6,3.2949q0-8.4829-1.5606-10.9912-2.2808-3.7017-10.08-3.7031h-22.32v27h21.36q7.08,0,9.84-2.7471Q1620.4065,1906.8324,1620.4089,1900.0218Z"/><path d="M1713.7682,1872.0072l-25.5605,80.04h-22.92l-25.32-80.04h15.6l21.24,67.08,21.24-67.08Z"/><path d="M1772.0866,1952.0472h-54.1192v-80.04h53.76v12.72h-39.12v20.88h37.2v11.16h-37.2v22.6807h39.48Z"/><path d="M1799.9264,1952.0472h-15.24v-80.04h15.24Z"/><path d="M1866.1657,1952.0472h-52.2v-80.04h15.48v66.6h36.72Z"/><path d="M1925.9235,1952.0472h-52.2v-80.04h15.48v66.6h36.72Z"/><path d="M2001.0417,1952.0472h-15.4795l-5.16-15.36h-34.32l-4.8,15.36h-15.84l26.4-80.04h22.3194Zm-24-26.76-13.8-41.52-13.56,41.52Z"/><path d="M2081.6813,1952.0472h-25.2l-33.48-67.08h-.48v67.08h-14.28v-80.04h25.08l33.48,67.08h.48v-67.08h14.4Z"/><path d="M2159.8005,1923.3675q0,17.76-6.36,23.5195t-26.76,5.76q-17.5224,0-24.24-5.04-9.12-6.8394-9.12-27.2393v-16.32q0-18.4776,6.78-25.5,6.7778-7.02,26.58-7.0195,20.52,0,26.04,4.0791,6.7193,4.9218,6.72,23.28h-15.12q0-9.8377-2.3994-12-2.4024-2.1591-14.16-2.16-12.0015,0-15.3,2.7-3.3018,2.7-3.3,13.98v18.72q0,12.36,3.4795,15.84,3.479,3.4819,15.96,3.48,10.5585,0,13.5605-2.8809,2.9971-2.88,3-9v-4.1992Z"/><path d="M2221.84,1952.0472H2167.72v-80.04h53.76v12.72h-39.12v20.88h37.2v11.16h-37.2v22.6807H2221.84Z"/><path d="M2335.1178,1952.0472h-15.4795l-5.16-15.36h-34.32l-4.8,15.36h-15.84l26.4-80.04h22.3194Zm-24-26.76-13.8-41.52-13.56,41.52Z"/><path d="M2357.5573,1952.0472h-15.24v-80.04h15.24Z"/><path d="M2733.2008,1515.0091h-14.2382v46.8027q0,4.0431-1.8018,5.9981a6.048,6.048,0,0,1-4.6582,1.9551,6.1285,6.1285,0,0,1-4.7236-1.9766q-1.8252-1.9774-1.8242-5.9766v-46.8027h-14.2383a7.2094,7.2094,0,0,1-4.9658-1.4717,4.9953,4.9953,0,0,1-1.626-3.89,4.9367,4.9367,0,0,1,1.6914-3.9551,7.3292,7.3292,0,0,1,4.9-1.4492h41.4843a7.2956,7.2956,0,0,1,5.0313,1.4941,5.0268,5.0268,0,0,1,1.6484,3.91,4.933,4.933,0,0,1-1.67,3.89A7.3864,7.3864,0,0,1,2733.2008,1515.0091Z" style="fill:#686868"/><path d="M2769.3678,1558.9544l-10.3271-41.0449v44.4727q0,3.6914-1.6484,5.5371a6.05,6.05,0,0,1-8.6788.0224q-1.67-1.8237-1.67-5.56v-50.9766q0-4.2187,2.1973-5.69a10.5212,10.5212,0,0,1,5.9326-1.4717h4.043a15.4149,15.4149,0,0,1,5.2949.6582,4.4432,4.4432,0,0,1,2.4394,2.373,36.8415,36.8415,0,0,1,1.8018,5.5821l9.36,35.2871,9.36-35.2871a36.8415,36.8415,0,0,1,1.8018-5.5821,4.4432,4.4432,0,0,1,2.4394-2.373,15.4149,15.4149,0,0,1,5.2949-.6582h4.043a10.5212,10.5212,0,0,1,5.9326,1.4717q2.1973,1.4721,2.1973,5.69v50.9766a8.0984,8.0984,0,0,1-1.6475,5.5371,5.63,5.63,0,0,1-4.417,1.8457,5.4932,5.4932,0,0,1-4.2627-1.8457q-1.67-1.8458-1.67-5.5371V1517.91l-10.3271,41.0449q-1.0108,3.999-1.6475,5.8672a8.1056,8.1056,0,0,1-2.3516,3.4063,6.852,6.852,0,0,1-4.746,1.5371,6.9419,6.9419,0,0,1-6.3282-3.5157,14.4213,14.4213,0,0,1-1.3847-3.4052Q2769.8948,1560.9764,2769.3678,1558.9544Z" style="fill:#686868"/></svg>