<svg xmlns="http://www.w3.org/2000/svg" xmlns:xlink="http://www.w3.org/1999/xlink" viewBox="0 0 947.83 676"><defs><style>.cls-1{isolation:isolate;}.cls-2{fill:url(#linear-gradient);}.cls-3{fill:url(#linear-gradient-2);}.cls-4{fill:#4c5054;}.cls-5{fill:url(#linear-gradient-3);}.cls-6{fill:url(#linear-gradient-4);}.cls-7{fill:url(#linear-gradient-5);}.cls-8{fill:url(#linear-gradient-6);}.cls-9{fill:url(#linear-gradient-7);}.cls-10{fill:url(#linear-gradient-8);}.cls-11{fill:#fff;mix-blend-mode:soft-light;}.cls-11,.cls-17{opacity:0.25;}.cls-12{fill:#14283c;}.cls-13{opacity:0.8;mix-blend-mode:hard-light;}.cls-14{fill:url(#linear-gradient-9);}.cls-15{fill:url(#linear-gradient-10);}.cls-16{fill:url(#linear-gradient-11);}.cls-17{fill:#b4dcf0;mix-blend-mode:screen;}.cls-18{fill:url(#linear-gradient-12);}</style><linearGradient id="linear-gradient" x1="499.62" y1="636.79" x2="453.13" y2="373.13" gradientUnits="userSpaceOnUse"><stop offset="0" stop-color="#148cc8"/><stop offset="1" stop-color="#193264"/></linearGradient><linearGradient id="linear-gradient-2" x1="40.86" y1="-3967.46" x2="111.81" y2="-3702.65" gradientTransform="translate(552.17 -3667.48) rotate(180)" gradientUnits="userSpaceOnUse"><stop offset="0" stop-color="#1e82be"/><stop offset="1" stop-color="#14283c"/></linearGradient><linearGradient id="linear-gradient-3" x1="386.07" y1="426.26" x2="566.1" y2="426.26" gradientUnits="userSpaceOnUse"><stop offset="0.2" stop-color="#8c00ff"/><stop offset="0.8" stop-color="#2878ff"/></linearGradient><linearGradient id="linear-gradient-4" x1="509.04" y1="459.22" x2="599.04" y2="303.33" gradientUnits="userSpaceOnUse"><stop offset="0.2" stop-color="#2878ff"/><stop offset="0.8" stop-color="#3cb478"/></linearGradient><linearGradient id="linear-gradient-5" x1="443.14" y1="459.22" x2="353.13" y2="303.33" gradientUnits="userSpaceOnUse"><stop offset="0.2" stop-color="#8c00ff"/><stop offset="0.8" stop-color="#f000b4"/></linearGradient><linearGradient id="linear-gradient-6" x1="599.04" y1="369.2" x2="509.04" y2="213.3" gradientUnits="userSpaceOnUse"><stop offset="0.2" stop-color="#3cb478"/><stop offset="0.8" stop-color="#dcdc00"/></linearGradient><linearGradient id="linear-gradient-7" x1="353.13" y1="369.2" x2="443.14" y2="213.3" gradientUnits="userSpaceOnUse"><stop offset="0.2" stop-color="#f000b4"/><stop offset="0.8" stop-color="#ff8c28"/></linearGradient><linearGradient id="linear-gradient-8" x1="386.07" y1="246.26" x2="566.1" y2="246.26" gradientUnits="userSpaceOnUse"><stop offset="0.2" stop-color="#ff8c28"/><stop offset="0.8" stop-color="#dcdc00"/></linearGradient><linearGradient id="linear-gradient-9" x1="471.46" y1="338.83" x2="471.46" y2="307.98" gradientUnits="userSpaceOnUse"><stop offset="0" stop-color="#b4dcf0"/><stop offset="1" stop-color="#e6f0f5"/></linearGradient><linearGradient id="linear-gradient-10" x1="445.74" y1="287.4" x2="445.74" y2="225.69" xlink:href="#linear-gradient-9"/><linearGradient id="linear-gradient-11" x1="633.09" y1="600.77" x2="566.79" y2="396.73" gradientUnits="userSpaceOnUse"><stop offset="0" stop-color="#14508c"/><stop offset="0.85" stop-color="#2896d2"/><stop offset="1" stop-color="#28a0dc"/></linearGradient><linearGradient id="linear-gradient-12" x1="161.71" y1="-3954.6" x2="238.53" y2="-3743.53" gradientTransform="translate(552.17 -3667.48) rotate(180)" xlink:href="#linear-gradient-11"/></defs><g class="cls-1"><g id="ARTWORK"><g id="_2" data-name="2"><path class="cls-2" d="M476.09,373.76c-102.37,0-192.74,51.28-246.88,129.53a3,3,0,0,0,0,3.44C283.35,585,373.72,636.26,476.09,636.26c103.11,0,194.06-52,248.06-131.25C670.15,425.79,579.2,373.76,476.09,373.76Z"/><path class="cls-3" d="M476.09,298.76c102.36,0,192.74-51.27,246.88-129.53a3,3,0,0,0,0-3.44C668.83,87.54,578.45,36.26,476.09,36.26,373,36.26,282,88.29,228,167.51,282,246.74,373,298.76,476.09,298.76Z"/><circle class="cls-4" cx="476.09" cy="336.26" r="180"/><path class="cls-5" d="M476.09,516.26a179.17,179.17,0,0,0,90-24.09l-90-155.91-90,155.91A179.18,179.18,0,0,0,476.09,516.26Z"/><path class="cls-6" d="M656.09,336.26h-180l90,155.91A180,180,0,0,0,656.09,336.26Z"/><path class="cls-7" d="M386.07,492.17l90-155.91h-180A179.94,179.94,0,0,0,386.07,492.17Z"/><path class="cls-8" d="M566.1,180.35l-90,155.91h180A180,180,0,0,0,566.1,180.35Z"/><path class="cls-9" d="M386.07,180.35a179.94,179.94,0,0,0-90,155.91h180Z"/><path class="cls-10" d="M476.09,156.26a179.18,179.18,0,0,0-90,24.09l90,155.91,90-155.91A179.17,179.17,0,0,0,476.09,156.26Z"/><ellipse class="cls-11" cx="476.09" cy="336.26" rx="162" ry="8.1"/><ellipse class="cls-11" cx="476.09" cy="336.26" rx="162" ry="8.1" transform="translate(-27.5 42.77) rotate(-5)"/><ellipse class="cls-11" cx="476.09" cy="336.26" rx="162" ry="8.1" transform="translate(-51.16 87.78) rotate(-10)"/><ellipse class="cls-11" cx="476.09" cy="336.26" rx="162" ry="8.1" transform="translate(-70.81 134.68) rotate(-15)"/><ellipse class="cls-11" cx="476.09" cy="336.26" rx="162" ry="8.1" transform="translate(-86.3 183.11) rotate(-20)"/><ellipse class="cls-11" cx="476.09" cy="336.26" rx="162" ry="8.1" transform="translate(-97.5 232.71) rotate(-25)"/><ellipse class="cls-11" cx="476.09" cy="336.26" rx="162" ry="8.1" transform="translate(-104.35 283.09) rotate(-30)"/><ellipse class="cls-11" cx="476.09" cy="336.26" rx="162" ry="8.1" transform="translate(-106.77 333.88) rotate(-35)"/><ellipse class="cls-11" cx="476.09" cy="336.26" rx="162" ry="8.1" transform="translate(-104.76 384.69) rotate(-40)"/><ellipse class="cls-11" cx="476.09" cy="336.26" rx="162" ry="8.1" transform="translate(-98.33 435.13) rotate(-45)"/><ellipse class="cls-11" cx="476.09" cy="336.26" rx="162" ry="8.1" transform="translate(-87.53 484.82) rotate(-50)"/><ellipse class="cls-11" cx="476.09" cy="336.26" rx="162" ry="8.1" transform="translate(-72.43 533.38) rotate(-55)"/><ellipse class="cls-11" cx="476.09" cy="336.26" rx="162" ry="8.1" transform="translate(-53.17 580.43) rotate(-60)"/><ellipse class="cls-11" cx="476.09" cy="336.26" rx="162" ry="8.1" transform="translate(-29.87 625.63) rotate(-65)"/><ellipse class="cls-11" cx="476.09" cy="336.26" rx="162" ry="8.1" transform="translate(-2.73 668.63) rotate(-70)"/><ellipse class="cls-11" cx="476.09" cy="336.26" rx="162" ry="8.1" transform="matrix(0.26, -0.97, 0.97, 0.26, 28.06, 709.09)"/><ellipse class="cls-11" cx="476.09" cy="336.26" rx="162" ry="8.1" transform="translate(62.26 746.72) rotate(-80)"/><ellipse class="cls-11" cx="476.09" cy="336.26" rx="162" ry="8.1" transform="translate(99.61 781.23) rotate(-85)"/><ellipse class="cls-11" cx="476.09" cy="336.26" rx="8.1" ry="162"/><ellipse class="cls-11" cx="476.09" cy="336.26" rx="8.1" ry="162" transform="translate(-27.5 42.77) rotate(-5)"/><ellipse class="cls-11" cx="476.09" cy="336.26" rx="8.1" ry="162" transform="translate(-51.16 87.78) rotate(-10)"/><ellipse class="cls-11" cx="476.09" cy="336.26" rx="8.1" ry="162" transform="translate(-70.81 134.68) rotate(-15)"/><ellipse class="cls-11" cx="476.09" cy="336.26" rx="8.1" ry="162" transform="translate(-86.3 183.11) rotate(-20)"/><ellipse class="cls-11" cx="476.09" cy="336.26" rx="8.1" ry="162" transform="translate(-97.5 232.71) rotate(-25)"/><ellipse class="cls-11" cx="476.09" cy="336.26" rx="8.1" ry="162" transform="matrix(0.87, -0.5, 0.5, 0.87, -104.35, 283.09)"/><ellipse class="cls-11" cx="476.09" cy="336.26" rx="8.1" ry="162" transform="translate(-106.77 333.88) rotate(-35)"/><ellipse class="cls-11" cx="476.09" cy="336.26" rx="8.1" ry="162" transform="translate(-104.76 384.69) rotate(-40)"/><ellipse class="cls-11" cx="476.09" cy="336.26" rx="8.1" ry="162" transform="translate(-98.33 435.13) rotate(-45)"/><ellipse class="cls-11" cx="476.09" cy="336.26" rx="8.1" ry="162" transform="translate(-87.53 484.82) rotate(-50)"/><ellipse class="cls-11" cx="476.09" cy="336.26" rx="8.1" ry="162" transform="translate(-72.43 533.38) rotate(-55)"/><ellipse class="cls-11" cx="476.09" cy="336.26" rx="8.1" ry="162" transform="translate(-53.17 580.43) rotate(-60)"/><ellipse class="cls-11" cx="476.09" cy="336.26" rx="8.1" ry="162" transform="translate(-29.87 625.63) rotate(-65)"/><ellipse class="cls-11" cx="476.09" cy="336.26" rx="8.1" ry="162" transform="translate(-2.73 668.63) rotate(-70)"/><ellipse class="cls-11" cx="476.09" cy="336.26" rx="8.1" ry="162" transform="matrix(0.26, -0.97, 0.97, 0.26, 28.06, 709.09)"/><ellipse class="cls-11" cx="476.09" cy="336.26" rx="8.1" ry="162" transform="translate(62.26 746.72) rotate(-80)"/><ellipse class="cls-11" cx="476.09" cy="336.26" rx="8.1" ry="162" transform="translate(99.61 781.23) rotate(-85)"/><circle class="cls-12" cx="476.09" cy="336.26" r="72"/><g class="cls-13"><circle class="cls-14" cx="471.46" cy="323.4" r="15.43"/><circle class="cls-15" cx="445.74" cy="256.55" r="30.86"/></g><path class="cls-16" d="M919.46,337.28a1.13,1.13,0,0,0,0-2.22c-91.88-15.65-166.19,13.1-263.37,98.7-16.82,14.81-49.29,44.58-67.5,60-117,99.15-279.17,90.75-359.11,12.68a.2.2,0,0,0-.3.25C283.32,585,373.71,636.26,476.09,636.26c103.11,0,194.06-52,248.06-131.25C774.76,423.28,836,351.74,919.46,337.28Z"/><path class="cls-17" d="M591.59,498.26c18.21-15.42,50.73-45.14,67.5-60C761.68,347.34,829.27,325.05,917.32,334.7c-90.9-14.84-164.8,14.13-261.23,99.06-16.82,14.81-49.29,44.58-67.5,60-116.22,98.45-276.89,90.86-357.42,14.32C311.46,590.32,473.84,598,591.59,498.26Z"/><path class="cls-18" d="M32.71,335.24a1.13,1.13,0,0,0,0,2.22c91.88,15.65,166.19-13.1,263.38-98.7,16.81-14.81,49.29-44.57,67.5-60C480.63,79.61,642.75,88,722.7,166.08a.19.19,0,0,0,.29-.25C668.86,87.55,578.47,36.26,476.09,36.26,373,36.26,282,88.29,228,167.51,177.42,249.24,116.2,320.78,32.71,335.24Z"/><path class="cls-17" d="M360.59,174.26c-18.21,15.43-50.73,45.14-67.5,60C190.49,325.18,122.9,347.47,34.86,337.82c90.89,14.84,164.8-14.13,261.23-99.06,16.81-14.81,49.29-44.57,67.5-60C479.8,80.31,640.48,87.9,721,164.45,640.71,82.2,478.34,74.51,360.59,174.26Z"/></g></g></g></svg>