<svg xmlns="http://www.w3.org/2000/svg" xmlns:xlink="http://www.w3.org/1999/xlink" viewBox="0 0 676 676"><defs><style>.cls-1{isolation:isolate;}.cls-2{fill:url(#linear-gradient);}.cls-3{fill:url(#linear-gradient-2);}.cls-4{fill:#4c5054;}.cls-5{fill:url(#linear-gradient-3);}.cls-6{fill:url(#linear-gradient-4);}.cls-7{fill:url(#linear-gradient-5);}.cls-8{fill:url(#linear-gradient-6);}.cls-9{fill:url(#linear-gradient-7);}.cls-10{fill:url(#linear-gradient-8);}.cls-11{fill:#fff;opacity:0.25;}.cls-11,.cls-20,.cls-25{mix-blend-mode:soft-light;}.cls-12{fill:#14283c;}.cls-13{mix-blend-mode:hard-light;}.cls-14{opacity:0.85;fill:url(#linear-gradient-9);}.cls-15{fill:url(#linear-gradient-10);}.cls-16{opacity:0.9;mix-blend-mode:multiply;fill:url(#linear-gradient-11);}.cls-17{fill:url(#linear-gradient-12);}.cls-18,.cls-23{opacity:0.75;}.cls-18{fill:url(#linear-gradient-13);}.cls-19{fill:url(#linear-gradient-14);}.cls-20{opacity:0.05;fill:url(#linear-gradient-15);}.cls-21,.cls-25,.cls-26{opacity:0.2;}.cls-21{fill:url(#linear-gradient-16);}.cls-22{fill:url(#linear-gradient-17);}.cls-23{fill:url(#linear-gradient-18);}.cls-24{fill:url(#linear-gradient-19);}.cls-25{fill:url(#linear-gradient-20);}.cls-26{fill:url(#linear-gradient-21);}</style><linearGradient id="linear-gradient" x1="-157.99" y1="-4302.91" x2="72.27" y2="-3904.09" gradientTransform="translate(282.52 -3667.48) rotate(180)" gradientUnits="userSpaceOnUse"><stop offset="0.7" stop-color="#1c2834"/><stop offset="1" stop-color="#44505c"/></linearGradient><linearGradient id="linear-gradient-2" x1="472.27" y1="455.91" x2="242.01" y2="57.09" gradientUnits="userSpaceOnUse"><stop offset="0" stop-color="#44505c"/><stop offset="0.3" stop-color="#1c2834"/></linearGradient><linearGradient id="linear-gradient-3" x1="422.16" y1="428.86" x2="638.84" y2="428.86" gradientTransform="translate(-159.28 -19.29) rotate(5)" gradientUnits="userSpaceOnUse"><stop offset="0.2" stop-color="#8c00ff"/><stop offset="0.8" stop-color="#2878ff"/></linearGradient><linearGradient id="linear-gradient-4" x1="570.16" y1="468.53" x2="678.49" y2="280.89" gradientTransform="translate(-159.28 -19.29) rotate(5)" gradientUnits="userSpaceOnUse"><stop offset="0.2" stop-color="#2878ff"/><stop offset="0.8" stop-color="#3cb478"/></linearGradient><linearGradient id="linear-gradient-5" x1="490.84" y1="468.53" x2="382.51" y2="280.89" gradientTransform="translate(-159.28 -19.29) rotate(5)" gradientUnits="userSpaceOnUse"><stop offset="0.2" stop-color="#8c00ff"/><stop offset="0.8" stop-color="#f000b4"/></linearGradient><linearGradient id="linear-gradient-6" x1="678.49" y1="360.18" x2="570.16" y2="172.54" gradientTransform="translate(-159.28 -19.29) rotate(5)" gradientUnits="userSpaceOnUse"><stop offset="0.2" stop-color="#3cb478"/><stop offset="0.8" stop-color="#dcdc00"/></linearGradient><linearGradient id="linear-gradient-7" x1="382.51" y1="360.18" x2="490.84" y2="172.54" gradientTransform="translate(-159.28 -19.29) rotate(5)" gradientUnits="userSpaceOnUse"><stop offset="0.2" stop-color="#f000b4"/><stop offset="0.8" stop-color="#ff8c28"/></linearGradient><linearGradient id="linear-gradient-8" x1="422.16" y1="212.21" x2="638.84" y2="212.21" gradientTransform="translate(-159.28 -19.29) rotate(5)" gradientUnits="userSpaceOnUse"><stop offset="0.2" stop-color="#ff8c28"/><stop offset="0.8" stop-color="#dcdc00"/></linearGradient><linearGradient id="linear-gradient-9" x1="524.93" y1="323.63" x2="524.93" y2="286.49" gradientTransform="translate(-159.28 -19.29) rotate(5)" gradientUnits="userSpaceOnUse"><stop offset="0" stop-color="#b4dcf0"/><stop offset="1" stop-color="#e6f0f5"/></linearGradient><linearGradient id="linear-gradient-10" x1="493.98" y1="261.73" x2="493.98" y2="187.45" xlink:href="#linear-gradient-9"/><linearGradient id="linear-gradient-11" x1="622.08" y1="516.94" x2="438.92" y2="124.13" gradientTransform="translate(-159.28 -19.29) rotate(5)" gradientUnits="userSpaceOnUse"><stop offset="0.1" stop-color="#303c48"/><stop offset="0.35" stop-color="#fff"/><stop offset="0.65" stop-color="#fff"/><stop offset="0.85" stop-color="#303c48"/></linearGradient><linearGradient id="linear-gradient-12" x1="9.84" y1="-4185.17" x2="-543.04" y2="-4037.03" gradientTransform="translate(441.81 -3648.19) rotate(-175)" gradientUnits="userSpaceOnUse"><stop offset="0" stop-color="#44505c"/><stop offset="0.5" stop-color="#303c48"/><stop offset="1" stop-color="#44505c"/></linearGradient><linearGradient id="linear-gradient-13" x1="-268.08" y1="-4287.4" x2="-241.87" y2="-3987.82" gradientTransform="translate(441.81 -3648.19) rotate(-175)" gradientUnits="userSpaceOnUse"><stop offset="0" stop-color="#1c2834" stop-opacity="0.75"/><stop offset="1" stop-color="#586470"/></linearGradient><linearGradient id="linear-gradient-14" x1="38.06" y1="-4111.93" x2="-543.34" y2="-4061.07" gradientTransform="translate(441.81 -3648.19) rotate(-175)" gradientUnits="userSpaceOnUse"><stop offset="0" stop-color="#3a4652"/><stop offset="0.3" stop-color="#586470"/><stop offset="0.6" stop-color="#303c48"/><stop offset="0.94" stop-color="#626e7a"/><stop offset="1" stop-color="#44505c"/></linearGradient><linearGradient id="linear-gradient-15" x1="-210.65" y1="-4331.21" x2="-491.1" y2="-3996.97" gradientTransform="translate(441.81 -3648.19) rotate(-175)" gradientUnits="userSpaceOnUse"><stop offset="0" stop-color="#1c2834" stop-opacity="0.75"/><stop offset="1" stop-color="#44505c" stop-opacity="0.5"/></linearGradient><linearGradient id="linear-gradient-16" x1="-539.89" y1="-4093.07" x2="45.52" y2="-4093.07" gradientTransform="translate(441.81 -3648.19) rotate(-175)" gradientUnits="userSpaceOnUse"><stop offset="0" stop-color="#9ca0a4"/><stop offset="0.6" stop-color="#fff"/><stop offset="1" stop-color="#9ca0a4"/></linearGradient><linearGradient id="linear-gradient-17" x1="235.44" y1="271.52" x2="788.31" y2="123.38" gradientTransform="translate(-159.28 -19.29) rotate(5)" gradientUnits="userSpaceOnUse"><stop offset="0" stop-color="#44505c"/><stop offset="0.65" stop-color="#586470"/><stop offset="1" stop-color="#44505c"/></linearGradient><linearGradient id="linear-gradient-18" x1="533.35" y1="314.96" x2="533.35" y2="20.55" gradientTransform="translate(-159.28 -19.29) rotate(5)" gradientUnits="userSpaceOnUse"><stop offset="0" stop-color="#1c2834"/><stop offset="1" stop-color="#586470"/></linearGradient><linearGradient id="linear-gradient-19" x1="235.14" y1="247.48" x2="816.54" y2="196.61" gradientTransform="translate(-159.28 -19.29) rotate(5)" gradientUnits="userSpaceOnUse"><stop offset="0" stop-color="#6c7884"/><stop offset="0.35" stop-color="#303c48"/><stop offset="1" stop-color="#4e5a66"/></linearGradient><linearGradient id="linear-gradient-20" x1="286.94" y1="312.75" x2="568.5" y2="-22.81" gradientTransform="translate(-159.28 -19.29) rotate(5)" gradientUnits="userSpaceOnUse"><stop offset="0" stop-color="#a8b4c0" stop-opacity="0"/><stop offset="0.75" stop-color="#fff" stop-opacity="0.5"/><stop offset="1" stop-color="#a8b4c0" stop-opacity="0.1"/></linearGradient><linearGradient id="linear-gradient-21" x1="238.59" y1="215.47" x2="823.99" y2="215.47" gradientTransform="translate(-159.28 -19.29) rotate(5)" xlink:href="#linear-gradient-16"/></defs><g class="cls-1"><g id="ARTWORK"><g id="_1" data-name="1"><path class="cls-2" d="M41.26,346.26c0-23.33,25.38-24.93,32-1.33,25.75,91.75,132.61,175.14,316,132.66,162.89-37.72,242.44-45.15,225.27-7.36-47.18,103.83-151.79,176-273.27,176C175.58,646.26,41.26,512,41.26,346.26Z"/><path class="cls-3" d="M641.26,346.26c0,23.33-25.38,24.94-32,1.33-25.74-91.75-132.61-175.14-316-132.66C130.37,252.65,50.82,260.08,68,222.29c47.18-103.83,151.79-176,273.27-176C507,46.26,641.26,180.58,641.26,346.26Z"/><circle class="cls-4" cx="341.26" cy="346.26" r="216.65"/><path class="cls-5" d="M322.38,562.09a215.59,215.59,0,0,0,110.46-19.45L341.26,346.26,217,523.76A215.61,215.61,0,0,0,322.38,562.09Z"/><path class="cls-6" d="M557.09,365.14,341.26,346.26l91.58,196.38A216.56,216.56,0,0,0,557.09,365.14Z"/><path class="cls-7" d="M217,523.76l124.28-177.5L125.43,327.38A216.56,216.56,0,0,0,217,523.76Z"/><path class="cls-8" d="M465.55,168.76,341.26,346.26l215.83,18.88A216.58,216.58,0,0,0,465.55,168.76Z"/><path class="cls-9" d="M249.69,149.88a216.57,216.57,0,0,0-124.26,177.5l215.83,18.88Z"/><path class="cls-10" d="M360.14,130.43a215.64,215.64,0,0,0-110.45,19.45l91.57,196.38,124.29-177.5A215.78,215.78,0,0,0,360.14,130.43Z"/><ellipse class="cls-11" cx="341.26" cy="346.26" rx="9.75" ry="194.99" transform="translate(-33.43 656.04) rotate(-85)"/><ellipse class="cls-11" cx="341.26" cy="346.26" rx="194.99" ry="9.75"/><ellipse class="cls-11" cx="341.26" cy="346.26" rx="194.99" ry="9.75" transform="translate(-28.88 31.06) rotate(-5)"/><ellipse class="cls-11" cx="341.26" cy="346.26" rx="194.99" ry="9.75" transform="translate(-54.94 64.52) rotate(-10)"/><ellipse class="cls-11" cx="341.26" cy="346.26" rx="194.99" ry="9.75" transform="translate(-77.99 100.12) rotate(-15)"/><ellipse class="cls-11" cx="341.26" cy="346.26" rx="194.99" ry="9.75" transform="translate(-97.85 137.6) rotate(-20)"/><ellipse class="cls-11" cx="341.26" cy="346.26" rx="194.99" ry="9.75" transform="translate(-114.36 176.67) rotate(-25)"/><ellipse class="cls-11" cx="341.26" cy="346.26" rx="194.99" ry="9.75" transform="matrix(0.87, -0.5, 0.5, 0.87, -127.41, 217.02)"/><ellipse class="cls-11" cx="341.26" cy="346.26" rx="194.99" ry="9.75" transform="translate(-136.89 258.36) rotate(-35)"/><ellipse class="cls-11" cx="341.26" cy="346.26" rx="194.99" ry="9.75" transform="translate(-142.73 300.37) rotate(-40)"/><ellipse class="cls-11" cx="341.26" cy="346.26" rx="194.99" ry="9.75" transform="translate(-144.89 342.73) rotate(-45)"/><ellipse class="cls-11" cx="341.26" cy="346.26" rx="194.99" ry="9.75" transform="translate(-143.35 385.11) rotate(-50)"/><ellipse class="cls-11" cx="341.26" cy="346.26" rx="194.99" ry="9.75" transform="translate(-138.12 427.2) rotate(-55)"/><ellipse class="cls-11" cx="341.26" cy="346.26" rx="194.99" ry="9.75" transform="translate(-129.24 468.67) rotate(-60)"/><ellipse class="cls-11" cx="341.26" cy="346.26" rx="194.99" ry="9.75" transform="translate(-116.78 509.21) rotate(-65)"/><ellipse class="cls-11" cx="341.26" cy="346.26" rx="194.99" ry="9.75" transform="translate(-100.84 548.51) rotate(-70)"/><ellipse class="cls-11" cx="341.26" cy="346.26" rx="194.99" ry="9.75" transform="translate(-81.53 586.27) rotate(-75)"/><ellipse class="cls-11" cx="341.26" cy="346.26" rx="194.99" ry="9.75" transform="translate(-59 622.21) rotate(-80)"/><ellipse class="cls-11" cx="341.26" cy="346.26" rx="194.99" ry="9.75" transform="translate(-33.43 656.04) rotate(-85)"/><ellipse class="cls-11" cx="341.26" cy="346.26" rx="9.75" ry="194.99"/><ellipse class="cls-11" cx="341.26" cy="346.26" rx="9.75" ry="194.99" transform="translate(-28.88 31.06) rotate(-5)"/><ellipse class="cls-11" cx="341.26" cy="346.26" rx="9.75" ry="194.99" transform="matrix(0.98, -0.17, 0.17, 0.98, -54.94, 64.52)"/><ellipse class="cls-11" cx="341.26" cy="346.26" rx="9.75" ry="194.99" transform="translate(-77.99 100.12) rotate(-15)"/><ellipse class="cls-11" cx="341.26" cy="346.26" rx="9.75" ry="194.99" transform="translate(-97.85 137.6) rotate(-20)"/><ellipse class="cls-11" cx="341.26" cy="346.26" rx="9.75" ry="194.99" transform="translate(-114.36 176.67) rotate(-25)"/><ellipse class="cls-11" cx="341.26" cy="346.26" rx="9.75" ry="194.99" transform="matrix(0.87, -0.5, 0.5, 0.87, -127.41, 217.02)"/><ellipse class="cls-11" cx="341.26" cy="346.26" rx="9.75" ry="194.99" transform="translate(-136.89 258.36) rotate(-35)"/><ellipse class="cls-11" cx="341.26" cy="346.26" rx="9.75" ry="194.99" transform="translate(-142.73 300.37) rotate(-40)"/><ellipse class="cls-11" cx="341.26" cy="346.26" rx="9.75" ry="194.99" transform="translate(-144.89 342.73) rotate(-45)"/><ellipse class="cls-11" cx="341.26" cy="346.26" rx="9.75" ry="194.99" transform="matrix(0.64, -0.77, 0.77, 0.64, -143.35, 385.11)"/><ellipse class="cls-11" cx="341.26" cy="346.26" rx="9.75" ry="194.99" transform="translate(-138.12 427.2) rotate(-55)"/><ellipse class="cls-11" cx="341.26" cy="346.26" rx="9.75" ry="194.99" transform="translate(-129.24 468.67) rotate(-60)"/><ellipse class="cls-11" cx="341.26" cy="346.26" rx="9.75" ry="194.99" transform="translate(-116.78 509.21) rotate(-65)"/><ellipse class="cls-11" cx="341.26" cy="346.26" rx="9.75" ry="194.99" transform="translate(-100.84 548.51) rotate(-70)"/><ellipse class="cls-11" cx="341.26" cy="346.26" rx="9.75" ry="194.99" transform="matrix(0.26, -0.97, 0.97, 0.26, -81.53, 586.27)"/><ellipse class="cls-11" cx="341.26" cy="346.26" rx="9.75" ry="194.99" transform="translate(-59 622.21) rotate(-80)"/><circle class="cls-12" cx="341.26" cy="346.26" r="91.66"/><g class="cls-13"><circle class="cls-14" cx="337.06" cy="330.36" r="18.57"/><circle class="cls-15" cx="313.24" cy="247.5" r="37.14"/></g><circle class="cls-16" cx="341.26" cy="346.26" r="216.65"/><path class="cls-17" d="M315.12,645.1C450.45,656.94,572.63,577,620.2,456.8c26.65-69.58-10.91-89.89-52.6-81.7-60.11,11.8-152,116.07-286.17,133C141.91,525.75,54.67,440.3,43.53,346.54a1.14,1.14,0,0,0-2.27.14C41.3,500.5,159,631.44,315.12,645.1Z"/><path class="cls-18" d="M315.12,645.1C450.45,656.94,572.63,577,620.2,456.8c26.65-69.58-10.91-89.89-52.6-81.7-60.11,11.8-152,116.07-286.17,133C141.91,525.75,54.67,440.3,43.53,346.54a1.14,1.14,0,0,0-2.27.14C41.3,500.5,159,631.44,315.12,645.1Z"/><path class="cls-19" d="M45.51,359.24c10.94,93.09,89.66,186.37,236.17,169,141-16.74,221.83-109,286.34-135,38.88-15.66,74.11,1.7,52.18,63.6,26.65-69.58-10.91-89.89-52.6-81.7-60.11,11.8-152,116.07-286.17,133C148.24,525,62.69,447.84,45.51,359.24Z"/><path class="cls-20" d="M315.12,645.1C450.45,656.94,572.63,577,620.2,456.8c26.65-69.58-38.85-47.78-68.45-17.3C513.36,479,466.67,530.73,393.34,564.39c-133.06,61.09-240.16,26.23-175.8,55.24A299.48,299.48,0,0,0,315.12,645.1Z"/><path class="cls-21" d="M620.2,456.8c23.12-62.91-13.56-81-52.48-65.46-64.79,25.9-145.34,118.17-286.32,134.92-146.51,17.39-224.9-76.43-235.89-167,10.94,93.09,89.66,186.37,236.17,169,141-16.74,221.83-109,286.34-135C606.9,377.54,642.13,394.9,620.2,456.8Z"/><path class="cls-22" d="M367.41,47.42C232.07,35.58,109.89,115.55,62.33,235.73c-26.66,69.57,10.91,89.88,52.6,81.7,60.11-11.81,152-116.08,286.16-133C540.61,166.77,627.85,252.22,639,346a1.14,1.14,0,0,0,2.27-.14C641.22,192,523.53,61.08,367.41,47.42Z"/><path class="cls-23" d="M367.41,47.42C232.07,35.58,109.89,115.55,62.33,235.73c-26.66,69.57,10.91,89.88,52.6,81.7,60.11-11.81,152-116.08,286.16-133C540.61,166.77,627.85,252.22,639,346a1.14,1.14,0,0,0,2.27-.14C641.22,192,523.53,61.08,367.41,47.42Z"/><path class="cls-24" d="M637,333.29c-10.94-93.1-89.66-186.38-236.17-169-141,16.74-221.83,109-286.34,135C75.62,315,40.39,297.63,62.33,235.73c-26.66,69.57,10.91,89.88,52.6,81.7,60.11-11.81,152-116.08,286.16-133C534.28,167.57,619.83,244.68,637,333.29Z"/><path class="cls-25" d="M367.41,47.42C232.07,35.58,109.89,115.55,62.33,235.73c-26.66,69.57,42.08,57.61,69.94,25.54,36.55-42.08,95.27-97.59,167-132C431.27,66,529.34,101.91,465,72.89A299.48,299.48,0,0,0,367.41,47.42Z"/><path class="cls-26" d="M62.33,235.73c-23.12,62.9,13.55,81,52.47,65.46C179.59,275.28,260.14,183,401.13,166.27,547.64,148.87,626,242.69,637,333.29c-10.94-93.1-89.66-186.38-236.17-169-141,16.74-221.83,109-286.34,135C75.62,315,40.39,297.63,62.33,235.73Z"/></g></g></g></svg>