<svg xmlns="http://www.w3.org/2000/svg" xmlns:xlink="http://www.w3.org/1999/xlink" viewBox="0 0 676 676"><defs><style>.cls-1{isolation:isolate;}.cls-2{fill:url(#linear-gradient);}.cls-3{fill:url(#linear-gradient-2);}.cls-4{fill:url(#radial-gradient);}.cls-5{fill:#fff;opacity:0.25;}.cls-13,.cls-18,.cls-5{mix-blend-mode:soft-light;}.cls-6{fill:#14283c;}.cls-7{opacity:0.8;fill:url(#linear-gradient-3);}.cls-8{fill:url(#linear-gradient-4);}.cls-9{opacity:0.9;mix-blend-mode:multiply;fill:url(#linear-gradient-5);}.cls-10{fill:url(#linear-gradient-6);}.cls-11,.cls-16{opacity:0.75;}.cls-11{fill:url(#linear-gradient-7);}.cls-12{fill:url(#linear-gradient-8);}.cls-13{opacity:0.05;fill:url(#linear-gradient-9);}.cls-14,.cls-18,.cls-19{opacity:0.2;}.cls-14{fill:url(#linear-gradient-10);}.cls-15{fill:url(#linear-gradient-11);}.cls-16{fill:url(#linear-gradient-12);}.cls-17{fill:url(#linear-gradient-13);}.cls-18{fill:url(#linear-gradient-14);}.cls-19{fill:url(#linear-gradient-15);}</style><linearGradient id="linear-gradient" x1="-167.99" y1="-4292.91" x2="62.27" y2="-3894.09" gradientTransform="translate(282.52 -3667.48) rotate(180)" gradientUnits="userSpaceOnUse"><stop offset="0.7" stop-color="#1c2834"/><stop offset="1" stop-color="#44505c"/></linearGradient><linearGradient id="linear-gradient-2" x1="482.27" y1="445.91" x2="252.01" y2="47.09" gradientUnits="userSpaceOnUse"><stop offset="0" stop-color="#44505c"/><stop offset="0.3" stop-color="#1c2834"/></linearGradient><radialGradient id="radial-gradient" cx="351.26" cy="336.26" r="216.67" gradientUnits="userSpaceOnUse"><stop offset="0" stop-color="#28a0dc"/><stop offset="1" stop-color="#148cc8"/></radialGradient><linearGradient id="linear-gradient-3" x1="345.07" y1="336.26" x2="345.07" y2="299.12" gradientUnits="userSpaceOnUse"><stop offset="0" stop-color="#b4dcf0"/><stop offset="1" stop-color="#e6f0f5"/></linearGradient><linearGradient id="linear-gradient-4" x1="314.12" y1="274.36" x2="314.12" y2="200.07" xlink:href="#linear-gradient-3"/><linearGradient id="linear-gradient-5" x1="631.17" y1="506.1" x2="448.01" y2="113.3" gradientTransform="translate(-159.28 -19.29) rotate(5)" gradientUnits="userSpaceOnUse"><stop offset="0.1" stop-color="#303c48"/><stop offset="0.35" stop-color="#fff"/><stop offset="0.65" stop-color="#fff"/><stop offset="0.85" stop-color="#303c48"/></linearGradient><linearGradient id="linear-gradient-6" x1="0.75" y1="-4174.34" x2="-552.13" y2="-4026.19" gradientTransform="translate(441.81 -3648.19) rotate(-175)" gradientUnits="userSpaceOnUse"><stop offset="0" stop-color="#44505c"/><stop offset="0.5" stop-color="#303c48"/><stop offset="1" stop-color="#44505c"/></linearGradient><linearGradient id="linear-gradient-7" x1="-277.17" y1="-4276.57" x2="-250.96" y2="-3976.98" gradientTransform="translate(441.81 -3648.19) rotate(-175)" gradientUnits="userSpaceOnUse"><stop offset="0" stop-color="#1c2834" stop-opacity="0.75"/><stop offset="1" stop-color="#586470"/></linearGradient><linearGradient id="linear-gradient-8" x1="28.97" y1="-4101.1" x2="-552.43" y2="-4050.23" gradientTransform="translate(441.81 -3648.19) rotate(-175)" gradientUnits="userSpaceOnUse"><stop offset="0" stop-color="#3a4652"/><stop offset="0.3" stop-color="#586470"/><stop offset="0.6" stop-color="#303c48"/><stop offset="0.94" stop-color="#626e7a"/><stop offset="1" stop-color="#44505c"/></linearGradient><linearGradient id="linear-gradient-9" x1="-219.74" y1="-4320.38" x2="-500.19" y2="-3986.14" gradientTransform="translate(441.81 -3648.19) rotate(-175)" gradientUnits="userSpaceOnUse"><stop offset="0" stop-color="#1c2834" stop-opacity="0.75"/><stop offset="1" stop-color="#44505c" stop-opacity="0.5"/></linearGradient><linearGradient id="linear-gradient-10" x1="-548.98" y1="-4082.24" x2="36.42" y2="-4082.24" gradientTransform="translate(441.81 -3648.19) rotate(-175)" gradientUnits="userSpaceOnUse"><stop offset="0" stop-color="#9ca0a4"/><stop offset="0.6" stop-color="#fff"/><stop offset="1" stop-color="#9ca0a4"/></linearGradient><linearGradient id="linear-gradient-11" x1="244.53" y1="260.69" x2="797.4" y2="112.54" gradientTransform="translate(-159.28 -19.29) rotate(5)" gradientUnits="userSpaceOnUse"><stop offset="0" stop-color="#44505c"/><stop offset="0.65" stop-color="#586470"/><stop offset="1" stop-color="#44505c"/></linearGradient><linearGradient id="linear-gradient-12" x1="542.44" y1="304.13" x2="542.44" y2="9.72" gradientTransform="translate(-159.28 -19.29) rotate(5)" gradientUnits="userSpaceOnUse"><stop offset="0" stop-color="#1c2834"/><stop offset="1" stop-color="#586470"/></linearGradient><linearGradient id="linear-gradient-13" x1="244.23" y1="236.65" x2="825.63" y2="185.78" gradientTransform="translate(-159.28 -19.29) rotate(5)" gradientUnits="userSpaceOnUse"><stop offset="0" stop-color="#6c7884"/><stop offset="0.35" stop-color="#303c48"/><stop offset="1" stop-color="#4e5a66"/></linearGradient><linearGradient id="linear-gradient-14" x1="296.03" y1="301.91" x2="577.59" y2="-33.64" gradientTransform="translate(-159.28 -19.29) rotate(5)" gradientUnits="userSpaceOnUse"><stop offset="0" stop-color="#a8b4c0" stop-opacity="0"/><stop offset="0.75" stop-color="#fff" stop-opacity="0.5"/><stop offset="1" stop-color="#a8b4c0" stop-opacity="0.1"/></linearGradient><linearGradient id="linear-gradient-15" x1="247.68" y1="204.64" x2="833.08" y2="204.64" gradientTransform="translate(-159.28 -19.29) rotate(5)" xlink:href="#linear-gradient-10"/></defs><g class="cls-1"><g id="ARTWORK"><g id="_1" data-name="1"><path class="cls-2" d="M51.26,336.26c0-23.33,25.38-24.93,32-1.33,25.75,91.75,132.61,175.14,316,132.66,162.89-37.72,242.44-45.15,225.27-7.36-47.18,103.83-151.79,176-273.27,176C185.58,636.26,51.26,502,51.26,336.26Z"/><path class="cls-3" d="M651.26,336.26c0,23.33-25.38,24.94-32,1.33-25.74-91.75-132.61-175.14-316-132.66C140.37,242.65,60.82,250.08,78,212.29c47.18-103.83,151.79-176,273.27-176C517,36.26,651.26,170.58,651.26,336.26Z"/><circle class="cls-4" cx="351.26" cy="336.26" r="216.67"/><ellipse class="cls-5" cx="351.26" cy="336.26" rx="201.19" ry="10.06"/><ellipse class="cls-5" cx="351.26" cy="336.26" rx="201.19" ry="10.06" transform="translate(-27.97 31.89) rotate(-5)"/><ellipse class="cls-5" cx="351.26" cy="336.26" rx="201.19" ry="10.06" transform="translate(-53.05 66.1) rotate(-10)"/><ellipse class="cls-5" cx="351.26" cy="336.26" rx="201.19" ry="10.06" transform="translate(-75.06 102.37) rotate(-15)"/><ellipse class="cls-5" cx="351.26" cy="336.26" rx="201.19" ry="10.06" transform="translate(-93.82 140.42) rotate(-20)"/><ellipse class="cls-5" cx="351.26" cy="336.26" rx="201.19" ry="10.06" transform="translate(-109.2 179.95) rotate(-25)"/><ellipse class="cls-5" cx="351.26" cy="336.26" rx="201.19" ry="10.06" transform="matrix(0.87, -0.5, 0.5, 0.87, -121.07, 220.68)"/><ellipse class="cls-5" cx="351.26" cy="336.26" rx="201.19" ry="10.06" transform="translate(-129.35 262.29) rotate(-35)"/><ellipse class="cls-5" cx="351.26" cy="336.26" rx="201.19" ry="10.06" transform="translate(-133.96 304.46) rotate(-40)"/><ellipse class="cls-5" cx="351.26" cy="336.26" rx="201.19" ry="10.06" transform="translate(-134.89 346.87) rotate(-45)"/><ellipse class="cls-5" cx="351.26" cy="336.26" rx="201.19" ry="10.06" transform="translate(-132.12 389.2) rotate(-50)"/><ellipse class="cls-5" cx="351.26" cy="336.26" rx="201.19" ry="10.06" transform="translate(-125.66 431.13) rotate(-55)"/><ellipse class="cls-5" cx="351.26" cy="336.26" rx="201.19" ry="10.06" transform="translate(-115.58 472.33) rotate(-60)"/><ellipse class="cls-5" cx="351.26" cy="336.26" rx="201.19" ry="10.06" transform="translate(-101.94 512.5) rotate(-65)"/><ellipse class="cls-5" cx="351.26" cy="336.26" rx="201.19" ry="10.06" transform="translate(-84.86 551.33) rotate(-70)"/><ellipse class="cls-5" cx="351.26" cy="336.26" rx="201.19" ry="10.06" transform="matrix(0.26, -0.97, 0.97, 0.26, -64.46, 588.52)"/><ellipse class="cls-5" cx="351.26" cy="336.26" rx="201.19" ry="10.06" transform="translate(-40.89 623.79) rotate(-80)"/><ellipse class="cls-5" cx="351.26" cy="336.26" rx="201.19" ry="10.06" transform="translate(-14.33 656.88) rotate(-85)"/><ellipse class="cls-5" cx="351.26" cy="336.26" rx="10.06" ry="201.19"/><ellipse class="cls-5" cx="351.26" cy="336.26" rx="10.06" ry="201.19" transform="translate(-27.97 31.89) rotate(-5)"/><ellipse class="cls-5" cx="351.26" cy="336.26" rx="10.06" ry="201.19" transform="translate(-53.05 66.1) rotate(-10)"/><ellipse class="cls-5" cx="351.26" cy="336.26" rx="10.06" ry="201.19" transform="translate(-75.06 102.37) rotate(-15)"/><ellipse class="cls-5" cx="351.26" cy="336.26" rx="10.06" ry="201.19" transform="translate(-93.82 140.42) rotate(-20)"/><ellipse class="cls-5" cx="351.26" cy="336.26" rx="10.06" ry="201.19" transform="translate(-109.2 179.95) rotate(-25)"/><ellipse class="cls-5" cx="351.26" cy="336.26" rx="10.06" ry="201.19" transform="matrix(0.87, -0.5, 0.5, 0.87, -121.07, 220.68)"/><ellipse class="cls-5" cx="351.26" cy="336.26" rx="10.06" ry="201.19" transform="translate(-129.35 262.29) rotate(-35)"/><ellipse class="cls-5" cx="351.26" cy="336.26" rx="10.06" ry="201.19" transform="translate(-133.96 304.46) rotate(-40)"/><ellipse class="cls-5" cx="351.26" cy="336.26" rx="10.06" ry="201.19" transform="translate(-134.89 346.87) rotate(-45)"/><ellipse class="cls-5" cx="351.26" cy="336.26" rx="10.06" ry="201.19" transform="translate(-132.12 389.2) rotate(-50)"/><ellipse class="cls-5" cx="351.26" cy="336.26" rx="10.06" ry="201.19" transform="translate(-125.66 431.13) rotate(-55)"/><ellipse class="cls-5" cx="351.26" cy="336.26" rx="10.06" ry="201.19" transform="translate(-115.58 472.33) rotate(-60)"/><ellipse class="cls-5" cx="351.26" cy="336.26" rx="10.06" ry="201.19" transform="translate(-101.94 512.5) rotate(-65)"/><ellipse class="cls-5" cx="351.26" cy="336.26" rx="10.06" ry="201.19" transform="translate(-84.86 551.33) rotate(-70)"/><ellipse class="cls-5" cx="351.26" cy="336.26" rx="10.06" ry="201.19" transform="translate(-64.46 588.52) rotate(-75)"/><ellipse class="cls-5" cx="351.26" cy="336.26" rx="10.06" ry="201.19" transform="translate(-40.89 623.79) rotate(-80)"/><ellipse class="cls-5" cx="351.26" cy="336.26" rx="10.06" ry="201.19" transform="translate(-14.33 656.88) rotate(-85)"/><circle class="cls-6" cx="351.26" cy="336.26" r="91.67"/><circle class="cls-7" cx="345.07" cy="317.69" r="18.57"/><circle class="cls-8" cx="314.12" cy="237.21" r="37.14"/><circle class="cls-9" cx="351.26" cy="336.26" r="216.65"/><path class="cls-10" d="M325.12,635.1C460.45,646.94,582.63,567,630.2,446.8c26.65-69.58-10.91-89.89-52.6-81.7-60.11,11.8-152,116.07-286.17,133C151.91,515.75,64.67,430.3,53.53,336.54a1.14,1.14,0,0,0-2.27.14C51.3,490.5,169,621.44,325.12,635.1Z"/><path class="cls-11" d="M325.12,635.1C460.45,646.94,582.63,567,630.2,446.8c26.65-69.58-10.91-89.89-52.6-81.7-60.11,11.8-152,116.07-286.17,133C151.91,515.75,64.67,430.3,53.53,336.54a1.14,1.14,0,0,0-2.27.14C51.3,490.5,169,621.44,325.12,635.1Z"/><path class="cls-12" d="M55.51,349.24c10.94,93.09,89.66,186.37,236.17,169,141-16.74,221.83-109,286.34-135,38.88-15.66,74.11,1.7,52.18,63.6,26.65-69.58-10.91-89.89-52.6-81.7-60.11,11.8-152,116.07-286.17,133C158.24,515,72.69,437.84,55.51,349.24Z"/><path class="cls-13" d="M325.12,635.1C460.45,646.94,582.63,567,630.2,446.8c26.65-69.58-38.85-47.78-68.45-17.3C523.36,469,476.67,520.73,403.34,554.39c-133.06,61.09-240.16,26.23-175.8,55.24A299.48,299.48,0,0,0,325.12,635.1Z"/><path class="cls-14" d="M630.2,446.8c23.12-62.91-13.56-81-52.48-65.46-64.79,25.9-145.34,118.17-286.32,134.92-146.51,17.39-224.9-76.43-235.89-167,10.94,93.09,89.66,186.37,236.17,169,141-16.74,221.83-109,286.34-135C616.9,367.54,652.13,384.9,630.2,446.8Z"/><path class="cls-15" d="M377.41,37.42C242.07,25.58,119.89,105.55,72.33,225.73c-26.66,69.57,10.91,89.88,52.6,81.7,60.11-11.81,152-116.08,286.16-133C550.61,156.77,637.85,242.22,649,336a1.14,1.14,0,0,0,2.27-.14C651.22,182,533.53,51.08,377.41,37.42Z"/><path class="cls-16" d="M377.41,37.42C242.07,25.58,119.89,105.55,72.33,225.73c-26.66,69.57,10.91,89.88,52.6,81.7,60.11-11.81,152-116.08,286.16-133C550.61,156.77,637.85,242.22,649,336a1.14,1.14,0,0,0,2.27-.14C651.22,182,533.53,51.08,377.41,37.42Z"/><path class="cls-17" d="M647,323.29c-10.94-93.1-89.66-186.38-236.17-169-141,16.74-221.83,109-286.34,135C85.62,305,50.39,287.63,72.33,225.73c-26.66,69.57,10.91,89.88,52.6,81.7,60.11-11.81,152-116.08,286.16-133C544.28,157.57,629.83,234.68,647,323.29Z"/><path class="cls-18" d="M377.41,37.42C242.07,25.58,119.89,105.55,72.33,225.73c-26.66,69.57,42.08,57.61,69.94,25.54,36.55-42.08,95.27-97.59,167-132C441.27,56,539.34,91.91,475,62.89A299.48,299.48,0,0,0,377.41,37.42Z"/><path class="cls-19" d="M72.33,225.73c-23.12,62.9,13.55,81,52.47,65.46C189.59,265.28,270.14,173,411.13,156.27,557.64,138.87,636,232.69,647,323.29c-10.94-93.1-89.66-186.38-236.17-169-141,16.74-221.83,109-286.34,135C85.62,305,50.39,287.63,72.33,225.73Z"/></g></g></g></svg>