<svg id="ef144728-5d31-41b5-8cfa-736c5cac3c82" data-name="Ñëîé 4" xmlns="http://www.w3.org/2000/svg" viewBox="0 0 412.5 237.5"><path d="M160.3128,226.0232c-.5826.8407-1.169,1.6743-1.7555,2.5128a14.4137,14.4137,0,0,1-2.0752.5763,9.3806,9.3806,0,0,1-4.46-.0714c-.1333-.0338-.2614-.0762-.3918-.12-2.7795-.973-4.5764-3.4336-5.15-6.942a14.6541,14.6541,0,0,1-.1961-2.1722c.4369-.6746.8738-1.355,1.3106-2.03,8.4831-13.1026,17.2032-26.0467,25.9187-39.0374Q230.3783,93.9619,287.8526,9.6261q.4847-.7146.9726-1.4264c.1822-.0155.3591-.0229.5364-.0309a13.1617,13.1617,0,0,1,5.936,1.0456,9.5579,9.5579,0,0,1,2.908,2.0338,12.1232,12.1232,0,0,1,2.4731,3.777c.068.1443.13.2964.19.4516q-.9818,1.4792-1.9617,2.9576c-7.8538,11.8581-15.7279,23.6981-23.5226,35.59-20.4828,31.261-41.28,62.3214-62.095,93.3695C195.7179,173.6,178.3887,200.15,160.3128,226.0232Z" style="fill:#e08c5d"/><path d="M160.3128,226.0232c-.5826.8407-1.169,1.6743-1.7555,2.5128a14.4137,14.4137,0,0,1-2.0752.5763,9.3806,9.3806,0,0,1-4.46-.0714Q227.28,121.639,298.2056,11.2482a12.1232,12.1232,0,0,1,2.4731,3.777c.068.1443.13.2964.19.4516q-.9818,1.4792-1.9617,2.9576c-7.8538,11.8581-15.7279,23.6981-23.5226,35.59-20.4828,31.261-41.28,62.3214-62.095,93.3695C195.7179,173.6,178.3887,200.15,160.3128,226.0232Z" style="opacity:0.25"/><path d="M288.5471,12.7216Q220.7822,115.7541,153.0143,218.7855C201.2316,152.1689,245.8331,82.9592,288.5471,12.7216Z" style="fill:#fff;opacity:0.5"/><path d="M213.29,147.3935c20.8155-31.0481,41.6122-62.1085,62.095-93.3695,7.7947-11.8915,15.6688-23.7315,23.5226-35.59q.981-1.4781,1.9617-2.9576c-.06-.1552-.1221-.3073-.19-.4516a10.7123,10.7123,0,0,0-5.3811-5.8108,13.1617,13.1617,0,0,0-5.936-1.0456c-.1773.008-.3542.0154-.5364.0309q-.4891.7116-.9726,1.4264Q230.296,93.9147,173.5139,178.739c-8.7155,12.9907-17.4356,25.9348-25.9187,39.0374-.4368.6751-.8737,1.3555-1.3106,2.03a14.6541,14.6541,0,0,0,.1961,2.1722c.5736,3.5084,2.37,5.969,5.15,6.942a9.1789,9.1789,0,0,0,4.8514.1916,14.4137,14.4137,0,0,0,2.0752-.5763c.5865-.8385,1.1729-1.6721,1.7555-2.5128C178.3887,200.15,195.7179,173.6,213.29,147.3935ZM152.98,226.5705c-2.6879-.8516-4.3506-3.3149-5.0644-6.6377,18.6539-26.5968,36.4885-53.9407,54.5789-80.9206,20.8193-31.0458,41.613-62.1084,62.098-93.3668,7.8838-12.0369,15.8513-24.0163,23.7976-36.011a10.6173,10.6173,0,0,1,5.7763,1.7149,12.0129,12.0129,0,0,1,4.57,6.5194l-.0022.0037Q241.1311,102.23,184.3092,187.1206c-8.8309,13.1612-17.6656,26.2695-26.2518,39.551A10.0056,10.0056,0,0,1,152.98,226.5705Z" style="fill:#784b32"/><path d="M286.7049,39.898c.0286-.0474-.0425-.0947-.071-.0523-4.0377,5.0945-7.8763,10.3456-11.6015,15.6865-.2366.3366-.4643.6684-.6965,1.0143-.692,1-1.384,2.0095-2.0662,3.0095-.6115.8863-1.2134,1.7819-1.8152,2.668-.1138.1657-.2227.3269-.3317.4929-.6492.9622-1.2987,1.9336-1.9429,2.9051-.6733,1.0188-1.3506,2.0283-2.0189,3.0426q-2.019,3.05-4.0189,6.1088c-.3934.5875-.7773,1.1706-1.1613,1.763q-3.9169,5.8362-7.7481,11.734l-.0192.0237q-1.2725,1.9192-2.54,3.8386c-.99,1.5023-1.99,3.014-2.976,4.5212q-1.87,2.8362-3.72,5.6869-1.8551,2.8434-3.7011,5.6967c-2.1421,3.3126-4.3176,6.63-6.45,9.9617-.1375.2178-.275.4357-.4125.6584-.2321-.033-.45-.08-.6634-.1281-.2653-.0518-.526-.1134-.7821-.18-.0992-.0237-.1943-.0473-.2938-.0759-.2131-.0521-.417-.1183-.6255-.18-.2371-.071-.4786-.1469-.72-.2416-.1-.0334-.204-.0714-.2987-.1093-.166-.0567-.3272-.1232-.4834-.1894-.038-.0191-.08-.0285-.1139-.0428a18.8278,18.8278,0,0,1-5.8525-3.8671c-.3416-.3317-.6684-.6679-.9764-1.014a21.5017,21.5017,0,0,1-2.0853-2.725c-.2085-.313-.4076-.64-.6019-.9622,2.0046-2.6207,3.782-5.4878,5.6444-8.1325,2.7913-3.9854,5.5164-8.0232,8.2416-12.0466q8.0682-11.8927,16.132-23.7953c9.421-13.8953,18.9278-27.7336,27.89-41.9365.0616-.095.1183-.19.18-.2843.2135.0281.4264.066.64.1088.0665.0189.1281.0286.1942.0474.19.038.37.0758.55.1232.1278.0286.251.0616.3743.0947h.0093c.1.0285.204.0522.2987.0852.1375.038.275.0759.4076.1233.2749.0853.5451.1754.8058.275.4027.1518.8009.3174,1.1845.5023.1661.0758.3321.1566.4977.237.1612.08.3223.1705.4836.2607.1656.0853.3223.18.4834.275.147.09.2983.18.4452.2746l.0334.0192c.45.2888.8908.6112,1.3269.9523a17.062,17.062,0,0,1,2.18,2.0666.952.952,0,0,1,.1184.1232c.01.0094.0142.0187.0236.0282.1139.1232.2276.2558.3366.3933.1563.18.2987.36.4407.54,0,.0049.0094.0143.0094.0237.1473.19.2893.3839.4313.5785.1375.1942.275.3933.4031.5921s.2558.3982.379.6067c.09.1518.18.308.27.46.0665.1138.1326.2322.19.3459.08.147.1612.2983.2415.4456.109.213.218.4264.3224.6492h.0045c.0759.2085.1567.4121.237.6161.0616.1375.1139.2746.1755.417.0285.0567.0567.1232.0852.19-.0945.1184-.19.2416-.2843.36q-1.6206,2.0474-3.2037,4.1137a.1021.1021,0,0,1-.0188.0236q-1.5356,1.9977-3.0618,4.0047c.038-.0616.0808-.1277.1139-.1893C285.6575,41.6467,286.1839,40.77,286.7049,39.898Z" style="fill:#302f2d"/><path d="M403.7383,99.73a.3234.3234,0,0,1,.0236.071c-.1612.3933-.3365.7821-.5071,1.1661a214.9253,214.9253,0,0,1-12.91,25.3781c-.5214.8768-1.0518,1.7438-1.5876,2.6113-.4737.758-.9477,1.521-1.4358,2.28-4.4216,6.9428-9.2129,13.6154-14.2412,20.1224q-.8532,1.1016-1.7109,2.1988c-4.8716,6.2034-9.9286,12.2506-15.0561,18.2317-3.0711,3.5872-6.2936,7.0941-9.4308,10.6769a75.4091,75.4091,0,0,0-4.2891-9.5777,61.7605,61.7605,0,0,0-6.573-9.8952,48.249,48.249,0,0,0-16.279-13.118c-.5879-.28-1.19-.5594-1.7773-.8152l-1.6018-.668c-.6965-.27-1.3885-.5308-2.0854-.7728-7.72-2.7108-15.8476-3.668-24.0413-4.36-6.3223-.5308-12.6869-.9-18.9139-1.796l-1.6827-.2559a63.5445,63.5445,0,0,1-17.6343-5.18,43.4726,43.4726,0,0,1-4.2177-2.313l-.1187-.0755c-.142-.0951-.2889-.19-.4312-.2844-.72-.4647-1.4265-.9527-2.1087-1.4692a.0482.0482,0,0,1-.0237-.0189,37.5248,37.5248,0,0,1-5.9619-5.4975l-.0094-.0049a32.507,32.507,0,0,1-4.014-5.7436c5.4687-8.758,10.843-17.5822,16.4638-26.2361q3.2338-4.99,6.516-9.938c.2228-.3459.4455-.6822.6683-1.0188q8.0469-12.1628,16.36-24.1409c.2746-.4031.5545-.801.834-1.1992q2.3172-3.3409,4.6681-6.6539c3.8243-5.4217,7.5967-10.8715,11.3693-16.3213.0138.0188.0187.0473.033.0709v.0046a27.4746,27.4746,0,0,0,1.8247,3.2417,34.6517,34.6517,0,0,0,7.9,8.5115,46.6574,46.6574,0,0,0,14.5682,7.36l.8482.2608a86.638,86.638,0,0,0,13.9854,2.8532c8.8764,1.1514,17.89,1.3979,26.7335,2.7247v.0049a82.4914,82.4914,0,0,1,8.8193,1.7724,53.3753,53.3753,0,0,1,6.4216,2.1184l.82.46a.4243.4243,0,0,0,.057-.1A47.68,47.68,0,0,1,394.857,81.4411c.071.109.1514.2183.2273.3366A73.6559,73.6559,0,0,1,403.7383,99.73Z" style="fill:#302f2d"/><path d="M405.9085,98.8245c-.104-.2938-.2036-.5973-.3126-.891-.1468-.4644-.3128-.9242-.4834-1.3791a77.2327,77.2327,0,0,0-4.4975-10.1416c-5.2133-9.7153-12.8337-18.1608-22.8521-23.0136-.8532-.4121-1.7157-.796-2.5733-1.1563-.2608-.109-.5309-.2131-.7916-.3175-17.7005-7.0329-37.7992-3.981-55.8982-9.1893-.26-.0661-.5211-.1468-.7769-.2321a53.1233,53.1233,0,0,1-7.6964-2.9524,38.0485,38.0485,0,0,1-16.3928-14.5208c-.0049-.0045,0-.0094-.0049-.0094a16.4371,16.4371,0,0,0-.4263-1.6446c-.0995-.2841-.1991-.564-.3081-.8386a15.138,15.138,0,0,0-1.9906-3.5452c-.0046,0-.0046,0-.0046-.0094h-.0048a15.11,15.11,0,0,0-1.1514-1.3648,18.9608,18.9608,0,0,0-11.2081-5.706c-.2465-.0376-.493-.0662-.7345-.0853-.1232.166-.2514.3317-.37.5026-.0759.1041-.1517.2085-.2276.3081-9.8907,13.5538-19.2408,27.4915-28.6907,41.377q-8.09,11.8788-16.1652,23.7669c-2.7393,4.0238-5.4833,8.0472-8.1561,12.1135-1.64,2.488-3.4784,5-5.09,7.5968-.2322.37-.4549.7344-.6679,1.1134.1184.2183.2322.4456.3505.6541.1232.2183.2419.4407.3746.6589.1232.2085.2509.4121.379.6206,3.0662,4.9,7.6914,8.9523,13.0466,9.4072.2326.0191.46.0286.692.0428a.35.35,0,0,1,.0286.0759c.104.2509.2035.4929.308.7345.19.4312.3884.8576.6018,1.27a33.2982,33.2982,0,0,0,9.521,11.3407c7.303,5.63,16.203,8.36,25.1982,9.8573.5447.095,1.09.18,1.6442.2656.8532.1281,1.7014.2464,2.5591.3553,11.8479,1.5354,23.9374,1.46,35.558,4.507a51.2362,51.2362,0,0,1,6.1132,2c.5358.2085,1.0666.4264,1.5925.6586a47.7273,47.7273,0,0,1,20.6626,17.1936,72.0378,72.0378,0,0,1,8.0612,16.2459c.0758.2179.1517.4358.2276.6443.1232.36.2416.7112.3648,1.0617.0237.0616.0379.1232.0571.1848.1372.3888.27.7866.3979,1.1848.6161-.63,1.2276-1.251,1.8295-1.8956,7.1275-7.4169,13.7623-15.34,20.0608-23.3641q2.2032-2.8146,4.35-5.6726c.5737-.7536,1.1375-1.5166,1.7063-2.2844q8.225-11.1395,15.44-22.9325c.5259-.8531,1.0425-1.7156,1.559-2.5733q3.5259-5.9288,6.7959-12.0327,3.64-6.8174,6.9052-13.82c.142-.2938.2746-.5875.4076-.8768.346-.7393.6872-1.4737,1.0237-2.218C406.1455,99.54,406.0223,99.1844,405.9085,98.8245ZM233.8259,117.9992c-.1375.2178-.275.4357-.4125.6584-.2321-.033-.45-.08-.6634-.1281-.2653-.0518-.526-.1134-.7821-.18-.0992-.0237-.1943-.0473-.2938-.0759-.2131-.0521-.417-.1183-.6255-.18-.2371-.071-.4786-.1469-.72-.2419-.1-.0331-.204-.0711-.2987-.109-.166-.0567-.3272-.1232-.4834-.1894-.038-.0191-.08-.0285-.1139-.0428a18.8278,18.8278,0,0,1-5.8525-3.8671c-.3416-.3317-.6684-.6684-.9764-1.014a21.5017,21.5017,0,0,1-2.0853-2.725c-.2085-.313-.4076-.64-.6019-.9622,2.0046-2.6207,3.782-5.4878,5.6444-8.1325,2.7913-3.9854,5.5164-8.0232,8.2416-12.0466q8.0682-11.8927,16.1316-23.7953c9.4214-13.8953,18.9282-27.7336,27.89-41.9365.0616-.095.1183-.19.18-.2843.2135.0281.4264.066.64.1088.0665.0189.1281.0286.1942.0474.19.038.37.0758.55.1232.1278.0286.251.0616.3743.0947h.0093c.1.0285.204.0522.2987.0852.1375.038.275.0759.4076.1233.2749.0853.5451.1754.8058.275.4027.1518.8009.3174,1.1849.5023.1657.0758.3317.1566.4973.237.1612.0807.3223.1705.4836.2607.1656.0853.3223.18.4834.275.147.09.2983.18.4452.2746l.0334.0192c.45.2888.8908.6112,1.3269.9523a17.062,17.062,0,0,1,2.18,2.0666.9745.9745,0,0,1,.1184.1228c.01.01.0142.0191.0236.0286.1139.1232.2276.2558.3366.3933.1563.18.2987.36.4407.54,0,.0049.01.0143.01.0237.147.19.289.3839.431.5785.1375.1942.275.3933.4031.5921s.2558.3982.379.6067c.09.1518.18.308.27.46.0665.1138.1326.2322.19.3459.08.147.1612.2983.2415.4456.109.213.218.4264.3224.6492h.0045c.0759.2085.1567.4121.237.6161.0616.1375.1139.2746.1755.417.0285.0567.0567.1232.0852.19-.0945.1184-.19.2416-.2843.36q-1.6206,2.0474-3.2037,4.1137a.1021.1021,0,0,1-.0188.0236q-1.5356,1.9977-3.0618,4.0047c.038-.0616.0808-.1281.1139-.19.5259-.867,1.0523-1.7438,1.5733-2.6157.0286-.0474-.0425-.0947-.071-.0523-4.0377,5.0945-7.8763,10.3456-11.6015,15.6865-.2366.3366-.4643.6684-.6965,1.0143-.692,1-1.384,2.0095-2.0662,3.0095-.6115.8863-1.2134,1.7819-1.8152,2.668-.1138.1657-.2227.3269-.3317.4929-.6492.9622-1.2983,1.9336-1.9429,2.9051-.6733,1.0188-1.3506,2.0283-2.0189,3.0426q-2.019,3.05-4.0189,6.1088c-.3934.5875-.7773,1.1706-1.1613,1.763q-3.9164,5.8362-7.7481,11.734l-.0192.0237q-1.2725,1.9192-2.54,3.8386c-.99,1.5023-1.99,3.014-2.976,4.5212q-1.87,2.8362-3.72,5.6869-1.8551,2.8434-3.7011,5.6967C238.1337,111.35,235.9582,114.6673,233.8259,117.9992Zm169.4289-17.0326a214.9253,214.9253,0,0,1-12.91,25.3781c-.5214.8768-1.0518,1.7438-1.5876,2.6113-.474.758-.9477,1.521-1.4358,2.28-4.4216,6.9428-9.2129,13.6154-14.2412,20.1224q-.8532,1.1016-1.7109,2.1988c-4.8716,6.2034-9.9286,12.2506-15.0561,18.2317-3.0711,3.5872-6.2936,7.0941-9.4308,10.6769a75.3839,75.3839,0,0,0-4.2891-9.5777,61.7605,61.7605,0,0,0-6.573-9.8952,48.249,48.249,0,0,0-16.279-13.118c-.5879-.28-1.19-.5594-1.7773-.8152l-1.6018-.6683c-.6965-.27-1.3885-.53-2.0854-.7725-7.72-2.7108-15.8476-3.668-24.0413-4.36-6.3223-.5308-12.6869-.9-18.9139-1.796l-1.6827-.2559a63.5445,63.5445,0,0,1-17.6343-5.18,43.537,43.537,0,0,1-4.2177-2.313l-.1187-.0755c-.142-.0951-.2889-.19-.4312-.2844-.72-.4647-1.4265-.9527-2.1087-1.4692a.0472.0472,0,0,1-.0237-.0192,37.509,37.509,0,0,1-5.9619-5.4972l-.0094-.0049a32.507,32.507,0,0,1-4.014-5.7436c5.4687-8.758,10.843-17.5822,16.4638-26.2361q3.2338-4.99,6.516-9.938c.2228-.3459.4455-.6822.6683-1.0188q8.0469-12.1628,16.36-24.1409c.2746-.4031.5545-.801.834-1.1992q2.3172-3.3409,4.6681-6.6539c3.8243-5.4217,7.5967-10.8715,11.3693-16.3213.0138.0188.0187.0473.033.0709v.0046a27.4746,27.4746,0,0,0,1.8247,3.2417,34.6517,34.6517,0,0,0,7.9,8.5115,46.6574,46.6574,0,0,0,14.5682,7.36l.8482.2608a86.638,86.638,0,0,0,13.9854,2.8532c8.8764,1.1514,17.89,1.3979,26.7335,2.7247v.0049a82.4914,82.4914,0,0,1,8.8193,1.7724,53.3753,53.3753,0,0,1,6.4216,2.1184l.82.46a.4243.4243,0,0,0,.057-.1A47.68,47.68,0,0,1,394.857,81.4411c.071.109.1514.2183.2273.3366a73.6559,73.6559,0,0,1,8.654,17.9518.3234.3234,0,0,1,.0236.071C403.6007,100.1938,403.4254,100.5826,403.2548,100.9666Z" style="fill:#17120f"/><path d="M311.1975,79.1432l-.0018.0037c-1.0035,1.6582-1.913,3.4-2.8676,5.0779a3.5061,3.5061,0,0,0-.737,2.2928,2.799,2.799,0,0,0,1.1368,1.5969c.228.186.4646.3539.7055.5233-.0038.0256-.0091.0451-.0128.0707-.5466,3.0245-3.3979,5.5994-3.357,8.8312a4.7038,4.7038,0,0,0,.7833,2.4952,29.629,29.629,0,0,1,1.8152,2.5812c.4944.9738.6852,2.0674,1.1093,3.0738a6.5533,6.5533,0,0,0,.3731.7371c.0725.1262.1536.2528.2408.3775a6.4107,6.4107,0,0,0,1.0188,1.1631,8.8516,8.8516,0,0,0,2.3855,1.52l.0109.0052a8.8636,8.8636,0,0,0,2.6489.9918,6.421,6.421,0,0,0,1.5417.1142c.1484-.0075.2983-.0184.4467-.0349a7.0383,7.0383,0,0,0,.8133-.1454c1.0552-.2686,2.0432-.7735,3.1188-.9644a30.0663,30.0663,0,0,1,3.1538-.1025,4.68,4.68,0,0,0,2.4648-.8753c2.61-1.9095,2.9516-5.7365,5.0388-7.9924a.463.463,0,0,1,.0488-.0526c.2766.0883.5568.1784.8427.2487a2.8212,2.8212,0,0,0,1.9591-.0526,3.5021,3.5021,0,0,0,1.3881-1.9678c.763-1.7739,1.6071-3.5478,2.3284-5.3469l.0019-.0037a35.1675,35.1675,0,0,0,5.3379-7.2246,18.166,18.166,0,0,0,2.3615-8.51,13.4469,13.4469,0,0,0-2.6466-7.9327,19.7789,19.7789,0,0,0-7.1273-5.84c-.2475-.1281-.4973-.2525-.7521-.3753-.2479-.1281-.5011-.2543-.7487-.3735a19.7929,19.7929,0,0,0-8.9567-2.1818,13.4863,13.4863,0,0,0-7.9289,2.6575,18.2169,18.2169,0,0,0-5.3744,7.0074A35.3389,35.3389,0,0,0,311.1975,79.1432Zm2.9264.0638a6.7,6.7,0,0,1,2.8033-1.9982,3.4285,3.4285,0,0,1,3.313.0856,14.1855,14.1855,0,0,1,2.7432,2.8224,6.7583,6.7583,0,0,1,1.0462,1.8138,3.3614,3.3614,0,0,1,.1255.7446,2.8227,2.8227,0,0,1-2.3505,2.721,8.2934,8.2934,0,0,1-6.49-.5725A3.815,3.815,0,0,1,314.1239,79.207Zm9.9272,9.6536a.0732.0732,0,0,0,.0214.02.0782.0782,0,0,0,.0326.0072,2.1,2.1,0,0,0,.99-.2379c.1-.045.2025-.0976.3036-.1554-.3167,1.6123-.6023,3.236-.8667,4.8611-.1292.7848-.4238,2.7965-1.6955,1.8325a2.4717,2.4717,0,0,1-.604-2.1575.0309.0309,0,0,0-.0072-.0217c.0125-.0883.0305-.2059-.0255-.2656a.1632.1632,0,0,0-.2242.0146c-.0144.011-.0305.0255-.0471.04l-.0484.0436-.0127.0072c-.5744.4632-1.2969,1.0334-2.0907.8137-1.5312-.4343-.1011-1.88.4478-2.455q1.7091-1.7831,3.3623-3.6167c.0109.1139.0345.23.0545.3344A2.1183,2.1183,0,0,0,324.0511,88.8606ZM337.6984,87.57a6.6957,6.6957,0,0,1,.09,3.4412,3.82,3.82,0,0,1-5.2068,2.4253,8.2811,8.2811,0,0,1-4.357-4.8383,2.8125,2.8125,0,0,1,.7593-3.5144,3.3578,3.3578,0,0,1,.6667-.3493,6.817,6.817,0,0,1,2.0783-.2551,14.2417,14.2417,0,0,1,3.9047.4932A3.4361,3.4361,0,0,1,337.6984,87.57Zm-7.6468,14.3788a11.75,11.75,0,0,1-2.0989,1.2112,13.16,13.16,0,0,1-3.8832,1.0939l-.0146.0015a3.824,3.824,0,0,0,.2069-.9039q.0163-.1273.0214-.26c-.0522-.0034-.1029-.01-.1537-.018-.544-.077-1.0882-.1544-1.6307-.2713-.0741-.0142-.1518-.03-.2239-.0484-.0849-.02-.17-.04-.2585-.0613q-.67-.1786-1.3344-.3945c-.0777-.0255-.15-.0525-.228-.0776-.4249-.1443-.8461-.3047-1.26-.4794-.0379-.0147-.0721-.027-.1048-.0436-.2547-.1044-.5008-.2183-.75-.3336-.1176-.0541-.237-.1135-.3528-.1713l-.1593-.0792c-.3433-.1713-.6814-.3539-1.0162-.5433-.0326-.0161-.06-.0342-.0886-.0488-.367-.2145-.7306-.4366-1.0853-.6766-.0451-.0271-.0883-.0578-.1356-.09-.1518-.1029-.3021-.21-.452-.3159-.3238-.2386-.6348-.4839-.9372-.7386-.04-.0379-.085-.074-.13-.11-.44-.3772-.8667-.771-1.3043-1.1609-.0346-.0308-.0707-.0669-.1124-.101-.0218.0161-.0413.0379-.065.0578a3.9307,3.9307,0,0,0-.6807.7851c-.0109-.0145-.02-.0326-.0327-.0525a13.2525,13.2525,0,0,1-1.4549-3.7474,11.9956,11.9956,0,0,1-.2916-2.4039c-.0022-.6919.136-1.5578,1.0253-1.5391a1.152,1.152,0,0,1,.293.0376,6.8374,6.8374,0,0,1,.748,1.4077,7.1881,7.1881,0,0,1,.4958,2.6274c-.0019.1484-.0071.2949-.0195.4376-.0072.1048-.0214.2059-.0357.3073.0722.0631.1446.1262.2134.1878.054.0452.1085.09.1645.1406.0071.0037.0161.0128.0237.0165q.8029.6852,1.6548,1.3088c.0636.0452.13.0921.1973.139.4755.3412.9639.6661,1.47.9726.0942.056.1881.112.2858.17.0669.038.1322.0793.1991.1173.62.3591,1.2513.6874,1.8952.9906.0579.0289.1173.0541.1752.0831l.0108.0052c.6676.3554,1.3476.6856,2.04.9812.0744.0328.1522.0669.228.0959.1229.0521.2476.1009.367.1513.5658.2235,1.141.429,1.7158.6075.0815.027.163.0541.2423.0758q.9957.3,2.0053.5256c.0522.0128.1029.02.1551.0327.0854.0195.1721.0357.2622.0537.02.0056.0455.009.0688.0162q.1082-.1083.2277-.2115c.1063-.0958.2167-.19.3339-.2807a7.2609,7.2609,0,0,1,2.3976-1.1844,6.8514,6.8514,0,0,1,1.5777-.2472,1.2145,1.2145,0,0,1,.2063.2111C331.2147,100.9027,330.6065,101.5343,330.0516,101.9486Z" style="fill:#c6c1c4"/><path d="M329.5752,131.0285a5.3236,5.3236,0,0,0-3.5856-1.8021,1.2085,1.2085,0,0,0-.1394-.0109c-1.6211-1.6758-3.2766-3.319-4.8706-5.022q-2.3967-2.5571-4.67-5.2338c.4918.0376.98.0732,1.4715.1108a110.9376,110.9376,0,0,0,11.63.5527c.1645.15.331.296.5084.4387a19.7211,19.7211,0,0,0,2.281,1.594,4.8534,4.8534,0,0,0,4.6511.5721,2.59,2.59,0,0,0,1.3074-3.4265,4.2173,4.2173,0,0,0-2.1131-2.0026c.0684-.038.1427-.0778.2112-.1157a7.2108,7.2108,0,0,0,2.59-2.0144c1.0556-1.5827-.0267-3.342-1.636-3.946-2.9656-1.1091-6.7077.1273-8.9071,2.4088-1.6121.0811-3.2188.1784-4.8311.25-2.8251.1221-5.6573.1589-8.488.1383-1.0575-.0079-2.1165-.0214-3.174-.0477q-.9914-1.2459-1.9547-2.5106c-1.7156-2.2469-3.39-4.5317-4.9919-6.8621-.9121-1.331-1.8047-2.6751-2.7059-4.01.4959-3.1312-.7641-6.8624-3.437-8.5661-1.4471-.9208-3.5073-.7288-4.1328,1.0684a7.2043,7.2043,0,0,0-.051,3.2808c.0108.0777.02.1588.0345.2385a4.2159,4.2159,0,0,0-2.8709-.4835,2.5861,2.5861,0,0,0-1.9508,3.1053,4.85,4.85,0,0,0,3.251,3.37,19.8042,19.8042,0,0,0,2.6489.8653c.2171.054.4377.1006.6529.14a111.0533,111.0533,0,0,0,7.4409,8.96c.3258.37.6481.7385.9738,1.1089q-3.5062-.2106-6.9939-.5842c-2.3194-.249-4.6278-.583-6.942-.87-.0271-.036-.0594-.0706-.0887-.1029a5.3361,5.3361,0,0,0-3.6-1.7825c-1.8492-.1319-4.2471.7543-4.829,2.6905-.5188,1.71.6322,3.4682,2.0178,4.3942a3.6458,3.6458,0,0,0-1.2511,1.5391,3.5344,3.5344,0,0,0,.9272,3.8819,4.16,4.16,0,0,0,4.2755.6735c1.8036-.5819,3.4528-1.5973,5.2418-2.2408a44.1557,44.1557,0,0,1,15.7683-2.1661,44.1716,44.1716,0,0,1,7.7588,13.9016c.5619,1.816.7393,3.7424,1.3625,5.5352a4.1616,4.1616,0,0,0,3.11,3.01,3.54,3.54,0,0,0,3.6587-1.5943,3.6447,3.6447,0,0,0,.4733-1.9272c1.5733.55,3.67.4121,4.7278-1.0294C331.5276,134.875,330.7969,132.4282,329.5752,131.0285Z" style="fill:#c6c1c4"/><g style="opacity:0.15"><path d="M291.5011,34.0086q-3.7688,5.1369-7.4684,10.3024,1.3559-2.1926,2.67-4.413a.0435.0435,0,0,0-.0721-.0485c-4.0377,5.09-7.8748,10.343-11.5988,15.6873-.2337.3328-.4639.6675-.6968,1.0072-5.5518,8.0122-10.8536,16.2086-16.2035,24.3291-.1547.2318-.3066.4654-.4621.6973q-1.2345,1.8769-2.4745,3.7462-7.5279,11.3174-14.92,22.7209c-2.142,3.3153-4.3141,6.6268-6.4461,9.96-.1412.2183-.2821.4373-.42.6586-.2247-.035-.4433-.0774-.66-.124A18.3214,18.3214,0,0,1,229.43,117.51a549.3046,549.3046,0,0,0,58.4915-89.3239,20.1293,20.1293,0,0,1,3.1654,4.7913l.0038.003C291.2216,33.3264,291.355,33.6686,291.5011,34.0086Z"/><path d="M290.3673,144.6544c-1.4373-13.89,1.78-23.8978,8.2148-36.29,5.7564-11.0872,14.7364-18.7155,15.3469-31.1931.0935-1.9137-.0838-4.008-1.3734-5.4254a5.6174,5.6174,0,0,0-5.2681-1.4012,14.14,14.14,0,0,0-5.0749,2.5139c-15.6975,10.9629-25.59,28.1979-38.0246,42.7577-3.7252,4.3638-7.8768,8.63-13.1921,10.79s-10.77,1.9126-14.7023-2.2657a62.0162,62.0162,0,0,0,50.5823,19.2878C287.8605,143.9666,289.3838,144.1168,290.3673,144.6544Z"/></g><path d="M222.6008,112.6312a23.1605,23.1605,0,0,1-2.6815-3.6861c1.9983-2.6252,3.7815-5.4878,5.6362-8.1371,2.7939-3.9835,5.5175-8.0193,8.2468-12.0458q8.0664-11.8979,16.132-23.79c9.4864-13.9915,19.06-27.924,28.0678-42.2261a16.4724,16.4724,0,0,1,6.4067,2.4287A539.0343,539.0343,0,0,0,222.6008,112.6312Z" style="fill:#fff;opacity:0.15"/><path d="M396.3353,80.9775c-7.2125,2.07-13.4467,6.773-18.477,12.34s-8.9789,12.0083-12.8956,18.4082Q355.3312,127.46,345.7,143.1942c-4.1327,6.7512-8.1535,13.02-9.9087,20.7381a47.798,47.798,0,0,0-23.25-15.067c17.6446-12.23,28.9026-31.4653,39.6-50.0783,3.5967-6.2583,7.2441-12.6459,8.7577-19.7036s.5736-15.0245-4.1865-20.45C372.96,60.3416,386.5476,67.8956,396.3353,80.9775Z" style="fill:#fff;opacity:0.1"/><path d="M252.1871,226.0232c.5827.8407,1.1691,1.6743,1.7556,2.5128a14.4137,14.4137,0,0,0,2.0752.5763,9.3789,9.3789,0,0,0,4.4592-.0714c.1337-.0338.2614-.0762.3922-.12,2.7792-.973,4.5764-3.4336,5.15-6.942a14.6541,14.6541,0,0,0,.1961-2.1722c-.4369-.6746-.8738-1.355-1.3107-2.03-8.4833-13.1026-17.2031-26.0467-25.9186-39.0374Q182.1217,93.9619,124.6474,9.6261q-.4847-.7146-.9726-1.4264c-.1826-.0155-.3591-.0229-.5364-.0309a13.1634,13.1634,0,0,0-5.9364,1.0456,9.5693,9.5693,0,0,0-2.9081,2.0338,12.1388,12.1388,0,0,0-2.473,3.777c-.0676.1443-.13.2964-.19.4516q.981,1.4792,1.9618,2.9576c7.8537,11.8581,15.7274,23.6981,23.5222,35.59,20.4826,31.261,41.28,62.3214,62.0953,93.3695C216.7822,173.6,234.1111,200.15,252.1871,226.0232Z" style="fill:#e08c5d"/><path d="M252.1871,226.0232c.5827.8407,1.1691,1.6743,1.7556,2.5128a14.4137,14.4137,0,0,0,2.0752.5763,9.3789,9.3789,0,0,0,4.4592-.0714Q185.22,121.639,114.2939,11.2482a12.1388,12.1388,0,0,0-2.473,3.777c-.0676.1443-.13.2964-.19.4516q.981,1.4792,1.9618,2.9576c7.8537,11.8581,15.7274,23.6981,23.5222,35.59,20.4826,31.261,41.28,62.3214,62.0953,93.3695C216.7822,173.6,234.1111,200.15,252.1871,226.0232Z" style="opacity:0.25"/><path d="M123.9528,12.7216q67.7651,103.0325,135.5325,206.0639C211.2684,152.1689,166.6669,82.9592,123.9528,12.7216Z" style="fill:#fff;opacity:0.5"/><path d="M252.1871,226.0232c.5827.8407,1.1691,1.6743,1.7556,2.5128a14.4137,14.4137,0,0,0,2.0752.5763,9.1789,9.1789,0,0,0,4.8514-.1916c2.7792-.973,4.5764-3.4336,5.15-6.942a14.6541,14.6541,0,0,0,.1961-2.1722c-.4369-.6746-.8738-1.355-1.3107-2.03-8.4833-13.1026-17.2031-26.0467-25.9186-39.0374Q182.1217,93.9619,124.6474,9.6261q-.4847-.7146-.9726-1.4264c-.1826-.0155-.3591-.0229-.5364-.0309a13.1634,13.1634,0,0,0-5.9364,1.0456,10.7151,10.7151,0,0,0-5.3811,5.8108c-.0676.1443-.13.2964-.19.4516q.981,1.4792,1.9618,2.9576c7.8537,11.8581,15.7274,23.6981,23.5222,35.59,20.4826,31.261,41.28,62.3214,62.0953,93.3695C216.7822,173.6,234.1111,200.15,252.1871,226.0232Zm2.2556.6484c-8.5868-13.2815-17.421-26.39-26.2518-39.551Q171.2851,102.28,113.7661,17.8724l-.0022-.0037a12.0125,12.0125,0,0,1,4.57-6.5194A10.6167,10.6167,0,0,1,124.11,9.6344c7.9462,11.9947,15.9138,23.9741,23.7976,36.011,20.485,31.2584,41.2787,62.321,62.0976,93.3668,18.0908,26.98,35.925,54.3238,54.5793,80.9206-.7141,3.3228-2.3769,5.7861-5.0648,6.6377A10.0037,10.0037,0,0,1,254.4427,226.6716Z" style="fill:#784b32"/><path d="M125.7948,39.898c-.0283-.0474.0428-.0947.0714-.0523,4.0376,5.0945,7.8762,10.3456,11.601,15.6865.237.3366.4647.6684.6968,1.0143.692,1,1.3837,2.0095,2.0663,3.0095.6112.8863,1.2134,1.7819,1.8152,2.668.1135.1657.2227.3269.3317.4929.6492.9622,1.2983,1.9336,1.9429,2.9051.6729,1.0188,1.3506,2.0283,2.0189,3.0426q2.0192,3.05,4.0189,6.1088c.3933.5875.7773,1.1706,1.1609,1.763q3.9169,5.8362,7.7485,11.734l.0192.0237q1.2725,1.9192,2.54,3.8386c.9907,1.5023,1.9907,3.014,2.9764,4.5212q1.8692,2.8362,3.72,5.6869,1.8557,2.8434,3.7015,5.6967c2.1421,3.3126,4.3172,6.63,6.45,9.9617.1374.2178.2749.4357.4124.6584.2321-.033.45-.08.6634-.1281.2652-.0518.526-.1134.7818-.18.1-.0237.1946-.0473.2938-.0759.2134-.0521.4173-.1183.6258-.18.2367-.071.4786-.1469.72-.2416.1-.0334.204-.0714.2987-.1093.1657-.0567.3268-.1232.4834-.1894.038-.0191.08-.0285.1135-.0428a18.8249,18.8249,0,0,0,5.8529-3.8671c.3411-.3317.6684-.6679.9764-1.014a21.4714,21.4714,0,0,0,2.085-2.725c.2089-.313.4076-.64.6022-.9622-2.005-2.6207-3.7819-5.4878-5.6445-8.1325-2.7912-3.9854-5.5163-8.0232-8.2415-12.0466Q170.63,76.8706,162.5657,64.968c-9.4214-13.8953-18.9281-27.7336-27.89-41.9365-.0616-.095-.1184-.19-.18-.2843-.2134.0281-.4268.066-.64.1088-.0665.0189-.1281.0286-.1946.0474-.1893.038-.37.0758-.55.1232-.1277.0286-.2509.0616-.3742.0947h-.01c-.1.0285-.2036.0522-.2983.0852-.1375.038-.2749.0759-.4076.1233-.275.0853-.5451.1754-.8058.275-.4027.1518-.8009.3174-1.1849.5023-.1657.0758-.3317.1566-.4973.237-.1612.08-.3223.1705-.4836.2607-.166.0853-.3223.18-.4834.275-.1469.09-.2987.18-.4456.2746l-.033.0192c-.45.2888-.8911.6112-1.3269.9523a17.07,17.07,0,0,0-2.18,2.0666.9273.9273,0,0,0-.1186.1232c-.0094.0094-.0139.0187-.0237.0282-.1134.1232-.2273.2558-.3362.3933-.1567.18-.2987.36-.4407.54,0,.0049-.01.0143-.01.0237-.147.19-.2889.3839-.4313.5785-.1375.1942-.2746.3933-.4028.5921s-.2558.3982-.379.6067c-.09.1518-.18.308-.27.46-.0666.1138-.1327.2322-.19.3459-.08.147-.1612.2983-.2415.4456-.109.213-.2183.4264-.3224.6492h-.0048c-.0759.2085-.1564.4121-.2367.6161-.0616.1375-.1139.2746-.1755.417-.0285.0567-.0571.1232-.0853.19.0947.1184.1894.2416.2844.36q1.6206,2.0474,3.2034,4.1137a.0974.0974,0,0,0,.0191.0236q1.5355,1.9977,3.0613,4.0047c-.0378-.0616-.08-.1277-.1134-.1893C126.8421,41.6467,126.3161,40.77,125.7948,39.898Z" style="fill:#302f2d"/><path d="M8.7617,99.73a.3288.3288,0,0,0-.0236.071c.1611.3933.3365.7821.5071,1.1661a214.8645,214.8645,0,0,0,12.91,25.3781c.521.8768,1.0519,1.7438,1.5876,2.6113.4736.758.9478,1.521,1.4358,2.28,4.4216,6.9428,9.2129,13.6154,14.2412,20.1224q.8528,1.1016,1.7109,2.1988c4.8716,6.2034,9.9281,12.2506,15.0561,18.2317,3.0711,3.5872,6.2936,7.0941,9.4308,10.6769a75.4091,75.4091,0,0,1,4.2891-9.5777,61.7337,61.7337,0,0,1,6.573-9.8952,48.2461,48.2461,0,0,1,16.279-13.118c.5875-.28,1.19-.5594,1.7773-.8152l1.6018-.668c.6965-.27,1.3885-.5308,2.085-.7728,7.72-2.7108,15.8477-3.668,24.0417-4.36,6.3223-.5308,12.6869-.9,18.914-1.796l1.6822-.2559a63.5366,63.5366,0,0,0,17.6343-5.18,43.42,43.42,0,0,0,4.2181-2.313l.1183-.0755c.1425-.0951.2893-.19.4313-.2844.72-.4647,1.4264-.9527,2.109-1.4692a.05.05,0,0,0,.0237-.0189,37.5328,37.5328,0,0,0,5.9618-5.4975l.01-.0049a32.528,32.528,0,0,0,4.014-5.7436c-5.4691-8.758-10.843-17.5822-16.4638-26.2361q-3.2345-4.99-6.5164-9.938c-.2227-.3459-.4451-.6822-.6679-1.0188q-8.0475-12.1628-16.36-24.1409c-.2749-.4031-.5545-.801-.834-1.1992q-2.3176-3.3409-4.6681-6.6539c-3.8243-5.4217-7.5968-10.8715-11.3693-16.3213-.0142.0188-.0187.0473-.033.0709v.0046a27.5316,27.5316,0,0,1-1.8247,3.2417,34.6517,34.6517,0,0,1-7.9,8.5115A46.6574,46.6574,0,0,1,96.1753,54.3l-.8482.2608A86.6458,86.6458,0,0,1,81.3416,57.414c-8.8763,1.1514-17.89,1.3979-26.7334,2.7247v.0049a82.5117,82.5117,0,0,0-8.82,1.7724,53.3956,53.3956,0,0,0-6.4214,2.1184l-.82.46a.4235.4235,0,0,1-.0568-.1A47.678,47.678,0,0,0,17.643,81.4411c-.071.109-.1518.2183-.2273.3366A73.6559,73.6559,0,0,0,8.7617,99.73Z" style="fill:#302f2d"/><path d="M6.25,99.9c.3366.7443.6777,1.4787,1.0237,2.218.1327.2893.2656.583.4076.8768q3.27,6.9948,6.9048,13.82,3.256,6.0993,6.7959,12.0327c.5165.8577,1.0331,1.72,1.5594,2.5733q7.1938,11.8073,15.44,22.9325c.5688.7678,1.1326,1.5308,1.7059,2.2844q2.14,2.8577,4.3506,5.6726c6.2985,8.0236,12.9332,15.9472,20.0608,23.3641.6019.6446,1.2134,1.2653,1.8292,1.8956.128-.3982.2607-.796.3982-1.1848.0192-.0616.033-.1232.0567-.1848.1232-.3505.2419-.7015.3651-1.0617.076-.2085.1519-.4264.2273-.6443a72.0472,72.0472,0,0,1,8.0615-16.2459A47.7286,47.7286,0,0,1,96.1,151.0544c.5259-.2322,1.0567-.45,1.5925-.6586a51.2126,51.2126,0,0,1,6.1132-2c11.62-3.0471,23.71-2.9716,35.5576-4.507.858-.1089,1.7063-.2272,2.56-.3553.5545-.0854,1.0992-.1706,1.6442-.2656,8.9951-1.4975,17.8951-4.2271,25.1982-9.8573a33.3046,33.3046,0,0,0,9.5209-11.3407c.213-.4125.4121-.8389.6019-1.27.104-.2416.2037-.4836.308-.7345a.3719.3719,0,0,1,.0282-.0759c.2325-.0142.46-.0237.692-.0428,5.3552-.4549,9.9808-4.5069,13.047-9.4072.1277-.2085.2558-.4121.379-.6206.1327-.2182.2514-.4406.3746-.6589.1183-.2085.2322-.4358.3505-.6541-.2133-.379-.4357-.7438-.6683-1.1134-1.6113-2.5971-3.45-5.1088-5.09-7.5968-2.6729-4.0663-5.4168-8.09-8.1561-12.1135q-8.0757-11.8855-16.1652-23.7669c-9.45-13.8855-18.8-27.8232-28.6907-41.377-.0759-.1-.1517-.204-.2276-.3081-.1183-.1709-.2465-.3366-.37-.5026-.2415.0191-.488.0477-.7344.0853a18.96,18.96,0,0,0-11.2082,5.706,15.1265,15.1265,0,0,0-1.1514,1.3648h-.0048c0,.0094,0,.0094-.0049.0094a15.1476,15.1476,0,0,0-1.99,3.5452c-.109.2746-.2085.5545-.3081.8386a16.2229,16.2229,0,0,0-.4263,1.6446c-.0049,0,0,.0049-.0049.0094a38.0485,38.0485,0,0,1-16.3928,14.5208,53.1233,53.1233,0,0,1-7.6964,2.9524c-.2558.0853-.5165.166-.7772.2321-18.0987,5.2083-38.1975,2.1564-55.8979,9.1893-.2607.1044-.5308.2085-.7916.3175-.8576.36-1.72.7442-2.5733,1.1563C24.7187,68.252,17.0978,76.6975,11.885,86.4128A77.127,77.127,0,0,0,7.3875,96.5544c-.1706.4549-.3366.9147-.4835,1.3791-.1089.2937-.2085.5972-.3125.891C6.4776,99.1844,6.3544,99.54,6.25,99.9Zm165.9742,8.1375q-1.8409-2.8509-3.7011-5.6967-1.8483-2.8508-3.72-5.6869c-.9857-1.5072-1.9857-3.0189-2.9764-4.5212q-1.2723-1.9193-2.54-3.8386l-.0192-.0237q-3.8313-5.8932-7.7485-11.734c-.3836-.5924-.7676-1.1755-1.1609-1.763q-1.9974-3.0571-4.0189-6.1088c-.6683-1.0143-1.346-2.0238-2.0189-3.0426-.6446-.9715-1.2937-1.9429-1.9429-2.9051-.109-.166-.2182-.3272-.3317-.4929-.6018-.8861-1.204-1.7817-1.8152-2.668-.6823-1-1.3743-2.0094-2.0663-3.0095-.2321-.3459-.46-.6777-.6968-1.0143-3.7248-5.3409-7.5634-10.592-11.601-15.6865-.0286-.0424-.1.0049-.0714.0523.5213.8719,1.0473,1.7487,1.5736,2.6157.0331.0617.0756.1282.1134.19q-1.5207-2.0044-3.0613-4.0047a.0974.0974,0,0,1-.0191-.0236q-1.5852-2.0615-3.2034-4.1137c-.095-.1183-.19-.2415-.2844-.36.0282-.0664.0568-.1329.0853-.19.0616-.1424.1139-.2795.1755-.417.08-.204.1611-.4076.2367-.6161h.0048c.1041-.2228.2134-.4362.3224-.6492.08-.1473.1611-.2986.2415-.4456.0571-.1137.1232-.2321.19-.3459.09-.1518.18-.308.27-.46.1232-.2085.2509-.4076.379-.6067s.2653-.3979.4028-.5921c.1424-.1946.2843-.3888.4313-.5785,0-.0094.01-.0188.01-.0237.142-.18.284-.36.4407-.54.1089-.1375.2228-.27.3362-.3933.01-.01.0143-.0188.0237-.0286a.9485.9485,0,0,1,.1186-.1228,17.07,17.07,0,0,1,2.18-2.0666c.4358-.3411.8768-.6635,1.3269-.9523l.033-.0192c.1469-.0946.2987-.1849.4456-.2746.1611-.095.3174-.19.4834-.275.1613-.09.3224-.18.4836-.2607.1656-.08.3316-.1612.4973-.237.384-.1849.7822-.3505,1.1849-.5023.2607-.1.5308-.19.8058-.275.1327-.0474.27-.0853.4076-.1233.0947-.033.1988-.0567.2983-.0852h.01c.1233-.0331.2462-.0661.3742-.0947.18-.0474.36-.0852.55-.1232.0665-.0188.1281-.0285.1946-.0474.213-.0428.4264-.0807.64-.1088.0616.0946.1184.1893.18.2843,8.9616,14.2029,18.4683,28.0412,27.89,41.9365q8.0615,11.9,16.132,23.7953c2.7252,4.0234,5.45,8.0612,8.2415,12.0466,1.8626,2.6447,3.6395,5.5118,5.6445,8.1325-.1946.3224-.3933.6492-.6019.9622a21.53,21.53,0,0,1-2.0853,2.725c-.308.3456-.6353.6823-.9764,1.014a18.8249,18.8249,0,0,1-5.8529,3.8671c-.0331.0143-.0755.0237-.1135.0428-.1566.0662-.3177.1327-.4834.1894-.0947.0379-.1991.0759-.2987.109-.2416.095-.4835.1709-.72.2419-.2085.0616-.4124.1278-.6258.18-.0992.0286-.1942.0522-.2938.0759-.2558.0665-.5166.1281-.7818.18-.2133.0478-.4313.0951-.6634.1281-.1375-.2227-.275-.4406-.4124-.6584C176.5414,114.6673,174.3663,111.35,172.2242,108.0375ZM8.7381,99.8005a.3288.3288,0,0,1,.0236-.071,73.6559,73.6559,0,0,1,8.654-17.9518c.0755-.1183.1563-.2276.2273-.3366A47.68,47.68,0,0,1,38.49,64.3947a.4235.4235,0,0,0,.0568.1l.82-.46a53.3956,53.3956,0,0,1,6.4214-2.1184,82.5117,82.5117,0,0,1,8.82-1.7724v-.0049c8.8432-1.3268,17.8571-1.5733,26.7334-2.7247a86.6458,86.6458,0,0,0,13.9855-2.8532l.8482-.2608a46.6574,46.6574,0,0,0,14.5682-7.36,34.6517,34.6517,0,0,0,7.9-8.5115,27.5316,27.5316,0,0,0,1.8247-3.2417v-.0046c.0143-.0236.0188-.0521.033-.0709,3.7725,5.45,7.545,10.9,11.3693,16.3213q2.346,3.32,4.6681,6.6539c.28.3982.5591.7961.834,1.1992q8.3241,11.9706,16.36,24.1409c.2228.3366.4452.6729.6679,1.0188q3.2847,4.9476,6.5164,9.938c5.6208,8.6539,10.9947,17.4781,16.4638,26.2361a32.528,32.528,0,0,1-4.014,5.7436l-.01.0049a37.5169,37.5169,0,0,1-5.9618,5.4972.0485.0485,0,0,1-.0237.0192c-.6826.5165-1.3885,1.0045-2.109,1.4692-.142.0947-.2888.1893-.4313.2844l-.1183.0755a43.4844,43.4844,0,0,1-4.2181,2.313,63.5366,63.5366,0,0,1-17.6343,5.18l-1.6822.2559c-6.2271.8956-12.5917,1.2652-18.914,1.796-8.194.692-16.3217,1.6492-24.0417,4.36-.6965.242-1.3885.5024-2.085.7725l-1.6018.6683c-.5876.2558-1.19.5357-1.7773.8152a48.2461,48.2461,0,0,0-16.279,13.118,61.7605,61.7605,0,0,0-6.573,9.8952,75.3839,75.3839,0,0,0-4.2891,9.5777c-3.1372-3.5828-6.36-7.09-9.4308-10.6769-5.128-5.9811-10.1845-12.0283-15.0561-18.2317q-.8605-1.0949-1.7109-2.1988c-5.0283-6.507-9.82-13.18-14.2412-20.1224-.488-.7585-.9622-1.5215-1.4358-2.28-.5357-.8675-1.0666-1.7345-1.5876-2.6113a214.8645,214.8645,0,0,1-12.91-25.3781C9.0746,100.5826,8.8992,100.1938,8.7381,99.8005Z" style="fill:#17120f"/><path d="M98.7385,70.5351a18.2109,18.2109,0,0,0-5.3739-7.0074A13.4863,13.4863,0,0,0,85.4357,60.87,19.7926,19.7926,0,0,0,76.479,63.052c-.2476.1192-.5008.2454-.7487.3735-.2548.1228-.5046.2472-.7521.3753a19.7778,19.7778,0,0,0-7.1272,5.84,13.4443,13.4443,0,0,0-2.6467,7.9327,18.166,18.166,0,0,0,2.3615,8.51,35.1529,35.1529,0,0,0,5.3379,7.2246l.0019.0037c.7213,1.7991,1.5654,3.573,2.3284,5.3469a3.5,3.5,0,0,0,1.3881,1.9678,2.8212,2.8212,0,0,0,1.9591.0526c.2855-.07.5658-.16.8427-.2487a.463.463,0,0,1,.0488.0526c2.0872,2.2559,2.4288,6.0829,5.0388,7.9924a4.68,4.68,0,0,0,2.4645.8753,30.0684,30.0684,0,0,1,3.1541.1025c1.0751.1909,2.0635.6958,3.1188.9644a7.0383,7.0383,0,0,0,.8133.1454c.1484.0165.2983.0274.4463.0349a6.4231,6.4231,0,0,0,1.5421-.1142,8.8636,8.8636,0,0,0,2.6489-.9918l.0109-.0052a8.8532,8.8532,0,0,0,2.3855-1.52,6.4146,6.4146,0,0,0,1.0188-1.1631c.0868-.1247.1683-.2513.2408-.3775a6.5533,6.5533,0,0,0,.3731-.7371c.4237-1.0064.6146-2.1,1.109-3.0738a29.6107,29.6107,0,0,1,1.8155-2.5812,4.7057,4.7057,0,0,0,.7834-2.4952c.0409-3.2318-2.8109-5.8067-3.3574-8.8312-.0034-.0256-.0087-.0451-.0124-.0707.24-.1694.4774-.3373.7054-.5233a2.7989,2.7989,0,0,0,1.1365-1.5969,3.5024,3.5024,0,0,0-.7371-2.2928c-.9546-1.6781-1.8636-3.42-2.8671-5.0779l-.0019-.0037A35.3224,35.3224,0,0,0,98.7385,70.5351ZM97.1852,84.8237a8.2933,8.2933,0,0,1-6.49.5725,2.8234,2.8234,0,0,1-2.3509-2.721,3.3848,3.3848,0,0,1,.1255-.7446,6.77,6.77,0,0,1,1.0466-1.8138,14.1968,14.1968,0,0,1,2.7427-2.8224,3.43,3.43,0,0,1,3.3135-.0856A6.7,6.7,0,0,1,98.376,79.207,3.815,3.815,0,0,1,97.1852,84.8237Zm-8.3268,3.1011c.02-.1048.0436-.2205.0545-.3344q1.6522,1.8315,3.3623,3.6167c.5488.5751,1.979,2.0207.4478,2.455-.7938.22-1.5162-.35-2.0907-.8137l-.0127-.0072-.0489-.0436c-.0161-.0143-.0323-.0288-.0469-.04a.1628.1628,0,0,0-.2239-.0146c-.0564.06-.0383.1773-.0255.2656a.0312.0312,0,0,0-.0076.0217,2.47,2.47,0,0,1-.6036,2.1575c-1.2717.964-1.5663-1.0477-1.6959-1.8325-.2641-1.6251-.55-3.2488-.8663-4.8611.1012.0578.204.11.3036.1554a2.1,2.1,0,0,0,.99.2379.0776.0776,0,0,0,.0323-.0072.0707.0707,0,0,0,.0217-.02A2.1183,2.1183,0,0,0,88.8584,87.9248ZM76.8666,84.9724a14.2417,14.2417,0,0,1,3.9047-.4932,6.817,6.817,0,0,1,2.0783.2551,3.3613,3.3613,0,0,1,.6668.3493,2.8127,2.8127,0,0,1,.7593,3.5144,8.2816,8.2816,0,0,1-4.3571,4.8383,3.82,3.82,0,0,1-5.2072-2.4253,6.6969,6.6969,0,0,1,.09-3.4412A3.4361,3.4361,0,0,1,76.8666,84.9724Zm4.9686,15.2312a1.2187,1.2187,0,0,1,.2064-.2111,6.8514,6.8514,0,0,1,1.5777.2472,7.2552,7.2552,0,0,1,2.3972,1.1844c.1176.0906.2276.1849.3343.2807q.1189.1032.2277.2115c.0233-.0072.0488-.0106.0684-.0162.09-.018.1772-.0342.2622-.0537.0526-.0128.1033-.02.1555-.0327q1.0115-.2265,2.005-.5256c.08-.0217.1612-.0488.2423-.0758.5751-.1785,1.15-.384,1.7161-.6075.1194-.05.2441-.0992.367-.1513.0758-.029.1537-.0631.228-.0959.6923-.2956,1.3723-.6258,2.0395-.9812l.0109-.0052c.0578-.029.1176-.0542.1754-.0831.644-.3032,1.2751-.6315,1.8953-.9906.0669-.038.1323-.0793.1991-.1173.0976-.0578.1916-.1138.2855-.17.5065-.3065.9948-.6314,1.4707-.9726.067-.0469.1338-.0938.1969-.139.57-.4151,1.12-.852,1.6552-1.3088.0071-.0037.0165-.0128.0237-.0165.056-.05.11-.0954.1645-.1406.0688-.0616.1413-.1247.2134-.1878-.0143-.1014-.0285-.2025-.0357-.3073-.0127-.1427-.018-.2892-.0195-.4376a7.1819,7.1819,0,0,1,.4958-2.6274,6.8182,6.8182,0,0,1,.748-1.4077,1.1514,1.1514,0,0,1,.2927-.0376c.89-.0187,1.0278.8472,1.0252,1.5391a11.9662,11.9662,0,0,1-.2912,2.4039,13.2415,13.2415,0,0,1-1.4553,3.7474c-.0124.02-.0218.038-.0323.0525A3.928,3.928,0,0,0,100,97.3853c-.0236-.02-.0435-.0417-.0649-.0578-.0417.0341-.0778.07-.1124.101-.4376.39-.8648.7837-1.3043,1.1609-.045.036-.0905.0721-.13.11-.302.2547-.613.5-.9368.7386-.15.1063-.3.213-.4524.3159-.0469.0324-.09.0631-.1356.09-.3543.24-.7179.4621-1.0849.6766-.0289.0146-.0564.0327-.0887.0488-.3347.1894-.6728.372-1.0166.5433l-.1588.0792c-.1158.0578-.2352.1172-.3528.1713-.2494.1153-.4955.2292-.7506.3336a1.0888,1.0888,0,0,1-.1048.0436c-.414.1747-.8351.3351-1.26.4794-.0778.0251-.15.0521-.228.0776q-.6643.216-1.3344.3945c-.0887.0215-.1736.0414-.2585.0613-.0721.018-.15.0342-.2243.0484-.5421.1169-1.0864.1943-1.63.2713-.0507.0075-.1014.0146-.1536.018q.0051.1331.0214.26a3.8047,3.8047,0,0,0,.207.9039l-.0146-.0015a13.156,13.156,0,0,1-3.8834-1.0939,11.7565,11.7565,0,0,1-2.0992-1.2112C81.8935,101.5343,81.2849,100.9027,81.8352,100.2036Z" style="fill:#c6c1c4"/><path d="M82.9243,131.0285a5.326,5.326,0,0,1,3.5862-1.8021,1.1932,1.1932,0,0,1,.1394-.0109c1.621-1.6758,3.2765-3.319,4.87-5.022q2.3967-2.5571,4.67-5.2338c-.4918.0376-.98.0732-1.4715.1108a110.9376,110.9376,0,0,1-11.63.5527c-.165.15-.3314.296-.5087.4387a19.7349,19.7349,0,0,1-2.2807,1.594,4.8534,4.8534,0,0,1-4.6511.5721,2.59,2.59,0,0,1-1.3074-3.4265,4.2145,4.2145,0,0,1,2.1131-2.0026c-.0687-.038-.1427-.0778-.2114-.1157a7.2084,7.2084,0,0,1-2.59-2.0144c-1.056-1.5827.0267-3.342,1.636-3.946,2.9652-1.1091,6.7076.1273,8.9068,2.4088,1.6124.0811,3.2191.1784,4.8315.25,2.825.1221,5.6572.1589,8.4879.1383,1.0575-.0079,2.1165-.0214,3.174-.0477q.9907-1.2459,1.9546-2.5106c1.7157-2.2469,3.39-4.5317,4.9916-6.8621.9124-1.331,1.8047-2.6751,2.7063-4.01-.4959-3.1312.7637-6.8624,3.437-8.5661,1.4467-.9208,3.5073-.7288,4.1328,1.0684a7.2043,7.2043,0,0,1,.051,3.2808c-.0108.0777-.02.1588-.0345.2385a4.2158,4.2158,0,0,1,2.8709-.4835,2.5861,2.5861,0,0,1,1.9508,3.1053,4.8494,4.8494,0,0,1-3.2514,3.37,19.7808,19.7808,0,0,1-2.6489.8653c-.2168.054-.4373.1006-.6525.14a111.0372,111.0372,0,0,1-7.4413,8.96c-.3257.37-.6476.7385-.9734,1.1089q3.5063-.2106,6.9939-.5842c2.3194-.249,4.6279-.583,6.9416-.87.0275-.036.06-.0706.0887-.1029a5.3378,5.3378,0,0,1,3.6-1.7825c1.8494-.1319,4.2473.7543,4.8292,2.6905.5188,1.71-.6326,3.4682-2.0181,4.3942a3.6443,3.6443,0,0,1,1.2514,1.5391,3.5339,3.5339,0,0,1-.9276,3.8819,4.16,4.16,0,0,1-4.2755.6735c-1.8033-.5819-3.4524-1.5973-5.2413-2.2408a44.1578,44.1578,0,0,0-15.7684-2.1661A44.1716,44.1716,0,0,0,95.498,132.512c-.562,1.816-.7393,3.7424-1.3625,5.5352a4.1616,4.1616,0,0,1-3.11,3.01,3.54,3.54,0,0,1-3.6587-1.5943,3.6488,3.6488,0,0,1-.4737-1.9272c-1.5729.55-3.67.4121-4.7274-1.0294C80.9724,134.875,81.7031,132.4282,82.9243,131.0285Z" style="fill:#c6c1c4"/><g style="opacity:0.15"><path d="M120.9989,34.0086q3.7683,5.1369,7.4683,10.3024-1.3557-2.1926-2.67-4.413a.0435.0435,0,0,1,.0721-.0485c4.0373,5.09,7.8748,10.343,11.5988,15.6873.2333.3328.4636.6675.6969,1.0072,5.5516,8.0122,10.8531,16.2086,16.2034,24.3291.1547.2318.3066.4654.4621.6973q1.2345,1.8769,2.4741,3.7462,7.5285,11.3174,14.9206,22.7209c2.1417,3.3153,4.3141,6.6268,6.4461,9.96.1413.2183.2821.4373.42.6586.2241-.035.4432-.0774.66-.124A18.3111,18.3111,0,0,0,183.07,117.51a549.3293,549.3293,0,0,1-58.4912-89.3239,20.1172,20.1172,0,0,0-3.1654,4.7913l-.0038.003C121.2784,33.3264,121.145,33.6686,120.9989,34.0086Z"/><path d="M122.1327,144.6544c1.4373-13.89-1.78-23.8978-8.2148-36.29C108.1615,97.2771,99.1815,89.6488,98.571,77.1712c-.0935-1.9137.0838-4.008,1.3735-5.4254a5.6167,5.6167,0,0,1,5.2676-1.4012,14.135,14.135,0,0,1,5.075,2.5139c15.6977,10.9629,25.5906,28.1979,38.0249,42.7577,3.7252,4.3638,7.8763,8.63,13.1917,10.79s10.7708,1.9126,14.7027-2.2657a62.0166,62.0166,0,0,1-50.5823,19.2878C124.64,143.9666,123.1162,144.1168,122.1327,144.6544Z"/></g><path d="M189.8992,112.6312a23.1792,23.1792,0,0,0,2.6815-3.6861c-1.9983-2.6252-3.7815-5.4878-5.6362-8.1371-2.7939-3.9835-5.5175-8.0193-8.2468-12.0458q-8.0666-11.8979-16.1323-23.79c-9.4861-13.9915-19.0605-27.924-28.0675-42.2261a16.4724,16.4724,0,0,0-6.4067,2.4287A539.0282,539.0282,0,0,1,189.8992,112.6312Z" style="fill:#fff;opacity:0.15"/><path d="M16.1647,80.9775c7.2125,2.07,13.4464,6.773,18.4766,12.34s8.9793,12.0083,12.896,18.4082Q57.1688,127.46,66.8,143.1942c4.1327,6.7512,8.1535,13.02,9.9083,20.7381a47.8,47.8,0,0,1,23.2507-15.067c-17.6446-12.23-28.9026-31.4653-39.6-50.0783-3.5967-6.2583-7.2441-12.6459-8.7577-19.7036s-.5736-15.0245,4.1865-20.45C39.54,60.3416,25.9524,67.8956,16.1647,80.9775Z" style="fill:#fff;opacity:0.1"/></svg>