<svg id="bd15d44f-7c88-47bd-9f9f-2b3057fc2f10" data-name="Illustration" xmlns="http://www.w3.org/2000/svg" xmlns:xlink="http://www.w3.org/1999/xlink" viewBox="0 0 1200 800"><defs><linearGradient id="a5f06515-6bec-4306-81b1-c6867b83684d" x1="136.7779" y1="390.9205" x2="1066.5932" y2="390.9205" gradientUnits="userSpaceOnUse"><stop offset="0" stop-color="#a737d5"/><stop offset="1" stop-color="#ef497a"/></linearGradient><linearGradient id="e3800a4c-bb4c-4ffa-903c-21b2e67f28eb" x1="39.418" y1="379.5111" x2="1151.6658" y2="379.5111" gradientUnits="userSpaceOnUse"><stop offset="0" stop-color="#b37cff"/><stop offset="1" stop-color="#f895e7"/></linearGradient><linearGradient id="a4485dd1-329a-4087-b845-fa381d8392cc" x1="258.6251" y1="691.2162" x2="133.8791" y2="444.6249" xlink:href="#e3800a4c-bb4c-4ffa-903c-21b2e67f28eb"/><linearGradient id="fa7f0c1a-9aa1-4e4e-8989-087c67cd3497" x1="860.9458" y1="652.3308" x2="1068.4634" y2="252.5867" gradientTransform="translate(-49.2348 17.9823) rotate(-10.5032)" xlink:href="#a5f06515-6bec-4306-81b1-c6867b83684d"/><linearGradient id="b359a75d-8c13-4b2d-99df-631ee93617ab" x1="178.9892" y1="447.0172" x2="999.5086" y2="447.0172" gradientUnits="userSpaceOnUse"><stop offset="0" stop-color="#2b3582"/><stop offset="1" stop-color="#150e42"/></linearGradient><linearGradient id="b84d47e1-2127-40eb-ad26-8b5b467b09d3" x1="418.9435" y1="223.187" x2="1044.5974" y2="861.8763" gradientUnits="userSpaceOnUse"><stop offset="0" stop-color="#f5cb48"/><stop offset="1" stop-color="#eb9852"/></linearGradient><linearGradient id="adc00212-ba04-479f-be94-c05d8f29731c" x1="268.0599" y1="279.0899" x2="933.1587" y2="610.6582" gradientUnits="userSpaceOnUse"><stop offset="0" stop-color="#cb236d"/><stop offset="1" stop-color="#4c246d"/></linearGradient><linearGradient id="bf44d17b-54fe-497b-8d66-53823e92c5c1" x1="457.1467" y1="390.0495" x2="525.8143" y2="635.2917" gradientUnits="userSpaceOnUse"><stop offset="0" stop-color="#be80fb"/><stop offset="0.9964" stop-color="#d93c65"/></linearGradient><linearGradient id="ef7f98c6-660c-4825-b2fe-472a4fdf1b17" x1="548.9494" y1="364.3448" x2="617.6169" y2="609.5869" xlink:href="#bf44d17b-54fe-497b-8d66-53823e92c5c1"/><linearGradient id="b56454dd-5d6f-43ab-b562-2a2d90227af9" x1="640.7521" y1="338.6401" x2="709.4197" y2="583.8823" xlink:href="#bf44d17b-54fe-497b-8d66-53823e92c5c1"/><linearGradient id="a68cbdda-d54f-410b-b009-b8cff003581b" x1="732.5547" y1="312.9353" x2="801.2223" y2="558.1775" xlink:href="#bf44d17b-54fe-497b-8d66-53823e92c5c1"/><linearGradient id="eee7798f-d666-4870-a9cf-91b7eb33a7ce" x1="546.9342" y1="368.8765" x2="616.8053" y2="287.7762" gradientUnits="userSpaceOnUse"><stop offset="0" stop-color="#fdf53f"/><stop offset="1" stop-color="#d93c65"/></linearGradient><linearGradient id="b7568c34-27e4-4694-b03b-7fd99e1b61fa" x1="656.287" y1="228.6246" x2="449.6762" y2="540.7546" xlink:href="#eee7798f-d666-4870-a9cf-91b7eb33a7ce"/><linearGradient id="a4aab19c-2523-4b8f-8af8-de5dae0af435" x1="627.7217" y1="259.8598" x2="526.9993" y2="400.4287" xlink:href="#eee7798f-d666-4870-a9cf-91b7eb33a7ce"/><linearGradient id="fca1eb69-552f-47fa-a830-056a5445d299" x1="642.3219" y1="270.3214" x2="541.5995" y2="410.8903" xlink:href="#eee7798f-d666-4870-a9cf-91b7eb33a7ce"/><linearGradient id="eba366a2-66c6-48b0-bf62-36a7bea46a46" x1="291.9342" y1="554.8765" x2="361.8053" y2="473.7762" xlink:href="#eee7798f-d666-4870-a9cf-91b7eb33a7ce"/><linearGradient id="ee4ef4c8-0e08-4c90-84a4-706e2804f7ed" x1="401.287" y1="414.6246" x2="194.6762" y2="726.7545" xlink:href="#eee7798f-d666-4870-a9cf-91b7eb33a7ce"/><linearGradient id="a1cb509f-f032-4880-a89f-c7e43256cc9e" x1="372.7217" y1="445.8598" x2="271.9993" y2="586.4287" xlink:href="#eee7798f-d666-4870-a9cf-91b7eb33a7ce"/><linearGradient id="b9a38fe7-1fee-4a61-869f-438737e8bce9" x1="387.3219" y1="456.3214" x2="286.5995" y2="596.8903" xlink:href="#eee7798f-d666-4870-a9cf-91b7eb33a7ce"/><linearGradient id="ed823de3-5bb6-41ec-bb6b-706e3d166b57" x1="805.9342" y1="549.8765" x2="875.8053" y2="468.7762" xlink:href="#eee7798f-d666-4870-a9cf-91b7eb33a7ce"/><linearGradient id="fc908099-938e-4231-8854-8e89f32059e1" x1="915.287" y1="409.6246" x2="708.6762" y2="721.7546" xlink:href="#eee7798f-d666-4870-a9cf-91b7eb33a7ce"/><linearGradient id="b8d36f6e-8f48-41e3-a471-0e760a8455a0" x1="886.7217" y1="440.8598" x2="785.9993" y2="581.4287" xlink:href="#eee7798f-d666-4870-a9cf-91b7eb33a7ce"/><linearGradient id="e531e15f-2cae-4f1a-9de5-3a53fddf3d01" x1="901.3219" y1="451.3214" x2="800.5995" y2="591.8903" xlink:href="#eee7798f-d666-4870-a9cf-91b7eb33a7ce"/><linearGradient id="b4916b32-0a3d-4df3-a78e-4c076e728cb1" x1="320.6257" y1="513.1433" x2="235.4975" y2="830.8173" xlink:href="#adc00212-ba04-479f-be94-c05d8f29731c"/><linearGradient id="b326d0ba-cc1f-4326-9427-08a0145eee1b" x1="2186.4969" y1="652.2654" x2="2217.8156" y2="684.976" gradientTransform="translate(-1772.5176)" xlink:href="#a5f06515-6bec-4306-81b1-c6867b83684d"/><linearGradient id="f3f1935b-98c9-4bc1-8445-db09a4e48cd7" x1="2137.9996" y1="620.4146" x2="2169.9554" y2="500.0477" gradientTransform="translate(-1772.5176)" gradientUnits="userSpaceOnUse"><stop offset="0" stop-color="#53d8ff"/><stop offset="1" stop-color="#3840f7"/></linearGradient><linearGradient id="a625c559-1644-4408-9e10-0640129d8061" x1="2228.0428" y1="734.3691" x2="2287.2834" y2="777.8484" gradientTransform="translate(-1772.5176)" xlink:href="#a5f06515-6bec-4306-81b1-c6867b83684d"/><linearGradient id="bb1fa2d2-4538-4685-81d3-ee6a93fc85a2" x1="2256.3504" y1="711.245" x2="2131.7098" y2="609.4312" gradientTransform="translate(-1772.5176)" gradientUnits="userSpaceOnUse"><stop offset="0" stop-color="#fdf53f"/><stop offset="0.6645" stop-color="#e57a58"/><stop offset="1" stop-color="#d93c65"/></linearGradient><linearGradient id="a907fc2f-9808-4cbe-a904-b76c76b4f533" x1="2290.1603" y1="784.2462" x2="2165.5206" y2="682.4331" xlink:href="#bb1fa2d2-4538-4685-81d3-ee6a93fc85a2"/><linearGradient id="ae6e0680-d8eb-4500-8cd1-423643442cab" x1="-1611.1976" y1="577.3952" x2="-1529.5745" y2="577.3952" gradientTransform="matrix(-1, 0, 0, 1, -1233.1093, 0)" gradientUnits="userSpaceOnUse"><stop offset="0" stop-color="#f9b776"/><stop offset="1" stop-color="#f47960"/></linearGradient><linearGradient id="ef099526-f3a9-46bb-ac9e-a6cd17f19730" x1="2228.894" y1="651.9021" x2="2104.9784" y2="698.6421" xlink:href="#f3f1935b-98c9-4bc1-8445-db09a4e48cd7"/><linearGradient id="bad3335c-0540-4df7-a4b0-bd779ebda2bb" x1="-1444.4693" y1="551.3961" x2="-1630.2045" y2="631.8814" gradientTransform="matrix(-1, 0, 0, 1, -1233.1093, 0)" xlink:href="#bb1fa2d2-4538-4685-81d3-ee6a93fc85a2"/><linearGradient id="eb3c0af6-19e0-4b5a-bbf2-6796a9a4dff6" x1="2036.2606" y1="526.0579" x2="2039.2217" y2="499.4078" gradientTransform="translate(-1772.5176)" xlink:href="#ae6e0680-d8eb-4500-8cd1-423643442cab"/><linearGradient id="b1d7b68f-ef1a-404c-b6be-6e3f5a8fb3f4" x1="2052.0543" y1="502.811" x2="2039.0027" y2="459.7637" gradientTransform="translate(-1772.5176)" xlink:href="#ae6e0680-d8eb-4500-8cd1-423643442cab"/><linearGradient id="af9ff8ce-b74f-4462-b79e-297a0a3fa470" x1="2040.2765" y1="423.769" x2="2052.4111" y2="492.9807" gradientTransform="translate(-1772.5176)" xlink:href="#b359a75d-8c13-4b2d-99df-631ee93617ab"/><linearGradient id="bff007dc-fea9-4cb9-826c-09a8fa860f2d" x1="2038.5355" y1="506.91" x2="2025.4838" y2="463.8624" gradientTransform="translate(-1772.5176)" xlink:href="#ae6e0680-d8eb-4500-8cd1-423643442cab"/><linearGradient id="b47f3f41-46ac-48c2-a565-14e57da411ea" x1="-1497.3875" y1="465.7129" x2="-1507.1305" y2="521.2836" gradientTransform="matrix(-1, 0, 0, 1, -1233.1093, 0)" xlink:href="#b359a75d-8c13-4b2d-99df-631ee93617ab"/><linearGradient id="adf067bd-6664-4363-86b0-231e559bfcb2" x1="-1536.6477" y1="556.0041" x2="-1530.3884" y2="556.0041" gradientTransform="matrix(-1, 0, 0, 1, -1233.1093, 0)" xlink:href="#bb1fa2d2-4538-4685-81d3-ee6a93fc85a2"/><linearGradient id="b5be7e6e-8cf5-4a0f-9c71-a2a04326a475" x1="-1504.2521" y1="565.3269" x2="-1492.6467" y2="565.3269" gradientTransform="matrix(-1, 0, 0, 1, -1233.1093, 0)" xlink:href="#bb1fa2d2-4538-4685-81d3-ee6a93fc85a2"/><linearGradient id="b75bc0d2-b160-4179-a011-c3f83d35f77b" x1="-1482.5498" y1="582.6998" x2="-1456.08" y2="582.6998" gradientTransform="matrix(-1, 0, 0, 1, -1233.1093, 0)" xlink:href="#bb1fa2d2-4538-4685-81d3-ee6a93fc85a2"/><linearGradient id="a17101b7-ad14-4092-8c97-c5e349fac74a" x1="-1622.7256" y1="556.0965" x2="-1587.8596" y2="556.0965" gradientTransform="matrix(-1, 0, 0, 1, -1233.1093, 0)" xlink:href="#b359a75d-8c13-4b2d-99df-631ee93617ab"/><linearGradient id="e3bb8041-0629-498d-a8f4-17024c3c8adc" x1="-1540.8452" y1="636.8661" x2="-1545.9594" y2="590.8386" xlink:href="#ae6e0680-d8eb-4500-8cd1-423643442cab"/><linearGradient id="badee73d-f603-4b9e-8b48-77e2ba99a5a5" x1="761.4586" y1="534.0651" x2="1060.9668" y2="534.0651" gradientUnits="userSpaceOnUse"><stop offset="0" stop-color="#9cfffb"/><stop offset="1" stop-color="#9bfffa"/></linearGradient><linearGradient id="fd90863e-10b7-4e88-8b72-27bbbaf8a384" x1="860.7305" y1="212.3171" x2="980.3002" y2="516.5551" gradientTransform="matrix(1, 0, 0, 1, 0, 0)" xlink:href="#bb1fa2d2-4538-4685-81d3-ee6a93fc85a2"/><linearGradient id="eaed61be-2de8-4825-be52-b8a674913bbc" x1="703.299" y1="274.1901" x2="822.8687" y2="578.4282" gradientTransform="matrix(1, 0, 0, 1, 0, 0)" xlink:href="#bb1fa2d2-4538-4685-81d3-ee6a93fc85a2"/><linearGradient id="aaf4acf7-d143-4a78-aa5c-4b26fc9aa52a" x1="772.7377" y1="246.8996" x2="892.3075" y2="551.1379" gradientTransform="matrix(1, 0, 0, 1, 0, 0)" xlink:href="#bb1fa2d2-4538-4685-81d3-ee6a93fc85a2"/><linearGradient id="b82d9bb1-2454-4958-ab13-ea1d32c1a712" x1="784.4028" y1="242.3158" x2="903.9723" y2="546.5535" gradientTransform="matrix(1, 0, 0, 1, 0, 0)" xlink:href="#bb1fa2d2-4538-4685-81d3-ee6a93fc85a2"/><linearGradient id="b87edfca-2393-4a8f-b72f-7ce6afabdda8" x1="822.2818" y1="343.3766" x2="876.7523" y2="449.6607" gradientTransform="matrix(1, 0, 0, 1, 0, 0)" xlink:href="#bb1fa2d2-4538-4685-81d3-ee6a93fc85a2"/><linearGradient id="f6fe872f-699a-4b57-b83c-518bd95b07a4" x1="1129.6853" y1="332.6134" x2="982.4595" y2="781.0862" gradientTransform="matrix(1, 0, 0, 1, 0, 0)" xlink:href="#bb1fa2d2-4538-4685-81d3-ee6a93fc85a2"/><linearGradient id="bfae6a2e-5c67-453d-9bbc-44f2b31903a2" x1="-777.291" y1="642.4575" x2="-710.3152" y2="684.9614" gradientTransform="matrix(-1, 0, 0, 1, 309.875, 0)" xlink:href="#f3f1935b-98c9-4bc1-8445-db09a4e48cd7"/><linearGradient id="bf0c72c1-3c03-473b-941f-991cde32c9c7" x1="-837.6238" y1="595.7392" x2="-770.648" y2="638.243" gradientTransform="matrix(-1, 0, 0, 1, 309.875, 0)" xlink:href="#f3f1935b-98c9-4bc1-8445-db09a4e48cd7"/><linearGradient id="e63997c3-d545-41f0-8055-ada5b64b5e7b" x1="596.6642" y1="560.1444" x2="860.0343" y2="560.1444" xlink:href="#badee73d-f603-4b9e-8b48-77e2ba99a5a5"/><linearGradient id="b1f4bfe8-7a11-462f-ac7d-048da4bb40f5" x1="658.1659" y1="539.0466" x2="818.0574" y2="539.0466" xlink:href="#b359a75d-8c13-4b2d-99df-631ee93617ab"/><linearGradient id="b45295d4-3342-47aa-84dc-b548d4c80675" x1="628.6658" y1="577.4875" x2="790.6659" y2="577.4875" xlink:href="#b359a75d-8c13-4b2d-99df-631ee93617ab"/><linearGradient id="be68a655-cc49-4106-9d5f-cef2a496a509" x1="626.9095" y1="411.3702" x2="656.6959" y2="411.3702" xlink:href="#b359a75d-8c13-4b2d-99df-631ee93617ab"/><linearGradient id="bdef1129-a5a3-4fe9-933a-59346776ed79" x1="794.5634" y1="703.4311" x2="824.5179" y2="703.4311" xlink:href="#b359a75d-8c13-4b2d-99df-631ee93617ab"/><linearGradient id="abc2bfb8-7692-42d0-84f0-6841f33e204d" x1="787.683" y1="433.5206" x2="640.5377" y2="763.1269" xlink:href="#b359a75d-8c13-4b2d-99df-631ee93617ab"/><linearGradient id="a3f613bb-b930-446c-b959-b7ddd8aaf1e8" x1="819.376" y1="447.6688" x2="672.2311" y2="777.2742" xlink:href="#b359a75d-8c13-4b2d-99df-631ee93617ab"/><linearGradient id="bd2670b4-a0a0-4933-8d25-db8ec935b5b8" x1="937.1048" y1="652.1498" x2="1074.9204" y2="741.0215" gradientTransform="matrix(1, 0, 0, 1, 0, 0)" xlink:href="#f3f1935b-98c9-4bc1-8445-db09a4e48cd7"/></defs><path d="M1066.1938,560.4336c-5.4159-58.7431-61.46-99.8219-80.8908-155.522-15.6621-44.8961-6.0015-94.0826-6.0408-141.6322s-15.57-102.1041-59.3574-120.6418c-33.3262-14.1091-71.99-2.2284-103.7571,15.1083-55.3606,30.2128-105.9191,78.0182-168.96,79.87-46.2549,1.3591-89.5271-23.19-124.9838-52.9256s-65.9069-65.3174-103.1246-92.8166S334.8351,45.1371,289.615,54.9612c0,0-99.9416,39.1447-78.7949,138.9173,6.3457,29.94,16.84,58.6789,25.3112,88.0882s11.6622,62.7777-3.81,89.184c-18.8271,32.133-59.8439,45.2266-81.0514,75.8405-22.8523,32.9887-16.7022,79.5723,4.692,113.5248,32.5409,51.6421,92.4316,78.4622,150.0722,98.5467,185.2277,64.5423,386.2768,89.0411,579.4941,55.2478,42.9787-7.5166,86.6121-18.37,122.34-43.4139S1070.1994,603.88,1066.1938,560.4336Z" style="opacity:0.6000000000000001;fill:url(#a5f06515-6bec-4306-81b1-c6867b83684d)"/><path d="M1116.7011,373.6381c-21.1923-27.1485-50.9406-47.9054-66.4377-78.6627-23.6661-46.97-8.3122-104.8133-24.5123-154.8518C1011.8668,97.239,975.319,64.17,933.722,46.8051S845.86,26.245,800.8682,29.0034A535.5259,535.5259,0,0,0,538.2,117.3505c-38.2991,25.5148-73.2794,55.9836-113.0288,79.1741s-86.22,38.986-131.5843,31.2459c-45.322-7.7328-83.2725-37.4822-124.806-57.2014a179.7913,179.7913,0,0,0-52.6651-15.9774c-39.774-5.2419-75.3679,25.2616-76.61,65.36-1.0588,34.1778,7.4958,68.6985,25.1569,98.0071C86.817,354.725,121.354,382.16,148.4,415.4929s46.9849,78.3682,32.3458,118.72c-12.4872,34.42-48.4207,60.7419-47.4133,97.3435,1.0538,38.2872,41.6239,62.0877,78.0086,74.0528,107.129,35.23,226.008,33.5911,332.125-4.5784,61.0229-21.95,119.6851-55.9437,184.4846-58.5113,68.0819-2.6979,133.0087,29.8965,201.0486,33.5037,74.4477,3.9468,151.3715-30.7256,192.4055-92.9689S1162.5752,432.4055,1116.7011,373.6381Z" style="fill:url(#e3800a4c-bb4c-4ffa-903c-21b2e67f28eb)"/><path d="M380.1658,729.5466l-211,4s-95-21-66-109,26-89-9-128-92-128-31-168,86,14,97,52,22,40,49,10,76,21,78,83S380.1658,729.5466,380.1658,729.5466Z" style="fill:url(#a4485dd1-329a-4087-b845-fa381d8392cc)"/><path d="M807.5652,509.15s45.83-289.9909,204.7627-452.5684c10.6841-10.9288,33.6677-7.6017,40.4861,5.903C1098.407,152.7875,1200.7513,427.8743,807.5652,509.15Z" style="fill:url(#fa7f0c1a-9aa1-4e4e-8989-087c67cd3497)"/><path d="M841.7585,489.4312c-.8042.7147.5509,1.7592,1.48,1.1411,34.2564-22.7868,163.4-133.4728,185.9725-346.3923.0724-.684-1.252-.9-1.4012-.228C1016.7971,193.4959,968.9123,376.419,841.7585,489.4312Z" style="fill:#fff;opacity:0.5"/><path d="M288.7157,706.29,179.7192,201.1842a31.8571,31.8571,0,0,1,31.9824-38.5657L968.49,182.63a31.8571,31.8571,0,0,1,30.8173,35.39L945.32,700.3647a31.8571,31.8571,0,0,1-31.5119,28.3132L320.0035,731.427A31.8572,31.8572,0,0,1,288.7157,706.29Z" style="fill:url(#b359a75d-8c13-4b2d-99df-631ee93617ab)"/><path d="M229.0431,225.47,331.5241,677.484A20.5112,20.5112,0,0,0,351.6358,693.46l534.8516-2.82a20.5113,20.5113,0,0,0,20.1943-17.5919l61.2269-425.847a20.5112,20.5112,0,0,0-19.6173-23.4188L249.7318,200.4345A20.5112,20.5112,0,0,0,229.0431,225.47Z" style="fill:url(#b84d47e1-2127-40eb-ad26-8b5b467b09d3)"/><ellipse cx="265.1658" cy="483.5466" rx="10" ry="18" transform="translate(-87.6989 59.7345) rotate(-11.0413)" style="fill:#fff;opacity:0.6900000000000001"/><path d="M783.3841,657.7409c-.1446,0-.2867,0-.4317-.0009l-102.15-.4678a17.5,17.5,0,0,1,.0786-35h.0816l102.15.4678c.09.0009.1811.0009.271.0009a59.5307,59.5307,0,0,0,58.75-51.1054l26.9023-192.3526a68.3669,68.3669,0,0,0-68.3276-77.834l-359.5855,3.2588A74.7075,74.7075,0,0,0,368.4617,393.65l34.2734,176.541a63.2789,63.2789,0,0,0,61.6768,51.0918l60.9707.2783a17.5,17.5,0,0,1-.0786,35h-.0816l-60.9707-.2783a98.3678,98.3678,0,0,1-95.875-79.4218L334.1033,400.32A109.706,109.706,0,0,1,440.8054,269.71l359.5855-3.2588a103.3651,103.3651,0,0,1,103.3071,117.68L876.7957,576.4831a94.32,94.32,0,0,1-93.4116,81.2578Z" style="fill:url(#adc00212-ba04-479f-be94-c05d8f29731c)"/><rect x="435.1658" y="396.5466" width="84" height="130" rx="9.997" style="fill:url(#bf44d17b-54fe-497b-8d66-53823e92c5c1)"/><rect x="534.1658" y="396.5466" width="84" height="130" rx="9.997" style="fill:url(#ef7f98c6-660c-4825-b2fe-472a4fdf1b17)"/><rect x="633.1658" y="396.5466" width="84" height="130" rx="9.997" style="fill:url(#b56454dd-5d6f-43ab-b562-2a2d90227af9)"/><rect x="732.1658" y="396.5466" width="84" height="130" rx="9.997" style="fill:url(#a68cbdda-d54f-410b-b009-b8cff003581b)"/><circle cx="618.2166" cy="286.1381" r="52.0915" style="fill:url(#eee7798f-d666-4870-a9cf-91b7eb33a7ce)"/><circle cx="618.2166" cy="286.1381" r="50.3594" style="fill:url(#b7568c34-27e4-4694-b03b-7fd99e1b61fa)"/><path d="M571.7942,284.6716c-.0176,0-.0356,0-.0532-.001a1.0007,1.0007,0,0,1-.9463-1.0517,47.76,47.76,0,0,1,.69-5.9649,1,1,0,1,1,1.9678.3555,45.8859,45.8859,0,0,0-.6611,5.7148A1,1,0,0,1,571.7942,284.6716Z" style="fill:#fff"/><path d="M576.69,266.2185a1,1,0,0,1-.8916-1.45,47.2885,47.2885,0,0,1,42.4185-26.1172,47.8976,47.8976,0,0,1,8.5659.77,1,1,0,1,1-.3584,1.9668,45.9728,45.9728,0,0,0-8.2075-.7373,45.2982,45.2982,0,0,0-40.6333,25.0176A1,1,0,0,1,576.69,266.2185Z" style="fill:#fff"/><circle cx="619.3138" cy="287.2353" r="42.6231" transform="translate(199.7496 825.77) rotate(-76.9601)" style="fill:#fff;opacity:0.78"/><path d="M632.3635,271.13c0,7.2171-5.8506,15.0086-13.0677,15.0086S606.228,278.3466,606.228,271.13s5.8506-12.3373,13.0678-12.3373S632.3635,263.9124,632.3635,271.13Z" style="fill:url(#a4aab19c-2523-4b8f-8af8-de5dae0af435)"/><path d="M603.0786,313.9247h31.9007a7.7216,7.7216,0,0,0,7.3544-5.3687l1.7166-5.3652a7.7137,7.7137,0,0,0-4.66-9.5979c-12.9824-4.7468-26.4067-4.1377-40.1583.438a7.6889,7.6889,0,0,0-4.9273,9.3212l1.3218,4.8726A7.7217,7.7217,0,0,0,603.0786,313.9247Z" style="fill:url(#fca1eb69-552f-47fa-a830-056a5445d299)"/><circle cx="363.2166" cy="472.1381" r="52.0915" style="fill:url(#eba366a2-66c6-48b0-bf62-36a7bea46a46)"/><circle cx="363.2166" cy="472.1381" r="50.3594" style="fill:url(#ee4ef4c8-0e08-4c90-84a4-706e2804f7ed)"/><path d="M316.7947,470.6716c-.0176,0-.0352,0-.0532-.001a1.0008,1.0008,0,0,1-.9463-1.0508,47.7428,47.7428,0,0,1,.69-5.9658,1,1,0,1,1,1.9678.3555,45.7436,45.7436,0,0,0-.6606,5.7139A1,1,0,0,1,316.7947,470.6716Z" style="fill:#fff"/><path d="M321.69,452.2185a1,1,0,0,1-.8916-1.45,47.2885,47.2885,0,0,1,42.4185-26.1172,47.8976,47.8976,0,0,1,8.5659.7705,1,1,0,1,1-.3584,1.9668,45.9728,45.9728,0,0,0-8.2075-.7373,45.2982,45.2982,0,0,0-40.6333,25.0176A1,1,0,0,1,321.69,452.2185Z" style="fill:#fff"/><circle cx="364.3138" cy="473.2353" r="42.6231" transform="translate(-178.9183 721.3785) rotate(-76.9601)" style="fill:#fff;opacity:0.78"/><path d="M377.3635,457.13c0,7.2171-5.8506,15.0086-13.0677,15.0086S351.228,464.3466,351.228,457.13s5.8506-12.3373,13.0678-12.3373S377.3635,449.9124,377.3635,457.13Z" style="fill:url(#a1cb509f-f032-4880-a89f-c7e43256cc9e)"/><path d="M348.0786,499.9247h31.9007a7.7216,7.7216,0,0,0,7.3544-5.3687l1.7166-5.3652a7.7137,7.7137,0,0,0-4.66-9.5979c-12.9824-4.7468-26.4067-4.1377-40.1583.438a7.6889,7.6889,0,0,0-4.9273,9.3212l1.3218,4.8726A7.7217,7.7217,0,0,0,348.0786,499.9247Z" style="fill:url(#b9a38fe7-1fee-4a61-869f-438737e8bce9)"/><circle cx="877.2166" cy="467.1381" r="52.0915" style="fill:url(#ed823de3-5bb6-41ec-bb6b-706e3d166b57)"/><circle cx="877.2166" cy="467.1381" r="50.3594" style="fill:url(#fc908099-938e-4231-8854-8e89f32059e1)"/><path d="M830.7942,465.6716c-.0176,0-.0356,0-.0532-.001a1.0007,1.0007,0,0,1-.9463-1.0517,47.76,47.76,0,0,1,.69-5.9649,1,1,0,1,1,1.9678.3555,45.8859,45.8859,0,0,0-.6611,5.7148A1,1,0,0,1,830.7942,465.6716Z" style="fill:#fff"/><path d="M835.69,447.2185a1,1,0,0,1-.8916-1.45,47.2885,47.2885,0,0,1,42.4185-26.1172,47.8976,47.8976,0,0,1,8.5659.7705,1,1,0,1,1-.3584,1.9668,45.9728,45.9728,0,0,0-8.2075-.7373,45.2982,45.2982,0,0,0-40.6333,25.0176A1,1,0,0,1,835.69,447.2185Z" style="fill:#fff"/><circle cx="878.3138" cy="468.2353" r="42.6231" transform="translate(223.9789 1218.2522) rotate(-76.9601)" style="fill:#fff;opacity:0.78"/><path d="M891.3635,452.13c0,7.2171-5.8506,15.0086-13.0677,15.0086S865.228,459.3466,865.228,452.13s5.8506-12.3373,13.0678-12.3373S891.3635,444.9124,891.3635,452.13Z" style="fill:url(#b8d36f6e-8f48-41e3-a471-0e760a8455a0)"/><path d="M862.0786,494.9247h31.9007a7.7216,7.7216,0,0,0,7.3544-5.3687l1.7166-5.3652a7.7137,7.7137,0,0,0-4.66-9.5979c-12.9824-4.7468-26.4067-4.1377-40.1583.438a7.6889,7.6889,0,0,0-4.9273,9.3212l1.3218,4.8726A7.7217,7.7217,0,0,0,862.0786,494.9247Z" style="fill:url(#e531e15f-2cae-4f1a-9de5-3a53fddf3d01)"/><path d="M173.4593,502.6808s-32.0092,17.7317-34.6574,47.7415-.22,154.5687,63.9655,185.226,149.1468,23.5916,181.6678,20.24,50.5529-25.4534,54.58-40.6711,10.5342-71.9056-23.6773-90.191-70.1439-46.3-106.0488-73.5784S211.8515,479.6407,173.4593,502.6808Z" style="fill:url(#b4916b32-0a3d-4df3-a78e-4c076e728cb1)"/><path d="M405.25,635.3717s-8.6391.457-9.6986,18.2306c0,0,20.0327,17.9581,47.0927,22.2324,2.0314.3209-2.84-13.8677-3.5723-15.7895C435.5871,650.9,424.6129,645.0107,405.25,635.3717Z" style="fill:url(#b326d0ba-cc1f-4326-9427-08a0145eee1b)"/><path d="M307.9555,614.4733h8.6732a22.15,22.15,0,0,0,15.9188-6.7334c14.3609-14.8182,50.2528-49.7006,78.6234-59.3129a9.5888,9.5888,0,0,1,11.7239,5.0687c5.9221,12.6364,14.2315,42.0443-5.4455,86.5532-2.18,4.9316-8.3656,7.0272-12.8489,4.032a7.2708,7.2708,0,0,1-2.7644-3.3734L404,588.6836s-47.73,41.7447-56.0258,49.8006S297.5076,641.63,307.9555,614.4733Z" style="fill:url(#f3f1935b-98c9-4bc1-8445-db09a4e48cd7)"/><path d="M484.2072,744.2187a68.5376,68.5376,0,0,0-37.3843-16.36l-5.9431,3.635a64.75,64.75,0,0,0,10.7126,11.4942c6.3626,3.6954,16.1874,8.7008,24.3325,9.7857C483.8439,753.8281,485.0118,749.043,484.2072,744.2187Z" style="fill:url(#a625c559-1644-4408-9e10-0640129d8061)"/><path d="M439.0717,660.0452c-4.7065,1.5233-6.7765,8.1912-18.719,3.7818a105.71,105.71,0,0,1-24.5626-12.94c-.0987.86-.1816,1.7576-.2388,2.7154,0,0,21.1223,20.0907,48.1825,24.365a2.6932,2.6932,0,0,0,2.9091-3.6289A67.97,67.97,0,0,0,439.0717,660.0452Z" style="fill:url(#bb1fa2d2-4538-4685-81d3-ee6a93fc85a2)"/><path d="M489.9625,749.935a63.0113,63.0113,0,0,0-5.7553-5.7163c.8046,4.8243-.3633,9.6094-8.2823,8.5548-8.1451-1.0849-17.97-6.09-24.3325-9.7857,7.9744,6.801,20.1078,14.02,35.4222,13.5959A4.0168,4.0168,0,0,0,489.9625,749.935Z" style="fill:url(#a907fc2f-9808-4cbe-a904-b76c76b4f533)"/><path d="M314.5517,558.6411s14.0214,40.3832,41.3477,9.6471l2.6018-1.1548h0l19.5871-13.3887-2.1825,7.7526a14.4938,14.4938,0,0,1-8.4361,9.4757l-2.58,1.0619c-4.91,10.2057-15.4322,25.6717-31.6346,28.6048-24.3172,4.4026-36.79-28.4522-36.79-28.4522Z" style="fill:url(#ae6e0680-d8eb-4500-8cd1-423643442cab)"/><path d="M308.6226,627.6641l85.3725.9242s48.7541,40.3369,57.5973,101.8442c0,0,1.4677,4.5238-7.3449,5.2976,0,0-29.4763-19.2515-48.6962-53.2883-23.5663-41.7343-70.2542-22.9479-70.2542-22.9479-15.3407-11.06-37.0172-13.3122-53.3478-16.9966Z" style="fill:url(#ef099526-f3a9-46bb-ac9e-a6cd17f19730)"/><path d="M315.5636,626.9114s-10.451-28.4094-12.6971-56.0137c0,0,7.6457-6.5709,12.4246-9.4059a3.4559,3.4559,0,0,0,1.35-4.4806c-3.5136-7.2783-24.7619-35.8585-26.3532-36.2556-8.6515-2.1592-44.1316-19.0289-69.12,15.1516-10.7244,14.6692,2.1281,59.8258,50.7816,106.59l10.0371,1.92Z" style="fill:url(#bad3335c-0540-4df7-a4b0-bd779ebda2bb)"/><path d="M258.3533,496.6411,252,517.8308a2.33,2.33,0,0,0,.9048,2.5949c3.0589,2.095,11.0534,6.2614,22.02,2.2124a3.4552,3.4552,0,0,0,2.2224-2.967l1.506-18.46Z" style="fill:url(#eb3c0af6-19e0-4b5a-bbf2-6796a9a4dff6)"/><path d="M295.5554,479.4806s-3.1236,21.9655-11.5616,28.72-24.8774,1.6688-30.43-14.8906l11.0634-28.3132Z" style="fill:url(#b1d7b68f-ef1a-404c-b6be-6e3f5a8fb3f4)"/><path d="M263.381,483.3187a1.0871,1.0871,0,0,0,1.4139-.8711,28.3915,28.3915,0,0,1,2.6043-8.7739s-.8051-2.8818,7.2831,1.4717,20.2368,10.7484,27.3892,6.94c6.9734-3.7129,14.0369-22.3982-4.3925-18.9364a1.0871,1.0871,0,0,1-1.2935-1.1383c.2264-3.071-.0782-10.1363-7.233-12.4041-6.6951-2.122-10.3605.9-11.8709,2.7247a1.0813,1.0813,0,0,1-1.693-.0272c-2.0054-2.6184-7.4523-8.1917-15.4707-4.6581-6.6045,2.9106-7.6316,6.9786-7.5226,9.5137a1.0839,1.0839,0,0,1-1.5448,1.0339c-2.0228-.9316-5.2763-1.4155-8.3929,2.4894-4.3085,5.3984,1.8485,10.08,3.6957,11.3073a1.088,1.088,0,0,1,.4929.8978c.0174,2.8073.4546,15.0537,6.5923,21.9614a1.0967,1.0967,0,0,0,1.8234-.315l4.7259-11.26a1.0925,1.0925,0,0,1,1.3424-.617Z" style="fill:url(#af9ff8ce-b74f-4462-b79e-297a0a3fa470)"/><path d="M263.4808,485.6049s-2.8859-11.7541-7.2695-7.9379,1.1426,12.2159,6.1646,13.8168Z" style="fill:url(#bff007dc-fea9-4cb9-826c-09a8fa860f2d)"/><path d="M263.31,483.6424s-3.7913,11.5442,3.5862,17.93c1.4083,1.219,7.5182-.9246,9.5629,0,3.1047,1.404,5.8441,3.352,10.7583,3.5861l-5.707,10.5985a6.19,6.19,0,0,1-8.11,2.6687c-7.3832-3.52-19.6528-11.13-19.6528-22.83l2.3907-5.9768Z" style="fill:url(#b47f3f41-46ac-48c2-a565-14e57da411ea)"/><path d="M302.8665,571.57a.6715.6715,0,0,0,.6716-.6689c.0432-12.8368-4.8937-29.81-4.9435-29.98a.6711.6711,0,1,0-1.288.3778c.0485.1678,4.93,16.9578,4.8885,29.5964a.672.672,0,0,0,.6688.6743Z" style="fill:url(#adf067bd-6664-4363-86b0-231e559bfcb2)"/><path d="M270.471,582.0008a.6712.6712,0,0,0,.6138-.9443c-.0866-.1954-8.68-19.661-10.21-31.8158a.6716.6716,0,0,0-1.3326.168c1.5543,12.3514,10.2267,31.9968,10.3146,32.1935A.671.671,0,0,0,270.471,582.0008Z" style="fill:url(#b5be7e6e-8cf5-4a0f-9c71-a2a04326a475)"/><path d="M245.8848,602.3781l3.32-2.8212a.6718.6718,0,1,0-.8708-1.0231l-2.4881,2.1157c-15.8823-12.5627-21.4921-36.8576-21.5472-37.1043a.6721.6721,0,1,0-1.3116.2939c.0577.253,5.8669,25.4479,22.4679,38.2084Z" style="fill:url(#b75bc0d2-b160-4179-a011-c3f83d35f77b)"/><path d="M387.8564,543.434l1.3741,1.8821a2.0047,2.0047,0,0,1-.4883,2.8374l-30.8563,21.0789a2.0049,2.0049,0,0,1-2.5949-.2861h0a2.0045,2.0045,0,0,1,.2323-2.951l29.4823-22.9609A2.0046,2.0046,0,0,1,387.8564,543.434Z" style="fill:url(#a17101b7-ad14-4092-8c97-c5e349fac74a)"/><path d="M365.3515,605.9246a3.2513,3.2513,0,0,1,2.7,3.4487c-.036,6.0094-1.09,18.4942-9.0508,20.9116-9.9423,3.0194-21.2334-1.7752-18.5674-22.2681.2961-2.2756,1.9675-3.9321,3.8912-3.7777Z" style="fill:#fff"/><path d="M345.2077,623.3681s-51.6538,0-77.8937-40.7649L251.9,596.6969s30.8538,52.8614,88.9425,33.0509c0,0,13.4137,2.7689,20.974.6716,4.2441-1.1775,6.5486-4.9738,7.7534-8.0774a2.2558,2.2558,0,0,0-2.8556-2.9261C361.3638,621.2576,351.8617,624.0564,345.2077,623.3681Z" style="fill:url(#e3bb8041-0629-498d-a8f4-17024c3c8adc)"/><path d="M342.5215,610.7207s-3.1338-8.4529-8.5061-2.3238,3.3576,10.83,8.5061,11.5015V617.67s-6.0126-2.6956-5.2447-6.2773,5.2447.8955,5.2447.8955Z" style="fill:#fff"/><path d="M361.7618,568.9142a14.9538,14.9538,0,0,0-5.4117,3.1515,9.6767,9.6767,0,0,0-3.0148,5.515,7.471,7.471,0,0,0,1.562,6.0377,25.2575,25.2575,0,0,0,4.6718,3.9617,10.3673,10.3673,0,0,1,3.6916,4.4559,4.4433,4.4433,0,0,1,.1333,2.8066,4.8172,4.8172,0,0,1-1.6424,2.329c-1.5289,1.2687-3.4854,1.8842-5.2592,2.8725a9.3237,9.3237,0,0,0-2.3917,1.8722,4.2514,4.2514,0,0,0-1.1413,2.7653.0341.0341,0,0,0,.0682.0009,4.1429,4.1429,0,0,1,1.1832-2.6677,9.1448,9.1448,0,0,1,2.3919-1.7717c1.7579-.9247,3.7539-1.488,5.3914-2.77a5.2442,5.2442,0,0,0,1.845-2.49,4.9533,4.9533,0,0,0-.0622-3.1261,10.9617,10.9617,0,0,0-3.774-4.8331,24.7736,24.7736,0,0,1-4.4238-3.9379,6.5076,6.5076,0,0,1-1.2345-5.33,8.5662,8.5662,0,0,1,2.8072-4.8193,13.7016,13.7016,0,0,1,5.0308-2.7467.6717.6717,0,0,0-.4028-1.2816Z" style="fill:#fff"/><path d="M350.38,585.2858c1.0138,2.08,2.9329,3.0315,3.8342,4.552a2.8307,2.8307,0,0,1,.4727,2.3416,3.979,3.979,0,0,1-1.6042,1.9788c-1.4453,1.0746-3.6319,1.6421-4.8006,3.5853a4.0527,4.0527,0,0,0,1.792,5.5412.3308.3308,0,0,0,.2755-.6016,3.3181,3.3181,0,0,1-1.3512-4.5163,5.303,5.303,0,0,1,2.0443-1.748c.8227-.465,1.75-.8476,2.6147-1.4392a4.9859,4.9859,0,0,0,2.0687-2.48,3.9586,3.9586,0,0,0-.51-3.2723c-1.1246-1.8709-2.97-2.915-3.61-4.49a.6719.6719,0,1,0-1.245.5057C350.3661,585.257,350.3731,585.2727,350.38,585.2858Z" style="fill:#fff"/><path d="M780.4079,339.7451,761.4961,699.0338a26.7337,26.7337,0,0,0,22.7309,27.843l176.9412,26.5421a26.7336,26.7336,0,0,0,30.2029-21.31l69.0934-353.4988a26.7336,26.7336,0,0,0-22.47-31.5949l-227.1228-32.332A26.7336,26.7336,0,0,0,780.4079,339.7451Z" style="fill:url(#badee73d-f603-4b9e-8b48-77e2ba99a5a5)"/><path d="M795.7984,355.595l-19.38,335.67c-.7416,12.8459,7.8916,24.0282,19.947,25.8366l156.656,23.4992c12.5257,1.8789,24.3936-6.9886,26.9284-20.12l63.8207-330.6284c2.7121-14.05-6.2708-27.4382-19.688-29.3424l-201.0972-28.541C809.2231,330.0155,796.6441,340.9468,795.7984,355.595Z" style="fill:#fff;opacity:0.78"/><path d="M964.5887,675.39a4.0067,4.0067,0,0,1-3.9561-4.6231L1003.77,396.8864a12.093,12.093,0,0,0-9.9712-13.7832L848.428,359.3366a4,4,0,1,1,1.291-7.8945L995.09,375.2087a20.11,20.11,0,0,1,16.5825,22.9219L968.5349,672.0114A4.0014,4.0014,0,0,1,964.5887,675.39Z" style="fill:url(#fd90863e-10b7-4e88-8b72-27bbbaf8a384)"/><path d="M932.0061,707.9724a3.99,3.99,0,0,1-.5664-.041L814.3347,691.322a21.6105,21.6105,0,0,1-18.6171-22.3311c5.0107-123.9414,11.0654-272.2285,11.4536-274.8144a4,4,0,0,1,7.9262,1.0752c-.4155,4.6933-6.15,144.5547-11.3867,274.0615a13.6365,13.6365,0,0,0,11.7476,14.0889l117.1045,16.6093a4,4,0,0,1-.5567,7.961Z" style="fill:url(#eaed61be-2de8-4825-be52-b8a674913bbc)"/><path d="M840.66,382.3854l-8.4288-.0953-2.5878-10.37-12.1932-.1378-2.8214,10.3086-8.431-.0953,12.0247-41.1178,11.1334.1258Zm-16.74-34.3362-.2115-.0024-4.5424,17.2359,8.908.1007Z" style="fill:url(#aaf4acf7-d143-4a78-aa5c-4b26fc9aa52a)"/><path d="M943.093,678.0865l8.4021.6779,1.8644,10.5237,12.1545.9807,3.5275-10.0888,8.4043.6781-14.8394,40.1878-11.098-.8954Zm14.325,35.4116.2109.017,5.7235-16.88-8.88-.7165Z" style="fill:url(#b82d9bb1-2454-4958-ab13-ea1d32c1a712)"/><path d="M880.446,606.2938c1.8122,3.66,8.14,4.3268,10.6944,1.1237,19.1344-23.9957,75.6571-96.1512,78.6346-114.8549,3.5874-22.5352-29.131-59.0863-74.8672-18.8912,0,0-10.9757-25.024-39.3835-23.6868-17.4938.8234-26.9749,13.4924-31.6779,23.1055a21.4153,21.4153,0,0,0,.1865,19.277Z" style="fill:url(#b87edfca-2393-4a8f-b72f-7ce6afabdda8)"/><path d="M1011.1658,719.5466s-61-168,19-285c57.061-83.4517,82.58-130.2739,92.5229-150.264a5.0073,5.0073,0,0,1,9.305.8707C1148.1139,342.522,1201.218,582.0434,1011.1658,719.5466Z" style="fill:url(#f6fe872f-699a-4b57-b83c-518bd95b07a4)"/><path d="M1018.1658,684.5466s-3.1008-97.3645,35.628-190.512c2.4891-5.9866,11.5052-2.494,9.3389,3.6169A946.3958,946.3958,0,0,0,1018.1658,684.5466Z" style="fill:#fff;opacity:0.39"/><circle cx="1040.5408" cy="672.0466" r="98" style="fill:url(#bfae6a2e-5c67-453d-9bbc-44f2b31903a2)"/><path d="M1026.6658,766.2966a93.875,93.875,0,1,1,93.875-93.875A93.9815,93.9815,0,0,1,1026.6658,766.2966Zm0-186.75a92.875,92.875,0,1,0,92.875,92.875A92.98,92.98,0,0,0,1026.6658,579.5466Z"/><circle cx="1026.6658" cy="672.4216" r="98" style="fill:url(#bf0c72c1-3c03-473b-941f-991cde32c9c7)"/><path d="M956.6658,672.4216a70,70,0,1,1,70,70A70.0794,70.0794,0,0,1,956.6658,672.4216Zm5.6034,0a64.3966,64.3966,0,1,0,64.3966-64.3966A64.47,64.47,0,0,0,962.2692,672.4216Z" style="fill:#fff;opacity:0.78"/><g style="opacity:0.78"><path d="M1089.81,621.9266l8.9049-8.9048a92.9464,92.9464,0,0,1,20.8977,50.4558h-12.5878A80.4644,80.4644,0,0,0,1089.81,621.9266Z" style="fill:#fff"/><path d="M976.1707,609.2779l-8.9049-8.9048a92.9469,92.9469,0,0,1,50.456-20.8978v12.5876A80.4611,80.4611,0,0,0,976.1707,609.2779Z" style="fill:#fff"/><path d="M1035.61,592.0629V579.4753a92.9463,92.9463,0,0,1,50.4559,20.8978l-8.9048,8.9048A80.4614,80.4614,0,0,0,1035.61,592.0629Z" style="fill:#fff"/><path d="M946.3072,663.4776H933.7193a92.9465,92.9465,0,0,1,20.8978-50.4558l8.9049,8.9048A80.4644,80.4644,0,0,0,946.3072,663.4776Z" style="fill:#fff"/><path d="M963.522,722.9166l-8.9049,8.9048a92.9475,92.9475,0,0,1-20.8978-50.4558h12.5879A80.4644,80.4644,0,0,0,963.522,722.9166Z" style="fill:#fff"/><path d="M1107.0244,681.3656h12.5878a92.9474,92.9474,0,0,1-20.8977,50.4558l-8.9049-8.9048A80.4644,80.4644,0,0,0,1107.0244,681.3656Z" style="fill:#fff"/><path d="M1017.7218,752.78v12.5876a92.9469,92.9469,0,0,1-50.456-20.8978l8.9049-8.9048A80.4611,80.4611,0,0,0,1017.7218,752.78Z" style="fill:#fff"/><path d="M1077.1609,735.5653l8.9048,8.9048a92.9463,92.9463,0,0,1-50.4559,20.8978V752.78A80.4614,80.4614,0,0,0,1077.1609,735.5653Z" style="fill:#fff"/></g><path d="M596.7818,396.6257,628.9925,730.05a24.89,24.89,0,0,0,24.7748,22.4968H820.35a24.89,24.89,0,0,0,24.866-23.7922L860.01,393.73a24.89,24.89,0,0,0-25.0523-25.9874l-213.5871,1.6A24.89,24.89,0,0,0,596.7818,396.6257Z" style="fill:url(#e63997c3-d545-41f0-8055-ada5b64b5e7b)"/><path d="M608.7733,410.1433l29.4618,312.7982a22.9945,22.9945,0,0,0,22.66,21.1051H813.2624c12.1827,0,22.2064-9.837,22.7438-22.32L849.537,407.4271c.575-13.3563-9.88-24.48-22.9143-24.38l-195.3594,1.5009C617.8933,384.6509,607.4877,396.4932,608.7733,410.1433Z" style="fill:#fff;opacity:0.78"/><path d="M812.1663,680.5466h-.03a4.0006,4.0006,0,0,1-3.9707-4.0293l1.8911-258.1309a10.98,10.98,0,0,0-10.811-11.0351l-137.1328-1.8047a4,4,0,0,1,.1054-8l137.1324,1.8047a19,19,0,0,1,18.706,19.0937l-1.8911,258.1309A4,4,0,0,1,812.1663,680.5466Z" style="fill:url(#b1f4bfe8-7a11-462f-ac7d-048da4bb40f5)"/><path d="M676.4119,715.9284a20.3942,20.3942,0,0,1-20.334-18.2373c-12.5054-114.8164-27.4121-252.1963-27.4121-254.6445a4,4,0,0,1,7.9985-.1162c.2823,4.53,14.3111,134.0264,27.3667,253.8945a12.4187,12.4187,0,0,0,12.3828,11.1035c.0342,0,.0679-.0009.1026-.0009l110.1172-.8809h.0327a4,4,0,0,1,.0317,8l-110.1176.8809C676.5242,715.9275,676.468,715.9284,676.4119,715.9284ZM636.6658,443.0466h0Z" style="fill:url(#b45295d4-3342-47aa-84dc-b548d4c80675)"/><path d="M653.9039,428.1522l-1.0571.1464a3.2333,3.2333,0,0,1-3.43-1.9631l-1.9009-4.58a3.233,3.233,0,0,0-3.4295-1.963l-6.3007.8725a3.2329,3.2329,0,0,0-2.7671,2.821l-.585,4.9238a3.2331,3.2331,0,0,1-2.767,2.8211l-1.08.1495a3.2331,3.2331,0,0,1-3.6469-3.64l4.4847-32.8661a3.233,3.233,0,0,1,2.76-2.7654l5.4233-.751a3.233,3.233,0,0,1,3.4014,1.8973l13.409,30.3884A3.2331,3.2331,0,0,1,653.9039,428.1522Zm-15.911-29.89-.1951.027-1.3516,12.3749a3.2331,3.2331,0,0,0,3.6575,3.5535h0a3.233,3.233,0,0,0,2.554-4.414Z" style="fill:url(#be68a655-cc49-4106-9d5f-cef2a496a509)"/><path d="M797.5779,685.3885l1.0648-.0729a3.2332,3.2332,0,0,1,3.2856,2.1955l1.58,4.7a3.2331,3.2331,0,0,0,3.2856,2.1955l6.346-.4346a3.2332,3.2332,0,0,0,2.9555-2.623l.9241-4.8715a3.2331,3.2331,0,0,1,2.9555-2.623l1.0878-.0745a3.2331,3.2331,0,0,1,3.3865,3.8831L817.7021,720.14a3.2331,3.2331,0,0,1-2.9446,2.5679l-5.4623.3742a3.2331,3.2331,0,0,1-3.262-2.128l-11.2755-31.2429A3.2332,3.2332,0,0,1,797.5779,685.3885Zm13.8059,30.9193.1965-.0135,2.2041-12.2517a3.233,3.233,0,0,0-3.4029-3.798h0a3.233,3.233,0,0,0-2.8532,4.2268Z" style="fill:url(#bdef1129-a5a3-4fe9-933a-59346776ed79)"/><path d="M729.1113,455.71a4.471,4.471,0,0,0-8.0259-.0579c-12.439,24.89-49.09,99.6353-49.92,117.8948-1,22,26,54,57,11,0,0,10,23,31,19,12.932-2.4632,19.038-15.5447,21.821-25.2327a26.0094,26.0094,0,0,0-1.5623-18.508Z" style="fill:url(#abc2bfb8-7692-42d0-84f0-6841f33e204d)"/><path d="M726.4737,595.9078c-2.5209,18.8457-10.2185,50.2115-21.4218,64.9154-1.9511,2.5607-.5112,6.7234,2.35,6.7234h38.7422c2.6913,0,4.2037-3.7607,2.5848-6.3921-5.5846-9.0781-13.767-33.5589-18.6933-65.31C729.6576,593.411,726.8008,593.4631,726.4737,595.9078Z" style="fill:url(#a3f613bb-b930-446c-b959-b7ddd8aaf1e8)"/><path d="M319.8626,234.3874c0,8.4756-4.2809,17.3408-13.881,17.3408S292.1,242.863,292.1,234.3874s4.2811-17.3408,13.8812-17.3408S319.8626,225.9118,319.8626,234.3874Zm-20.8433,0c0,4.3245,1.1676,12.0219,6.9623,12.0219s6.9621-7.6974,6.9621-12.0219-1.1676-12.0219-6.9621-12.0219S299.0193,230.0629,299.0193,234.3874Z" style="fill:#fff"/><path d="M331.8905,217.5657a2.8112,2.8112,0,0,1,2.56,1.6486l9.3271,20.5354h.0864V220.3768a2.8111,2.8111,0,0,1,2.8111-2.8111h1.1239a2.8111,2.8111,0,0,1,2.8111,2.8111V248.398a2.8111,2.8111,0,0,1-2.8111,2.8111H345.172a2.8112,2.8112,0,0,1-2.5438-1.6145L330.6743,224.182h-.0865v24.216a2.811,2.811,0,0,1-2.8111,2.8111h-1.1238a2.811,2.811,0,0,1-2.8111-2.8111V220.3768a2.8111,2.8111,0,0,1,2.8111-2.8111Z" style="fill:#fff"/><path d="M364.8372,245.5011h8.3886a2.8111,2.8111,0,0,1,2.8111,2.8111v.0858a2.8111,2.8111,0,0,1-2.8111,2.8111H358.0911a2.8111,2.8111,0,0,1-2.8111-2.8111V220.3768a2.8111,2.8111,0,0,1,2.8111-2.8111h1.1239a2.8111,2.8111,0,0,1,2.8111,2.8111V242.69A2.8111,2.8111,0,0,0,364.8372,245.5011Z" style="fill:#fff"/><path d="M379.3669,248.398V220.3768a2.8111,2.8111,0,0,1,2.8111-2.8111h1.1239a2.8111,2.8111,0,0,1,2.8111,2.8111V248.398a2.8111,2.8111,0,0,1-2.8111,2.8111H382.178A2.8111,2.8111,0,0,1,379.3669,248.398Z" style="fill:#fff"/><path d="M398.832,217.5657a2.811,2.811,0,0,1,2.5594,1.6486l9.3271,20.5354h.0865V220.3768a2.8111,2.8111,0,0,1,2.8111-2.8111H414.74a2.8111,2.8111,0,0,1,2.811,2.8111V248.398a2.811,2.811,0,0,1-2.811,2.8111h-2.6266a2.8111,2.8111,0,0,1-2.5437-1.6145L397.6158,224.182h-.0865v24.216a2.8111,2.8111,0,0,1-2.8111,2.8111h-1.1239a2.8111,2.8111,0,0,1-2.8111-2.8111V220.3768a2.8111,2.8111,0,0,1,2.8111-2.8111Z" style="fill:#fff"/><path d="M440.34,223.2738h-8.5615a2.8111,2.8111,0,0,0-2.8111,2.8111v2.421a2.8111,2.8111,0,0,0,2.8111,2.811h6.14a2.8111,2.8111,0,0,1,2.8111,2.8111v.0864a2.8111,2.8111,0,0,1-2.8111,2.811h-6.14a2.8111,2.8111,0,0,0-2.8111,2.8111V242.69a2.8111,2.8111,0,0,0,2.8111,2.8111h9.3833a2.8111,2.8111,0,0,1,2.8111,2.8111v.0858a2.8111,2.8111,0,0,1-2.8111,2.8111H425.0328a2.811,2.811,0,0,1-2.811-2.8111V220.3768a2.8111,2.8111,0,0,1,2.811-2.8111H440.34a2.8111,2.8111,0,0,1,2.8111,2.8111v.0859A2.8111,2.8111,0,0,1,440.34,223.2738Z" style="fill:#fff"/><path d="M829.5039,79.23c10.6874-13.0549,26.6393-18.4286,42.2676-14.52,17.0332,4.26,26.6609,20.5394,42.5122,27.0492,27.659,11.3583,65.908-11.0837,86.9137,18.1963,25.6919,35.8124,45.5445,8.9531,45.5445,33.2544s-177.5069,6.3951-265.0928,7.6741c-12.6536.1847-67.5906-.7373-43.9423-27.0035,7.3439-8.1564,17.8227-9.5226,27.59-11.4313,12.7365-2.489,43.02-3.8546,52.2443-13.7632,4.9653-5.3331,6.8751-12.9966,11.36-18.7049Q829.2,79.602,829.5039,79.23Z" style="fill:#fff;opacity:0.5"/><path d="M968.5408,766.2966a93.875,93.875,0,1,1,93.875-93.875A93.9815,93.9815,0,0,1,968.5408,766.2966Zm0-186.75a92.875,92.875,0,1,0,92.875,92.875A92.98,92.98,0,0,0,968.5408,579.5466Z"/><circle cx="968.5408" cy="672.4216" r="98" style="fill:url(#bd2670b4-a0a0-4933-8d25-db8ec935b5b8)"/><path d="M968.5408,742.4216a70,70,0,1,1,70-70A70.0794,70.0794,0,0,1,968.5408,742.4216Zm0-134.3966a64.3966,64.3966,0,1,0,64.3966,64.3966A64.47,64.47,0,0,0,968.5408,608.025Z" style="fill:#fff;opacity:0.78"/><g style="opacity:0.78"><path d="M905.397,621.9266l-8.9049-8.9048a92.9464,92.9464,0,0,0-20.8977,50.4558h12.5878A80.4644,80.4644,0,0,1,905.397,621.9266Z" style="fill:#fff"/><path d="M1019.0359,609.2779l8.9049-8.9048a92.9469,92.9469,0,0,0-50.456-20.8978v12.5876A80.4611,80.4611,0,0,1,1019.0359,609.2779Z" style="fill:#fff"/><path d="M959.5968,592.0629V579.4753a92.9463,92.9463,0,0,0-50.4559,20.8978l8.9048,8.9048A80.4614,80.4614,0,0,1,959.5968,592.0629Z" style="fill:#fff"/><path d="M1048.8994,663.4776h12.5879a92.9465,92.9465,0,0,0-20.8978-50.4558l-8.9049,8.9048A80.4644,80.4644,0,0,1,1048.8994,663.4776Z" style="fill:#fff"/><path d="M1031.6846,722.9166l8.9049,8.9048a92.9475,92.9475,0,0,0,20.8978-50.4558h-12.5879A80.4644,80.4644,0,0,1,1031.6846,722.9166Z" style="fill:#fff"/><path d="M888.1822,681.3656H875.5944a92.9474,92.9474,0,0,0,20.8977,50.4558l8.9049-8.9048A80.4644,80.4644,0,0,1,888.1822,681.3656Z" style="fill:#fff"/><path d="M977.4848,752.78v12.5876a92.9469,92.9469,0,0,0,50.456-20.8978l-8.9049-8.9048A80.4611,80.4611,0,0,1,977.4848,752.78Z" style="fill:#fff"/><path d="M918.0457,735.5653l-8.9048,8.9048a92.9463,92.9463,0,0,0,50.4559,20.8978V752.78A80.4614,80.4614,0,0,1,918.0457,735.5653Z" style="fill:#fff"/></g><path d="M417.3111,523.0237l-.2045-3.0191a.5225.5225,0,0,1,1.0426-.0708l0,.0049.0016.0293.1561,2.97.0014.0254a.5.5,0,0,1-.9975.06Z" style="fill:#fff"/><path d="M417.2161,512.9445l.2926-3.0141a.5981.5981,0,0,1,1.1905.1157l-.0006.0059-.0036.0312-.3318,2.9536-.0031.0274a.5751.5751,0,0,1-1.144-.12Z" style="fill:#fff"/><path d="M418.7412,502.9738l.7546-2.9345a.6736.6736,0,0,1,1.3047.3354l-.0017.0064-.0089.0327-.7831,2.8652-.0077.0283a.6507.6507,0,0,1-1.2579-.3335Z" style="fill:#fff"/><path d="M421.7552,493.341l1.17-2.7915a.7491.7491,0,1,1,1.3817.5791l-.0029.0069-.0142.0327-1.1874,2.7163-.0124.0283a.7262.7262,0,0,1-1.3351-.5718Z" style="fill:#fff"/><path d="M426.1078,484.23l1.5489-2.6079a.8207.8207,0,0,1,1.4111.8384l-.003.0048-.0195.0323-1.5471,2.5317-.017.0278a.8016.8016,0,0,1-1.3734-.8271Z" style="fill:#fff"/><path d="M431.6732,475.7961l1.8842-2.3784a.8769.8769,0,1,1,1.3747,1.0889l-.0031.0039-.0249.0307-1.8675,2.3037-.0216.0264a.86.86,0,0,1-1.3418-1.0752Z" style="fill:#fff"/><path d="M438.3119,468.17l2.184-2.11a.9331.9331,0,1,1,1.2969,1.3418l-.0038.0039-.0309.0293-2.1538,2.0347-.0267.0254a.9161.9161,0,0,1-1.2657-1.3248Z" style="fill:#fff"/><path d="M445.913,461.487l2.4521-1.7978a.9894.9894,0,0,1,1.17,1.5957l-.0046.0034-.0378.0269-2.406,1.7231-.0329.0234a.9723.9723,0,0,1-1.141-1.5747Z" style="fill:#fff"/><path d="M454.3734,455.9011l2.6834-1.4336a1.0457,1.0457,0,0,1,.9855,1.8447l-.0053.0025-.0457.0239L455.3726,457.7l-.04.021a1.0286,1.0286,0,0,1-.9591-1.82Z" style="fill:#fff"/><path d="M463.56,451.5925l2.8768-1.0166a1.102,1.102,0,0,1,.7344,2.0781l-.0059.002-.0546.0185-2.7912.9512-.0481.0166a1.0849,1.0849,0,0,1-.7114-2.05Z" style="fill:#fff"/><path d="M473.32,448.7424l3.0083-.5435a1.1581,1.1581,0,1,1,.412,2.2793l-.0065.0015-.0629.01-2.9017.4912-.056.0092a1.1411,1.1411,0,0,1-.3932-2.248Z" style="fill:#fff"/><path d="M483.421,447.5085l3.0486-.0732a1.2147,1.2147,0,0,1,.0583,2.4287h-.0069l-.0565.001-2.95.0376-.05,0a1.1975,1.1975,0,0,1-.0441-2.3945Z" style="fill:#fff"/><path d="M493.5728,447.74l3.0273.3233a1.2711,1.2711,0,0,1-.27,2.5278l-.0072-.001-.0526-.0063-2.9317-.3467-.0461-.0054a1.2537,1.2537,0,0,1,.28-2.4917Z" style="fill:#fff"/><path d="M503.6009,449.2268l2.9663.6572a1.3274,1.3274,0,0,1-.5745,2.5918l-.0074-.002-.0457-.01-2.8809-.6729-.0393-.0092a1.31,1.31,0,0,1,.5815-2.5547Z" style="fill:#fff"/><path d="M513.4011,451.7424l2.889.9194a1.3835,1.3835,0,0,1-.839,2.6368l-.0075-.0025-.0379-.0122-2.8166-.9316-.0313-.01a1.3665,1.3665,0,0,1,.8433-2.6Z" style="fill:#fff"/><path d="M522.9412,455.0486l2.813,1.1123a1.44,1.44,0,1,1-1.0589,2.6777l-.0077-.0029-.03-.0122-2.7539-1.125-.0235-.01a1.4227,1.4227,0,0,1,1.0612-2.64Z" style="fill:#fff"/><path d="M532.2393,458.925l2.7468,1.2471a1.4934,1.4934,0,1,1-1.2347,2.72l-.0129-.0058-.0156-.0074-2.7029-1.2578-.0163-.0078a1.4792,1.4792,0,0,1,1.2356-2.688Z" style="fill:#fff"/><path d="M541.3345,463.198l2.7,1.3315a1.5278,1.5278,0,1,1-1.3519,2.74l-.0094-.0043-.0088-.0044-2.6721-1.3414-.01-.0048a1.5173,1.5173,0,0,1,1.3521-2.7168Z" style="fill:#fff"/><path d="M550.2978,467.6887l2.6738,1.3667a1.562,1.562,0,1,1-1.4217,2.7817l-.0117-.0058-2.6595-1.3824a1.5518,1.5518,0,0,1,1.4191-2.76Z" style="fill:#fff"/><path d="M559.2008,472.2434l2.67,1.3559.005.0025a1.5967,1.5967,0,1,1-1.4461,2.8471l-.01-.0048-2.67-1.3794a1.5862,1.5862,0,0,1,1.4508-2.8213Z" style="fill:#fff"/><path d="M568.12,476.7087l2.6905,1.2969.0119.0054a1.631,1.631,0,1,1-1.4164,2.9384l-.01-.0049-2.7052-1.3271a1.6205,1.6205,0,0,1,1.4168-2.915Z" style="fill:#fff"/><path d="M577.128,480.9445l2.7246,1.2212.013.0059a1.6655,1.6655,0,1,1-1.3623,3.04l-.01-.0049-2.7421-1.2515a1.655,1.655,0,0,1,1.3636-3.0161Z" style="fill:#fff"/><path d="M586.25,484.9221l2.7583,1.14.0144.0059a1.7,1.7,0,0,1-1.2983,3.1421l-.0108-.0049-2.7789-1.17a1.6895,1.6895,0,0,1,1.3-3.1187Z" style="fill:#fff"/><path d="M595.4829,488.6208l2.7915,1.0523.0158.0058a1.734,1.734,0,1,1-1.2233,3.2451l-.0111-.0039-2.8156-1.0835a1.7238,1.7238,0,0,1,1.2264-3.2221Z" style="fill:#fff"/><path d="M604.826,492.02l2.8237.9576.0174.0058a1.7685,1.7685,0,1,1-1.1361,3.35l-.0115-.0039-2.8517-.9887a1.7584,1.7584,0,0,1,1.14-3.3267Z" style="fill:#fff"/><path d="M614.2751,495.0954l2.8546.8555.0191.0059a1.803,1.803,0,0,1-1.0356,3.4541l-.0119-.0039-2.8866-.8873a1.7925,1.7925,0,0,1,1.0406-3.4306Z" style="fill:#fff"/><path d="M623.8248,497.822l2.8834.7461.0211.0054a1.8371,1.8371,0,1,1-.92,3.5571l-.0122-.0029-2.92-.7769a1.8271,1.8271,0,0,1,.9266-3.5347Z" style="fill:#fff"/><path d="M633.4677,500.1726l2.91.6274.0231.0049a1.8717,1.8717,0,1,1-.7892,3.6592l-.0125-.0025-2.9512-.6577a1.8615,1.8615,0,0,1,.7966-3.6367Z" style="fill:#fff"/><path d="M643.1939,502.1179l2.932.5.0253.0039a1.9063,1.9063,0,0,1-.6408,3.7583l-.0129-.0024-2.979-.5293a1.8955,1.8955,0,0,1,.6494-3.7349Z" style="fill:#fff"/><path d="M652.99,503.6272l2.9537.3637.0277.0035a1.9405,1.9405,0,0,1-.4743,3.852l-.0133-.0019-3.0063-.3912a1.93,1.93,0,0,1,.4841-3.83Z" style="fill:#fff"/><path d="M662.8443,504.6706l2.96.2168.03.0025a1.9747,1.9747,0,1,1-.2888,3.9389l-.0136-.0009-3.0183-.2422a1.9645,1.9645,0,0,1,.3-3.9175Z" style="fill:#fff"/><path d="M672.7239,505.2155l2.967.0621.0323,0a2.0092,2.0092,0,0,1-.084,4.0176h-.0137l-3.0312-.0844a1.9986,1.9986,0,0,1,.0965-3.9961Z" style="fill:#fff"/><path d="M682.6128,505.2336l2.9637-.1016.0346-.0009a2.0436,2.0436,0,0,1,.14,4.0849h-.0141l-3.0334.083a2.0332,2.0332,0,0,1-.1259-4.0644Z" style="fill:#fff"/><path d="M692.48,504.698l2.9508-.2725.0365-.0034a2.0781,2.0781,0,0,1,.3818,4.1387l-.0142.0009-3.0257.2583a2.0675,2.0675,0,0,1-.3666-4.1186Z" style="fill:#fff"/><path d="M702.2928,503.5857l2.9263-.4488.0382-.0058a2.1125,2.1125,0,0,1,.64,4.1762l-.0143.002-3.0059.4394a2.1018,2.1018,0,0,1-.6233-4.1572Z" style="fill:#fff"/><path d="M711.9953,501.8645l2.8821-.649.0444-.01a2.1467,2.1467,0,1,1,.9432,4.1885l-.0144.0034-2.9759.6484a2.1364,2.1364,0,0,1-.925-4.1714Z" style="fill:#fff"/><path d="M721.5453,499.4655l2.8316-.8432.0434-.0132a2.1732,2.1732,0,0,1,1.2407,4.1655l-.0047.0015-2.9206.8628a2.17,2.17,0,0,1-1.2293-4.1616Z" style="fill:#fff"/><path d="M730.9123,496.426l2.7669-1.0371.0421-.0161a2.1847,2.1847,0,0,1,1.5338,4.0913l-.0046.0014-2.8538,1.0625a2.181,2.181,0,1,1-1.522-4.0878Z" style="fill:#fff"/><path d="M740.0479,492.7478l2.6888-1.2251.0413-.0186a2.1959,2.1959,0,0,1,1.8207,3.9966l-.0045.002L741.82,496.759a2.1925,2.1925,0,0,1-1.8088-3.9946Z" style="fill:#fff"/><path d="M748.9076,488.45l2.5969-1.4077.0406-.022a2.2074,2.2074,0,0,1,2.1035,3.8814l-.0043.0024-2.6814,1.4453a2.2038,2.2038,0,1,1-2.0915-3.88Z" style="fill:#fff"/><path d="M757.4443,483.5486l2.49-1.5865.04-.0254a2.2186,2.2186,0,0,1,2.3836,3.7427l-.0043.0029-2.5741,1.6309a2.2151,2.2151,0,1,1-2.3713-3.7422Z" style="fill:#fff"/><path d="M765.6077,478.0564l2.3679-1.7613.0395-.0293a2.23,2.23,0,0,1,2.6614,3.5791l-.004.003-2.451,1.8139a2.2266,2.2266,0,0,1-2.6491-3.58Z" style="fill:#fff"/><path d="M773.3421,471.9856l2.2275-1.9322.0389-.0337a2.2415,2.2415,0,0,1,2.9372,3.3868l-.0039.0029-2.31,1.9941a2.2378,2.2378,0,1,1-2.9248-3.3877Z" style="fill:#fff"/><path d="M780.5858,465.35l2.0672-2.0986.0382-.0391a2.2528,2.2528,0,0,1,3.21,3.1621l-.0036.0035-2.1483,2.1709a2.2492,2.2492,0,1,1-3.1976-3.1641Z" style="fill:#fff"/><path d="M787.2705,458.1643l1.8853-2.2593.0369-.0439a2.264,2.264,0,1,1,3.4767,2.9008l-.0033.0039-1.9642,2.3433a2.2605,2.2605,0,1,1-3.4648-2.9043Z" style="fill:#fff"/><path d="M793.32,450.4558l1.68-2.4116.0349-.05a2.2754,2.2754,0,1,1,3.734,2.6015l-.0029.0039-1.7554,2.5078a2.2719,2.2719,0,0,1-3.7224-2.6059Z" style="fill:#fff"/><path d="M798.6586,442.2487l1.4506-2.5522.0319-.0557a2.2867,2.2867,0,1,1,3.9761,2.26l-.0025.0049-1.52,2.66a2.2833,2.2833,0,1,1-3.9649-2.2656Z" style="fill:#fff"/><path d="M803.2053,433.591l1.1979-2.6762.0276-.062a2.2982,2.2982,0,0,1,4.1953,1.8779l-.0022.0049-1.2594,2.7968a2.2947,2.2947,0,0,1-4.1847-1.8842Z" style="fill:#fff"/><path d="M806.8844,424.5417l.9244-2.78.0222-.0664a2.31,2.31,0,1,1,4.383,1.4576l-.0017.0048-.9753,2.9112a2.306,2.306,0,0,1-4.3731-1.4654Z" style="fill:#fff"/><path d="M809.6313,415.1784c.228-.9472.4262-1.9052.637-2.8584l.0126-.0571a2.321,2.321,0,0,1,4.5324,1.0025l-.0009.0039c-.2223.997-.4318,1.9956-.6736,2.99l-.0021.0088a2.3177,2.3177,0,0,1-4.5054-1.09Z" style="fill:#fff"/><path d="M811.4375,405.5754l.3651-2.9116.008-.064a2.3323,2.3323,0,1,1,4.6283.5806l-.0006.0049-.3882,3.04a2.3288,2.3288,0,0,1-4.62-.59Z" style="fill:#fff"/><path d="M812.3443,395.8362l.1024-2.9356.0022-.06a2.3437,2.3437,0,0,1,4.6845.1635l0,.0054-.1136,3.0566a2.34,2.34,0,1,1-4.6772-.1738Z" style="fill:#fff"/><path d="M812.3953,386.0378l-.1418-2.9385-.0026-.0551a2.3551,2.3551,0,0,1,4.7047-.2271l0,.0054.14,3.05a2.3516,2.3516,0,0,1-4.6983.2158Z" style="fill:#fff"/><path d="M811.6589,376.2492l-.3619-2.9257-.0061-.0494a2.3665,2.3665,0,0,1,4.6972-.581l.0006.0054.3673,3.0258a2.363,2.363,0,0,1-4.6915.5694Z" style="fill:#fff"/><path d="M810.22,366.5222l-.5556-2.9019-.0082-.0429a2.3779,2.3779,0,0,1,4.671-.8946l.001.0054.5653,2.99a2.3745,2.3745,0,1,1-4.6662.8824Z" style="fill:#fff"/><path d="M808.166,356.883l-.7227-2.8716-.0093-.0366a2.3893,2.3893,0,1,1,4.6341-1.1665l.0014.0054.7346,2.9468a2.3859,2.3859,0,0,1-4.63,1.1543Z" style="fill:#fff"/><path d="M805.585,347.3488l-.8646-2.8383-.0094-.0308a2.4007,2.4007,0,0,1,4.593-1.3994l.0016.0054.877,2.9028a2.3973,2.3973,0,0,1-4.59,1.3867Z" style="fill:#fff"/><path d="M802.5588,337.926l-.9833-2.8052-.0089-.0254a2.4121,2.4121,0,1,1,4.5526-1.5957l.0018.0049.9948,2.8594a2.4086,2.4086,0,1,1-4.55,1.583Z" style="fill:#fff"/><path d="M799.1623,328.612l-1.0823-2.7783-.0081-.0205a2.4235,2.4235,0,1,1,4.5163-1.76l.002.0054,1.0923,2.8223a2.42,2.42,0,0,1-4.514,1.747Z" style="fill:#fff"/><path d="M795.4618,319.3928l-1.1593-2.7471-.007-.0166a2.4348,2.4348,0,1,1,4.4866-1.893l.0022.0048,1.167,2.7832a2.4314,2.4314,0,1,1-4.4845,1.88Z" style="fill:#fff"/><path d="M791.5217,310.2619l-1.2205-2.7251-.0056-.0127a2.4462,2.4462,0,1,1,4.4652-1.9995l.0023.0049,1.2255,2.7534a2.4429,2.4429,0,0,1-4.4635,1.9868Z" style="fill:#fff"/><path d="M787.3968,301.1975l-1.2654-2.7095-.004-.0083a2.4576,2.4576,0,1,1,4.4534-2.08l.0024.0049,1.2674,2.73a2.4542,2.4542,0,0,1-4.452,2.0669Z" style="fill:#fff"/><path d="M783.14,292.1784l-1.2949-2.7-.0022-.0044a2.469,2.469,0,1,1,4.4524-2.1352l.0025.0049,1.2934,2.7129a2.4656,2.4656,0,1,1-4.4512,2.122Z" style="fill:#fff"/><path d="M778.804,283.1823l-1.307-2.7065a2.4765,2.4765,0,1,1,4.4619-2.15l1.3055,2.7012a2.4769,2.4769,0,0,1-4.46,2.1567Z" style="fill:#fff"/><path d="M774.48,274.1389l-1.2779-2.7251a2.4655,2.4655,0,0,1,4.4646-2.0933l.002.0039,1.2754,2.7046.0041.0088a2.4688,2.4688,0,1,1-4.4659,2.106Z" style="fill:#fff"/><path d="M770.2657,265.029l-1.2356-2.7485a2.4545,2.4545,0,1,1,4.4774-2.0127l.0036.0078,1.23,2.7212.0055.0122a2.4577,2.4577,0,1,1-4.479,2.0249Z" style="fill:#fff"/><path d="M766.21,255.8337l-1.1783-2.7783a2.4434,2.4434,0,0,1,4.4991-1.9077l.0049.0112,1.1705,2.7432.0068.0161a2.4467,2.4467,0,0,1-4.5009,1.92Z" style="fill:#fff"/><path d="M762.3643,246.5344l-1.1048-2.8125a2.4325,2.4325,0,0,1,4.5281-1.7788l.0061.0156,1.095,2.7695.0079.02a2.4358,2.4358,0,0,1-4.53,1.791Z" style="fill:#fff"/><path d="M758.7834,237.1145l-1.0135-2.8516a2.4213,2.4213,0,1,1,4.5631-1.6216l.0071.02,1.0022,2.8.0087.0239a2.4247,2.4247,0,1,1-4.5658,1.6343Z" style="fill:#fff"/><path d="M755.5292,227.5612l-.9024-2.8935a2.41,2.41,0,1,1,4.6021-1.4356l.0078.0249.89,2.8326.0091.0293a2.4137,2.4137,0,1,1-4.6053,1.4472Z" style="fill:#fff"/><path d="M752.6709,217.8645l-.7688-2.937a2.3994,2.3994,0,0,1,4.6424-1.2154l.0079.03.7568,2.8657.0091.0347a2.4026,2.4026,0,0,1-4.646,1.227Z" style="fill:#fff"/><path d="M750.2869,208.0227l-.61-2.98a2.3883,2.3883,0,1,1,4.68-.9575l.0075.0361.5994,2.8965.0084.0405a2.3917,2.3917,0,0,1-4.6841.97Z" style="fill:#fff"/><path d="M748.4648,198.0417l-.4228-3.0183a2.3772,2.3772,0,1,1,4.7085-.6594l.0061.0425.416,2.9228.0067.0469a2.3807,2.3807,0,1,1-4.7138.6709Z" style="fill:#fff"/><path d="M747.3006,187.9431l-.2058-3.0432a2.3662,2.3662,0,0,1,4.7216-.3194l.0034.0491.205,2.9348.0037.0537a2.37,2.37,0,0,1-4.7276.33Z" style="fill:#fff"/><path d="M746.8939,177.77l.04-3.06a2.3552,2.3552,0,1,1,4.71.062l-.0006.0552-.0322,2.94-.0006.06a2.3585,2.3585,0,0,1-4.7168-.0518Z" style="fill:#fff"/><path d="M747.34,167.5752l.3127-3.0491a2.3441,2.3441,0,0,1,4.6637.4785l-.006.06-.2929,2.92-.0065.0647a2.3475,2.3475,0,0,1-4.6715-.4687Z" style="fill:#fff"/><path d="M748.7188,157.4494l.6036-3.0088a2.333,2.333,0,1,1,4.5749.9178l-.0124.0627-.57,2.875-.0133.0674a2.3365,2.3365,0,1,1-4.5837-.9089Z" style="fill:#fff"/><path d="M751.0779,147.497c.294-.9809.5856-1.9621.9027-2.9387a2.3223,2.3223,0,0,1,4.4192,1.4295c-.2989.9277-.5751,1.8654-.8539,2.802l-.0115.0385a2.3256,2.3256,0,1,1-4.4577-1.3274Z" style="fill:#fff"/><path d="M754.4522,137.823l1.2116-2.8245a2.3109,2.3109,0,1,1,4.2476,1.822l-.0269.063-1.1476,2.6919-.0289.0676a2.3143,2.3143,0,1,1-4.2578-1.8154Z" style="fill:#fff"/><path d="M758.8313,128.5691l1.4972-2.68a2.3,2.3,0,1,1,4.0159,2.2431l-.0318.0572-1.4227,2.56-.0343.0615a2.3033,2.3033,0,0,1-4.0267-2.2375Z" style="fill:#fff"/><path d="M764.13,119.8225l1.7543-2.5147a2.289,2.289,0,0,1,3.7548,2.6192l-.0353.05-1.6724,2.4089-.0382.055a2.2924,2.2924,0,1,1-3.766-2.6148Z" style="fill:#fff"/><path d="M770.2511,111.646l1.982-2.3348a2.278,2.278,0,0,1,3.4733,2.9485l-.0375.0442-1.8954,2.2427-.0407.0483a2.2814,2.2814,0,1,1-3.485-2.945Z" style="fill:#fff"/><path d="M777.0981,104.082l2.1815-2.145a2.267,2.267,0,1,1,3.1789,3.2329l-.0388.0383-2.0919,2.0659-.0425.042a2.27,2.27,0,1,1-3.1907-3.2307Z" style="fill:#fff"/><path d="M784.5789,97.1589l2.3548-1.9487a2.256,2.256,0,0,1,2.8767,3.476l-.04.0333-2.2633,1.8813-.0437.0364a2.2595,2.2595,0,0,1-2.8887-3.4751Z" style="fill:#fff"/><path d="M792.6093,90.896l2.5046-1.7478a2.245,2.245,0,1,1,2.57,3.6821l-.04.0283-2.412,1.6909-.0445.0313a2.2484,2.2484,0,0,1-2.5815-3.6819Z" style="fill:#fff"/><path d="M801.1143,85.3071l2.633-1.5427a2.2341,2.2341,0,0,1,2.2588,3.8552l-.0409.0242-2.5393,1.4951-.0453.0266A2.2373,2.2373,0,1,1,801.11,85.31Z" style="fill:#fff"/><path d="M810.0265,80.406l2.7442-1.3343a2.2231,2.2231,0,0,1,1.944,3.9986l-.0416.02-2.649,1.2952-.0461.0224a2.2264,2.2264,0,0,1-1.9559-4Z" style="fill:#fff"/><path d="M819.2874,76.2065l2.8377-1.12a2.212,2.212,0,1,1,1.6245,4.115l-.0427.0168-2.7407,1.0891-.0472.0186a2.2153,2.2153,0,1,1-1.6361-4.1174Z" style="fill:#fff"/><path d="M828.8413,72.7275l2.9152-.9a2.2011,2.2011,0,0,1,1.2983,4.2063l-.044.0137-2.8161.876-.0485.0151a2.2043,2.2043,0,0,1-1.31-4.21Z" style="fill:#fff"/><path d="M838.6353,69.9926l2.9812-.6721a2.19,2.19,0,0,1,.9631,4.273l-.0458.01-2.8789.6558-.05.0112a2.1933,2.1933,0,1,1-.974-4.2771Z" style="fill:#fff"/><path d="M848.618,68.0307l3.01-.4387a2.179,2.179,0,0,1,.6285,4.3125l-.04.0059-2.9192.4321-.0451.0066a2.1823,2.1823,0,0,1-.639-4.3176Z" style="fill:#fff"/><path d="M858.6892,66.8105l3.0349-.23a2.1656,2.1656,0,1,1,.3268,4.3189l-.0355.0029-2.9469.2339-.0436.0037a2.1714,2.1714,0,1,1-.3437-4.3292Z" style="fill:#fff"/><path d="M868.817,66.2907l3.041-.0251a2.1324,2.1324,0,0,1,.05,4.2644l-.042.0007-2.9583.0442-.0412.0008a2.1426,2.1426,0,0,1-.0641-4.2847Z" style="fill:#fff"/><path d="M878.9486,66.4314l3.0339.1652a2.0991,2.0991,0,0,1-.2134,4.1927l-.0393-.0017-2.9579-.1414-.0385-.0017a2.1094,2.1094,0,0,1,.2013-4.2139Z" style="fill:#fff"/><path d="M889.0437,67.1945l3.0162.3448a2.0659,2.0659,0,0,1-.455,4.1067l-.0365-.0039-2.9469-.3172-.0357-.0039a2.0759,2.0759,0,1,1,.4442-4.1279Z" style="fill:#fff"/><path d="M899.0689,68.5437l2.99.5134a2.0325,2.0325,0,0,1-.6739,4.0088l-.0337-.0056-2.927-.4827-.033-.0054a2.0426,2.0426,0,1,1,.6646-4.0307Z" style="fill:#fff"/><path d="M908.9966,70.4414l2.9558.6706a1.9993,1.9993,0,0,1-.8711,3.9026l-.031-.0068-2.9-.6377-.03-.0066a2.0094,2.0094,0,0,1,.8632-3.9251Z" style="fill:#fff"/><path d="M918.8049,72.8508l2.9164.8174a1.966,1.966,0,0,1-1.0476,3.79l-.0285-.0078-2.8662-.7828-.0279-.0075a1.9761,1.9761,0,1,1,1.0412-3.8125Z" style="fill:#fff"/><path d="M928.4765,75.7368l2.8726.9538a1.9328,1.9328,0,0,1-1.205,3.6729l-.0262-.0086-2.828-.9182-.0255-.0083a1.9427,1.9427,0,1,1,1.2-3.6955Z" style="fill:#fff"/><path d="M937.9976,79.0669l2.8293,1.0825a1.8994,1.8994,0,0,1-1.3451,3.5527l-.0241-.009-2.79-1.0462-.0235-.0087a1.91,1.91,0,0,1,1.3411-3.576Z" style="fill:#fff"/><path d="M947.3614,82.8127l2.7751,1.2a1.8662,1.8662,0,0,1-1.4693,3.4309l-.0222-.0093-2.74-1.1633-.0215-.0091a1.8762,1.8762,0,1,1,1.4663-3.4541Z" style="fill:#fff"/><path d="M956.5512,86.9448l2.7226,1.3115a1.8329,1.8329,0,0,1-1.5793,3.3081l-.02-.01L954.9825,90.28l-.02-.0093a1.843,1.843,0,0,1,1.5775-3.3313Z" style="fill:#fff"/><path d="M965.5645,91.4414l2.67,1.4177a1.8,1.8,0,0,1-1.6768,3.1848l-.0191-.01-2.6423-1.3806-.0185-.01a1.81,1.81,0,1,1,1.6761-3.2077Z" style="fill:#fff"/><path d="M974.3949,96.2837l2.6113,1.52a1.7663,1.7663,0,0,1-1.7659,3.06l-.019-.011-2.5846-1.481-.0183-.0105a1.7763,1.7763,0,0,1,1.7663-3.0825Z" style="fill:#fff"/><path d="M983.0269,101.4709l2.5478,1.6245a1.733,1.733,0,0,1-1.8531,2.929l-.019-.012-2.5218-1.5845-.0184-.0114a1.7431,1.7431,0,0,1,1.8547-2.9519Z" style="fill:#fff"/><path d="M991.4391,107.0105l2.4769,1.7319a1.7,1.7,0,0,1-1.9379,2.7927l-.019-.0129-2.4517-1.69-.0183-.0127a1.71,1.71,0,0,1,1.9406-2.8154Z" style="fill:#fff"/><path d="M999.6056,112.9106l2.3975,1.8416a1.6663,1.6663,0,0,1-2.0208,2.65l-.019-.0144L997.59,115.59l-.0184-.0139a1.6765,1.6765,0,0,1,2.0247-2.6726Z" style="fill:#fff"/><path d="M1007.4959,119.18l2.3081,1.9541a1.6331,1.6331,0,0,1-2.1016,2.5l-.019-.0159-2.2841-1.9077-.0184-.0154a1.6432,1.6432,0,0,1,2.1067-2.5224Z" style="fill:#fff"/><path d="M1015.075,125.8269l2.207,2.0693a1.6,1.6,0,0,1-2.18,2.3418l-.019-.0176-2.1838-2.02-.0184-.0171a1.61,1.61,0,1,1,2.1865-2.3633Z" style="fill:#fff"/><path d="M1022.302,132.8608l2.0926,2.1863a1.5666,1.5666,0,0,1-2.2558,2.1743l-.0189-.0195-2.07-2.1345-.0183-.0188a1.5766,1.5766,0,1,1,2.2634-2.1954Z" style="fill:#fff"/><path d="M1029.1305,140.2873l1.9632,2.3052a1.5332,1.5332,0,0,1-2.3276,1.9963l-.0185-.0214-1.9422-2.25-.018-.021a1.5433,1.5433,0,0,1,2.3364-2.0169Z" style="fill:#fff"/><path d="M1035.5085,148.11l1.8184,2.4256a1.5,1.5,0,0,1-2.3938,1.8078l-.0179-.0237-1.8-2.3671-.0174-.023a1.51,1.51,0,1,1,2.4041-1.8276Z" style="fill:#fff"/><path d="M1041.3712,156.3288l1.6475,2.543a1.4523,1.4523,0,0,1-2.4286,1.5933l-.0171-.0259-1.6418-2.4751-.0166-.0249a1.4688,1.4688,0,1,1,2.4479-1.6238Z" style="fill:#fff"/><path d="M1046.654,164.9367l1.4642,2.6534a1.3978,1.3978,0,0,1-2.44,1.3647l-.0155-.0276-1.4629-2.584-.015-.0266a1.4142,1.4142,0,1,1,2.4614-1.3935Z" style="fill:#fff"/><path d="M1051.3042,173.9038l1.2627,2.7553a1.3433,1.3433,0,0,1-2.4358,1.1333l-.0136-.0288-1.2662-2.6855-.0131-.0281a1.36,1.36,0,1,1,2.46-1.16Z" style="fill:#fff"/><path d="M1055.2626,183.1975l1.0436,2.8428a1.2888,1.2888,0,0,1-2.4146.9021l-.0112-.03-1.0526-2.7737-.0109-.0288a1.3053,1.3053,0,0,1,2.4407-.9262Z" style="fill:#fff"/><path d="M1058.4605,192.7849l.7864,2.9314a1.2343,1.2343,0,0,1-2.38.6533l-.01-.0344-.7993-2.8553-.0095-.0339a1.2507,1.2507,0,1,1,2.4089-.6743Z" style="fill:#fff"/><path d="M1060.7611,202.6306l.5126,2.9888a1.18,1.18,0,0,1-2.3232.4126l-.006-.0328-.5335-2.9194-.0058-.0317a1.1963,1.1963,0,0,1,2.3536-.43Z" style="fill:#fff"/><path d="M1062.1547,212.6369l.2432,3.02a1.1253,1.1253,0,0,1-2.2422.1939l-.0028-.0308-.2707-2.9575-.0028-.03a1.1418,1.1418,0,1,1,2.2742-.208Z" style="fill:#fff"/><path d="M1062.6537,222.7214l-.0238,3.0283a1.0708,1.0708,0,0,1-2.1416-.0044v-.0293l-.009-2.9712v-.0288a1.0873,1.0873,0,0,1,2.1745-.0063Z" style="fill:#fff"/><path d="M1062.263,232.8054l-.291,3.0137a1.0163,1.0163,0,0,1-2.0243-.1836l.0023-.0279.2535-2.9619.0023-.0273a1.0328,1.0328,0,0,1,2.0581.1758Z" style="fill:#fff"/><path d="M1060.9787,242.8122l-.5612,2.9741a.9618.9618,0,0,1-1.8923-.3457l.0047-.0268.5193-2.9277.0048-.0264a.9783.9783,0,1,1,1.9265.3418Z" style="fill:#fff"/><path d="M1058.7888,252.6579l-.8359,2.9087a.9073.9073,0,0,1-1.7468-.4912l.0071-.0259.79-2.8667.0071-.0254a.9238.9238,0,1,1,1.7813.4908Z" style="fill:#fff"/><path d="M1055.6761,262.2507l-1.1169,2.8125a.8528.8528,0,0,1-1.5888-.62l.01-.0249,1.0674-2.7759.0092-.0244a.8694.8694,0,0,1,1.623.624Z" style="fill:#fff"/><path d="M1051.62,271.4831l-1.4083,2.6836a.7947.7947,0,0,1-1.4126-.7285l.0121-.0234,1.349-2.6558.0118-.0234a.8149.8149,0,1,1,1.453.7382Z" style="fill:#fff"/><path d="M1046.59,280.2268l-1.6959,2.5053a.7216.7216,0,0,1-1.2013-.8l.0141-.0214,1.6313-2.4878.0139-.021a.7438.7438,0,0,1,1.2439.8159Z" style="fill:#fff"/><path d="M1040.6032,288.3357l-1.9789,2.2866a.6486.6486,0,0,1-.9873-.8413l.0157-.0186,1.9143-2.2783.0158-.019a.6706.6706,0,1,1,1.0268.8628Z" style="fill:#fff"/><path d="M1033.6872,295.6609l-2.2472,2.021a.5754.5754,0,0,1-.7762-.85l.0166-.0156,2.1845-2.0229.0166-.0157a.5976.5976,0,0,1,.8121.877Z" style="fill:#fff"/><path d="M1025.9065,302.049l-2.4862,1.7124a.5023.5023,0,0,1-.5763-.8227l.0165-.0117,2.4282-1.7251.0166-.0122a.5244.5244,0,0,1,.6076.8549Z" style="fill:#fff"/></svg>