<svg xmlns="http://www.w3.org/2000/svg" xmlns:xlink="http://www.w3.org/1999/xlink" viewBox="0 0 474 291"><defs><style>.cls-1{isolation:isolate;}.cls-2{fill:url(#_79);}.cls-3{fill:url(#_94);}.cls-10,.cls-13,.cls-15,.cls-17,.cls-19,.cls-21,.cls-23,.cls-26,.cls-29,.cls-32,.cls-35,.cls-38,.cls-4{opacity:0.5;mix-blend-mode:screen;}.cls-4{fill:url(#_92);}.cls-5,.cls-6{fill:#fff;}.cls-5{opacity:0.4;}.cls-11,.cls-5,.cls-7{mix-blend-mode:soft-light;}.cls-6,.cls-8{opacity:0.8;}.cls-7{opacity:0.2;}.cls-9{fill:url(#_76);}.cls-10{fill:url(#_92-2);}.cls-11{opacity:0.12;}.cls-12{fill:url(#_76-2);}.cls-13{fill:url(#_92-3);}.cls-14{fill:url(#_97);}.cls-15{fill:url(#_92-4);}.cls-16{fill:url(#_97-2);}.cls-17{fill:url(#_92-5);}.cls-18{fill:url(#_100);}.cls-19{fill:url(#_92-6);}.cls-20{fill:url(#_100-2);}.cls-21{fill:url(#_92-7);}.cls-22{fill:url(#_79-2);}.cls-23{fill:url(#_92-8);}.cls-24{fill:url(#_79-4);}.cls-25{fill:url(#_80);}.cls-26{fill:url(#_92-9);}.cls-27{fill:url(#_79-5);}.cls-28{fill:url(#_80-2);}.cls-29{fill:url(#_92-10);}.cls-30{fill:url(#_79-6);}.cls-31{fill:url(#_93);}.cls-32{fill:url(#_92-11);}.cls-33{fill:url(#_79-7);}.cls-34{fill:url(#_96);}.cls-35{fill:url(#_92-12);}.cls-36{fill:url(#_79-8);}.cls-37{fill:url(#_94-2);}.cls-38{fill:url(#_92-13);}</style><radialGradient id="_79" cx="345.47" cy="135.03" r="22.9" gradientTransform="matrix(0.92, -0.4, 0.4, 0.9, -4.9, 58.12)" gradientUnits="userSpaceOnUse"><stop offset="0" stop-color="#ffeea3"/><stop offset="1" stop-color="#e5bb07"/></radialGradient><radialGradient id="_94" cx="345.47" cy="135.03" r="22.9" gradientTransform="matrix(0.92, -0.4, 0.4, 0.9, -4.9, 58.12)" gradientUnits="userSpaceOnUse"><stop offset="0" stop-color="#b576ff"/><stop offset="1" stop-color="#8700f7"/></radialGradient><radialGradient id="_92" cx="352.83" cy="20.76" r="22.16" gradientTransform="translate(44.19 169.98) rotate(-23.77)" gradientUnits="userSpaceOnUse"><stop offset="0.42"/><stop offset="0.5" stop-color="#040404"/><stop offset="0.58" stop-color="#0f0f0f"/><stop offset="0.65" stop-color="#212121"/><stop offset="0.72" stop-color="#3b3b3b"/><stop offset="0.78" stop-color="#5c5c5c"/><stop offset="0.85" stop-color="#858585"/><stop offset="0.92" stop-color="#b6b6b6"/><stop offset="0.98" stop-color="#ededed"/><stop offset="1" stop-color="#fff"/></radialGradient><radialGradient id="_76" cx="168.56" cy="73.76" r="32.9" gradientTransform="matrix(0.92, -0.39, 0.39, 0.91, -70.37, 40.22)" gradientUnits="userSpaceOnUse"><stop offset="0" stop-color="#d9ffa1"/><stop offset="1" stop-color="#6cb004"/></radialGradient><radialGradient id="_92-2" cx="178.68" cy="-35.68" r="31.83" gradientTransform="matrix(0.92, -0.39, 0.39, 0.92, -22.09, 152.88)" xlink:href="#_92"/><radialGradient id="_76-2" cx="412.32" cy="318.97" r="20.76" gradientTransform="matrix(0.98, 0.19, -0.18, 0.97, 79.39, -138.47)" xlink:href="#_76"/><radialGradient id="_92-3" cx="418.8" cy="201.12" r="20.09" gradientTransform="translate(56.86 -18.57) rotate(10.67)" xlink:href="#_92"/><radialGradient id="_97" cx="291.27" cy="196.92" r="19.13" gradientTransform="matrix(0.71, 0.71, -0.69, 0.7, 345.11, -243.67)" gradientUnits="userSpaceOnUse"><stop offset="0" stop-color="#ffe1a3"/><stop offset="1" stop-color="#e09807"/></radialGradient><radialGradient id="_92-4" cx="296.98" cy="79.88" r="18.51" gradientTransform="matrix(0.71, 0.71, -0.71, 0.71, 259, -156.76)" xlink:href="#_92"/><radialGradient id="_97-2" cx="64.46" cy="454.73" r="15.17" gradientTransform="matrix(0.64, 0.77, -0.76, 0.63, 400.95, -216.49)" xlink:href="#_97"/><radialGradient id="_92-5" cx="68.82" cy="331.94" r="14.68" gradientTransform="matrix(0.64, 0.77, -0.77, 0.64, 307.23, -137.7)" xlink:href="#_92"/><radialGradient id="_100" cx="195.57" cy="365.6" r="27.55" gradientTransform="matrix(0.95, -0.3, 0.3, 0.94, -81.98, -48.18)" gradientUnits="userSpaceOnUse"><stop offset="0" stop-color="#fff"/><stop offset="1" stop-color="#ef70e3"/></radialGradient><radialGradient id="_92-6" cx="204.78" cy="249.81" r="26.65" gradientTransform="translate(-45.77 68.51) rotate(-17.49)" xlink:href="#_92"/><radialGradient id="_100-2" cx="113.84" cy="164.36" r="22.24" gradientTransform="matrix(0.99, 0.11, -0.11, 0.98, -57.13, -102.19)" xlink:href="#_100"/><radialGradient id="_92-7" cx="120.78" cy="49.23" r="21.51" gradientTransform="matrix(0.99, 0.11, -0.11, 0.99, -70.81, 19.32)" xlink:href="#_92"/><radialGradient id="_79-2" cx="59.36" cy="341.78" r="24.02" gradientTransform="matrix(0.06, 1, -0.98, 0.05, 409.67, 138.61)" xlink:href="#_79"/><radialGradient id="_92-8" cx="66.92" cy="224.68" r="23.24" gradientTransform="translate(287.55 145.4) rotate(86.82)" xlink:href="#_92"/><radialGradient id="_79-4" cx="254.1" cy="291.27" r="33.03" gradientTransform="matrix(0.99, -0.16, 0.16, 0.97, -17.24, -78.98)" xlink:href="#_79"/><radialGradient id="_80" cx="254.1" cy="291.27" r="33.03" gradientTransform="matrix(0.99, -0.16, 0.16, 0.97, -17.24, -78.98)" gradientUnits="userSpaceOnUse"><stop offset="0" stop-color="#dff3ff"/><stop offset="1" stop-color="#40b2f2"/></radialGradient><radialGradient id="_92-9" cx="264.85" cy="178.19" r="31.95" gradientTransform="translate(1.99 42.44) rotate(-9.16)" xlink:href="#_92"/><radialGradient id="_79-5" cx="91.06" cy="253.32" r="27.75" gradientTransform="matrix(0.99, 0.14, -0.14, 0.98, 42.66, -74.2)" xlink:href="#_79"/><radialGradient id="_80-2" cx="91.06" cy="253.32" r="27.75" gradientTransform="matrix(0.99, 0.14, -0.14, 0.98, 42.66, -74.2)" xlink:href="#_80"/><radialGradient id="_92-10" cx="99.98" cy="139.62" r="26.85" gradientTransform="translate(25.76 46.51) rotate(7.89)" xlink:href="#_92"/><radialGradient id="_79-6" cx="376.63" cy="345.02" r="33.35" gradientTransform="matrix(0.97, -0.24, 0.23, 0.96, -59.86, -25.14)" xlink:href="#_79"/><radialGradient id="_93" cx="376.63" cy="345.02" r="33.35" gradientTransform="matrix(0.97, -0.24, 0.23, 0.96, -59.86, -25.14)" gradientUnits="userSpaceOnUse"><stop offset="0" stop-color="#f7f9ff"/><stop offset="1" stop-color="#5973f7"/></radialGradient><radialGradient id="_92-11" cx="386.96" cy="231.65" r="32.26" gradientTransform="translate(-30.89 93.95) rotate(-13.6)" xlink:href="#_92"/><radialGradient id="_79-7" cx="255.67" cy="156.97" r="34.3" gradientTransform="matrix(0.91, 0.41, -0.4, 0.9, 158.62, -216.53)" xlink:href="#_79"/><radialGradient id="_96" cx="255.67" cy="156.97" r="34.3" gradientTransform="matrix(0.91, 0.41, -0.4, 0.9, 158.62, -216.53)" gradientUnits="userSpaceOnUse"><stop offset="0" stop-color="#d63a63"/><stop offset="1" stop-color="#ce0018"/></radialGradient><radialGradient id="_92-12" cx="266.36" cy="46.96" r="33.18" gradientTransform="translate(108.73 -104.68) rotate(24.09)" xlink:href="#_92"/><radialGradient id="_79-8" cx="214.91" cy="230.05" r="56.16" gradientTransform="matrix(0.97, 0.23, -0.23, 0.96, 54.09, -160.44)" xlink:href="#_79"/><radialGradient id="_94-2" cx="214.91" cy="230.05" r="56.16" gradientTransform="matrix(0.97, 0.23, -0.23, 0.96, 54.09, -160.44)" xlink:href="#_94"/><radialGradient id="_92-13" cx="232.57" cy="128.5" r="54.33" gradientTransform="translate(25.92 -41.34) rotate(13.31)" xlink:href="#_92"/></defs><g class="cls-1"><g id="Layer_1" data-name="Layer 1"><path class="cls-2" d="M395.74,37.85a22.16,22.16,0,1,1-29.21-11.34A22.16,22.16,0,0,1,395.74,37.85Z"/><path class="cls-3" d="M395.74,37.85a22.16,22.16,0,1,1-29.21-11.34A22.16,22.16,0,0,1,395.74,37.85Z"/><path class="cls-4" d="M395.74,37.85a22.16,22.16,0,1,1-29.21-11.34A22.16,22.16,0,0,1,395.74,37.85Z"/><path class="cls-5" d="M367.79,43.31c-1.29,4.08-4.15,6.81-6.39,6.1s-3-4.59-1.72-8.66,4.14-6.81,6.38-6.1S369.08,39.24,367.79,43.31Z"/><path class="cls-5" d="M364.78,42c-.79,2.5-2.55,4.18-3.93,3.74s-1.85-2.81-1.05-5.32,2.54-4.18,3.92-3.74S365.57,39.49,364.78,42Z"/><path class="cls-5" d="M362.54,41.25c-.45,1.44-1.47,2.41-2.26,2.16s-1.06-1.62-.61-3.07,1.47-2.4,2.26-2.15S363,39.81,362.54,41.25Z"/><path class="cls-5" d="M356.73,55.91a21.6,21.6,0,0,1,27.08-29,21.6,21.6,0,1,0-15.64,40.26A21.53,21.53,0,0,1,356.73,55.91Z"/><path class="cls-5" d="M382.93,26.51a21.6,21.6,0,0,1-15.64,40.27,21.6,21.6,0,1,0,15.64-40.27Z"/><path class="cls-6" d="M383.08,37.59A10.68,10.68,0,1,1,369,32.13,10.68,10.68,0,0,1,383.08,37.59Z"/><path class="cls-6" d="M380.41,58C375,60.4,371.7,64.73,373,67.7a3.38,3.38,0,0,0,.88,1.18,22.12,22.12,0,0,0,18.95-8.35,3.37,3.37,0,0,0-.28-1.44C391.24,56.12,385.81,55.64,380.41,58Z"/><path class="cls-6" d="M357,59.09a14.65,14.65,0,0,0,.5-9,15.24,15.24,0,0,0-3.83-7.53,22.1,22.1,0,0,0,1.47,13.15A23,23,0,0,0,357,59.09Z"/><path class="cls-6" d="M390,35.78a14.65,14.65,0,0,0,7,5.73,22.87,22.87,0,0,0-1.24-3.66,22,22,0,0,0-8.7-10A15.29,15.29,0,0,0,390,35.78Z"/><path class="cls-7" d="M379.85,25.07A22.15,22.15,0,0,1,364,65.76a22.15,22.15,0,1,0,15.81-40.69Z"/><path class="cls-8" d="M375.46,47a3.61,3.61,0,0,1-1.16.33,2.16,2.16,0,0,1-.93-.07,2,2,0,0,1-.74-.46A3.6,3.6,0,0,1,372,46a7.86,7.86,0,0,1-.51-1l2-.86a4,4,0,0,0,.69,1.16.58.58,0,0,0,.69.09l.05,0a.77.77,0,0,0,.2-.13.36.36,0,0,0,.11-.2,1.6,1.6,0,0,0,0-.21.76.76,0,0,0,0-.28l-.08-.3a3.45,3.45,0,0,0-.13-.37l-.17-.4c0-.11-.11-.26-.2-.46a6.89,6.89,0,0,0-.32-.66,4.07,4.07,0,0,0-.33-.48.82.82,0,0,0-.4-.27.68.68,0,0,0-.46.05c-.42.18-.55.6-.38,1.24l-1.77.78-2.33-5.76,4.63-2,.76,1.72-3,1.31.77,2.08a1.23,1.23,0,0,1,.34-.5,2.83,2.83,0,0,1,.67-.49l.25-.13a1.89,1.89,0,0,1,1.79.08,4.63,4.63,0,0,1,1.66,2.17c.17.38.3.72.4,1a7.62,7.62,0,0,1,.24.94,2.59,2.59,0,0,1,0,.87,2.42,2.42,0,0,1-.25.76,2.14,2.14,0,0,1-.57.68A4.35,4.35,0,0,1,375.46,47Z"/><path class="cls-8" d="M378.16,66.55a1.23,1.23,0,0,1-.12-.66,1.26,1.26,0,0,1,.23-.59,2.47,2.47,0,0,1,.54-.53,7,7,0,0,1,.79-.5q.43-.22,1-.48l.47,1.07a6.8,6.8,0,0,0-1.2.62c-.19.15-.26.29-.2.44l0,0a.28.28,0,0,0,.09.1.24.24,0,0,0,.16,0h.19l.26-.07.29-.1.37-.14.39-.17.46-.2.67-.31c.18-.09.34-.19.5-.29a1.16,1.16,0,0,0,.32-.29.27.27,0,0,0,0-.27c-.1-.23-.46-.24-1.09,0l-.42-1,5.73-2.41,1.11,2.51-1.71.76-.72-1.62-2,.83a.83.83,0,0,1,.41.12,1.19,1.19,0,0,1,.34.33l.07.14c.15.34,0,.71-.38,1.11a7.51,7.51,0,0,1-2.28,1.39q-.57.25-1,.42c-.3.12-.6.22-.9.31a4.25,4.25,0,0,1-.81.16,3,3,0,0,1-.67,0,1.21,1.21,0,0,1-.54-.24A1.4,1.4,0,0,1,378.16,66.55Z"/><path class="cls-8" d="M393.26,34.51c-.38-.53-.52-.84-.42-.92s.1,0,.18,0a1.43,1.43,0,0,1,.32.28c.12.13.25.27.38.43s.22.26.35.43a21.71,21.71,0,0,0-2-2.64.22.22,0,0,0-.12.05.1.1,0,0,0,0,.06.41.41,0,0,0-.07.28.81.81,0,0,0,.08.34l-1.35-1.75.3-.24c-.46-.44-.93-.86-1.42-1.26L389,30l3.82,4.9Z"/><path class="cls-8" d="M395.22,36.76a1.77,1.77,0,0,1-.17-.14,12.86,12.86,0,0,1-.87-1l-.48.38c.27.34.5.63.71.87s.42.47.63.68a4.14,4.14,0,0,0,.56.48l.25.14-.11-.29C395.57,37.48,395.4,37.12,395.22,36.76Z"/><path class="cls-8" d="M354.25,52.13c-.07-.65,0-1,.09-1s.09,0,.14.11a1.55,1.55,0,0,1,.13.4,4.23,4.23,0,0,1,.12.56c0,.2.08.44.12.73s.06.37.08.49,0,.25.06.42,0,.3.05.39,0,.19,0,.31a1.53,1.53,0,0,1,0,.27,1.15,1.15,0,0,1,0,.18.26.26,0,0,1,0,.14.1.1,0,0,1-.06,0h0c.08.18.15.36.22.53l.39.81a1.66,1.66,0,0,0,.09-.29,5.44,5.44,0,0,0,.06-.62c0-.23,0-.5,0-.81s-.06-.63-.1-.95-.09-.68-.15-1.09a14.24,14.24,0,0,0-.58-2.59q-.28-.77-.57-.72l-.08,0a.51.51,0,0,0-.2.21,1,1,0,0,0-.1.34l-.3-2.19.92-.15-.29-1.84-.91.14a22.15,22.15,0,0,0,.65,6.19Z"/><path class="cls-8" d="M354.5,53.53l-.14,0c.09.27.19.54.28.8C354.6,54.13,354.55,53.85,354.5,53.53Z"/><path class="cls-9" d="M157.57,37.5A31.84,31.84,0,1,1,115.8,20.7,31.85,31.85,0,0,1,157.57,37.5Z"/><path class="cls-10" d="M157.57,37.5A31.84,31.84,0,1,1,115.8,20.7,31.85,31.85,0,0,1,157.57,37.5Z"/><path class="cls-5" d="M117.32,44.87c-1.92,5.83-6.08,9.71-9.29,8.65s-4.24-6.64-2.32-12.48,6.08-9.7,9.28-8.65S119.24,39,117.32,44.87Z"/><path class="cls-5" d="M113,42.93c-1.18,3.58-3.74,6-5.7,5.31s-2.61-4.08-1.43-7.66,3.73-6,5.7-5.32S114.2,39.34,113,42.93Z"/><path class="cls-5" d="M109.82,41.82c-.68,2.06-2.15,3.43-3.29,3.06s-1.5-2.35-.82-4.42S107.86,37,109,37.4,110.5,39.75,109.82,41.82Z"/><path class="cls-5" d="M101.22,62.77a31,31,0,0,1,39.4-41.27,31,31,0,1,0-23.16,57.58A30.94,30.94,0,0,1,101.22,62.77Z"/><path class="cls-11" d="M135,18.86a31.83,31.83,0,0,1-23.4,58.2A31.83,31.83,0,1,0,135,18.86Z"/><path class="cls-5" d="M139.36,21A31,31,0,0,1,116.2,78.58,31,31,0,1,0,139.36,21Z"/><path class="cls-6" d="M142.4,44a15.34,15.34,0,1,1-20.13-8.1A15.35,15.35,0,0,1,142.4,44Z"/><path class="cls-6" d="M107.32,74c.44-2.89-.64-8.14-3-13.74s-5.42-10-7.81-11.69A31.88,31.88,0,0,0,107.32,74Z"/><path class="cls-8" d="M130.35,58.17l-4.83-11.35-1.64,1.68-.94-2.2c.36-.4.75-.88,1.17-1.42a5.23,5.23,0,0,0,.8-1.27l2.32-1,6.09,14.28Z"/><path class="cls-8" d="M98.13,58.5l4.28,10c.28.4.58.8.88,1.18l.57-.24L97.77,55.18l-.7.3a4.23,4.23,0,0,1,0,.81,28.57,28.57,0,0,0,.83,3.21Z"/><path class="cls-6" d="M149.25,26c-.45,2.89.64,8.14,3,13.74s5.43,10,7.82,11.69A31.88,31.88,0,0,0,149.25,26Z"/><path class="cls-8" d="M154.68,32.19l-.69-1-.47.2a4.09,4.09,0,0,1,0,.93c0,.38-.07.71-.12,1l.94,2.19.24-1.08,4.84,11.35.39-.17c-.1-.79-.24-1.57-.41-2.35Z"/><path class="cls-6" d="M104.32,29c2.89.44,8.14-.64,13.74-3s10-5.42,11.69-7.81A31.88,31.88,0,0,0,104.32,29Z"/><path class="cls-8" d="M123.91,18.45c-.79.11-1.57.25-2.35.42l-11.07,4.72c-.33.22-.66.45-1,.69l.2.46a4.17,4.17,0,0,1,.93,0,9.72,9.72,0,0,1,1,.12l2.19-.94-1.08-.24,11.34-4.84Z"/><path class="cls-6" d="M140.77,79.27A31.86,31.86,0,0,0,152.25,71c-2.89-.44-8.14.64-13.74,3s-10,5.42-11.69,7.81A31.72,31.72,0,0,0,140.77,79.27Z"/><path class="cls-8" d="M133.78,81.19a5.42,5.42,0,0,1,.81,0,30.9,30.9,0,0,0,3.21-.83l-1-.23,10-4.27c.4-.29.8-.58,1.18-.88l-.24-.57L133.48,80.5Z"/><path class="cls-12" d="M450.92,260.31a20.09,20.09,0,1,1-16-23.46A20.09,20.09,0,0,1,450.92,260.31Z"/><path class="cls-13" d="M450.92,260.31a20.09,20.09,0,1,1-16-23.46A20.09,20.09,0,0,1,450.92,260.31Z"/><path class="cls-5" d="M427.22,250.07c-3.05,2.38-6.59,3-7.9,1.28s.1-5,3.15-7.36,6.6-3,7.91-1.29S430.28,247.68,427.22,250.07Z"/><path class="cls-5" d="M425.65,247.54c-1.88,1.47-4,1.82-4.86.79s.06-3.06,1.94-4.52,4-1.82,4.86-.79S427.52,246.07,425.65,247.54Z"/><path class="cls-5" d="M424.36,245.84c-1.08.84-2.34,1-2.8.45s0-1.76,1.12-2.6,2.33-1.05,2.79-.46S425.44,245,424.36,245.84Z"/><path class="cls-5" d="M412.5,253.81A19.59,19.59,0,0,1,447.64,246a19.59,19.59,0,1,0-32.34,22.09A19.51,19.51,0,0,1,412.5,253.81Z"/><path class="cls-11" d="M445.59,242.61a20.08,20.08,0,0,1-32.68,22.32,20.08,20.08,0,1,0,32.68-22.32Z"/><path class="cls-5" d="M447.16,245.27a19.58,19.58,0,0,1-32.34,22.09,19.59,19.59,0,1,0,32.34-22.09Z"/><path class="cls-6" d="M440.7,258.39A9.68,9.68,0,1,1,433,247.08,9.69,9.69,0,0,1,440.7,258.39Z"/><path class="cls-6" d="M411.78,261.82c1.25-1.36,2.52-4.5,3.23-8.27s.66-7.16,0-8.88a20.14,20.14,0,0,0-3.23,17.15Z"/><path class="cls-8" d="M429.4,261.61l1.44-7.64-1.45.3.28-1.48c.33-.09.7-.2,1.11-.34a3.37,3.37,0,0,0,.87-.38l1.56.29L431.4,262Z"/><path class="cls-8" d="M412.38,250.49l-1.27,6.76c0,.31,0,.62.05.93l.38.07,1.81-9.63-.47-.09a2.58,2.58,0,0,1-.28.43q-.39,1-.69,2Z"/><path class="cls-6" d="M450.58,251.37c-1.24,1.36-2.51,4.5-3.23,8.27s-.66,7.16,0,8.88a20.14,20.14,0,0,0,3.23-17.15Z"/><path class="cls-8" d="M451.27,256.51c0-.25,0-.5,0-.75l-.31-.06a3,3,0,0,1-.33.49c-.15.19-.29.34-.41.47l-.27,1.48.5-.48L449,265.3l.27.05c.22-.44.42-.9.6-1.37Z"/><path class="cls-6" d="M426,237.19c1.36,1.25,4.5,2.52,8.27,3.23s7.16.67,8.87,0A20.11,20.11,0,0,0,426,237.19Z"/><path class="cls-8" d="M439.94,238.52c-.45-.22-.91-.42-1.38-.61l-7.46-1.4-.75,0-.06.31a3,3,0,0,1,.49.33l.46.4,1.49.28-.49-.51,7.65,1.44Z"/><path class="cls-6" d="M427.46,276.34a20.17,20.17,0,0,0,8.94-.34c-1.35-1.25-4.49-2.52-8.26-3.23s-7.16-.67-8.88,0A20,20,0,0,0,427.46,276.34Z"/><path class="cls-8" d="M423.12,274.89a3.25,3.25,0,0,1,.43.29c.64.26,1.3.49,2,.69l-.44-.47,6.75,1.27.93-.05.08-.38-9.63-1.81Z"/><path class="cls-14" d="M426.19,122.45a18.51,18.51,0,1,1-.05-26.18A18.51,18.51,0,0,1,426.19,122.45Z"/><path class="cls-15" d="M426.19,122.45a18.51,18.51,0,1,1-.05-26.18A18.51,18.51,0,0,1,426.19,122.45Z"/><path class="cls-5" d="M413.44,102.36c-3.56.24-6.56-1.16-6.69-3.11s2.66-3.74,6.22-4,6.56,1.16,6.69,3.12S417,102.12,413.44,102.36Z"/><path class="cls-5" d="M413.55,99.62c-2.19.15-4-.71-4.11-1.91s1.63-2.3,3.82-2.44,4,.71,4.11,1.91S415.74,99.48,413.55,99.62Z"/><path class="cls-5" d="M413.45,97.65c-1.26.09-2.32-.41-2.37-1.1s.94-1.32,2.2-1.41,2.32.41,2.37,1.11S414.71,97.57,413.45,97.65Z"/><path class="cls-5" d="M400.28,97.59a18,18,0,0,1,30.84,12.23,18.05,18.05,0,1,0-36.09.08A18,18,0,0,1,400.28,97.59Z"/><path class="cls-11" d="M431.31,106.2a18.51,18.51,0,0,1-36.48.07,18.51,18.51,0,1,0,36.48-.07Z"/><path class="cls-5" d="M431.12,109a18,18,0,0,1-36.09.07,18,18,0,1,0,36.09-.07Z"/><path class="cls-6" d="M419.4,115.68a8.92,8.92,0,1,1,0-12.61A8.91,8.91,0,0,1,419.4,115.68Z"/><path class="cls-6" d="M395.59,103.32c1.65-.39,4.24-2.12,6.74-4.63s4.22-5.11,4.6-6.76a18.52,18.52,0,0,0-11.34,11.39Z"/><path class="cls-6" d="M430.57,115.46c-1.66.39-4.25,2.12-6.75,4.63s-4.21,5.11-4.6,6.76a18.56,18.56,0,0,0,11.35-11.39Z"/><path class="cls-6" d="M419.15,91.9c.39,1.65,2.12,4.25,4.63,6.74s5.11,4.22,6.76,4.6A18.52,18.52,0,0,0,419.15,91.9Z"/><path class="cls-6" d="M400,122.51a18.49,18.49,0,0,0,7,4.37c-.39-1.65-2.12-4.25-4.62-6.74s-5.11-4.22-6.77-4.6A18.62,18.62,0,0,0,400,122.51Z"/><path class="cls-8" d="M409.81,112.69a2.73,2.73,0,0,1-.65-1,2,2,0,0,1-.11-1,3.07,3.07,0,0,1,.35-1,4.81,4.81,0,0,1,.74-1l2.28-2.28a6.26,6.26,0,0,1,.75-.67,3.37,3.37,0,0,1,.76-.43,2.06,2.06,0,0,1,.79-.16,2.12,2.12,0,0,1,.8.21,3.24,3.24,0,0,1,.84.62,3.45,3.45,0,0,1,.66.87,1.67,1.67,0,0,1,.19.82,2,2,0,0,1-.24.79,3.66,3.66,0,0,1-.61.79l-.11.11L415,108.25a2.13,2.13,0,0,0,.52-.66q.11-.23-.15-.48a.47.47,0,0,0-.6-.08,5.31,5.31,0,0,0-1.1.93l-.56.57a.85.85,0,0,1,.56,0,1.67,1.67,0,0,1,.58.37l0,0a2,2,0,0,1,.48.74,1.52,1.52,0,0,1,0,.82,2.78,2.78,0,0,1-.35.82,5,5,0,0,1-.65.8,5.84,5.84,0,0,1-1,.83,3.08,3.08,0,0,1-1,.43,1.76,1.76,0,0,1-1-.07A2.83,2.83,0,0,1,409.81,112.69Zm1-1a.46.46,0,0,0,.28.15.55.55,0,0,0,.34-.1,2.22,2.22,0,0,0,.38-.27q.19-.17.48-.45l.25-.25.2-.23a2.22,2.22,0,0,0,.18-.22c0-.06.07-.13.1-.2a.39.39,0,0,0,.05-.2.74.74,0,0,0,0-.18.66.66,0,0,0-.12-.17.59.59,0,0,0-.35-.18.72.72,0,0,0-.36,0l-1,1C410.63,111,410.51,111.44,410.8,111.73Z"/><path class="cls-8" d="M426.86,121.74a.27.27,0,0,0-.05-.28h0a.26.26,0,0,0-.24,0,.94.94,0,0,0-.34.18l.56-.57c.51-.51.85-.84,1-1s.3-.21.36-.16,0,.14-.08.26a6,6,0,0,1-.57.61l.1.1a17.28,17.28,0,0,0,1.4-2,.35.35,0,0,0-.18,0,1.09,1.09,0,0,0-.44.15,3.27,3.27,0,0,0-.56.38,7.83,7.83,0,0,0-.64.55c-.22.2-.46.43-.73.7l-2.27,2.28q-.46.47-.81.87a6.53,6.53,0,0,0-.57.76,2,2,0,0,0-.29.6.49.49,0,0,0,0,.24,18.19,18.19,0,0,0,3.65-2.85C426.42,122.22,426.65,122,426.86,121.74ZM424.32,124c-.12.12-.24.22-.35.32a1.22,1.22,0,0,1-.25.18q-.09,0-.12,0c-.09-.08.14-.4.68-.94l1-1a1.42,1.42,0,0,1,.23-.14c.08,0,.13,0,.16,0a.08.08,0,0,1,0,.08.54.54,0,0,1,0,.1l-.1.14-.14.17-.19.2-.22.22c0,.06-.14.14-.25.25S424.44,123.86,424.32,124Z"/><path class="cls-8" d="M400.93,96.73a1.67,1.67,0,0,0,.24-.55.36.36,0,0,0-.09-.34v0a.34.34,0,0,0-.27-.06.76.76,0,0,0-.37.15l.32-.33c-.27.24-.53.49-.79.75s-.51.52-.74.79l.3-.3a.68.68,0,0,1,.24-.12q.14,0,.18,0a.1.1,0,0,1,0,.09.52.52,0,0,1,0,.11,1.37,1.37,0,0,1-.1.14l-.13.17-.19.21-.22.22-.24.25-.47.46a4.6,4.6,0,0,1-.35.31,1,1,0,0,1-.26.17.15.15,0,0,1-.11,0c-.25.36-.49.72-.71,1.09h.16a1.78,1.78,0,0,0,.66-.28,6.35,6.35,0,0,0,.81-.61c.28-.24.6-.54.95-.89s.49-.52.69-.75A6.09,6.09,0,0,0,400.93,96.73Z"/><path class="cls-8" d="M402.37,94.49a7.13,7.13,0,0,1-.57.62l.45.44.11-.11a10,10,0,0,0,.67-.74,3.62,3.62,0,0,0,.41-.61,1.06,1.06,0,0,0,.14-.5s0-.06,0-.08c-.39.23-.76.48-1.13.74C402.47,94.3,402.45,94.39,402.37,94.49Z"/><path class="cls-8" d="M428.18,98.69a.08.08,0,0,1,0,0c-.1.09-.41-.13-1-.67l-1-1a1.49,1.49,0,0,1-.13-.25c0-.08,0-.13,0-.16a.08.08,0,0,1,.08,0,.19.19,0,0,1,.1,0l.15.1.17.14a1.59,1.59,0,0,1,.2.19l.22.21.25.25c.18.17.32.31.43.43a18.43,18.43,0,0,0-1.5-1.7c-.29-.28-.59-.55-.89-.82a.47.47,0,0,0-.09.06h0a.31.31,0,0,0,0,.26.91.91,0,0,0,.16.36l-.57-.57a13.74,13.74,0,0,1-1-1c-.16-.19-.21-.31-.15-.37h0c-.38-.26-.76-.51-1.15-.74v.1a1.11,1.11,0,0,0,.13.46,3.38,3.38,0,0,0,.37.57,7.92,7.92,0,0,0,.55.65q.3.33.69.72l2.29,2.28c.31.31.6.58.87.8a7.53,7.53,0,0,0,.77.57,1.83,1.83,0,0,0,.62.26.67.67,0,0,0,.2,0C428.69,99.44,428.44,99.06,428.18,98.69Z"/><path class="cls-8" d="M424.36,94.72l.07.07h0Z"/><path class="cls-8" d="M402.41,124.52c.38.27.78.53,1.18.77a.74.74,0,0,0,0-.26,1.86,1.86,0,0,0-.29-.65,9,9,0,0,0-.61-.8c-.25-.28-.55-.6-.9-.94a9.34,9.34,0,0,0-.75-.7,5.22,5.22,0,0,0-.66-.5,1.57,1.57,0,0,0-.54-.25.33.33,0,0,0-.33.07l0,0a.35.35,0,0,0-.06.26.93.93,0,0,0,.16.36l-.57-.56c-.2-.21-.38-.38-.52-.54a20,20,0,0,0,1.5,1.71A21.3,21.3,0,0,0,401.7,124l-.16-.16-1-1a.94.94,0,0,1-.13-.24c0-.08,0-.14,0-.17a.08.08,0,0,1,.08,0l.11,0,.14.09.17.14.21.19.22.21.25.25.46.47a4.6,4.6,0,0,1,.31.35.84.84,0,0,1,.17.25c0,.06,0,.11,0,.14A.15.15,0,0,1,402.41,124.52Z"/><path class="cls-8" d="M397.88,120s0,0,0,0,.15,0,.27.06a6.56,6.56,0,0,1,.62.56l.41-.42-.11-.11c-.27-.27-.52-.49-.73-.67a3.73,3.73,0,0,0-.61-.42,1,1,0,0,0-.49-.15l-.13,0C397.36,119.19,397.62,119.58,397.88,120Z"/><circle class="cls-16" cx="96.56" cy="127.9" r="14.68" transform="translate(-50.97 65.32) rotate(-29.96)"/><circle class="cls-17" cx="96.56" cy="127.9" r="14.68" transform="translate(-50.97 65.32) rotate(-29.96)"/><path class="cls-5" d="M94.49,122.72c-2.48,1.35-5.1,1.34-5.85,0s.67-3.57,3.16-4.92,5.11-1.34,5.86,0S97,121.36,94.49,122.72Z"/><path class="cls-5" d="M93.66,120.71c-1.53.83-3.13.82-3.59,0s.41-2.19,1.94-3,3.14-.82,3.6,0S95.19,119.88,93.66,120.71Z"/><path class="cls-5" d="M92.94,119.32c-.88.48-1.81.48-2.07,0s.24-1.26,1.12-1.74,1.8-.47,2.07,0S93.82,118.84,92.94,119.32Z"/><path class="cls-5" d="M83.43,123.64a14.32,14.32,0,0,1,26.27-1.41,14.31,14.31,0,1,0-26,12A14.27,14.27,0,0,1,83.43,123.64Z"/><path class="cls-11" d="M108.63,119.56A14.67,14.67,0,0,1,82.39,131.7a14.67,14.67,0,1,0,26.24-12.14Z"/><path class="cls-5" d="M109.44,121.66a14.31,14.31,0,0,1-26,12,14.31,14.31,0,1,0,26-12Z"/><path class="cls-6" d="M103.2,130.34a7.07,7.07,0,1,1-4.2-9.08A7.07,7.07,0,0,1,103.2,130.34Z"/><path class="cls-6" d="M82,129.32c1.06-.83,2.35-2.93,3.32-5.57a13.68,13.68,0,0,0,1.07-6.39,14.68,14.68,0,0,0-4.39,12Z"/><path class="cls-6" d="M111.17,126.48c-1.06.83-2.35,2.93-3.32,5.57s-1.35,5.08-1.07,6.39a14.68,14.68,0,0,0,4.39-12Z"/><path class="cls-6" d="M95.14,113.29a13.62,13.62,0,0,0,5.57,3.32c2.63,1,5.07,1.35,6.39,1.07a14.68,14.68,0,0,0-12-4.39Z"/><path class="cls-6" d="M91.5,141.68a14.54,14.54,0,0,0,6.48.83c-.83-1.06-2.93-2.35-5.57-3.32A13.7,13.7,0,0,0,86,138.12,14.5,14.5,0,0,0,91.5,141.68Z"/><path class="cls-8" d="M95.3,131.36a2.28,2.28,0,0,1-.78-.47,1.56,1.56,0,0,1-.41-.68,2.23,2.23,0,0,1-.07-.82,3.46,3.46,0,0,1,.22-.93l.88-2.39a5.12,5.12,0,0,1,.32-.73,2.58,2.58,0,0,1,.41-.57,1.39,1.39,0,0,1,.51-.37,1.64,1.64,0,0,1,.65-.12,2.56,2.56,0,0,1,.8.17,2.42,2.42,0,0,1,.77.41,1.29,1.29,0,0,1,.41.53,1.51,1.51,0,0,1,.09.64,2.88,2.88,0,0,1-.18.78l0,.11-1.31-.48a2.12,2.12,0,0,0,.16-.64c0-.14-.1-.23-.27-.3a.38.38,0,0,0-.47.14,4.76,4.76,0,0,0-.48,1l-.21.59a.71.71,0,0,1,.42-.15,1.32,1.32,0,0,1,.54.08h0a1.46,1.46,0,0,1,.59.37,1.2,1.2,0,0,1,.3.58,2.39,2.39,0,0,1,0,.71,3.81,3.81,0,0,1-.2.79,5.05,5.05,0,0,1-.45.93,2.36,2.36,0,0,1-.57.64,1.37,1.37,0,0,1-.75.28A2.05,2.05,0,0,1,95.3,131.36Zm.4-1a.31.31,0,0,0,.25,0,.45.45,0,0,0,.21-.17,1.74,1.74,0,0,0,.18-.33c.06-.12.12-.28.2-.48l.09-.27.08-.23c0-.09,0-.16.05-.22a.91.91,0,0,0,0-.17.35.35,0,0,0,0-.16.47.47,0,0,0-.09-.12.53.53,0,0,0-.15-.08.44.44,0,0,0-.3,0,.64.64,0,0,0-.26.13l-.39,1.08C95.34,129.88,95.39,130.23,95.7,130.34Z"/><path class="cls-8" d="M110.58,132.23a.25.25,0,0,0-.12-.19h0a.2.2,0,0,0-.18.05.69.69,0,0,0-.19.24l.22-.59c.19-.54.33-.89.41-1.06s.15-.26.21-.24.06.09,0,.21-.1.33-.21.63l.1,0a14.89,14.89,0,0,0,.34-1.94.27.27,0,0,0-.14.05,1,1,0,0,0-.27.25,3.45,3.45,0,0,0-.28.46c-.09.19-.19.39-.28.61s-.18.47-.28.74l-.89,2.4c-.12.33-.21.63-.29.9a4.87,4.87,0,0,0-.16.73,1.59,1.59,0,0,0,0,.53.75.75,0,0,0,.08.18,15.32,15.32,0,0,0,1.69-3.27C110.43,132.72,110.51,132.48,110.58,132.23Zm-1.09,2.45-.14.34a1.52,1.52,0,0,1-.12.21s-.07.06-.09.05,0-.34.18-.91l.39-1.08a.83.83,0,0,1,.13-.18s.08-.06.11-.05,0,0,0,0a.28.28,0,0,1,0,.09.83.83,0,0,1,0,.13c0,.06,0,.12,0,.17s0,.12-.07.21l-.08.23a2.51,2.51,0,0,1-.1.26C109.6,134.39,109.54,134.56,109.49,134.68Z"/><path class="cls-8" d="M83.61,122.81a1.28,1.28,0,0,0,0-.48.34.34,0,0,0-.18-.22h0a.26.26,0,0,0-.22,0,.8.8,0,0,0-.21.23l.12-.34c-.11.26-.22.53-.32.8s-.19.55-.27.82l.12-.32a.76.76,0,0,1,.13-.17s.1-.07.13,0,0,0,0,0a.22.22,0,0,1,0,.09.37.37,0,0,1,0,.13.85.85,0,0,1,0,.17s0,.12-.07.21a2,2,0,0,1-.08.23l-.09.26-.19.49-.14.34a1.35,1.35,0,0,1-.13.21.12.12,0,0,1-.08,0q-.09.51-.15,1l.11,0a1.34,1.34,0,0,0,.39-.42,6.53,6.53,0,0,0,.38-.71c.12-.27.25-.58.38-1s.19-.54.26-.78A4.54,4.54,0,0,0,83.61,122.81Z"/><path class="cls-8" d="M83.91,120.72q0,.18-.21.63l.47.17,0-.12a5.3,5.3,0,0,0,.24-.75,2.82,2.82,0,0,0,.1-.58.93.93,0,0,0-.07-.4l0-.06c-.2.29-.38.6-.57.91C83.92,120.55,83.93,120.62,83.91,120.72Z"/><path class="cls-8" d="M103.89,115.19a0,0,0,0,1,0,0c0,.1-.34,0-.91-.17l-1.08-.39a.76.76,0,0,1-.17-.13q-.08-.08-.06-.12a.1.1,0,0,1,0,0h.09l.13,0,.17,0,.21.07.23.08.26.1c.19.06.34.12.46.17a15.28,15.28,0,0,0-1.65-.73c-.3-.11-.6-.2-.91-.29a.18.18,0,0,0,0,.07h0a.23.23,0,0,0,0,.2.66.66,0,0,0,.23.2l-.59-.21c-.54-.2-.89-.34-1.06-.42s-.25-.16-.23-.22,0,0,0,0c-.36-.06-.71-.11-1.07-.15l0,.07a1,1,0,0,0,.25.29,3.39,3.39,0,0,0,.46.29l.6.29.75.29,2.4.88c.32.12.62.21.89.29a6.94,6.94,0,0,0,.74.15,1.27,1.27,0,0,0,.53,0,.52.52,0,0,0,.15-.06C104.51,115.56,104.2,115.37,103.89,115.19Z"/><path class="cls-8" d="M99.83,113.59l.07,0h0Z"/><path class="cls-8" d="M93.89,142.33c.37.07.74.13,1.1.17a.49.49,0,0,0-.07-.19,1.49,1.49,0,0,0-.43-.37,5.66,5.66,0,0,0-.7-.37,9.47,9.47,0,0,0-1-.39c-.28-.1-.54-.19-.77-.25a4.94,4.94,0,0,0-.65-.15,1.22,1.22,0,0,0-.47,0,.29.29,0,0,0-.21.17h0a.24.24,0,0,0,0,.21.68.68,0,0,0,.23.21l-.6-.22-.55-.21a15.28,15.28,0,0,0,1.65.73,15,15,0,0,0,1.7.51l-.16-.06-1.08-.4a.59.59,0,0,1-.17-.13q-.08-.07-.06-.12l0,0h.09l.14,0,.16,0,.22.07.22.08.27.1.48.18.34.15a.86.86,0,0,1,.21.13s.06.07,0,.1S93.92,142.32,93.89,142.33Z"/><path class="cls-8" d="M89.12,140.55s0,0,0,0,.09-.08.21-.05a4.42,4.42,0,0,1,.63.2l.16-.44-.11,0a5.83,5.83,0,0,0-.76-.24,2.63,2.63,0,0,0-.57-.1.93.93,0,0,0-.4.05l-.09.06C88.49,140.17,88.8,140.36,89.12,140.55Z"/><path class="cls-18" d="M250.05,237.23a26.65,26.65,0,1,1-33.43-17.41A26.65,26.65,0,0,1,250.05,237.23Z"/><path class="cls-19" d="M250.05,237.23a26.65,26.65,0,1,1-33.43-17.41A26.65,26.65,0,0,1,250.05,237.23Z"/><path class="cls-5" d="M215.91,240.08c-2.08,4.71-5.86,7.59-8.45,6.45s-3-5.88-.91-10.58,5.85-7.6,8.44-6.45S218,235.38,215.91,240.08Z"/><path class="cls-5" d="M212.48,238.11c-1.27,2.89-3.6,4.67-5.18,4s-1.84-3.62-.57-6.51,3.6-4.66,5.19-4S213.76,235.22,212.48,238.11Z"/><path class="cls-5" d="M209.91,236.93c-.74,1.66-2.08,2.68-3,2.28s-1.06-2.08-.33-3.75,2.08-2.68,3-2.28S210.64,235.26,209.91,236.93Z"/><path class="cls-5" d="M201,253.69a26,26,0,0,1,36.2-31.18,26,26,0,1,0-24,46.09A25.91,25.91,0,0,1,201,253.69Z"/><path class="cls-11" d="M232.73,219.85a26.65,26.65,0,0,1-24.26,46.58,26.65,26.65,0,1,0,24.26-46.58Z"/><path class="cls-5" d="M236.23,222a26,26,0,0,1-24,46.1,26,26,0,1,0,24-46.1Z"/><path class="cls-6" d="M236.88,241.38A12.84,12.84,0,1,1,220.77,233,12.85,12.85,0,0,1,236.88,241.38Z"/><path class="cls-6" d="M205.2,263.5c.61-2.37.13-6.84-1.4-11.7s-3.7-8.79-5.56-10.38a26.78,26.78,0,0,0,7,22.08Z"/><path class="cls-6" d="M244.05,227c-.6,2.36-.13,6.83,1.4,11.69s3.71,8.79,5.56,10.38a26.65,26.65,0,0,0-7-22.07Z"/><path class="cls-6" d="M206.37,225.81c2.37.61,6.83.14,11.69-1.4s8.79-3.7,10.39-5.55a26.73,26.73,0,0,0-22.08,6.95Z"/><path class="cls-6" d="M232.64,270.66a26.64,26.64,0,0,0,10.24-6c-2.37-.61-6.83-.13-11.69,1.4s-8.79,3.7-10.38,5.55A26.5,26.5,0,0,0,232.64,270.66Z"/><path class="cls-8" d="M224.33,252.15l-.62-11.3-3.35,1.05-.61-1.94,5.85-1.84.55,1.74.67,11.5Z"/><path class="cls-8" d="M236.7,268.94l-10.88,2,.3,1a26.68,26.68,0,0,0,6.52-1.19,27.16,27.16,0,0,0,5.89-2.68l-.42-1.33-1.93.61Z"/><path class="cls-8" d="M220.92,218.85l.15.47-6.17,1.11a27.09,27.09,0,0,0-4.18,2.07l10.94-2,1.74-.54-.42-1.33C222.3,218.68,221.61,218.75,220.92,218.85Z"/><path class="cls-8" d="M246.56,233.64l1.67-.52,2,10.88,1.05-.33a26.76,26.76,0,0,0-3.91-12.4l-1.38.44Z"/><path class="cls-8" d="M198.62,248.75l1,5.85a27.3,27.3,0,0,0,2.1,4.35l-2-10.79-.55-1.74-1.24.39c0,.69.11,1.38.21,2.06Z"/><path class="cls-20" d="M65.06,84.22a21.51,21.51,0,1,1-19-23.79A21.52,21.52,0,0,1,65.06,84.22Z"/><path class="cls-21" d="M65.06,84.22a21.51,21.51,0,1,1-19-23.79A21.52,21.52,0,0,1,65.06,84.22Z"/><path class="cls-5" d="M38.94,75.14c-3.07,2.79-6.81,3.68-8.34,2s-.28-5.31,2.79-8.11,6.81-3.68,8.34-2S42,72.35,38.94,75.14Z"/><ellipse class="cls-5" cx="35.35" cy="70.69" rx="4.62" ry="2.54" transform="translate(-38.34 42.12) rotate(-42.24)"/><path class="cls-5" d="M35.55,70.85c-1.09,1-2.41,1.3-2.95.7s-.1-1.88,1-2.87,2.41-1.3,3-.7S36.63,69.86,35.55,70.85Z"/><path class="cls-5" d="M23.51,80.3A21,21,0,0,1,60.43,69.16,21,21,0,1,0,27.63,95.3,20.9,20.9,0,0,1,23.51,80.3Z"/><path class="cls-11" d="M58,65.73A21.5,21.5,0,0,1,24.83,92.14,21.5,21.5,0,1,0,58,65.73Z"/><path class="cls-5" d="M59.86,68.44A21,21,0,0,1,27.05,94.59,21,21,0,1,0,59.86,68.44Z"/><path class="cls-6" d="M54,83A10.37,10.37,0,1,1,44.85,71.5,10.36,10.36,0,0,1,54,83Z"/><path class="cls-6" d="M23.37,88.91c1.23-1.55,2.34-5,2.8-9.09s.15-7.69-.7-9.48a21.62,21.62,0,0,0-2.1,18.57Z"/><path class="cls-6" d="M64,74.7c-1.22,1.54-2.33,5-2.79,9.08s-.15,7.7.7,9.48A21.55,21.55,0,0,0,64,74.7Z"/><path class="cls-6" d="M36.58,61.49c1.55,1.22,5,2.34,9.08,2.8s7.7.15,9.48-.7a21.6,21.6,0,0,0-18.56-2.1Z"/><path class="cls-6" d="M41.27,103.18a21.49,21.49,0,0,0,9.52-1.07c-1.55-1.22-5-2.33-9.08-2.8s-7.7-.14-9.48.7A21.34,21.34,0,0,0,41.27,103.18Z"/><path class="cls-8" d="M41.2,86.8l3.24-8.54-2.81-.32.18-1.63,4.92.56-.16,1.46L43.3,87Z"/><path class="cls-8" d="M44.83,103.24l-8.67-2.12-.09.81a22.2,22.2,0,0,0,5.2,1.25,21.75,21.75,0,0,0,5.23-.05l.12-1.12L45,101.83Z"/><path class="cls-8" d="M49.59,61.12l0,.4-4.91-1.2a21.43,21.43,0,0,0-3.77.15l8.72,2.12,1.47.16.12-1.11C50.66,61.44,50.13,61.27,49.59,61.12Z"/><path class="cls-8" d="M63.66,80.43l1.41.16L63,89.26l.88.1a21.21,21.21,0,0,0,1.23-5.14,21.74,21.74,0,0,0,0-5.29l-1.16-.13Z"/><path class="cls-8" d="M23.35,75.87l-1.14,4.66a21,21,0,0,0,.13,3.9l2.08-8.6.17-1.47-1.05-.11c-.19.52-.37,1-.52,1.59Z"/><circle class="cls-22" cx="66.92" cy="224.68" r="23.24" transform="translate(-161.12 279.04) rotate(-86.82)"/><circle class="cls-22" cx="66.92" cy="224.68" r="23.24" transform="translate(-161.12 279.04) rotate(-86.82)"/><circle class="cls-23" cx="66.92" cy="224.68" r="23.24" transform="translate(-161.12 279.04) rotate(-86.82)"/><path class="cls-5" d="M61,218.1c-3,3.37-6.86,4.78-8.71,3.16s-1-5.68,2-9,6.86-4.78,8.71-3.15S64,214.74,61,218.1Z"/><path class="cls-5" d="M58.69,215.57c-1.82,2.07-4.21,2.94-5.35,1.94S52.76,214,54.58,212,58.79,209,59.93,210,60.51,213.5,58.69,215.57Z"/><path class="cls-5" d="M56.86,213.91c-1,1.19-2.43,1.69-3.08,1.11s-.34-2,.71-3.2,2.43-1.69,3.08-1.11S57.91,212.72,56.86,213.91Z"/><path class="cls-5" d="M45.08,225.52a22.66,22.66,0,0,1,38.28-16.44,22.66,22.66,0,1,0-32,32A22.61,22.61,0,0,1,45.08,225.52Z"/><path class="cls-5" d="M82.67,208.38a22.66,22.66,0,0,1-32.05,32,22.66,22.66,0,1,0,32.05-32Z"/><path class="cls-6" d="M78.12,224.68a11.2,11.2,0,1,1-11.2-11.2A11.19,11.19,0,0,1,78.12,224.68Z"/><path class="cls-6" d="M43.68,224.28c1.82-1.11,4.24-4.19,6.24-8.16s3-7.74,2.84-9.87a23.33,23.33,0,0,0-9.08,18Z"/><path class="cls-6" d="M90.16,225.08c-1.81,1.11-4.23,4.19-6.23,8.16s-3,7.74-2.84,9.87a23.28,23.28,0,0,0,9.07-18Z"/><path class="cls-6" d="M67.32,201.44c1.12,1.82,4.2,4.24,8.16,6.23s7.75,3,9.87,2.84a23.28,23.28,0,0,0-18-9.07Z"/><path class="cls-6" d="M56.48,245.44a23.24,23.24,0,0,0,10,2.48c-1.11-1.82-4.19-4.24-8.16-6.23s-7.74-3-9.86-2.84A23.14,23.14,0,0,0,56.48,245.44Z"/><path class="cls-8" d="M64.31,229.92a4.1,4.1,0,0,1-1.22-.89,2.24,2.24,0,0,1-.54-1.09,3.41,3.41,0,0,1,0-1.23,5.68,5.68,0,0,1,.51-1.37l.18-.36,2.1,1.06-.18.35a3,3,0,0,0-.39,1.18.65.65,0,0,0,.41.61.61.61,0,0,0,.7,0,3.24,3.24,0,0,0,.65-1,2.66,2.66,0,0,0,.37-1.27,1.08,1.08,0,0,0-.65-.81l-.37-.19.74-1.46.33.16a1.14,1.14,0,0,0,1,.1,2.39,2.39,0,0,0,.8-1,2.24,2.24,0,0,0,.29-1,.68.68,0,0,0-.41-.58.6.6,0,0,0-.7,0,2.74,2.74,0,0,0-.61.85l-.27.52-2.09-1,.31-.61a3.15,3.15,0,0,1,1.79-1.72,3,3,0,0,1,2.41.28,3.2,3.2,0,0,1,1.7,1.75A3,3,0,0,1,71,223.6a3.17,3.17,0,0,1-1.09,1.28,1.68,1.68,0,0,1-1.27.31c.68.72.7,1.7.07,3a6,6,0,0,1-.8,1.21,3.29,3.29,0,0,1-1,.75,2.27,2.27,0,0,1-1.19.23A3.65,3.65,0,0,1,64.31,229.92Z"/><path class="cls-8" d="M87.57,234.74a1.21,1.21,0,0,0,.5-.44,23.06,23.06,0,0,0,1.58-4.73l0,0c-.26-.13-.59,0-1,.43a8.59,8.59,0,0,0-1.27,2l-.31.61.62.31.26-.52a8.24,8.24,0,0,1,.52-.91c.13-.19.24-.27.31-.23s.09.17,0,.38a8.73,8.73,0,0,1-.41.93,8.27,8.27,0,0,1-.64,1.09c-.16.2-.3.27-.43.21l-.1-.05-.74,1.47.11.05q.18.12.06.51a7.79,7.79,0,0,1-.52,1.2,9.62,9.62,0,0,1-.56,1c-.13.2-.24.28-.32.23s-.09-.17,0-.4a11.09,11.09,0,0,1,.51-1.12l.17-.36-.62-.31-.18.36c-.25.49-.45.93-.61,1.32a7.83,7.83,0,0,0-.36,1.06,1.75,1.75,0,0,0-.07.79.54.54,0,0,0,.28.42h0a23.69,23.69,0,0,0,3.12-4.56A1.59,1.59,0,0,0,87.57,234.74Z"/><path class="cls-8" d="M47.41,212.61l.26-.51a8.26,8.26,0,0,1,.51-.91c.13-.2.24-.28.32-.24s.09.17,0,.38a7,7,0,0,1-.41.93,6.47,6.47,0,0,1-.63,1.09c-.16.2-.31.27-.44.21l-.09,0L46.21,215l.11.06c.11.07.13.24,0,.51a7.91,7.91,0,0,1-.51,1.19,10.82,10.82,0,0,1-.57,1c-.13.19-.23.27-.31.23s-.09-.18,0-.41a8.69,8.69,0,0,1,.5-1.12l.18-.35-.27-.14a24.58,24.58,0,0,0-1.18,3.81.6.6,0,0,0,.38-.07,2.13,2.13,0,0,0,.59-.53,8.75,8.75,0,0,0,.64-.93q.33-.54.69-1.26a5.06,5.06,0,0,0,.81-2.52c.15,0,.37-.25.64-.62a10.48,10.48,0,0,0,.84-1.41,8.1,8.1,0,0,0,.81-2.15c.08-.46,0-.77-.15-.94a23.36,23.36,0,0,0-2.3,3.13Z"/><path class="cls-8" d="M77.37,203.92h0a1.4,1.4,0,0,0-.41,0,.7.7,0,0,0-.2-.28,22.84,22.84,0,0,0-5-1.69c-.08.25.07.55.46.92a9.07,9.07,0,0,0,2,1.27l.61.31.32-.63-.52-.26a9.35,9.35,0,0,1-.91-.51c-.2-.13-.28-.24-.24-.32s.17-.09.38,0a7.65,7.65,0,0,1,.94.41,6.71,6.71,0,0,1,1.08.63c.2.16.28.31.22.43l-.05.1,1.46.74.06-.11c.07-.12.24-.13.51-.06a9.57,9.57,0,0,1,1.19.52c.49.25.82.43,1,.56s.27.24.23.32-.18.09-.41,0a8.69,8.69,0,0,1-1.12-.5l-.35-.18-.32.62.36.19c.5.24.94.45,1.32.61a9.52,9.52,0,0,0,1.06.36,2.12,2.12,0,0,0,.79.07.54.54,0,0,0,.41-.26A23.57,23.57,0,0,0,77.37,203.92Z"/><path class="cls-8" d="M59.79,246.52a10.15,10.15,0,0,1-1.12-.51l-.36-.17-.17.35a24.34,24.34,0,0,0,3.81,1.2.51.51,0,0,0,0-.49,2,2,0,0,0-.53-.58,6.65,6.65,0,0,0-.92-.64q-.54-.33-1.26-.69a4.88,4.88,0,0,0-2.53-.81c0-.16-.25-.37-.61-.64a9.15,9.15,0,0,0-1.42-.85,8.1,8.1,0,0,0-2.15-.81c-.5-.08-.82,0-1,.2a22.71,22.71,0,0,0,3.13,2.33l.17-.33-.52-.26a8.24,8.24,0,0,1-.91-.52c-.19-.13-.27-.23-.23-.31s.16-.09.37,0a5.54,5.54,0,0,1,.94.41,6.71,6.71,0,0,1,1.08.63c.21.16.28.3.22.43l-.05.1,1.47.74.05-.11q.1-.18.51-.06a7.38,7.38,0,0,1,1.19.52,9,9,0,0,1,1,.56c.2.13.27.24.23.32S60,246.6,59.79,246.52Z"/><path class="cls-7" d="M80.31,205.69a23.23,23.23,0,0,1-32.38,32.38,23.24,23.24,0,1,0,32.38-32.38Z"/><circle class="cls-24" cx="291.84" cy="176.2" r="31.95" transform="translate(-27.23 56.15) rotate(-10.5)"/><circle class="cls-25" cx="291.84" cy="176.2" r="31.95" transform="translate(-27.23 56.15) rotate(-10.5)"/><circle class="cls-26" cx="291.84" cy="176.2" r="31.95" transform="translate(-27.23 56.15) rotate(-10.5)"/><path class="cls-5" d="M281.16,170.41c-2.27,5.73-6.67,9.36-9.82,8.12s-3.85-6.91-1.58-12.64,6.67-9.37,9.82-8.12S283.44,164.68,281.16,170.41Z"/><path class="cls-5" d="M277,168.21c-1.4,3.52-4.1,5.75-6,5s-2.37-4.24-1-7.76,4.1-5.75,6-5S278.37,164.69,277,168.21Z"/><path class="cls-5" d="M273.83,166.91c-.8,2-2.36,3.31-3.47,2.87s-1.37-2.45-.56-4.47,2.36-3.32,3.47-2.87S274.64,164.88,273.83,166.91Z"/><path class="cls-5" d="M264,187.39a31.15,31.15,0,0,1,42-39,31.16,31.16,0,1,0-26.66,56.3A31,31,0,0,1,264,187.39Z"/><path class="cls-5" d="M304.68,147.81A31.16,31.16,0,0,1,278,204.12a31.16,31.16,0,1,0,26.66-56.31Z"/><path class="cls-6" d="M303.75,163.77a15.4,15.4,0,1,1-19.68-9.32A15.4,15.4,0,0,1,303.75,163.77Z"/><path class="cls-6" d="M297.8,192.87c-8,2.86-13.22,8.75-11.65,13.16a4.93,4.93,0,0,0,1.14,1.79,32,32,0,0,0,28.12-10,5,5,0,0,0-.26-2.11C313.58,191.26,305.81,190,297.8,192.87Z"/><path class="cls-6" d="M264.08,192c1.7-3.08,2.41-7.79,1.65-12.89A22.15,22.15,0,0,0,261,167.88a31.82,31.82,0,0,0,.76,19.07A31.26,31.26,0,0,0,264.08,192Z"/><path class="cls-6" d="M313.87,161.88c2.64,4.44,6.19,7.65,9.46,9a32.17,32.17,0,0,0-1.4-5.39,31.78,31.78,0,0,0-11.49-15.21A22.22,22.22,0,0,0,313.87,161.88Z"/><path class="cls-7" d="M300.39,145.42a31.95,31.95,0,0,1-26.94,56.9,31.95,31.95,0,1,0,26.94-56.9Z"/><path class="cls-8" d="M287.37,176.39l-.77-2.14,1.55-6.65c0-.12.07-.33.15-.65l.18-.71.12-.66a5.69,5.69,0,0,0,.07-.73,3.74,3.74,0,0,0,0-.65,3.45,3.45,0,0,0-.15-.67,1.61,1.61,0,0,0-.67-.92.8.8,0,0,0-.71,0l-.21.09a1,1,0,0,0-.56.83,3.57,3.57,0,0,0,.28,1.55l.25.71-2.94,1.05-.27-.76a7,7,0,0,1-.42-1.89,4.57,4.57,0,0,1,.2-1.7,3.31,3.31,0,0,1,.93-1.42,5,5,0,0,1,1.75-1,4.25,4.25,0,0,1,3.34,0,4.12,4.12,0,0,1,2,2.51,3.58,3.58,0,0,1,.16.56c0,.2.08.37.11.53a3.13,3.13,0,0,1,0,.56v.52a4.66,4.66,0,0,1-.05.54c0,.24-.06.41-.08.51s-.05.28-.11.54-.1.42-.12.5l-.14.54c-.07.29-.12.46-.14.52l-1.25,5,4.26-1.52.85,2.38Z"/><path class="cls-8" d="M293,202.85l2.15-.77,6.13.09.59,0h1.27a5.79,5.79,0,0,0,.68-.05l.63-.1a4.11,4.11,0,0,0,.65-.19,2.45,2.45,0,0,0,1-.54.44.44,0,0,0,.13-.45.75.75,0,0,0-.07-.12.73.73,0,0,0-.71-.25,6.3,6.3,0,0,0-1.51.38l-.71.26-.61-1.71.76-.28a11,11,0,0,1,1.85-.51,6.32,6.32,0,0,1,1.59-.1,2.47,2.47,0,0,1,1.24.4,2,2,0,0,1,.73,1,2,2,0,0,1-.41,2.09,6.06,6.06,0,0,1-2.66,1.62,5.22,5.22,0,0,1-.56.18l-.52.14-.54.1-.49.06a4.8,4.8,0,0,1-.51,0l-.47,0H301.1l-.48,0-4.57-.13.89,2.48-2.38.85Z"/><path class="cls-8" d="M314.35,155.54a18.49,18.49,0,0,0,1.1,1.58l.48.65.76-.57-.45-.6a11.12,11.12,0,0,1-.88-1.29c-.16-.31-.21-.51-.15-.62a.13.13,0,0,1,0-.06s.1,0,.19,0c-.64-.7-1.32-1.36-2-2a.8.8,0,0,0-.11.48,2.92,2.92,0,0,0,.29,1.07A11,11,0,0,0,314.35,155.54Z"/><path class="cls-8" d="M316.75,156.19c.11.16.2.31.28.44s.2.36.31.58.21.41.28.53l.27.56.24.51,2.57,5.26,1.37,1.82h0c-.05-.14-.09-.29-.14-.44A32.05,32.05,0,0,0,316.75,156.19Z"/><path class="cls-8" d="M260,174.37l.07,0c.08,0,.15.07.21.26a4.23,4.23,0,0,1,.18,1.08c0,.22,0,.44,0,.68s0,.44,0,.63,0,.4-.05.65-.05.46-.06.6-.05.34-.08.61-.06.46-.07.57l-.06.41a31.25,31.25,0,0,0,.62,3.54l.36-2.79c0-.05,0-.2.06-.44s.06-.41.07-.47,0-.22.05-.44.05-.38.06-.48,0-.24,0-.45,0-.38,0-.5,0-.29,0-.49,0-.38,0-.54,0-.34,0-.54l0-.58a11.19,11.19,0,0,0-.55-3,1.7,1.7,0,0,0-.62-.91c-.13.88-.22,1.76-.27,2.65Z"/><path class="cls-8" d="M261.89,184.81l-.79.05c.2.7.41,1.4.66,2.09,0,.13.1.26.15.39h.16Z"/><path class="cls-27" d="M132.23,202.2a26.85,26.85,0,1,1-22.91-30.28A26.85,26.85,0,0,1,132.23,202.2Z"/><path class="cls-28" d="M132.23,202.2a26.85,26.85,0,1,1-22.91-30.28A26.85,26.85,0,0,1,132.23,202.2Z"/><path class="cls-29" d="M132.23,202.2a26.85,26.85,0,1,1-22.91-30.28A26.85,26.85,0,0,1,132.23,202.2Z"/><path class="cls-5" d="M99.93,190.05c-3.92,3.39-8.61,4.39-10.47,2.23s-.19-6.64,3.73-10,8.61-4.38,10.47-2.23S103.85,186.67,99.93,190.05Z"/><path class="cls-5" d="M97.66,186.78c-2.41,2.08-5.29,2.7-6.43,1.37s-.12-4.08,2.29-6.16,5.29-2.69,6.43-1.37S100.07,184.71,97.66,186.78Z"/><path class="cls-5" d="M95.83,184.59c-1.39,1.2-3,1.55-3.71.79s-.06-2.35,1.32-3.55,3-1.55,3.71-.78S97.22,183.4,95.83,184.59Z"/><path class="cls-5" d="M80.51,196a26.18,26.18,0,0,1,46.41-12.74,26.18,26.18,0,1,0-41.74,31.58A26,26,0,0,1,80.51,196Z"/><path class="cls-5" d="M126.23,182.35A26.18,26.18,0,0,1,84.49,214a26.18,26.18,0,1,0,41.74-31.6Z"/><path class="cls-6" d="M119.34,193.88a12.94,12.94,0,1,1-11-14.59A12.93,12.93,0,0,1,119.34,193.88Z"/><path class="cls-6" d="M103.59,213.25c-7.07-1-13.25,1.38-13.79,5.28A4.25,4.25,0,0,0,90,220.3a26.84,26.84,0,0,0,24.86,3.45,4.14,4.14,0,0,0,.62-1.67C116,218.18,110.67,214.23,103.59,213.25Z"/><path class="cls-6" d="M78.81,199.49c2.47-1.63,4.83-4.87,6.24-9a18.6,18.6,0,0,0,.84-10.2A26.71,26.71,0,0,0,79,194.83,27.15,27.15,0,0,0,78.81,199.49Z"/><path class="cls-6" d="M127.61,196.41c.24,4.34,1.64,8.11,3.57,10.35a27.25,27.25,0,0,0,1-4.56,26.7,26.7,0,0,0-2.64-15.8A18.57,18.57,0,0,0,127.61,196.41Z"/><path class="cls-7" d="M124,178.91a26.85,26.85,0,0,1-42.19,31.92A26.85,26.85,0,1,0,124,178.91Z"/><path class="cls-8" d="M102.23,196.92l.26-1.89,3.73-4.36.37-.42.41-.46.34-.45a3.45,3.45,0,0,0,.34-.51,3.36,3.36,0,0,0,.23-.5,2.81,2.81,0,0,0,.15-.55,1.34,1.34,0,0,0-.14-.95.71.71,0,0,0-.52-.3h-.19a.84.84,0,0,0-.74.4,3.1,3.1,0,0,0-.4,1.26l-.08.63-2.6-.36.09-.68a6.3,6.3,0,0,1,.43-1.57,3.78,3.78,0,0,1,.8-1.18,2.7,2.7,0,0,1,1.25-.7,4.13,4.13,0,0,1,1.7-.07,3.57,3.57,0,0,1,2.5,1.26,3.48,3.48,0,0,1,.55,2.67c0,.16-.06.32-.1.48l-.13.44a2.19,2.19,0,0,1-.19.43l-.2.38a2.64,2.64,0,0,1-.25.39l-.25.35-.3.36-.28.32-.32.35-.3.34-2.86,3.21,3.76.52-.29,2.11Z"/><path class="cls-8" d="M96.11,218.8l1.9.27,4.53,2.45.43.24.49.27.46.23.52.23.51.16.56.12a2.25,2.25,0,0,0,.93,0c.17-.06.26-.16.27-.29a.2.2,0,0,0,0-.11c0-.19-.16-.34-.44-.46a4.66,4.66,0,0,0-1.27-.31l-.62-.08.2-1.52.68.1a9.29,9.29,0,0,1,1.58.34,4.89,4.89,0,0,1,1.22.54,2.1,2.1,0,0,1,.77.77,1.58,1.58,0,0,1,.16,1,1.69,1.69,0,0,1-1.11,1.41,5.22,5.22,0,0,1-2.61.17,4.21,4.21,0,0,1-.49-.09l-.44-.1-.44-.13-.39-.14-.4-.17-.36-.17-.37-.2-.34-.18-.37-.21-.34-.2L98,220.85l-.3,2.19-2.1-.29Z"/><path class="cls-8" d="M130.43,191.88c0,.48.11,1,.2,1.6l.12.67.78-.13-.1-.63a8.17,8.17,0,0,1-.15-1.29c0-.3,0-.47.12-.53l0,0c.05,0,.09,0,.14.08-.2-.77-.45-1.53-.72-2.27a.68.68,0,0,0-.26.31,2.32,2.32,0,0,0-.2.91A8.23,8.23,0,0,0,130.43,191.88Z"/><path class="cls-8" d="M132,193.29c0,.16,0,.31,0,.44s0,.34,0,.55v.51c0,.11,0,.29,0,.52s0,.39,0,.47l-.14,4.92.32,1.88h0l.06-.38A26.8,26.8,0,0,0,132,193.29Z"/><path class="cls-8" d="M82.58,184.76h.06c.07,0,.09.11.07.27a3.62,3.62,0,0,1-.3.88q-.1.26-.24.51l-.26.47c-.07.13-.17.29-.29.47s-.21.32-.28.41-.16.25-.29.43l-.28.39-.2.29a30.2,30.2,0,0,0-.92,2.88L81,189.84s.1-.14.22-.31l.23-.33.21-.3.22-.34c0-.06.11-.17.21-.32s.17-.27.22-.36l.21-.36c.08-.14.15-.28.21-.4s.13-.25.2-.4l.21-.45a9.49,9.49,0,0,0,.77-2.46,1.48,1.48,0,0,0-.11-.92c-.44.61-.85,1.23-1.24,1.87Z"/><path class="cls-8" d="M80,193.29l-.61-.27c-.12.6-.23,1.2-.32,1.81,0,.12,0,.23,0,.35l.12,0Z"/><path class="cls-30" d="M431.05,220.56a32.26,32.26,0,1,1-38.94-23.77A32.26,32.26,0,0,1,431.05,220.56Z"/><path class="cls-31" d="M431.05,220.56a32.26,32.26,0,1,1-38.94-23.77A32.26,32.26,0,0,1,431.05,220.56Z"/><path class="cls-32" d="M431.05,220.56a32.26,32.26,0,1,1-38.94-23.77A32.26,32.26,0,0,1,431.05,220.56Z"/><path class="cls-5" d="M389.59,221.2c-2.9,5.51-7.7,8.69-10.73,7.09s-3.13-7.34-.24-12.86,7.7-8.68,10.73-7.09S392.48,215.69,389.59,221.2Z"/><path class="cls-5" d="M385.61,218.54c-1.77,3.38-4.72,5.33-6.58,4.36s-1.93-4.52-.15-7.9,4.73-5.34,6.59-4.36S387.39,215.15,385.61,218.54Z"/><path class="cls-5" d="M382.6,216.89c-1,2-2.72,3.08-3.79,2.52s-1.11-2.6-.09-4.55,2.72-3.08,3.8-2.52S383.62,214.94,382.6,216.89Z"/><path class="cls-5" d="M370.5,236.41a31.46,31.46,0,0,1,46.28-34.68A31.46,31.46,0,1,0,384,255.42,31.38,31.38,0,0,1,370.5,236.41Z"/><path class="cls-5" d="M415.62,201a31.46,31.46,0,0,1-32.79,53.7A31.47,31.47,0,1,0,415.62,201Z"/><path class="cls-6" d="M413,216.93a15.55,15.55,0,1,1-18.77-11.45A15.55,15.55,0,0,1,413,216.93Z"/><path class="cls-6" d="M403.9,245.52c-8.35,2-14.21,7.38-13.1,12a5.06,5.06,0,0,0,.94,1.92,32.25,32.25,0,0,0,29.31-7.09,5,5,0,0,0,0-2.14C419.91,245.59,412.24,243.5,403.9,245.52Z"/><path class="cls-6" d="M370.13,241c2-2.91,3.25-7.57,3-12.77a22.23,22.23,0,0,0-3.55-11.77,32.08,32.08,0,0,0-1.27,19.23A31.27,31.27,0,0,0,370.13,241Z"/><path class="cls-6" d="M423.34,216.12c2.18,4.74,5.4,8.35,8.55,10a32.66,32.66,0,0,0-.84-5.56,32.05,32.05,0,0,0-9.91-16.51A22.4,22.4,0,0,0,423.34,216.12Z"/><path class="cls-7" d="M411.56,198.15a32.26,32.26,0,0,1-33.12,54.26,32.26,32.26,0,1,0,33.12-54.26Z"/><path class="cls-8" d="M399.51,228.28l-.85-3.51L394,225.89l-.57-2.37,1.68-10.36,3.53-.85,2.29,9.48,1.47-.36.55,2.3-1.46.35.84,3.52ZM395.84,223l2.27-.55-1.55-6.38Z"/><path class="cls-8" d="M398.35,257.72l3.52-.85-.56-2.32,2.37-.58,9.88-.29.43,1.76-9.48,2.29.18.74-2.3.55-.18-.73-3.51.85Zm5.54-2.54.28,1.14,6.38-1.55Z"/><path class="cls-8" d="M429.34,215.43l-.5.33-2.86-6,2.48,3.76a32.52,32.52,0,0,0-4.27-6.39l-.19.12,4,8.95,1.34,2,.86-.57C430,216.92,429.66,216.17,429.34,215.43Z"/><path class="cls-8" d="M367.44,228.38a32.05,32.05,0,0,0,.9,7.35l0,.12.12-3.11.62,0,.09-2.36-.63,0,.37-9.75-.61,0a31.23,31.23,0,0,0-.78,4.85Z"/><path class="cls-33" d="M363,60.44A33.18,33.18,0,1,1,346.27,16.6,33.18,33.18,0,0,1,363,60.44Z"/><path class="cls-34" d="M363,60.44A33.18,33.18,0,1,1,346.27,16.6,33.18,33.18,0,0,1,363,60.44Z"/><path class="cls-35" d="M363,60.44A33.18,33.18,0,1,1,346.27,16.6,33.18,33.18,0,0,1,363,60.44Z"/><path class="cls-5" d="M328.87,34.89c-5.82,2.66-11.73,2.23-13.19-1s2.06-8,7.89-10.62,11.73-2.23,13.19,1S334.69,32.22,328.87,34.89Z"/><path class="cls-5" d="M327.31,30.22c-3.58,1.64-7.21,1.37-8.11-.59s1.27-4.88,4.85-6.52,7.2-1.37,8.1.59S330.88,28.59,327.31,30.22Z"/><path class="cls-5" d="M325.89,27c-2.06.94-4.15.79-4.67-.34s.73-2.81,2.79-3.76,4.15-.79,4.67.34S328,26.05,325.89,27Z"/><path class="cls-5" d="M303.77,35.26a32.36,32.36,0,0,1,59.48.88,32.36,32.36,0,1,0-60.44,23.09A32.28,32.28,0,0,1,303.77,35.26Z"/><path class="cls-5" d="M362.75,34.82a32.36,32.36,0,0,1-60.45,23.1,32.36,32.36,0,1,0,60.45-23.1Z"/><path class="cls-6" d="M350.59,46.12A16,16,0,1,1,342.52,25,16,16,0,0,1,350.59,46.12Z"/><path class="cls-6" d="M325.22,63.68c-8.06-3.6-16.2-2.93-18.19,1.51a5.09,5.09,0,0,0-.43,2.16A33.16,33.16,0,0,0,334.91,80a5,5,0,0,0,1.32-1.76C338.21,73.8,333.28,67.29,325.22,63.68Z"/><path class="cls-6" d="M300.55,38.8c3.49-1.08,7.41-4.11,10.5-8.48a22.89,22.89,0,0,0,4.51-11.82,33,33,0,0,0-13.12,14.85A34.2,34.2,0,0,0,300.55,38.8Z"/><path class="cls-6" d="M359.54,52c-1.21,5.24-.86,10.19.66,13.52a33,33,0,0,0,5.13-24.72A23,23,0,0,0,359.54,52Z"/><path class="cls-7" d="M361.25,30a33.18,33.18,0,0,1-61.08,23.33A33.18,33.18,0,1,0,361.25,30Z"/><path class="cls-8" d="M332.59,47.19A5.37,5.37,0,0,1,330.84,46a3.23,3.23,0,0,1-.83-1.52,4.38,4.38,0,0,1,0-1.77,7.91,7.91,0,0,1,.57-1.8l.07-.16A5.55,5.55,0,0,1,332,38.89a2.91,2.91,0,0,1,1.84-.77,3.74,3.74,0,0,1-.46-1.71,5,5,0,0,1,.44-2.13l.07-.16a4.23,4.23,0,0,1,2.18-2.35,4.82,4.82,0,0,1,5.72,2.55,4.22,4.22,0,0,1-.32,3.18,1.22,1.22,0,0,1-.07.17,5.19,5.19,0,0,1-1.29,1.76,3.49,3.49,0,0,1-1.57.79,3.15,3.15,0,0,1,.66,1.9,5.48,5.48,0,0,1-.47,2.25l-.11.24a8,8,0,0,1-.92,1.57,4.49,4.49,0,0,1-1.33,1.14,3.19,3.19,0,0,1-1.7.39A5.3,5.3,0,0,1,332.59,47.19Zm1-2.24a1,1,0,0,0,.47.09.75.75,0,0,0,.42-.16,3.27,3.27,0,0,0,.35-.3,2.28,2.28,0,0,0,.31-.43c.11-.18.19-.33.25-.45a4.85,4.85,0,0,0,.21-.45c.1-.21.18-.4.24-.56a4.8,4.8,0,0,0,.19-.54,1.87,1.87,0,0,0,.11-.52,1.7,1.7,0,0,0,0-.45.78.78,0,0,0-.18-.39,1,1,0,0,0-.38-.27.91.91,0,0,0-.53-.08,1,1,0,0,0-.46.2,2.05,2.05,0,0,0-.41.45,6.08,6.08,0,0,0-.34.57c-.09.18-.2.4-.31.66s-.22.51-.29.72a5.4,5.4,0,0,0-.18.72,1.25,1.25,0,0,0,.06.73A.9.9,0,0,0,333.59,45Zm3.07-6.87c.61.27,1.24-.33,1.9-1.8a2.67,2.67,0,0,0,.29-1.27.83.83,0,0,0-1.37-.62,2.75,2.75,0,0,0-.76,1.07C336.07,36.93,336.05,37.8,336.66,38.08Z"/><path class="cls-8" d="M313.24,70.09a1.86,1.86,0,0,1,.81-.91,2.45,2.45,0,0,1,1.28-.28,6.3,6.3,0,0,1,1.62.27,11.51,11.51,0,0,1,1.77.66l.16.07a9.75,9.75,0,0,1,2,1.16,2.9,2.9,0,0,1,1,1.3,4.16,4.16,0,0,1,1.51,0,8.39,8.39,0,0,1,2.05.63l.16.08a6.4,6.4,0,0,1,2.53,1.76,1.92,1.92,0,0,1,.34,2.08A1.89,1.89,0,0,1,326.67,78a6.61,6.61,0,0,1-3-.72l-.16-.07a8.44,8.44,0,0,1-1.85-1.11,3.94,3.94,0,0,1-1-1.12,3,3,0,0,1-1.65.11,9.45,9.45,0,0,1-2.16-.67l-.24-.11a12.6,12.6,0,0,1-1.61-.84,6.12,6.12,0,0,1-1.27-1,2.46,2.46,0,0,1-.65-1.14A1.94,1.94,0,0,1,313.24,70.09Zm2.24,1a.34.34,0,0,0,0,.28.61.61,0,0,0,.21.29l.34.28.45.27.46.23.45.21.56.24.52.21a3.86,3.86,0,0,0,.51.15,2.07,2.07,0,0,0,.41.07.64.64,0,0,0,.33,0,.37.37,0,0,0,.19-.2.36.36,0,0,0,0-.32.88.88,0,0,0-.26-.32,3.24,3.24,0,0,0-.48-.33c-.21-.13-.4-.23-.58-.32l-.67-.3c-.27-.12-.51-.23-.71-.3s-.44-.16-.71-.24a1.84,1.84,0,0,0-.66-.08A.43.43,0,0,0,315.48,71.09Zm6.87,3.07q-.23.51,2,1.5a4.68,4.68,0,0,0,1.23.39c.33,0,.52,0,.6-.18s0-.37-.25-.58a4.42,4.42,0,0,0-1.11-.66C323.32,74,322.51,73.82,322.35,74.16Z"/><path class="cls-8" d="M365.77,48.57c-.31,1.58-.55,2.35-.73,2.31s-.13-.84.18-2.43a9.19,9.19,0,0,1,.31-1.24q.17-.45.3-.42a.15.15,0,0,1,.08.09c0-.8,0-1.61-.09-2.41a2.36,2.36,0,0,0-.6.83,12.61,12.61,0,0,0-.86,2.93l0,.17a15.22,15.22,0,0,0-.28,2.11,6,6,0,0,0,.05,1.41,4.2,4.2,0,0,0-.66,1.35,18,18,0,0,0-.56,2.2l0,.17q-.21,1-.3,1.86a10.58,10.58,0,0,0-.1,1.61,2.77,2.77,0,0,0,.18,1.1.81.81,0,0,0,.31.4c0-.06.05-.12.08-.17a33.2,33.2,0,0,0,2.88-12.68C365.87,48,365.83,48.26,365.77,48.57Zm-1.42,5c.06-.08.12-.12.18-.11a.16.16,0,0,1,.1.11.8.8,0,0,1,0,.3c0,.13,0,.26,0,.41s0,.31-.07.52-.07.38-.1.55-.07.37-.11.6l-.1.49c0,.13-.06.3-.11.5s-.09.37-.13.51-.09.27-.13.4a1.09,1.09,0,0,1-.15.29c-.05.06-.1.09-.15.08s-.11-.1-.13-.25a3,3,0,0,1,0-.65c0-.27.07-.51.11-.73s.08-.46.14-.76.1-.52.14-.72.09-.41.15-.64.11-.41.16-.55A1.65,1.65,0,0,1,364.35,53.62Z"/><path class="cls-8" d="M305.05,28.7a1.72,1.72,0,0,1,.3-.23c.1,0,.17,0,.21,0a.16.16,0,0,1,0,.16.69.69,0,0,1-.11.27,3.24,3.24,0,0,1-.21.35l-.3.43-.35.44-.38.48-.31.38-.34.4-.35.38-.08.07c-.26.51-.5,1-.73,1.54-.09.2-.17.4-.25.6a4.23,4.23,0,0,0,.42-.3,12.72,12.72,0,0,0,1.16-1.1c.37-.4.76-.85,1.18-1.37l.17-.21a16.88,16.88,0,0,0,1.31-1.83,4.54,4.54,0,0,0,.62-1.38,6.34,6.34,0,0,0,1.1-.86,17.19,17.19,0,0,0,1.45-1.58l.11-.14a12.49,12.49,0,0,0,1.69-2.53c.27-.61.33-1,.16-1.31a33,33,0,0,0-6.72,7.57Zm3.5-4.38a8.39,8.39,0,0,1,.86-1c.23-.21.39-.28.46-.22s0,.22-.13.49a7.68,7.68,0,0,1-.76,1.05c-1,1.25-1.59,1.81-1.73,1.7S307.53,25.57,308.55,24.32Z"/><path class="cls-36" d="M275.53,149.75a54.33,54.33,0,1,1-40.36-65.38A54.33,54.33,0,0,1,275.53,149.75Z"/><path class="cls-37" d="M275.53,149.75a54.33,54.33,0,1,1-40.36-65.38A54.33,54.33,0,0,1,275.53,149.75Z"/><path class="cls-38" d="M275.53,149.75a54.33,54.33,0,1,1-40.36-65.38A54.33,54.33,0,0,1,275.53,149.75Z"/><path class="cls-5" d="M212.78,119.1c-8.55,6.07-18.19,7.18-21.52,2.49s.89-13.43,9.44-19.5,18.18-7.18,21.52-2.48S221.33,113,212.78,119.1Z"/><path class="cls-5" d="M208.84,112.08c-5.25,3.73-11.17,4.41-13.22,1.53s.55-8.25,5.8-12,11.17-4.41,13.21-1.52S214.09,108.35,208.84,112.08Z"/><path class="cls-5" d="M205.56,107.31c-3,2.15-6.43,2.55-7.61.88s.32-4.75,3.34-6.89,6.43-2.54,7.61-.88S208.59,105.17,205.56,107.31Z"/><path class="cls-5" d="M172.52,127.39a53,53,0,0,1,95.94-16.79,53,53,0,1,0-90.14,55.64A52.81,52.81,0,0,1,172.52,127.39Z"/><path class="cls-5" d="M267.25,108.62a53,53,0,0,1-90.15,55.66,53,53,0,1,0,90.15-55.66Z"/><path class="cls-6" d="M251.15,130.53A26.18,26.18,0,1,1,231.7,99,26.17,26.17,0,0,1,251.15,130.53Z"/><path class="cls-6" d="M215.73,166.54c-14.08-3.33-27,.25-28.8,8a8.45,8.45,0,0,0,0,3.61,54.36,54.36,0,0,0,49.42,11.69,8.41,8.41,0,0,0,1.58-3.25C239.72,178.84,229.8,169.87,215.73,166.54Z"/><path class="cls-6" d="M168.43,134.07c5.28-2.81,10.65-8.88,14.29-16.86,3.34-7.33,4.5-14.71,3.63-20.38a54.21,54.21,0,0,0-17.92,37.24Z"/><path class="cls-6" d="M267.34,137.2c-.34,8.79,1.74,16.65,5.21,21.54a54.22,54.22,0,0,0,.68-41.33C269.92,122.08,267.66,129.18,267.34,137.2Z"/><path class="cls-7" d="M263.34,101.24a54.32,54.32,0,0,1-91.09,56.24,54.32,54.32,0,1,0,91.09-56.24Z"/><path class="cls-8" d="M222.4,137.59a9.89,9.89,0,0,1-2.77-1.07,5.51,5.51,0,0,1-1.7-1.51,4.83,4.83,0,0,1-.78-2,8.72,8.72,0,0,1-.07-2.34,18.34,18.34,0,0,1,.48-2.73l5.15,1.22a9.42,9.42,0,0,0-.38,3.31,1.44,1.44,0,0,0,1.22,1.19l.14,0a1.92,1.92,0,0,0,.58,0,1,1,0,0,0,.5-.21,3.7,3.7,0,0,0,.4-.35,1.89,1.89,0,0,0,.36-.59c.12-.27.22-.51.3-.71s.17-.51.28-.92l.27-1c.07-.28.16-.67.29-1.19.16-.69.28-1.29.34-1.77a7,7,0,0,0,.06-1.44,1.92,1.92,0,0,0-.38-1.12,1.67,1.67,0,0,0-1-.57c-1.1-.26-1.95.36-2.57,1.87l-4.62-1.1,4-14.73,12.08,2.86-1,4.47-7.78-1.84-1.56,5.21a3.13,3.13,0,0,1,1.42-.48,7.63,7.63,0,0,1,2,0l.69.13a4.56,4.56,0,0,1,3.36,2.8q1,2.55.06,6.7c-.23,1-.48,1.85-.73,2.59a16,16,0,0,1-.92,2.18,6.79,6.79,0,0,1-1.23,1.75,6.1,6.1,0,0,1-1.62,1.13,5.38,5.38,0,0,1-2.12.49A10.94,10.94,0,0,1,222.4,137.59Z"/><path class="cls-8" d="M198.71,179.89a3,3,0,0,1,.75-1.46,3.21,3.21,0,0,1,1.3-.81,6,6,0,0,1,1.87-.23,15,15,0,0,1,2.27.19c.78.13,1.69.31,2.71.56l-.66,2.79a17,17,0,0,0-3.27-.56c-.6,0-.94.19-1,.57l0,.08a.58.58,0,0,0,0,.32.61.61,0,0,0,.26.31,3.69,3.69,0,0,0,.38.26,2.89,2.89,0,0,0,.61.26l.73.25.92.25,1,.26,1.19.28c.69.17,1.28.29,1.76.38a12.21,12.21,0,0,0,1.4.18,2.51,2.51,0,0,0,1.06-.1.67.67,0,0,0,.46-.49c.14-.59-.55-1.14-2.09-1.65l.6-2.5,14.78,3.75-1.55,6.55-4.47-1.06,1-4.21-5.25-1.42a1.89,1.89,0,0,1,.61.85,2.51,2.51,0,0,1,.18,1.15,2.07,2.07,0,0,1-.05.37c-.21.89-1,1.42-2.39,1.62a18.74,18.74,0,0,1-6.53-.66c-1-.23-1.85-.45-2.6-.67s-1.5-.47-2.23-.75a10,10,0,0,1-1.82-.88,6,6,0,0,1-1.27-1,2.66,2.66,0,0,1-.7-1.25A3.19,3.19,0,0,1,198.71,179.89Z"/><path class="cls-8" d="M275.64,139.55c0-1.61.21-2.42.53-2.42.12,0,.22.1.31.32a4.23,4.23,0,0,1,.2,1c.05.44.09.91.11,1.4s0,.85.06,1.38a53.54,53.54,0,0,0,0-8.11.52.52,0,0,0-.29-.09.51.51,0,0,0-.2,0,1.2,1.2,0,0,0-.55.45,2.13,2.13,0,0,0-.34.8l0-5.43.93,0c-.24-1.54-.55-3.06-.92-4.56l-1.37,0,.23,15.24Z"/><path class="cls-8" d="M276.14,146.83a2.26,2.26,0,0,1-.12-.51,29.64,29.64,0,0,1-.2-3.3l-1.5,0c0,1.06.07,2,.11,2.77s.13,1.54.23,2.25a9.87,9.87,0,0,0,.39,1.75,3.26,3.26,0,0,0,.29.65c.06-.24.13-.48.19-.72C275.76,148.78,276,147.8,276.14,146.83Z"/><path class="cls-8" d="M173.25,116.34c.82-1.38,1.38-2,1.66-1.84.11.06.14.21.11.44a4.28,4.28,0,0,1-.32,1c-.18.41-.38.84-.6,1.28s-.5,1-.84,1.6c-.26.46-.45.82-.58,1.07l-.51.92c-.2.37-.36.65-.47.84l-.4.66a4.92,4.92,0,0,1-.36.54,4.38,4.38,0,0,1-.29.34.83.83,0,0,1-.26.23.25.25,0,0,1-.19,0l0,0a0,0,0,0,1,0,0c-.12.46-.25.91-.36,1.37-.17.72-.32,1.43-.46,2.15a2.85,2.85,0,0,0,.62-.44,10.44,10.44,0,0,0,1-1.12c.34-.44.72-1,1.14-1.64s.81-1.32,1.2-2,.83-1.46,1.31-2.35a35.4,35.4,0,0,0,2.69-5.94c.38-1.27.37-2,0-2.25a.6.6,0,0,0-.19-.06,1.15,1.15,0,0,0-.7.12,2.17,2.17,0,0,0-.7.52l2.66-4.74,2,1.08,2.18-4-2-1.08A53.7,53.7,0,0,0,172.65,116Z"/><path class="cls-8" d="M171.69,119.45l-.31-.17c-.23.66-.44,1.32-.64,2C171,120.77,171.3,120.16,171.69,119.45Z"/></g></g></svg>