<svg id="bf0fdbe0-5108-4c0f-99f5-056edd47ebfc" data-name="Ñëîé 2" xmlns="http://www.w3.org/2000/svg" viewBox="0 0 3600 2000"><rect width="3600" height="2000" style="fill:#fff"/><path d="M2904.8672,1807.0918S3248,1834,3353.6777,1633.0859c157.1289-298.7353-148.26-539.5361-369.7988-496.1865-482.74,94.461-366.4961-947.6338-1141.2305-734.9536-217.8442,59.8027-806.4326-295.4526-970.5888,274.17-39.0352,135.4531-177.336,150.37-378.1045,236.3179-392.9214,168.208-213.2617,897.4971,67.4956,900.3594S2904.8672,1807.0918,2904.8672,1807.0918Z" style="fill:#ebf2f9"/><path d="M3336.5938,1813.8574H321.0747a2.6985,2.6985,0,0,1-2.69-2.6914h0a2.6983,2.6983,0,0,1,2.69-2.69H3336.5938a2.6989,2.6989,0,0,1,2.6914,2.69h0A2.6991,2.6991,0,0,1,3336.5938,1813.8574Z" style="fill:#283250"/><path d="M1431.5054,836.9131l-39.5816-.9087c12.7178,16.4819,15.5728,31.6655,7.6563,44.5132-7.916,13.1074-26.8638,23.8789-55.1548,32.0542a510.7114,510.7114,0,0,0-117.5772-540.128A512.0478,512.0478,0,0,0,666.3452,262.7832c-7.5273,3.2446-15.0537,6.6182-22.3213,10.1226-.0224.0107-.0449.0219-.0674.0332-21.9853-6.709-43.4-12.2076-64.0625-16.3951-104.3-21.166-178.3178-6.538-208.3837,41.191-28.6114,45.393-13.0357,113.7231,43.7392,193.4165l-.021.0376c-7.6572,14.146-14.5347,28.6811-20.8945,43.7348-4.8013,11.29-9.0835,22.5806-12.9776,34.1309-106.6757,6.3589-163.7773,25.1328-184.541,59.1348-24.1391,39.582,8.8242,92.7036,114.3325,144.3544,14.5352,7.1373,30.108,14.1456,46.46,21.1534a499.8907,499.8907,0,0,0,36.7261,139.12,511.3395,511.3395,0,0,0,939.9692,4.8017c52.04-10.7714,86.3008-27.642,99.9273-49.9638C1443.7046,872.2119,1442.5361,855.0811,1431.5054,836.9131Zm-122.12,83.7056c-34.65,6.229-77.8657,9.8623-128.3481,10.3818-78.335.9556-168.3008-5.231-263.1108-17.7261q11.9663-26.0508,23.4262-53.4648a723.6245,723.6245,0,0,0,85.2036,23.164c31.1954,6.333,59.6641,9.459,85.0743,9.459,59.561,0,102.2353-17.1953,123.3095-50.6494a87.4671,87.4671,0,0,0,8.4781-17.5264h-30.3628c-.502.9244-1.0381,1.8374-1.5972,2.7276-15.6548,24.8506-50.6382,37.6875-99.7593,37.6758-23.4931,0-50.2388-2.9322-79.6313-8.8995a694.0366,694.0366,0,0,1-80.19-21.6914q10.9659-27.4365,21.2823-55.8584c18.5083-51.0312,34.3525-101.6181,47.1694-150.1963,58.4141,8.6114,121.1059,12.9351,187.7275,12.9351q62.2149,0,128.9063-5.0239a484.1978,484.1978,0,0,1,9.9277,97.9448A478.5228,478.5228,0,0,1,1309.3857,920.6187ZM676.8135,1174.042c-14.7671-5.3555-22.2632-26.5508-25.9512-43.3877-5.8291-26.6084-6.8828-63.9824-3.0478-108.08,1.9394-22.3022,5.0566-46.0151,9.2539-70.8174a1314.9858,1314.9858,0,0,1,178.833,61.88c-13.1465,22.669-26.44,43.6885-39.7324,62.7432-25.3257,36.3037-50.0928,64.3125-71.6236,80.998C710.9209,1167.9365,691.582,1179.3975,676.8135,1174.042ZM849.272,989.9043a1342.2327,1342.2327,0,0,0-187.3413-64.876q3.3545-17.269,7.351-35.1181,26.4618,6.0168,53.6455,11.6308c53.01,10.8418,105.8921,20.0469,157.6573,27.4946Q865.2065,960.8542,849.272,989.9043Zm-114.6646-107.57q-30.7221-6.3216-60.5029-13.19c9.3384-38.8584,20.81-79.37,34.2036-120.6484C777.9272,791.292,848.7275,826.105,915.7642,850.811q-12.6153,30.1165-25.8711,58.604C838.9746,902.11,786.8779,893.0508,734.6074,882.3345ZM564.5723,357.8008a317.7806,317.7806,0,0,0,18.82,33.1152c35.1953,54.3921,81.6782,93.82,114.4751,117.3184a560.5537,560.5537,0,0,0,60.2339,37.501c-19.4429,42.3671-37.961,87.5834-54.9888,134.5336q-4.7622,13.13-9.2788,26.2115c-101.7066-66.2027-187.815-142.168-244.3008-215.6856l-.0234-.03a483.4446,483.4446,0,0,1,48.5161-68.3564c7.5263-8.8252,15.3135-17.3906,23.49-25.6963,1.1675-1.168,2.2056-2.206,3.374-3.3735A485.9759,485.9759,0,0,1,564.5723,357.8008ZM999.46,284.438c14.7666,5.3559,22.2632,26.5508,25.9511,43.3877,5.8291,26.6084,6.8829,63.9824,3.0479,108.0806-4.1978,48.27-13.8638,103.0947-28.25,161.4707q-26.06-4.4824-50.8667-10.1695c-57.0947-13.13-109.1431-31.09-155.6235-53.65,27.7348-57.8408,57.0629-109.4228,86.3857-151.4565,25.3257-36.3042,50.0928-64.313,71.6235-80.9985,11.2344-8.7061,26.3535-18.0254,39.5918-18.0254A23.7325,23.7325,0,0,1,999.46,284.438ZM941.42,613.1724q25.374,5.8908,52.0591,10.5088c-12.4844,46.9741-27.8618,95.8979-45.7778,145.2963q-10.3587,28.5609-21.4121,56.1563c-67.3013-24.7109-138.7334-60.0523-208.96-103.707q5.4441-15.9156,11.2432-31.9244c16.645-45.8945,34.7109-90.0654,53.6543-131.4321C829.96,581.2051,883.19,599.6533,941.42,613.1724Zm264.4048-219.834a479.6923,479.6923,0,0,1,124.8311,215.8867c-110.9927,8.1157-212.7,5.5674-303.6172-7.5913,14.4272-58.9478,24.1406-114.4,28.4-163.3809,4.7036-54.0879,4.1313-118.1548-17.7989-154.2085q7.6253,2.93,15.1792,6.1216A478.055,478.055,0,0,1,1205.8247,393.3384ZM865.4219,252.2715a482.3557,482.3557,0,0,1,98.2324,10.0156c-37.8272,16.4663-76.4463,62.2954-105.7612,104.3189-30.0039,43.0092-59.9659,95.6469-88.2583,154.5683a534.14,534.14,0,0,1-54.1123-33.6128c-56.273-39.9243-89.9854-81.729-108.3579-109.7685a284.4972,284.4972,0,0,1-20.52-36.67A481.3479,481.3479,0,0,1,648.8828,303.57l.02.0064q13.2606-6.6936,27.0044-12.5547c.6646-.2827,1.3213-.5752,1.9883-.856.1509-.0679.3091-.1274.4609-.1948,1.9527-.8252,3.9112-1.627,5.875-2.4214.5264-.208,1.0621-.4209,1.58-.6284A478.2677,478.2677,0,0,1,865.4219,252.2715ZM394.9927,312.5337c15.6548-24.8511,50.6382-37.6763,99.7588-37.6763,23.4936,0,50.2392,2.9326,79.6318,8.9q16.7388,3.389,34.15,7.9756l.03.0083a502.5893,502.5893,0,0,0-104.6988,80.7026c-6.6181,6.4888-12.9775,13.2374-19.2065,20.2447-7.7866,8.5659-15.1836,17.5205-22.3213,26.605a515.0958,515.0958,0,0,0-31.6655,45.2915l-.0235.039C387.2427,400.1763,374.1938,345.5283,394.9927,312.5337Zm26.5947,233.94c4.2832-9.8628,8.6948-19.5962,13.4966-29.0693l.0122-.0244c59.4795,74.3437,147.1475,150.3442,249.58,216.2573-14.5244,44.2051-26.9165,87.6494-36.917,129.2837-74.522-18.0293-143.5855-38.4316-204.1094-60.269-12.7187-4.542-25.0469-9.2144-36.8569-13.8863-7.0078-2.7256-13.8863-5.58-20.6343-8.435-1.0381-10.3824-1.8169-20.8946-2.0767-31.4063-.13-5.0615-.26-9.9922-.26-15.0537,0-5.84.13-11.81.26-17.6494a487.02,487.02,0,0,1,22.062-127.7c2.2061-7.0078,4.542-13.8867,7.1377-20.7642C415.8774,560.6191,418.603,553.4814,421.5874,546.4736Zm-86.82,210.7569c-92.0112-44.9034-134.0586-88.2481-115.2407-119.0049,15.1836-24.9175,70.4682-41.7881,155.0825-48.0171a497.0936,497.0936,0,0,0-19.2075,107.9736c-.7788,10.9009-1.1675,21.8023-1.2974,32.833v2.8555c0,11.0308.39,22.062,1.0381,32.9629C348.1338,763.7192,341.3857,760.4746,334.7671,757.2305Zm69.82,55.1543c12.458,4.6718,25.1768,9.3437,38.2842,13.8867,60.2529,20.8784,127.7959,40.2832,200.0439,57.5q-3.936,17.559-7.2651,34.5991-8.8565-2.1481-17.7236-4.18c-99.8843-22.7348-174.8379-27.36-209.5826-28.1435a470.6187,470.6187,0,0,1-18.94-79.502Q396.9942,809.4659,404.5869,812.3848Zm17,108.8828q-1.6268-3.865-3.1787-7.75c37.0557,1.4912,105.7539,7.105,193.5073,27.0791q9.4189,2.1438,18.8252,4.456c-4.5166,26.3418-7.8491,51.5152-9.9067,75.1748-3.8985,44.8272-4.1748,96.5118,8.3281,133.4209A484.35,484.35,0,0,1,421.5874,921.2676Zm631.2314,256.3076a483.2242,483.2242,0,0,1-333.4165,15.3633c35.6226-18.6709,71.4141-61.5518,98.9781-101.0645,14.2168-20.38,28.4238-42.9326,42.45-67.2763A1360.9046,1360.9046,0,0,1,1092.498,1158.625Q1073.1666,1168.9565,1052.8188,1177.5752Zm153.0059-103.1719a477.9173,477.9173,0,0,1-87.5854,69.4229A1389.2676,1389.2676,0,0,0,874.124,1000.8926c11.7422-21.5147,23.314-44.2393,34.6118-67.9614,78.1768,10.36,153.334,16.5766,221.9488,18.1845,17.9092.5191,35.2988.5191,52.1694.3892,43.7344-.5191,82.6675-3.1148,116.02-7.7866A478.433,478.433,0,0,1,1205.8247,1074.4033Z" style="fill:#adcbf9"/><path d="M2409.333,773.436s96.2725,94.7456,100.6768,130.4722-43.666,91.6152-43.666,91.6152Z" style="fill:#008f08"/><path d="M2374.5859,1757.5059s-3.122,50.3691-12.8671,51.0908c-1.2959.0957-49.4249.0957-49.4249.0957l-61.4375-.3565s.4014-14.8027,18.36-17.9326,48.0176-15.751,58.8965-39.4873C2339.5586,1725.9453,2374.5859,1757.5059,2374.5859,1757.5059Z" style="fill:#7c0000"/><path d="M2511.43,1757.5059s-3.1231,50.3691-12.8672,51.0908c-1.2969.0957-49.4248.0957-49.4248.0957l-61.4385-.3565s.4024-14.8027,18.3613-17.9326,48.0176-15.751,58.8965-39.4873C2476.4014,1725.9453,2511.43,1757.5059,2511.43,1757.5059Z" style="fill:#7c0000"/><path d="M2306.5439,1216.1807s16.0694,102.77,76.0118,285.2021,68.1113,261.4317,68.1113,261.4317l64.3047-1.8028s.5478-199.3769-27.0772-291.1152-5.9619-330.7276-5.9619-330.7276Z" style="fill:#7c0000"/><path d="M2275.252,1144.7988s-2.2754,154.8672,24.5195,345.0166,17.7119,270.8653,17.7119,270.8653l64.1758,2.1338s38.3515-190.2207,27.3564-285.3946,52.5176-326.5859,52.5176-326.5859Z" style="fill:#4f0000"/><path d="M2399.4854,782.3887l-30.2676,22.4179-43.7451-9.2089c.6054-3.99,3.4931-20.523,6.123-35.4986.1582-.8833.3174-1.7661.4668-2.63,2.252-12.7421,4.1973-23.6884,4.1973-23.6884l40.8574-20.3638,15.2334-7.5918c-.04.2676-1.1807,14.1416-1.34,16.166C2388.1523,757.9556,2399.4854,782.3887,2399.4854,782.3887Z" style="fill:#ffb27d"/><path d="M2328.5342,771.0771c.959-.4038,59.5068-17.6811,65.8672-15.581s10.1259,14.4062,10.1259,14.4062l-95.7656,21.6509S2316.3,776.228,2328.5342,771.0771Z" style="fill:#008f08"/><path d="M2486.1924,1163.917c-9.9248,45.2734-175.09,50.6426-217.6641,9.5469-4.8428-4.6846-5.081-26.4776-3.2549-55.8623,3.5723-57.41,15.045-143.7691,15.4912-187.8912.2188-21.3071,3.1465-43.1,7.0459-62.8881a510.7434,510.7434,0,0,1,20.95-75.274s80.6719-26.08,95.7666-21.644C2477.25,791.2705,2496.1162,1118.6436,2486.1924,1163.917Z" style="fill:#6fdf00"/><path d="M2265.2734,1117.6016c3.5723-57.41,15.045-143.7691,15.4912-187.8912.2188-21.3071,3.1465-43.1,7.0459-62.8881l48.5293-8.5645S2383.7861,1052.0537,2265.2734,1117.6016Z" style="fill:#008f08"/><path d="M2291.5527,1037.5791s3.3077,7.9072-3.6386,13.2168-11.4522,13.9092-9.8614,20.1943,16.8291,16.5391,22.1114,14.8858,16.0332-9.9326,14.875-13.2481,7.2314-29.0937-5.6465-39.0185S2291.5527,1037.5791,2291.5527,1037.5791Z" style="fill:#ffb27d"/><path d="M2345.7207,781.5s-47.2324,7.29-84.9434,62.8643-62.5214,96.892-55.5742,116.9213,70.2686,89.4976,81.1856,89.4976,28.5332-7.9394,29.5254-25.8027c0,0-44.5821-66.8174-35.8-76.8247,3.7529-4.2764,57.8789-48.2173,65.6064-28.37C2358.5059,952.626,2345.7207,781.5,2345.7207,781.5Z" style="fill:#6fdf00"/><path d="M2387.9443,722.626c-8.9716,17.1689-42.4052,32.0151-56.3486,37.4731.1582-.8833.3174-1.7661.4668-2.63,2.252-12.7421,4.1973-23.6884,4.1973-23.6884l40.8574-20.3638C2386.1475,713.2778,2391.6455,715.5605,2387.9443,722.626Z" style="fill:#fca56b"/><path d="M2316.4053,731.3892s73.7109,22.9936,87.3232-23.13,32.2949-74.22-14.1924-90.8511-60.8672-1.7422-69.1552,12.5483S2297.582,724.2192,2316.4053,731.3892Z" style="fill:#ffb27d"/><path d="M2331.9414,627.2725s4.2549,55.3725,15.3984,52.8725,21.2491-4.3691,19.4825,12.3482-17.3516,36.1367,16.9082,38.8007,84.2968-88.8339,75.0215-105.999C2431.9863,575.7686,2293.1641,566.9063,2331.9414,627.2725Z" style="fill:#7c0000"/><path d="M2852.0879,1133.3652s-28.2725,7.2608-46.2441,1.8467-48.9043,3.4776-53.8858,10.0313-3.1514,9.1572,5.7373,11.4189,40.38,15.6934,61.0762,7.92,47.6914-8.0566,47.6914-8.0566Z" style="fill:#e49963"/><path d="M3096.43,887.7729s-31.76,225.7291-84.35,245.9478c-25.9492,9.9756-140.6309,32.59-174.5557,34.8613,0,0-8.31-6.7412-6.2851-34.1826,0,0,120.1523-44.1113,137.2216-68.1006,25.4043-35.7031-15.7705-145.8554,16.1065-179.3872S3070.1328,838.9688,3096.43,887.7729Z" style="fill:#5da500"/><path d="M3092.373,1757.9512v-49.6407h77.4844a3.8131,3.8131,0,0,0,3.8018-3.8017v-7.8848a3.8131,3.8131,0,0,0-3.8018-3.8017H3092.373V1412.66a14.3353,14.3353,0,0,0-14.2929-14.293h-15.334a14.3354,14.3354,0,0,0-14.293,14.293v280.1621h-77.4843a3.8131,3.8131,0,0,0-3.8018,3.8017v7.8848a3.8131,3.8131,0,0,0,3.8018,3.8017h77.4843v49.6407c-56.0664,4.2363-100.9785,24.4316-113.5791,50.51h271.0781C3193.3516,1782.3828,3148.44,1762.1875,3092.373,1757.9512Z" style="fill:#7c0000"/><path d="M3085.7266,1363.3408a395.7835,395.7835,0,0,1-31.0245,44.3887c-34.1357,43.0928-71.2929,78.623-77.7666,112.209a151.9293,151.9293,0,0,1-6,21.497c-2.7031,7.6924-6.0449,15.7813-9.9023,24.1446-14.4844,31.4648-36.1465,66.7207-57.7744,98.7676-37.3877,55.4013-72.5459,101.6289-72.5459,101.6289l-64.4746-2.7471c2.582-6.4619,30.7021-82.957,68.3213-176.4385,15.2763-37.9492,31.5195-78.3154,47.1914-117.2422q3.1332-7.7973,6.2431-15.5068c4.7911-11.9131,9.5059-23.64,14.11-35.0586,35.3223-87.7773,63.457-157.6738,63.457-157.6738s141.1778-53.4805,155.8389-18.8262C3133.4893,1271.0576,3123.6426,1299.0488,3085.7266,1363.3408Z" style="fill:#7c0000"/><path d="M2828.6982,1754.2539s-3.1552,53.459-13.4482,54.2217c-1.3691.1015-117.75,0-117.75,0s.9277-16.167,19.8975-19.4717c18.97-3.3066,50.7207-16.6387,62.2119-41.71C2791.6982,1720.918,2828.6982,1754.2539,2828.6982,1754.2539Z" style="fill:#7c0000"/><path d="M2977.9951,1602.2607s44.8457,28.8164,40.4942,38.1758c-.5791,1.2451-25.3623,45.6328-25.3623,45.6328l-31.9649,56.4795s-13.4463-7.9931-7.085-26.1679,10.1993-52.3965-6.09-74.6524C2930.8516,1618.3145,2977.9951,1602.2607,2977.9951,1602.2607Z" style="fill:#7c0000"/><path d="M2918.4375,1235.3125s-178.3242,110.9941-198.1055,185.1738,235.7246,232.4278,235.7246,232.4278,28.0235-24.7266,32.9688-42.8594c0,0-115.4932-138.3672-140.5449-169.3838-15.3858-19.05,227.4961-65.9424,257.1679-112.0986s19.0489-84.99,19.0489-84.99Z" style="fill:#4f0000"/><path d="M2889.0772,1377.666h362.6719a13.1884,13.1884,0,0,1,13.1884,13.1884v72.5343a13.1884,13.1884,0,0,1-13.1884,13.1884H2889.0772a13.1885,13.1885,0,0,1-13.1885-13.1885v-72.5341A13.1885,13.1885,0,0,1,2889.0772,1377.666Z" style="fill:#42b500"/><path d="M3085.09,845.18s-70.37,39.34-112.83,28.36a100.1892,100.1892,0,0,1,27-24.46c-.93-4.13-1.74-8.02-2.4395-11.64-4.0605-20.73-4.79-32.79-4.79-32.79l32.42-29.05c8.97,1.9,17.35,3.68,21.8,4.62.42,2.14.88,4.22,1.4,6.26C3057.77,826.82,3085.09,845.18,3085.09,845.18Z" style="fill:#e49963"/><path d="M3130.05,1049.52c-6.08,81.791,1.92,206.17-4.9795,227.711-5.9609,18.59-73.79,7.539-100.87,1.34-10.0205-2.3008-22.16-5.58-34.69-9.46-34.97-10.83-73.08-26.29-77.17-37.7706a10.0621,10.0621,0,0,1-.37-1.32V1230c-.0693-.29-.12-.58-.1592-.86a10.7949,10.7949,0,0,1,.2295-3.93c1.36-5.85,6.61-12.18,7.2295-26.67.6905-16.17.59-35.22,1.2-55.7.03-2.31.0606-4.83.3106-7.12l.01-.84c.01-.44.0205-.87.03-1.31.59-22.84,1.7891-46.86,3.17-70.67.88-14.9609,1.8994-29.78,3.07-43.9707,3.0489-36.64,7.1592-69.22,12.6-89.81,8.89-33.58,28.49-55.48,46.34-71.53l12.9-11.07c14.3994,3.15,31.43,1.06,46.83-6.24,16.6591-7.91,22.42-13.58,25.3193-11.4405C3109.54,858.54,3137.2305,949.54,3130.05,1049.52Z" style="fill:#42b500"/><path d="M2989.51,1269.11c-34.97-10.83-73.08-26.29-77.17-37.7706a10.0621,10.0621,0,0,1-.37-1.32V1230a2.668,2.668,0,0,0-.1592-.86,10.7949,10.7949,0,0,1,.2295-3.93c1.36-5.85,6.61-12.18,7.2295-26.67.6905-16.17.59-35.22,1.2-55.7.03-2.31.0606-4.83.3106-7.12l.01-.84c.01-.44.0205-.87.03-1.31l132.1-59.91S3060.53,1180.12,2989.51,1269.11Z" style="fill:#5da500"/><path d="M3047.65,786.48c-4.8008,12.13-19.17,40.73-50.83,50.96-4.0605-20.73-4.79-32.79-4.79-32.79l32.42-29.05c8.97,1.9,17.35,3.68,21.8,4.62C3046.67,782.36,3047.13,784.44,3047.65,786.48Z" style="fill:#d68d5d"/><path d="M2979.2061,804.3354s69.5683,7.8467,73.788-35.5522,16.0411-71.6143-28.1982-78.4595-54.4922,8.8755-59.4238,23.0181S2961.2188,801.1758,2979.2061,804.3354Z" style="fill:#e49963"/><path d="M3052.6953,771.7783s-4.4121-57.6074-67.7383-63.5742c-43.375-4.0869-19.1914-41.4194-14.5683-47.3735,0,0,33.2324,4.5561,67.2968,10.1845C3109.1816,682.8281,3059.7168,762.81,3052.6953,771.7783Z" style="fill:#7c0000"/><polygon points="2885.535 1177.633 2713.149 1181.315 2664.139 1030.478 2658.049 1032.457 2709.86 1191.912 2885.76 1188.155 2885.535 1177.633" style="fill:#5da500"/><path d="M2866.6377,1168.0684s-27.3,10.3339-45.76,6.9345-48.2216,8.8487-52.45,15.91c-4.2285,7.0635-2.124,9.4492,6.961,10.7168s41.8633,11.1465,61.5771,1.1387,46.5127-13.2657,46.5127-13.2657Z" style="fill:#e49963"/><path d="M3082.4141,897.0356s-6.6807,227.855-56.7207,253.7476c-24.6914,12.7764-136.1807,47.8955-169.6475,53.8936,0,0-9.0029-5.7842-10.0166-33.2813,0,0,114.5576-57.0889,128.8779-82.8144,21.3125-38.2852-31.7549-143.2271-3.7685-180.0689S3050.8965,851.4282,3082.4141,897.0356Z" style="fill:#42b500"/><path d="M1194.9019,916.6924l-70.6929,840.5527s-7.4072,50.9531,30.4931,51.043c62.3155.1494,310.1656,0,310.1656,0s-46.9009-10.6065-46.3325-34.4707c.67-28.13,82.625-865.08,82.625-865.08Z" style="fill:#3ba200"/><path d="M1484.9771,1793.0381c-12.2559.0361-248.9834.7793-309.6685,0-26.4478-.3291-31.0845-23.5147-31.3037-38.5215a75.1575,75.1575,0,0,1,.8032-12.5117l1.8374-21.8467,4.686-55.6836,4.1382-49.1953,5.3189-63.2168,4.479-53.3574,50.23-597.271,306.2607-7.9478s-34.5171,350.2588-58.9326,605.2188c-2.7261,28.4072-5.3184,55.6465-7.7163,81.0713q-1.1682,12.1772-2.2515,23.7822c-2.2641,24.123-4.333,46.2744-6.1343,65.834-.9492,10.3086-1.8257,19.8867-2.6167,28.6621-3.1157,34.3838-4.9414,56.34-4.9658,60.5146a35.2838,35.2838,0,0,0,.5962,6.8037C1444.7642,1792.1621,1480.377,1793.0381,1484.9771,1793.0381Z" style="fill:#6fdf00"/><polygon points="451.134 459.294 623.329 1150.966 646.906 1245.692 727.105 1567.854 2217.094 1567.854 1921.489 459.294 451.134 459.294" style="fill:#6fc600"/><polygon points="451.132 459.293 427.268 467.248 695.379 1591.917 727.108 1567.857 451.132 459.293" style="fill:#6fdf00"/><polygon points="695.379 1591.917 2176.196 1591.917 2217.089 1567.857 727.108 1567.857 695.379 1591.917" style="fill:#3ba200"/><rect x="1215.3984" y="1793.374" width="320.6192" height="15.2354" style="fill:#6fc600"/><polygon points="2144.91 1363.584 1903.142 473.95 448.751 473.95 448.751 459.293 1921.488 459.293 2162.449 1361.606 2144.91 1363.584" style="fill:#6fc600"/><polygon points="1454.513 1591.911 1452.858 1603.559 1151.331 1664.475 1155.47 1615.279 1157.441 1591.911 1454.513 1591.911" style="fill:#3ba200"/><path d="M1484.9771,1793.0381c-12.2559.0361-248.9834.7793-309.6685,0-26.4478-.3291-31.0845-23.5147-31.3037-38.5215l300.102-56.4619c-3.1157,34.3838-4.9414,56.34-4.9658,60.5146a35.2838,35.2838,0,0,0,.5962,6.8037C1444.7642,1792.1621,1480.377,1793.0381,1484.9771,1793.0381Z" style="fill:#3ba200"/><polygon points="1381.635 1343.44 727.108 1567.857 646.906 1245.692 1381.635 1343.44" style="fill:#3ba200"/><polygon points="451.132 459.293 1921.488 459.293 2160.056 1350.227 665.356 1350.227 451.132 459.293" style="fill:#008f08"/><ellipse cx="1472.0378" cy="1462.8525" rx="35.9037" ry="43.5938" transform="translate(-600.4957 1569.7994) rotate(-47.7746)" style="fill:#3ba200"/><polygon points="2090.709 1311.619 714.009 1311.619 558.101 690.532 546.15 642.902 535.949 602.276 512.039 507.017 1868.897 507.017 1895.154 602.276 1906.354 642.902 1919.483 690.532 2090.709 1311.619" style="fill:#e9f3fe"/><polygon points="1895.154 602.276 535.949 602.276 512.039 507.017 1868.897 507.017 1895.154 602.276" style="fill:#afcdfb"/><path d="M577.11,538.1592c-6.5772,0-10.5792,5.331-8.94,11.9082s8.3,11.9082,14.8774,11.9082,10.5787-5.332,8.939-11.9082S583.687,538.1592,577.11,538.1592Z" style="fill:#e9f3fe"/><path d="M616.6772,538.1592c-6.5771,0-10.5791,5.331-8.9394,11.9082s8.3008,11.9082,14.8774,11.9082,10.5791-5.332,8.939-11.9082S623.2539,538.1592,616.6772,538.1592Z" style="fill:#e9f3fe"/><path d="M674.16,550.0674c-1.64-6.5772-8.3-11.9082-14.877-11.9082s-10.5791,5.331-8.9394,11.9082,8.3007,11.9082,14.8774,11.9082S675.8,556.6436,674.16,550.0674Z" style="fill:#e9f3fe"/><path d="M1659.3408,880.5313c-9.9394-39.8638-50.4878-72.2959-90.3887-72.2959-19.24,0-35.6367,7.4238-46.1679,20.9033-10.97,14.041-14.2637,32.7944-9.2744,52.8056,9.9394,39.8638,50.4878,72.2959,90.3891,72.2959,19.24,0,35.6363-7.4238,46.1675-20.9033C1661.0366,919.2959,1664.33,900.5425,1659.3408,880.5313Zm-13.8769,49.21c-9.4,12.0322-24.1617,18.6582-41.565,18.6582-37.3852,0-75.3916-30.4453-84.7221-67.8681-4.545-18.2286-1.6294-35.2032,8.21-47.7969,9.4-12.0323,24.1621-18.6582,41.5654-18.6582,37.3853,0,75.3912,30.4453,84.7217,67.8681C1658.2188,900.1729,1655.3032,917.1475,1645.4639,929.7412Z" style="fill:#6fc600"/><polygon points="1595.598 897.56 1588.332 846.744 1587.759 844.445 1567.294 844.445 1567.867 846.744 1585.94 897.56 1595.598 897.56" style="fill:#6fc600"/><polygon points="1583.693 906.528 1588.279 924.923 1606.904 924.923 1602.318 906.528 1583.693 906.528" style="fill:#6fc600"/><path d="M1703.7832,1053.1738c-9.9394-39.8642-50.4878-72.2964-90.3892-72.2964-19.24,0-35.6362,7.4239-46.1674,20.9029-10.97,14.042-14.2637,32.7949-9.2745,52.8056,9.9395,39.8643,50.4878,72.2959,90.3887,72.2959,19.24,0,35.6367-7.4228,46.168-20.9023C1705.479,1091.9375,1708.7725,1073.1846,1703.7832,1053.1738Zm-13.8769,49.21c-9.4,12.0312-24.1622,18.6582-41.5655,18.6582-37.3852,0-75.3911-30.4463-84.7217-67.8682-4.5449-18.2295-1.6294-35.2041,8.21-47.7978,9.4-12.0318,24.1616-18.6577,41.5649-18.6577,37.3853,0,75.3916,30.4458,84.7222,67.8676C1702.6611,1072.8154,1699.7456,1089.79,1689.9063,1102.3838Z" style="fill:#6fc600"/><polygon points="1640.04 1070.203 1632.774 1019.386 1632.201 1017.087 1611.736 1017.087 1612.31 1019.386 1630.383 1070.203 1640.04 1070.203" style="fill:#6fc600"/><polygon points="1628.135 1079.17 1632.721 1097.565 1651.346 1097.565 1646.76 1079.17 1628.135 1079.17" style="fill:#6fc600"/><path d="M1856.1318,858.3345c4.5245,0,7.3037-3.7017,6.1758-8.2261a11.2747,11.2747,0,0,0-10.2783-8.2266H1705.52c-4.5244,0-7.3032,3.7017-6.1753,8.2266a11.2755,11.2755,0,0,0,10.2779,8.2261Z" style="fill:#afcdfb"/><path d="M1837.9961,741.4658a11.275,11.275,0,0,0-10.2773-8.2265H1681.208c-4.5244,0-7.3032,3.7021-6.1753,8.2265a11.2756,11.2756,0,0,0,10.2778,8.2266h146.51C1836.3447,749.6924,1839.124,745.9907,1837.9961,741.4658Z" style="fill:#afcdfb"/><path d="M1863.9453,889.6738c4.5254,0,7.3037-3.7021,6.1758-8.2265a11.2751,11.2751,0,0,0-10.2773-8.2266h-146.51c-4.5244,0-7.3037,3.7022-6.1753,8.2266a11.275,11.275,0,0,0,10.2773,8.2265Z" style="fill:#afcdfb"/><path d="M1877.9346,912.7861a11.2752,11.2752,0,0,0-10.2774-8.2265h-146.51c-4.5244,0-7.3032,3.7021-6.1753,8.2265a11.2752,11.2752,0,0,0,10.2778,8.2266h146.51C1876.2842,921.0127,1879.0635,917.3105,1877.9346,912.7861Z" style="fill:#afcdfb"/><path d="M1900.5742,1030.9766c4.5244,0,7.3037-3.7022,6.1758-8.2266a11.2771,11.2771,0,0,0-10.2773-8.2266H1749.9619c-4.5244,0-7.3032,3.7022-6.1753,8.2266a11.2754,11.2754,0,0,0,10.2779,8.2266Z" style="fill:#afcdfb"/><path d="M1908.3877,1062.3154c4.5244,0,7.3037-3.7021,6.1758-8.2265a11.2753,11.2753,0,0,0-10.2774-8.2266h-146.51c-4.5249,0-7.3037,3.7022-6.1758,8.2266a11.2761,11.2761,0,0,0,10.2778,8.2265Z" style="fill:#afcdfb"/><path d="M1922.377,1085.4277a11.2752,11.2752,0,0,0-10.2774-8.2265h-146.51c-4.5245,0-7.3033,3.7021-6.1753,8.2265a11.2739,11.2739,0,0,0,10.2773,8.2266h146.51C1920.7266,1093.6543,1923.5049,1089.9531,1922.377,1085.4277Z" style="fill:#afcdfb"/><path d="M1831.8281,706.8818l-10.2265-41.0146c-1.875-7.5215-9.5635-13.6753-17.085-13.6753H630.2144c-7.521,0-12.1407,6.1538-10.2657,13.6753l10.2261,41.0146c1.8755,7.521,9.5635,13.6748,17.085,13.6748H1821.5625C1829.084,720.5566,1833.7031,714.4028,1831.8281,706.8818Z" style="fill:#afcdfb"/><path d="M1462.6592,652.1924l17.0454,68.3642H647.26c-7.5215,0-15.21-6.1538-17.085-13.6753l-10.2261-41.0141c-1.875-7.5215,2.7447-13.6748,10.2657-13.6748Z" style="fill:#6fc600"/><polygon points="1612.197 673.803 1613.507 679.055 1626.499 679.055 1619.721 701.446 1626.592 701.446 1633.242 678.384 1632.1 673.803 1612.197 673.803" style="fill:#699dee"/><path d="M1647.6553,673.3291c-7.3457,0-10.7559,6.2788-8.7569,14.2954,2.0181,8.0957,8.4214,14.2954,15.8067,14.2954s10.7549-6.2788,8.7563-14.2954C1661.4429,679.5288,1654.9609,673.3291,1647.6553,673.3291Zm5.76,23.1016c-3.6728,0-7.0171-3.7515-8.2773-8.8062-1.28-5.1338.1743-8.8061,3.8071-8.8061s7.0269,3.791,8.2774,8.8061C1658.4922,692.7188,1657.0879,696.4307,1653.415,696.4307Z" style="fill:#699dee"/><path d="M1699.6934,694.6934c-.9844-3.9493-4.4478-7.0689-8.4366-7.0689-4.0278,0-5.9653,3.1587-4.99,7.0689.9844,3.9487,4.4478,7.0688,8.4365,7.0688C1698.731,701.7622,1700.6582,698.5635,1699.6934,694.6934Zm-5.8077,3.4755c-1.58,0-3.01-1.62-3.4726-3.4755-.4727-1.8955.0019-3.4756,1.6611-3.4756,1.58,0,3.01,1.62,3.4727,3.4756S1695.5449,698.1689,1693.8857,698.1689Z" style="fill:#699dee"/><polygon points="1687.02 673.803 1673.733 701.446 1678.433 701.446 1691.721 673.803 1687.02 673.803" style="fill:#699dee"/><path d="M1679.1875,680.5557c-.9844-3.9488-4.4478-7.0689-8.4365-7.0689-4.0283,0-5.9649,3.16-4.99,7.0689.9844,3.9487,4.4468,7.0688,8.4361,7.0688C1678.2251,687.6245,1680.1523,684.4258,1679.1875,680.5557Zm-9.28,0c-.4726-1.8955.0025-3.4751,1.6607-3.4751,1.58,0,3.01,1.6191,3.4731,3.4751s-.0024,3.4756-1.6611,3.4756C1671.8008,684.0313,1670.37,682.4116,1669.9072,680.5557Z" style="fill:#699dee"/><path d="M1407.6445,1016.8633c8.5313,0,13.7227-6.9151,11.5957-15.4463h0c-2.1269-8.5313-10.7671-15.4473-19.2983-15.4473H715.2065c-8.5312,0-13.7226,6.916-11.5957,15.4473h0c2.127,8.5312,10.7671,15.4463,19.2984,15.4463Z" style="fill:#afcdfb"/><path d="M1420.4307,1068.1465c8.5312,0,13.7226-6.916,11.5957-15.4473s-10.7671-15.4472-19.2984-15.4472H727.9927c-8.5313,0-13.7227,6.916-11.5957,15.4472s10.7671,15.4473,19.2983,15.4473Z" style="fill:#afcdfb"/><path d="M1445.3809,1106.26c-2.127-8.53-10.7676-15.4463-19.2984-15.4463H741.3467c-8.5308,0-13.7227,6.916-11.5957,15.4463s10.7676,15.4472,19.2983,15.4472h684.7359C1442.3164,1121.707,1447.5078,1114.791,1445.3809,1106.26Z" style="fill:#afcdfb"/><path d="M1032.9409,933.5068c2.6734,10.7227,13.5327,19.4151,24.2554,19.4151h76.373c10.7227,0,17.2476-8.6924,14.5743-19.4151l-36.917-148.0644c-2.6734-10.7227-13.5328-19.4151-24.2554-19.4151h-76.3731c-10.7226,0-17.2475,8.6924-14.5742,19.4151Z" style="fill:#afcdfb"/><path d="M1165.1274,933.5068c2.6734,10.7227,13.5328,19.4151,24.2554,19.4151h76.3731c10.7226,0,17.2475-8.6924,14.5742-19.4151l-36.9165-148.0644c-2.6734-10.7227-13.5332-19.4151-24.2559-19.4151h-76.373c-10.7222,0-17.2476,8.6924-14.5743,19.4151Z" style="fill:#afcdfb"/><path d="M1294.8452,933.5068c2.6734,10.7227,13.5332,19.4151,24.2559,19.4151h76.3725c10.7227,0,17.2476-8.6924,14.5743-19.4151l-36.9166-148.0644c-2.6733-10.7227-13.5332-19.4151-24.2558-19.4151h-76.3726c-10.7226,0-17.248,8.6924-14.5742,19.4151Z" style="fill:#afcdfb"/><path d="M1007.0532,920.38,976.6821,798.5693c-4.4809-17.9726-22.6831-32.542-40.6552-32.542H677.4634c-17.9722,0-28.9092,14.5694-24.4282,32.542L683.4062,920.38c4.481,17.9721,22.6832,32.5415,40.6553,32.5415H982.625C1000.5972,952.9219,1011.5342,938.3525,1007.0532,920.38Z" style="fill:#afcdfb"/><path d="M932.7646,812.7505c4.0743,0,6.5767-3.3335,5.5606-7.4072v0a10.1525,10.1525,0,0,0-9.2539-7.4073H687.4756c-4.0742,0-6.5762,3.3335-5.5606,7.4073v0a10.1527,10.1527,0,0,0,9.2544,7.4072Z" style="fill:#699dee"/><path d="M939.8682,841.24c4.0742,0,6.5761-3.333,5.5605-7.4072h0a10.152,10.152,0,0,0-9.2544-7.4072H694.5791c-4.0742,0-6.5767,3.333-5.5605,7.4072h0a10.1518,10.1518,0,0,0,9.2539,7.4072Z" style="fill:#699dee"/><path d="M952.5322,862.3232a10.1519,10.1519,0,0,0-9.2544-7.4072H701.6821c-4.0737,0-6.5761,3.333-5.5605,7.4072a10.1525,10.1525,0,0,0,9.2544,7.4073H946.9717C951.0459,869.7305,953.5479,866.3975,952.5322,862.3232Z" style="fill:#699dee"/><path d="M766.6362,886.8247h-56.998c-4.0742,0-6.5762,3.3335-5.5606,7.4072a10.1525,10.1525,0,0,0,9.2544,7.4077H770.33c4.0742,0,6.5762-3.3334,5.56-7.4077A10.1525,10.1525,0,0,0,766.6362,886.8247Z" style="fill:#699dee"/><path d="M2014.4424,1245.6123l-15.9307-63.8935c-2.35-9.4278-11.8974-17.0694-21.3242-17.0694h-135.625c-9.4277,0-15.1641,7.6416-12.8135,17.0694l15.9307,63.8935c2.3506,9.4268,11.8974,17.0693,21.3252,17.0693h135.624C2011.0566,1262.6816,2016.793,1255.0391,2014.4424,1245.6123Z" style="fill:#afcdfb"/><path d="M1975.4766,1189.1572a2.942,2.942,0,0,0,2.916-3.8857,5.325,5.325,0,0,0-4.8535-3.8848H1846.8145a2.9417,2.9417,0,0,0-2.917,3.8848,5.3238,5.3238,0,0,0,4.8545,3.8857Z" style="fill:#699dee"/><path d="M1979.2021,1204.1016a2.9432,2.9432,0,0,0,2.917-3.8858,5.3269,5.3269,0,0,0-4.8545-3.8857H1850.54a2.9432,2.9432,0,0,0-2.917,3.8857,5.3272,5.3272,0,0,0,4.8545,3.8858Z" style="fill:#699dee"/><path d="M1985.8447,1215.16a5.3258,5.3258,0,0,0-4.8545-3.8858H1854.2656a2.942,2.942,0,0,0-2.916,3.8858,5.3239,5.3239,0,0,0,4.8535,3.8847h126.7246A2.9424,2.9424,0,0,0,1985.8447,1215.16Z" style="fill:#699dee"/><path d="M1888.3359,1228.0117H1858.44a2.9422,2.9422,0,0,0-2.917,3.8858h0a5.324,5.324,0,0,0,4.8545,3.8847h29.8964a2.9424,2.9424,0,0,0,2.917-3.8847A5.3258,5.3258,0,0,0,1888.3359,1228.0117Z" style="fill:#699dee"/><path d="M1073.9883,1198.8584c3.2182,0,5.1763-2.6084,4.374-5.8262h0a7.96,7.96,0,0,0-7.2793-5.8271H812.8052c-3.2178,0-5.1763,2.6094-4.3736,5.8271h0a7.9585,7.9585,0,0,0,7.2788,5.8262Z" style="fill:#6fc600"/><path d="M1078.8115,1218.2012c3.2178,0,5.1758-2.6084,4.3736-5.8262h0a7.959,7.959,0,0,0-7.2793-5.8262H817.6279c-3.2177,0-5.1758,2.6084-4.3735,5.8262h0a7.9583,7.9583,0,0,0,7.2788,5.8262Z" style="fill:#6fc600"/><path d="M1080.9429,1226.752H822.665c-3.2177,0-5.1757,2.6084-4.3735,5.8261a7.9585,7.9585,0,0,0,7.2793,5.8262h258.2778c3.2178,0,5.1758-2.6084,4.3736-5.8262A7.9586,7.9586,0,0,0,1080.9429,1226.752Z" style="fill:#6fc600"/><path d="M1407.3052,1198.8584c3.2177,0,5.1762-2.6084,4.374-5.8262h0a7.96,7.96,0,0,0-7.2793-5.8271H1146.1221c-3.2178,0-5.1763,2.6094-4.3741,5.8271h0a7.959,7.959,0,0,0,7.2793,5.8262Z" style="fill:#6fc600"/><path d="M1412.1279,1218.2012c3.2178,0,5.1763-2.6084,4.3741-5.8262h0a7.959,7.959,0,0,0-7.2793-5.8262H1150.9448c-3.2177,0-5.1762,2.6084-4.374,5.8262h0a7.9593,7.9593,0,0,0,7.2793,5.8262Z" style="fill:#6fc600"/><path d="M1414.26,1226.752H1155.9819c-3.2177,0-5.1762,2.6084-4.3735,5.8261a7.9583,7.9583,0,0,0,7.2788,5.8262H1417.165c3.2178,0,5.1763-2.6084,4.3741-5.8262A7.9591,7.9591,0,0,0,1414.26,1226.752Z" style="fill:#6fc600"/><path d="M1730.3662,1198.8584c3.2178,0,5.1758-2.6084,4.3735-5.8262h0a7.9593,7.9593,0,0,0-7.2788-5.8271H1469.1826c-3.2178,0-5.1758,2.6094-4.3735,5.8271h0a7.9588,7.9588,0,0,0,7.2793,5.8262Z" style="fill:#6fc600"/><path d="M1735.189,1218.2012c3.2177,0,5.1762-2.6084,4.3735-5.8262h0a7.9583,7.9583,0,0,0-7.2788-5.8262H1474.0059c-3.2183,0-5.1763,2.6084-4.3741,5.8262h0a7.959,7.959,0,0,0,7.2793,5.8262Z" style="fill:#6fc600"/><path d="M1744.6,1232.5781a7.9583,7.9583,0,0,0-7.2788-5.8261H1479.043c-3.2178,0-5.1763,2.6084-4.3741,5.8261a7.959,7.959,0,0,0,7.2793,5.8262h258.2779C1743.4438,1238.4043,1745.4023,1235.7959,1744.6,1232.5781Z" style="fill:#6fc600"/><path d="M1794.5674,1271.5107H798.5552c-8.7989,0-17.7339-7.1269-19.918-15.8886l-19.89-79.7725a14.2212,14.2212,0,0,1,2.2534-12.3086,13.38,13.38,0,0,1,10.8457-4.9922h996.0117c8.7983,0,17.7339,7.127,19.9185,15.8887l19.8891,79.7725a14.2231,14.2231,0,0,1-2.2529,12.3086A13.38,13.38,0,0,1,1794.5674,1271.5107ZM771.8467,1164.3887a7.6726,7.6726,0,0,0-6.2432,2.748,8.3409,8.3409,0,0,0-1.1889,7.3008l19.89,79.7725c1.5488,6.2119,8.0747,11.4609,14.251,11.4609h996.0122a7.6733,7.6733,0,0,0,6.2431-2.748,8.3394,8.3394,0,0,0,1.1885-7.3008L1782.11,1175.85c-1.5494-6.2119-8.0757-11.4609-14.2515-11.4609Z" style="fill:#6fc600"/><path d="M806.3359,340.0654a2.0512,2.0512,0,0,0-2.3134-1.7461l-22.334,3.1231a23.2846,23.2846,0,0,0-11.4156-17.5864l-1.3515-.7852a23.2989,23.2989,0,0,0-21.8052-.7993L738.2915,300.14a2.05,2.05,0,1,0-3.8076,1.5186l9.0664,22.7373a22.9953,22.9953,0,0,0-3.9473,3.59,22.5813,22.5813,0,0,0-2.52,3.5273l-2.4546,4.2256c-11.5869-6.7305-20.2256-11.7481-20.53-11.9248a2.05,2.05,0,1,0-2.0585,3.5449c.3041.1768,8.9433,5.1943,20.53,11.9243l-1.393,2.3985a23.0671,23.0671,0,0,0-2.7007,7.2026l-28.0694,3.9253a2.05,2.05,0,0,0,.2813,4.08,2.123,2.123,0,0,0,.2861-.02l27.0772-3.7867A23.3418,23.3418,0,0,0,739.6182,373.52l1.3515.7857a23.3262,23.3262,0,0,0,22.6387.395l9.6265,24.1416a2.05,2.05,0,0,0,3.8076-1.5186l-9.9307-24.9047a23.0664,23.0664,0,0,0,5.6968-6.5552l1.3931-2.3985c11.7924,6.8492,20.5317,11.9253,20.5317,11.9253a2.0492,2.0492,0,1,0,2.0586-3.5439s-8.7393-5.0762-20.5313-11.9258l2.4541-4.2251a22.8934,22.8934,0,0,0,3.0762-10.1284l22.7988-3.188A2.05,2.05,0,0,0,806.3359,340.0654Z" style="fill:#afcdfb"/><path d="M778.7148,355.6953l-5.9062,10.168a23.3573,23.3573,0,0,1-31.8389,8.4419l-1.3515-.7852a23.36,23.36,0,0,1-8.4419-31.8388l5.9062-10.1685a22.5813,22.5813,0,0,1,2.52-3.5273l40.9322,23.7753A23.1024,23.1024,0,0,1,778.7148,355.6953Z" style="fill:#e57970"/><path d="M338.1382,607.6392l-25.7935-7.3164a23.0809,23.0809,0,0,0-1.7217-8.5123l-1.0512-2.5668,21.9717-9a2.0495,2.0495,0,1,0-1.5538-3.793l-21.9716,9-1.8521-4.522a22.8929,22.8929,0,0,0-6.1514-8.6138l11.376-20.0136a2.0494,2.0494,0,1,0-3.5635-2.0254l-11.144,19.605a23.285,23.285,0,0,0-20.8989-1.6768l-1.4468.5928a23.2967,23.2967,0,0,0-13.93,16.7939l-22.9223-6.5019a2.0494,2.0494,0,1,0-1.1182,3.9433l23.5493,6.68a22.976,22.976,0,0,0,.438,5.3179,22.6437,22.6437,0,0,0,1.2583,4.1489l1.8525,4.5215-21.97,9a2.0494,2.0494,0,1,0,1.5537,3.793l21.97-9L266.07,610.06a23.0675,23.0675,0,0,0,4.0615,6.5327l-14.0058,24.64a2.0494,2.0494,0,1,0,3.5635,2.0254L273.2,619.4893a23.3428,23.3428,0,0,0,23.252,3.2959l1.4467-.5928A23.3261,23.3261,0,0,0,312.0166,604.49l25.0034,7.0923a2.0494,2.0494,0,1,0,1.1182-3.9433Z" style="fill:#afcdfb"/><path d="M306.166,580.9287l4.457,10.8818a23.3568,23.3568,0,0,1-12.7246,30.3819l-1.4467.5928A23.3612,23.3612,0,0,1,266.07,610.06l-4.4575-10.8814a22.6049,22.6049,0,0,1-1.2583-4.1489l43.8037-17.9429A23.124,23.124,0,0,1,306.166,580.9287Z" style="fill:#e57970"/><path d="M596.8843,1343.877c-.1636.1132-.3472.2636-.5733.4316-8.5923,6.5781-66.997,46.416-198.2075,28.7725q-1.3425,7.5643-2.5141,14.9755c-.3931,2.4727-.7842,4.9327-1.1451,7.3721q-.5537,3.6166-1.0625,7.2031l-.0229.127c-.3413,2.4033-.6782,4.7812-.99,7.1641q-.4864,3.5712-.9307,7.123c-.3047,2.3447-.58,4.6689-.855,6.9932l-.0205.1142c-.26,2.3135-.5308,4.6123-.7734,6.9033-.2583,2.3008-.4888,4.5938-.7188,6.8868-.2285,2.2812-.4541,4.5488-.6523,6.8086-.2085,2.2441-.4048,4.4912-.586,6.7285-.1372,1.6318-.2724,3.2509-.3945,4.872-.11,1.336-.208,2.6748-.291,4.0039-.0864,1.1319-.16,2.2666-.2339,3.4-.0415.5928-.083,1.1856-.1123,1.78-.12,1.8955-.2368,3.7783-.3418,5.6641-.1148,2.0136-.2168,4.0293-.3169,6.0332-.0176.3877-.0332.7636-.0508,1.1513-.062,1.502-.1338,2.9893-.1914,4.4659-.0425,1.1787-.0957,2.3427-.1235,3.5117-.1294,3.7588-.2217,7.459-.2847,11.1387-.03,1.69-.0586,3.3681-.0718,5.0351-.0175,1.9785-.03,3.9326-.0283,5.877-.0019.1562-.0015.2988-.0034.455.0088,1.9063.0073,3.7969.0332,5.68q.0073,2.35.06,4.667c.0078,1.3321.0434,2.6553.0815,3.9668.0088.458.0151.9287.0239,1.3867.0391,1.376.08,2.74.1216,4.1045.0484,1.4688.1011,2.9131.1543,4.3575q.1054,2.3466.2178,4.6562c.0776,1.8135.1724,3.6045.28,5.3975.01.1582.0185.3291.0293.4882.1,1.7657.2158,3.5079.3325,5.251.126,1.835.2539,3.6582.3994,5.458.1431,1.8125.2886,3.6123.4512,5.39.1474,1.7871.31,3.5644.49,5.3174.166,1.6865.3364,3.3476.5195,5.0107.0162.1992.0455.3994.0616.5977.1777,1.623.3593,3.2216.5537,4.8212.2036,1.6934.41,3.3741.6284,5.0567.0059.04.0117.08.0151.1328.2232,1.6572.4336,3.3125.6719,4.96.2251,1.6445.4634,3.292.7168,4.9287.0054.04.0112.08.0147.1328.2475,1.5967.497,3.1806.7465,4.7646a.1809.1809,0,0,1,.0113.08c.2578,1.6113.5327,3.2.8071,4.7891.2725,1.6006.56,3.1914.85,4.77.3545,1.9414.7139,3.8584,1.0879,5.7647.2417,1.1914.4712,2.38.7153,3.56.3057,1.4893.6157,2.9531.9282,4.4053q.066.2856.1319.5713c.2881,1.3691.6015,2.7431.9067,4.09.3306,1.4942.6787,2.9649,1.04,4.4385q1.08,4.5381,2.2387,8.9326c.3457,1.3408.7085,2.6582,1.0708,3.9756.3765,1.3848.7579,2.7451,1.1519,4.1065.2759,1.0019.5669,1.9941.8579,2.9853.2783.9893.5737,1.9551.8794,2.9365.2266.7705.4678,1.5313.7065,2.3047q.6168,2.01,1.24,3.98,1.2846,3.9477,2.6147,7.7881c.4351,1.2773.8848,2.5459,1.337,3.8008s.9042,2.5107,1.3608,3.74q1.8838,5.0742,3.8594,9.93c.3862.9687.7871,1.9277,1.1884,2.8877.5728,1.3809,1.148,2.75,1.7383,4.1084.461,1.0605.9219,2.1221,1.3975,3.1728q3.8013,8.549,7.8232,16.3819c.5308,1.0342,1.0537,2.041,1.5894,3.0508q1.8969,3.5887,3.8315,7.041c.4409.8105.9092,1.6123,1.3653,2.4111.4272.7432.8545,1.4844,1.2837,2.2139.4975.8594.9975,1.706,1.4863,2.5371,1.1553,1.916,2.3042,3.793,3.4721,5.6338.3926.6445.8,1.2783,1.1973,1.8974q1.8926,2.9619,3.81,5.7862.6766,1.0224,1.36,2.0058,4.4949,6.5406,8.9834,12.3252c.55.7119,1.1128,1.4268,1.6651,2.126q4.3351,5.4756,8.5771,10.3086c.8984,1.0225,1.7988,2.0332,2.6914,3.0156.0772.0791.1543.1572.229.249.5347.58,1.0674,1.1709,1.6045,1.7373,3.1983,3.4581,6.3311,6.6309,9.3555,9.5362.5.4814,1,.9629,1.5029,1.4316.99.9483,1.9741,1.8555,2.9507,2.7354q1.3953,1.2685,2.728,2.4482c.0464.0332.09.0811.1358.1152.8911.7735,1.7592,1.5293,2.6064,2.2559,1.4717,1.2432,2.9019,2.4277,4.28,3.5361.3887.3047.7646.6075,1.1533.9121,2.51,1.9913,4.8555,3.7432,7.0049,5.2784.6484.456,1.2837.91,1.8862,1.331,1.7988,1.2373,3.4307,2.3135,4.86,3.21.4311.2861.8418.543,1.2412.7842.8818.5371,1.6562,1.0156,2.3413,1.4131.1528.0927.3076.1728.45.25.1528.0937.2934.1835.436.2617,1.5835.9111,2.4473,1.3281,2.4473,1.3281q12.5735-4.0943,24.3594-9.0342c49.624-20.7734,88.8745-52.31,119.9365-88.8555.0835-.1025.165-.1923.2358-.2968,66.8579-78.8116,95.6074-180.8028,107.8853-248.3291,1.3471-7.4785,2.5132-14.5332,3.4975-21.086C640.4824,1410.4453,601.0142,1350.7109,596.8843,1343.877Z" style="fill:#008f08"/><path d="M749.9814,1471.623c-11.1933,61.5616-37.4033,154.543-98.3554,226.3936-.065.0957-.1392.1768-.2154.2705-28.3183,33.3184-64.1015,62.0684-109.3418,81.0068q-10.7452,4.5045-22.208,8.2354s-.7876-.3789-2.2309-1.21c-.13-.0713-.2583-.1533-.3975-.2382-.13-.0713-.271-.1436-.4106-.2286-.6245-.3623-1.3306-.7978-2.1343-1.288-.3643-.22-.7383-.4532-1.1313-.7149-1.3033-.8174-2.7916-1.7988-4.4312-2.9258-.5493-.3847-1.1289-.7988-1.72-1.2138-1.9595-1.3995-4.0977-2.9971-6.3863-4.8125-.3544-.2784-.6972-.5537-1.0512-.8311-1.2569-1.0107-2.5606-2.09-3.9024-3.2236-.7724-.6621-1.5634-1.3516-2.3759-2.0567-.042-.0312-.0821-.0742-.1236-.1054q-1.2158-1.0752-2.4878-2.2315c-.89-.8027-1.7871-1.63-2.69-2.4941-.458-.4278-.9141-.8662-1.37-1.3047-2.7574-2.6484-5.6128-5.541-8.5288-8.6943-.49-.5166-.9756-1.0557-1.4629-1.5831-.0684-.0839-.1387-.1562-.2085-.2275-.814-.8955-1.6348-1.8164-2.4541-2.749q-3.8613-4.4047-7.8194-9.3985c-.5034-.6376-1.0166-1.289-1.518-1.9375q-4.095-5.2866-8.19-11.2373-.6232-.8979-1.24-1.8291-1.7469-2.578-3.4732-5.2734c-.3623-.5644-.7334-1.1436-1.0913-1.7305-1.0654-1.6787-2.1128-3.3886-3.1655-5.1367-.4463-.7578-.9014-1.5293-1.355-2.3125-.3916-.665-.7812-1.3418-1.17-2.0185-.416-.7286-.8428-1.459-1.2451-2.1983q-1.7681-3.1537-3.4927-6.4189c-.4887-.9209-.9653-1.8389-1.4492-2.7823q-3.6562-7.1309-7.1318-14.9335c-.4341-.9581-.854-1.9258-1.2744-2.8926-.5381-1.2383-1.0625-2.4864-1.5845-3.7461-.3657-.874-.7315-1.749-1.084-2.6328q-1.8061-4.4268-3.5181-9.0518c-.4165-1.1211-.8286-2.2656-1.2407-3.41s-.8223-2.3-1.2187-3.4659q-1.2071-3.498-2.3838-7.1-.5684-1.7958-1.13-3.6269c-.2183-.7051-.438-1.3994-.6441-2.1026-.2792-.8935-.5483-1.7744-.8022-2.6767-.2651-.9043-.5308-1.8076-.7822-2.7207-.3589-1.2422-.7066-2.4815-1.05-3.7442-.3306-1.2011-.6612-2.4023-.9761-3.625q-1.062-4.0064-2.041-8.1435c-.3291-1.3428-.6465-2.6846-.9478-4.0469-.2783-1.2266-.5644-2.4795-.8271-3.7275q-.06-.2609-.12-.5215c-.2847-1.3233-.5674-2.6582-.8462-4.0156-.2227-1.0752-.4317-2.1592-.6519-3.2452-.3413-1.7382-.6684-3.4853-.9917-5.2558-.2641-1.4385-.5264-2.8887-.7744-4.3487-.2505-1.4482-.501-2.8964-.7358-4.3652a.171.171,0,0,0-.0108-.0732c-.2275-1.4444-.4551-2.8877-.68-4.3438-.0034-.0478-.0087-.0849-.0141-.1211-.2305-1.4922-.4473-2.9941-.6533-4.4931-.2168-1.502-.4087-3.0108-.6123-4.5215-.003-.0489-.0083-.085-.0137-.1211-.1992-1.5352-.3872-3.0664-.5728-4.61-.1777-1.458-.3432-2.915-.5049-4.3955-.0146-.1806-.0415-.3633-.0561-.5449-.167-1.5156-.3223-3.03-.4736-4.5674-.1636-1.6-.312-3.22-.4468-4.8486-.148-1.62-.28-3.2608-.4111-4.9131-.1324-1.6416-.2491-3.3037-.3638-4.9766-.1065-1.5888-.2129-3.1767-.3032-4.7871-.01-.1445-.0176-.3-.0269-.4443-.0981-1.6348-.1846-3.2676-.2554-4.9209q-.1024-2.1049-.1987-4.2451c-.0483-1.3164-.0967-2.6338-.1406-3.9727-.0376-1.2441-.0752-2.4873-.1109-3.7422-.0078-.4179-.0141-.8466-.0219-1.2636-.0347-1.1954-.0669-2.4024-.0743-3.6163q-.0476-2.1137-.0542-4.2548c-.0239-1.7168-.0224-3.44-.0307-5.1778.0019-.1425.0019-.2734.0034-.415-.0015-1.7725.01-3.5537.0259-5.3584.0122-1.52.0376-3.0488.0654-4.59.0571-3.3545.1416-6.7286.2593-10.1553.0254-1.0655.0742-2.127.1128-3.2022.0522-1.3457.1181-2.7011.1743-4.07.0161-.3535.0308-.6963.0464-1.05.0913-1.8271.1846-3.665.289-5.501.0958-1.7187.2027-3.4355.3121-5.1631.0263-.5419.0639-1.083.102-1.623.0669-1.0342.1343-2.0684.2134-3.1006.0752-1.2109.1645-2.4316.2651-3.65.1114-1.4775.2344-2.9531.36-4.4414.165-2.039.3437-4.0879.5337-6.1338.1811-2.0605.3867-4.1279.5947-6.207.21-2.09.42-4.1807.6553-6.2783.2217-2.0889.4682-4.1846.7051-6.294l.019-.1035c.25-2.1191.5015-4.2383.7793-6.376q.4065-3.2431.8486-6.4931c.2842-2.1729.5913-4.3408.9029-6.5322l.0205-.1153q.4642-3.27.9687-6.5664c.3291-2.2246.6856-4.4668,1.044-6.7207.7148-4.4961,1.476-9.0566,2.2924-13.6533,119.62,16.0849,172.8658-20.2344,180.6993-26.2315.206-.1523.373-.289.5224-.3925,3.7652,6.23,39.7471,60.6875,159.9878,88.0488C752.2725,1458.374,751.21,1464.8057,749.9814,1471.623Z" style="fill:#6fc600"/><path d="M593.7,1363.9209l-76.07,422.3984c-.7871-.45-1.7759-1.0332-2.9424-1.7548-.3643-.22-.7383-.4532-1.1313-.7149-1.3033-.8174-2.7916-1.7988-4.4312-2.9258-.5493-.3847-1.1289-.7988-1.72-1.2138-1.9595-1.3995-4.0977-2.9971-6.3863-4.8125-.3544-.2784-.6972-.5537-1.0512-.8311-1.2569-1.0107-2.5606-2.09-3.9024-3.2236-.7724-.6621-1.5634-1.3516-2.3759-2.0567-.042-.0312-.0821-.0742-.1236-.1054q-1.2158-1.0752-2.4878-2.2315c-.89-.8027-1.7871-1.63-2.69-2.4941-.458-.4278-.9141-.8662-1.37-1.3047-2.7574-2.6484-5.6128-5.541-8.5288-8.6943-.49-.5166-.9756-1.0557-1.4629-1.5831-.0684-.0839-.1387-.1562-.2085-.2275-.814-.8955-1.6348-1.8164-2.4541-2.749q-3.8613-4.4047-7.8194-9.3985c-.5034-.6376-1.0166-1.289-1.518-1.9375q-4.095-5.2866-8.19-11.2373-.6232-.8979-1.24-1.8291-1.7469-2.578-3.4732-5.2734c-.3623-.5644-.7334-1.1436-1.0913-1.7305-1.0654-1.6787-2.1128-3.3886-3.1655-5.1367-.4463-.7578-.9014-1.5293-1.355-2.3125-.3916-.665-.7812-1.3418-1.17-2.0185-.416-.7286-.8428-1.459-1.2451-2.1983q-1.7681-3.1537-3.4927-6.4189c-.4887-.9209-.9653-1.8389-1.4492-2.7823q-3.6562-7.1309-7.1318-14.9335c-.4341-.9581-.854-1.9258-1.2744-2.8926-.5381-1.2383-1.0625-2.4864-1.5845-3.7461-.3657-.874-.7315-1.749-1.084-2.6328q-1.8061-4.4268-3.5181-9.0518c-.4165-1.1211-.8286-2.2656-1.2407-3.41s-.8223-2.3-1.2187-3.4659q-1.2071-3.498-2.3838-7.1-.5684-1.7958-1.13-3.6269c-.2183-.7051-.438-1.3994-.6441-2.1026-.2792-.8935-.5483-1.7744-.8022-2.6767-.2651-.9043-.5308-1.8076-.7822-2.7207-.3589-1.2422-.7066-2.4815-1.05-3.7442-.3306-1.2011-.6612-2.4023-.9761-3.625q-1.062-4.0064-2.041-8.1435c-.3291-1.3428-.6465-2.6846-.9478-4.0469-.2783-1.2266-.5644-2.4795-.8271-3.7275q-.06-.2609-.12-.5215c-.2847-1.3233-.5674-2.6582-.8462-4.0156-.2227-1.0752-.4317-2.1592-.6519-3.2452-.3413-1.7382-.6684-3.4853-.9917-5.2558-.2641-1.4385-.5264-2.8887-.7744-4.3487-.2505-1.4482-.501-2.8964-.7358-4.3652a.171.171,0,0,0-.0108-.0732c-.2275-1.4444-.4551-2.8877-.68-4.3438-.0034-.0478-.0087-.0849-.0141-.1211-.2305-1.4922-.4473-2.9941-.6533-4.4931-.2168-1.502-.4087-3.0108-.6123-4.5215-.003-.0489-.0083-.085-.0137-.1211-.1992-1.5352-.3872-3.0664-.5728-4.61-.1777-1.458-.3432-2.915-.5049-4.3955-.0146-.1806-.0415-.3633-.0561-.5449-.167-1.5156-.3223-3.03-.4736-4.5674-.1636-1.6-.312-3.22-.4468-4.8486-.148-1.62-.28-3.2608-.4111-4.9131-.1324-1.6416-.2491-3.3037-.3638-4.9766-.1065-1.5888-.2129-3.1767-.3032-4.7871-.01-.1445-.0176-.3-.0269-.4443-.0981-1.6348-.1846-3.2676-.2554-4.9209q-.1024-2.1049-.1987-4.2451c-.0483-1.3164-.0967-2.6338-.1406-3.9727-.0376-1.2441-.0752-2.4873-.1109-3.7422-.0078-.4179-.0141-.8466-.0219-1.2636-.0347-1.1954-.0669-2.4024-.0743-3.6163q-.0476-2.1137-.0542-4.2548c-.0239-1.7168-.0224-3.44-.0307-5.1778.0019-.1425.0019-.2734.0034-.415-.0015-1.7725.01-3.5537.0259-5.3584.0122-1.52.0376-3.0488.0654-4.59.0571-3.3545.1416-6.7286.2593-10.1553.0254-1.0655.0742-2.127.1128-3.2022.0522-1.3457.1181-2.7011.1743-4.07.0161-.3535.0308-.6963.0464-1.05.0913-1.8271.1846-3.665.289-5.501.0958-1.7187.2027-3.4355.3121-5.1631.0263-.5419.0639-1.083.102-1.623.0669-1.0342.1343-2.0684.2134-3.1006.0752-1.2109.1645-2.4316.2651-3.65.1114-1.4775.2344-2.9531.36-4.4414.165-2.039.3437-4.0879.5337-6.1338.1811-2.0605.3867-4.1279.5947-6.207.21-2.09.42-4.1807.6553-6.2783.2217-2.0889.4682-4.1846.7051-6.294l.019-.1035c.25-2.1191.5015-4.2383.7793-6.376q.4065-3.2431.8486-6.4931c.2842-2.1729.5913-4.3408.9029-6.5322l.0205-.1153q.4642-3.27.9687-6.5664c.3291-2.2246.6856-4.4668,1.044-6.7207.7148-4.4961,1.476-9.0566,2.2924-13.6533C542.1323,1408.4854,593.7,1363.9209,593.7,1363.9209Z" style="fill:#3ba200"/></svg>