<svg id="b4c5020e-9253-47d5-98ec-9433065d9298" data-name="Illustration" xmlns="http://www.w3.org/2000/svg" xmlns:xlink="http://www.w3.org/1999/xlink" viewBox="0 0 972.9824 606.6964"><defs><linearGradient id="bbe7e60d-e4a8-4fb8-8e2d-9f9d051e89b9" x1="316.2163" y1="834.5639" x2="1298.7879" y2="121.0296" gradientTransform="translate(-252.5898)" gradientUnits="userSpaceOnUse"><stop offset="0" stop-color="#a737d5"/><stop offset="1" stop-color="#ef497a"/></linearGradient><linearGradient id="fe435661-8c89-44d0-b8da-ff576f7f8430" x1="1284.7643" y1="127.8476" x2="552.5177" y2="669.2427" gradientTransform="translate(-252.5898)" gradientUnits="userSpaceOnUse"><stop offset="0" stop-color="#b37cff"/><stop offset="1" stop-color="#f895e7"/></linearGradient><linearGradient id="b4ca03ec-4d42-4b18-9287-dc93fa893f40" x1="643.457" y1="159.3251" x2="886.5149" y2="159.3251" gradientTransform="translate(80.5313 59.8238) rotate(11.9279)" gradientUnits="userSpaceOnUse"><stop offset="0" stop-color="#9f5699"/><stop offset="1" stop-color="#202278"/></linearGradient><linearGradient id="b9955aa0-9901-43ec-a28a-ae5c96912ed4" x1="635.2542" y1="827.426" x2="899.0403" y2="827.426" gradientTransform="matrix(0.9584, 0.2853, -0.2853, 0.9584, 321.681, -559.806)" gradientUnits="userSpaceOnUse"><stop offset="0" stop-color="#2b3582"/><stop offset="1" stop-color="#150e42"/></linearGradient><linearGradient id="bc8098e5-1de4-41bc-9e8c-17489a76ddd6" x1="9746.6102" y1="980.9486" x2="9744.5456" y2="986.3282" gradientTransform="matrix(-0.9942, -0.1073, -0.1073, 0.9942, 10260.0221, 649.0343)" xlink:href="#bbe7e60d-e4a8-4fb8-8e2d-9f9d051e89b9"/><linearGradient id="f55fbc32-23e5-4f21-a290-e003bd724fd9" x1="9676.3089" y1="449.1971" x2="9922.5742" y2="449.1971" gradientTransform="matrix(-0.9997, -0.0262, -0.0262, 0.9997, 10180.9515, 229.4006)" xlink:href="#b9955aa0-9901-43ec-a28a-ae5c96912ed4"/><linearGradient id="a445e8a5-a160-481b-8524-9258b88afe31" x1="9703.7344" y1="768.2618" x2="9930.7454" y2="768.2618" gradientTransform="matrix(-0.9942, -0.1073, -0.1073, 0.9942, 10260.0221, 649.0343)" xlink:href="#b4ca03ec-4d42-4b18-9287-dc93fa893f40"/><linearGradient id="b1f89d2d-7da0-43b9-85ff-3a99b1833351" x1="305.3623" y1="672.3198" x2="478.1669" y2="672.3198" gradientTransform="translate(-109.6229 -31.6238) rotate(-10.947)" xlink:href="#b9955aa0-9901-43ec-a28a-ae5c96912ed4"/><linearGradient id="bf0a69f4-3551-41d2-9b44-b5c199d71f50" x1="521.7338" y1="757.4564" x2="77.3823" y2="511.5527" gradientTransform="translate(-109.6229 -31.6238) rotate(-10.947)" xlink:href="#b4ca03ec-4d42-4b18-9287-dc93fa893f40"/><linearGradient id="af1bac1f-fcc0-4b05-8175-859bae7b69b5" x1="199.1565" y1="733.7282" x2="472.7741" y2="733.7282" gradientTransform="translate(-109.6229 -31.6238) rotate(-10.947)" xlink:href="#b9955aa0-9901-43ec-a28a-ae5c96912ed4"/><linearGradient id="b69b9040-0804-4db3-9399-4d5aaaebf680" x1="-1763.4682" y1="272.1661" x2="-1590.6637" y2="272.1661" gradientTransform="matrix(-0.9818, -0.1899, -0.1899, 0.9818, -823.3491, -31.6238)" xlink:href="#b9955aa0-9901-43ec-a28a-ae5c96912ed4"/><linearGradient id="f0083571-d54c-4215-9caf-8746de863d82" x1="-1547.0968" y1="357.3026" x2="-1991.4483" y2="111.3989" gradientTransform="matrix(-0.9818, -0.1899, -0.1899, 0.9818, -823.3491, -31.6238)" xlink:href="#b4ca03ec-4d42-4b18-9287-dc93fa893f40"/><linearGradient id="ae404e46-c877-46d6-977f-6d61b150e32b" x1="-1869.674" y1="333.5744" x2="-1596.0564" y2="333.5744" gradientTransform="matrix(-0.9818, -0.1899, -0.1899, 0.9818, -823.3491, -31.6238)" xlink:href="#b9955aa0-9901-43ec-a28a-ae5c96912ed4"/><linearGradient id="a74e86bb-cf3d-417e-9a9c-5fc7fbc284c6" x1="753.5454" y1="272.7951" x2="126.208" y2="987.8593" gradientTransform="matrix(1, 0, 0, 1, 0, 0)" xlink:href="#b9955aa0-9901-43ec-a28a-ae5c96912ed4"/><linearGradient id="ad4d2881-8aa8-44a0-a93a-a2e64bdc73f6" x1="595.9437" y1="451.6502" x2="332.7728" y2="769.4415" gradientUnits="userSpaceOnUse"><stop offset="0" stop-color="#52f0c0"/><stop offset="1" stop-color="#9f71fb"/></linearGradient><linearGradient id="a7a0c879-3e7e-4822-b161-cc5c6a507158" x1="716.6421" y1="331.5527" x2="287.9328" y2="766.0549" xlink:href="#ad4d2881-8aa8-44a0-a93a-a2e64bdc73f6"/><linearGradient id="affc8259-c481-4ce0-8f29-7aa1f6495e63" x1="380.8318" y1="449.9353" x2="766.762" y2="449.9353" xlink:href="#ad4d2881-8aa8-44a0-a93a-a2e64bdc73f6"/><linearGradient id="e8bbd183-d9e0-4438-9665-96d3d2b0d38c" x1="580.2331" y1="253.4441" x2="724.2263" y2="137.9497" gradientTransform="matrix(1, 0, 0, 1, 0, 0)" xlink:href="#bbe7e60d-e4a8-4fb8-8e2d-9f9d051e89b9"/><linearGradient id="fed181a6-bbaa-4071-9cfc-9528b06baefe" x1="615.3314" y1="297.203" x2="759.3243" y2="181.7088" gradientTransform="matrix(1, 0, 0, 1, 0, 0)" xlink:href="#bbe7e60d-e4a8-4fb8-8e2d-9f9d051e89b9"/><linearGradient id="ab720e00-52e7-4a05-8fb6-3481a295fd5f" x1="636.4597" y1="323.5449" x2="780.4526" y2="208.0507" gradientTransform="matrix(1, 0, 0, 1, 0, 0)" xlink:href="#bbe7e60d-e4a8-4fb8-8e2d-9f9d051e89b9"/><linearGradient id="b5c3d2f8-851a-4b25-9caf-61a8eb490316" x1="654.0283" y1="345.4493" x2="798.0208" y2="229.9554" gradientTransform="matrix(1, 0, 0, 1, 0, 0)" xlink:href="#bbe7e60d-e4a8-4fb8-8e2d-9f9d051e89b9"/><linearGradient id="eec57f38-d16c-406e-ac23-5cd17d622673" x1="208.2232" y1="204.786" x2="266.6038" y2="204.786" gradientUnits="userSpaceOnUse"><stop offset="0" stop-color="#fdf53f"/><stop offset="1" stop-color="#d93c65"/></linearGradient><linearGradient id="f71c8e61-d63c-4bfe-b4ba-c859899d4d65" x1="1100.5584" y1="121.5673" x2="687.837" y2="333.1194" gradientTransform="translate(415.315 -656.2361) rotate(45)" xlink:href="#eec57f38-d16c-406e-ac23-5cd17d622673"/><linearGradient id="e8fcd7ae-c053-40a8-b72d-45510076cb64" x1="-302.0798" y1="255.4078" x2="-155.3104" y2="255.4078" gradientTransform="translate(495.7521 26.6236) rotate(9.7119)" gradientUnits="userSpaceOnUse"><stop offset="0" stop-color="#53d8ff"/><stop offset="1" stop-color="#3840f7"/></linearGradient><linearGradient id="effaa26d-b98f-42b1-8b90-3de55dfa59e8" x1="-135.3531" y1="289.8889" x2="-14.6426" y2="289.8889" xlink:href="#e8fcd7ae-c053-40a8-b72d-45510076cb64"/><linearGradient id="a0d4a49c-35e1-4196-aa4c-c38ee1739694" x1="319.9267" y1="153.5764" x2="427.028" y2="153.5764" xlink:href="#e8fcd7ae-c053-40a8-b72d-45510076cb64"/><linearGradient id="b2469e17-9801-4d4b-867f-5a896e33dcad" x1="504.3262" y1="159.6186" x2="625.0367" y2="159.6186" xlink:href="#e8fcd7ae-c053-40a8-b72d-45510076cb64"/><linearGradient id="a2041ba8-a15f-4493-80ae-fe9acc7a9203" x1="-4772.1376" y1="-1613.8034" x2="-4824.8551" y2="-1645.7535" gradientTransform="matrix(-0.9999, 0.0201, 0.197, 0.9069, -3995.0539, 1650.7399)" xlink:href="#e8fcd7ae-c053-40a8-b72d-45510076cb64"/><linearGradient id="e40e61cd-1ac1-4919-98e3-1b09756dcfb7" x1="-4801.3961" y1="-1625.616" x2="-4861.724" y2="-1689.4054" gradientTransform="matrix(-0.9999, 0.0201, 0.197, 0.9069, -3881.5451, 1747.3917)" xlink:href="#e8fcd7ae-c053-40a8-b72d-45510076cb64"/><linearGradient id="b67778dd-89ff-42cf-ac14-3fe3d31282d4" x1="-4775.9862" y1="-1614.3359" x2="-4825.2321" y2="-1644.1819" gradientTransform="matrix(-0.9999, 0.0201, 0.197, 0.9069, -3995.0539, 1650.7399)" xlink:href="#e8fcd7ae-c053-40a8-b72d-45510076cb64"/><linearGradient id="b45f06f1-c541-423e-97c0-11544005eaf1" x1="2135.6249" y1="-1398.4607" x2="2158.1278" y2="-1404.9783" gradientTransform="translate(-1623.7826 1517.1543) rotate(-1.1516)" xlink:href="#e8fcd7ae-c053-40a8-b72d-45510076cb64"/><linearGradient id="a68d4e0a-e755-4211-86b9-1040fdf430d6" x1="447.2717" y1="457.6366" x2="725.3048" y2="394.6079" gradientTransform="matrix(0.8167, 0.577, -0.577, 0.8167, 389.6597, -141.4894)" xlink:href="#eec57f38-d16c-406e-ac23-5cd17d622673"/><linearGradient id="a51e79c6-4227-4175-a836-5b74bfa9bd31" x1="452.6064" y1="481.1638" x2="730.6351" y2="418.136" gradientTransform="matrix(0.8167, 0.577, -0.577, 0.8167, 389.6597, -141.4894)" xlink:href="#eec57f38-d16c-406e-ac23-5cd17d622673"/><linearGradient id="e72b9ba0-ebb5-46e3-bdf9-cf6b35562432" x1="645.6084" y1="590.3476" x2="402.3461" y2="510.8306" gradientTransform="translate(-127.0409 0.7175) rotate(-18.6506)" xlink:href="#eec57f38-d16c-406e-ac23-5cd17d622673"/><linearGradient id="fa44d691-1964-47fd-b4b6-6ccf83e4b356" x1="641.4069" y1="603.2097" x2="398.138" y2="523.6906" gradientTransform="translate(-127.0409 0.7175) rotate(-18.6506)" xlink:href="#eec57f38-d16c-406e-ac23-5cd17d622673"/><linearGradient id="ff3d343f-8542-4e44-92d0-07fe272e24e8" x1="3946.5017" y1="636.3047" x2="4100.1899" y2="636.3047" gradientTransform="translate(2636.8749 -3312.345) rotate(106.3562)" xlink:href="#e8fcd7ae-c053-40a8-b72d-45510076cb64"/><linearGradient id="adac696c-3052-482e-a670-c06a6b61372b" x1="4037.003" y1="491.9485" x2="4115.9497" y2="491.9485" gradientTransform="translate(2636.8749 -3312.345) rotate(106.3562)" xlink:href="#e8fcd7ae-c053-40a8-b72d-45510076cb64"/><linearGradient id="ac691cfc-ea92-47fb-bfb6-e55c6af3349e" x1="919.1209" y1="442.6398" x2="900.626" y2="499.3304" gradientUnits="userSpaceOnUse"><stop offset="0" stop-color="#f9b776"/><stop offset="1" stop-color="#f47960"/></linearGradient><linearGradient id="ee3d02f8-8f05-4b9d-abed-133f9a53a8ac" x1="915.2055" y1="644.0921" x2="954.1752" y2="644.0921" xlink:href="#ac691cfc-ea92-47fb-bfb6-e55c6af3349e"/><linearGradient id="ba08976f-d4b8-40bf-bdcf-ee091d082118" x1="968.7704" y1="556.9438" x2="949.4714" y2="682.3868" gradientTransform="matrix(1, 0, 0, 1, 0, 0)" xlink:href="#e8fcd7ae-c053-40a8-b72d-45510076cb64"/><linearGradient id="bdacabd5-7484-4b19-aa9d-aecc2296cb77" x1="927.9355" y1="550.6638" x2="908.6367" y2="676.1053" gradientTransform="matrix(1, 0, 0, 1, 0, 0)" xlink:href="#e8fcd7ae-c053-40a8-b72d-45510076cb64"/><linearGradient id="fa9a00ac-6b4b-4ffe-ad93-2be86a82a482" x1="891.559" y1="646.9898" x2="914.1255" y2="646.9898" xlink:href="#ac691cfc-ea92-47fb-bfb6-e55c6af3349e"/><linearGradient id="fc195ee0-455a-4148-85bd-4f1b079873e8" x1="842.9464" y1="477.6809" x2="887.1246" y2="477.6809" xlink:href="#ac691cfc-ea92-47fb-bfb6-e55c6af3349e"/><linearGradient id="a768de82-3b84-4907-a335-10d748692a83" x1="891.3581" y1="501.697" x2="974.1829" y2="665.7382" xlink:href="#eec57f38-d16c-406e-ac23-5cd17d622673"/><linearGradient id="e39eca4c-2474-4b5f-a7d8-f5485fec2f94" x1="871.6348" y1="545.0435" x2="944.0058" y2="626.6618" gradientTransform="matrix(1, 0, 0, 1, 0, 0)" xlink:href="#e8fcd7ae-c053-40a8-b72d-45510076cb64"/><linearGradient id="aa94662c-8a31-439a-b85b-2af2f910e9b3" x1="898.4001" y1="499.3703" x2="912.2095" y2="499.3703" xlink:href="#ac691cfc-ea92-47fb-bfb6-e55c6af3349e"/><linearGradient id="ba492fe0-ac9c-4f4e-b322-94babbb8a4d4" x1="920.3477" y1="481.5244" x2="1020.863" y2="488.3594" xlink:href="#ac691cfc-ea92-47fb-bfb6-e55c6af3349e"/><linearGradient id="bd025281-0b4c-4e5e-914e-71c6bbe52380" x1="936.8688" y1="475.4655" x2="901.4876" y2="546.2279" gradientUnits="userSpaceOnUse"><stop offset="0" stop-color="#cb236d"/><stop offset="1" stop-color="#4c246d"/></linearGradient><linearGradient id="b47b5434-c95a-43ef-8646-3c32f7a73f14" x1="584.5367" y1="451.7938" x2="834.6168" y2="451.7938" gradientTransform="matrix(1, 0, 0, 1, 0, 0)" xlink:href="#bbe7e60d-e4a8-4fb8-8e2d-9f9d051e89b9"/><linearGradient id="a09e1de8-7fba-4b4e-aba0-af3dbc9722f9" x1="445.6639" y1="340.4067" x2="582.0035" y2="340.4067" gradientTransform="matrix(1, 0, 0, 1, 0, 0)" xlink:href="#bbe7e60d-e4a8-4fb8-8e2d-9f9d051e89b9"/><linearGradient id="ebde0514-c12f-4a2a-9eef-f1c766362139" x1="569.9367" y1="458.3304" x2="603.9628" y2="458.3304" gradientTransform="matrix(1, 0, 0, 1, 0, 0)" xlink:href="#bbe7e60d-e4a8-4fb8-8e2d-9f9d051e89b9"/><linearGradient id="bb85607a-22a6-4195-94e4-125ef8b77eba" x1="4158.7392" y1="1251.0514" x2="4277.5542" y2="1251.0514" gradientTransform="translate(2636.8749 -3312.345) rotate(106.3562)" xlink:href="#e8fcd7ae-c053-40a8-b72d-45510076cb64"/><linearGradient id="bb1d90ba-0a5a-4f36-a4bb-91a048d90b8f" x1="4316.0164" y1="1293.6945" x2="4377.0494" y2="1293.6945" gradientTransform="translate(2636.8749 -3312.345) rotate(106.3562)" xlink:href="#e8fcd7ae-c053-40a8-b72d-45510076cb64"/><linearGradient id="bcb6769a-514b-4a53-962d-30ef5131f8f7" x1="241.6443" y1="877.8492" x2="315.6443" y2="863.8492" gradientTransform="translate(-939.6452)" xlink:href="#e8fcd7ae-c053-40a8-b72d-45510076cb64"/><linearGradient id="be2bceb8-f0f0-41f9-b835-8c803f3b5a12" x1="1220.1155" y1="682.6047" x2="1227.8685" y2="682.6047" gradientTransform="translate(-939.6452)" xlink:href="#ac691cfc-ea92-47fb-bfb6-e55c6af3349e"/><linearGradient id="a96babc7-8edf-4a0e-8a82-9c9d6a313f40" x1="1201.7315" y1="623.3231" x2="1227.3666" y2="623.3231" gradientTransform="translate(-939.6452)" xlink:href="#bd025281-0b4c-4e5e-914e-71c6bbe52380"/><linearGradient id="b26906db-3709-4470-82dc-3f41a003f7c0" x1="240.6375" y1="872.5167" x2="314.6375" y2="858.5167" gradientTransform="translate(-939.6452)" xlink:href="#e8fcd7ae-c053-40a8-b72d-45510076cb64"/><linearGradient id="a2e6d783-a77e-41d5-b422-ab40333d872c" x1="1192.174" y1="682.2071" x2="1198.868" y2="682.2071" gradientTransform="translate(-939.6452)" xlink:href="#ac691cfc-ea92-47fb-bfb6-e55c6af3349e"/><linearGradient id="a50fe61e-02e9-41da-bfad-e32ffc545767" x1="1184.959" y1="622.4842" x2="1221.3526" y2="622.4842" gradientTransform="translate(-939.6452)" xlink:href="#bd025281-0b4c-4e5e-914e-71c6bbe52380"/><linearGradient id="bb3f4f37-19af-42ac-abd5-16a9e342d588" x1="1174.6099" y1="552.6888" x2="1296.6033" y2="464.8943" gradientTransform="translate(-939.6452)" xlink:href="#eec57f38-d16c-406e-ac23-5cd17d622673"/><linearGradient id="b40caffe-264c-4ee6-a069-2843767dfaa7" x1="1252.0189" y1="480.3397" x2="1291.6274" y2="480.3397" gradientTransform="translate(-939.6452)" xlink:href="#ac691cfc-ea92-47fb-bfb6-e55c6af3349e"/><linearGradient id="fb57e68d-7916-4ccf-9d6a-bb10cb0c1060" x1="6654.9742" y1="473.7004" x2="6681.5525" y2="534.1719" gradientTransform="matrix(-1, 0, 0, 1, 6998.1329, 0)" xlink:href="#ac691cfc-ea92-47fb-bfb6-e55c6af3349e"/><linearGradient id="efea36e2-ba99-4415-8184-d5342ea53b1b" x1="1291.4373" y1="453.5612" x2="1302.5273" y2="436.5104" gradientTransform="translate(-939.6452)" xlink:href="#ac691cfc-ea92-47fb-bfb6-e55c6af3349e"/><linearGradient id="a7ba5e2f-eb71-4dcb-8057-5c2b663233b9" x1="1158.5346" y1="530.3515" x2="1280.5275" y2="442.5573" gradientTransform="translate(-939.6452)" xlink:href="#eec57f38-d16c-406e-ac23-5cd17d622673"/><linearGradient id="b3c9bae3-ca78-4cc5-81f8-857c0fd6ae04" x1="1165.3475" y1="536.444" x2="1215.4723" y2="536.444" gradientTransform="translate(-939.6452)" xlink:href="#ac691cfc-ea92-47fb-bfb6-e55c6af3349e"/><linearGradient id="ad1ece16-ed63-49eb-8669-b19a67de67a2" x1="1230.6369" y1="500.8068" x2="1258.1987" y2="615.648" gradientTransform="translate(-939.6452)" xlink:href="#e8fcd7ae-c053-40a8-b72d-45510076cb64"/><linearGradient id="b2c9d9c7-83ba-445e-a6ed-a93d2964a032" x1="1247.8932" y1="482.7045" x2="1242.0232" y2="508.4814" gradientTransform="translate(-939.6452)" xlink:href="#e8fcd7ae-c053-40a8-b72d-45510076cb64"/><linearGradient id="e5864c2e-8106-441b-bc9b-54bcf9927b21" x1="1244.8212" y1="493.5172" x2="1242.0138" y2="510.3614" gradientTransform="translate(-939.6452)" xlink:href="#e8fcd7ae-c053-40a8-b72d-45510076cb64"/><linearGradient id="bdceae5b-b984-4fa6-9a30-9635a99ad90f" x1="1211.7507" y1="531.1884" x2="1227.3666" y2="531.1884" gradientTransform="translate(-939.6452)" xlink:href="#ac691cfc-ea92-47fb-bfb6-e55c6af3349e"/><linearGradient id="a9f52307-8aec-407d-a396-a14319c907e1" x1="1203.8364" y1="482.8574" x2="1223.6541" y2="482.8574" gradientTransform="translate(-939.6452)" xlink:href="#ac691cfc-ea92-47fb-bfb6-e55c6af3349e"/><linearGradient id="a06886cc-b7f0-4c45-a9da-8b740bc6c3f8" x1="-5043.7424" y1="-1179.5324" x2="-5051.1481" y2="-1203.958" gradientTransform="matrix(0.746, -0.6659, 0.6659, 0.746, 4836.8047, -2008.4472)" xlink:href="#ac691cfc-ea92-47fb-bfb6-e55c6af3349e"/><linearGradient id="a4e88332-4b8a-405d-b3e0-87be26d571a3" x1="-5050.4238" y1="-1222.0903" x2="-5044.229" y2="-1186.7572" gradientTransform="matrix(0.746, -0.6659, 0.6659, 0.746, 4836.8047, -2008.4472)" xlink:href="#b9955aa0-9901-43ec-a28a-ae5c96912ed4"/><linearGradient id="a9e1a603-cd6d-4512-8e61-d5d36df3de36" x1="-5051.3127" y1="-1179.6461" x2="-5057.9757" y2="-1201.6223" gradientTransform="matrix(0.746, -0.6659, 0.6659, 0.746, 4836.8047, -2008.4472)" xlink:href="#ac691cfc-ea92-47fb-bfb6-e55c6af3349e"/></defs><g style="opacity:0.6000000000000001"><path d="M1048.03,369.3738c-25.24-37.7252-78.7357-57.9377-80.1248-114.4753-.9029-36.7377,14.6735-56.6488-10.252-88.0084C897.4,91.0859,804.5472,82.2022,725.2645,113.8693c-79.2557,31.6565-142.5929,95.1128-230.709,91.2883-47.987-2.0829-92.5706-26.4622-140.0713-31.0372a113.0969,113.0969,0,0,0-41.0922,3.3055c-47.9309,13.1439-90.2513,62.5-106.1877,117.333-12.9184,44.45,3.5867,88.33-16.6974,131.857-21.62,46.3945-64.1973,78.6194-74.9245,132.182-12.875,64.2865,36.3158,120.1918,89.1556,121.94,33.6334,1.1127,98.8672,28.8286,127.44,6.6133,34.7911-27.05,102.263,7.5626,142.822,8.5988,77.1873,1.9726,153.55-11.4126,229.7421,1.8262,65.2867,11.3438,94.2873-9.7383,160.4538-7.6053,48.5923,1.5665,89.83,2.2711,116.1235-54.2289C1012.7467,568.4114,1100.9705,448.5015,1048.03,369.3738Z" transform="translate(-113.5088 -96.6518)" style="opacity:0.6000000000000001;fill:url(#bbe7e60d-e4a8-4fb8-8e2d-9f9d051e89b9)"/><path d="M1012.9936,380.8344c-23.3527-33.49-72.847-51.4335-74.1324-101.6236-.8354-32.6134,13.5761-50.2889-9.4851-78.128-55.7471-67.294-141.6551-75.18-215.0082-47.0683-73.328,28.1024-131.9283,84.4347-213.4542,81.04-44.398-1.849-85.6472-23.4916-129.5953-27.5526A108.8937,108.8937,0,0,0,333.3,210.4359c-44.3461,11.6682-83.5012,55.483-98.2459,104.16-11.9523,39.46,3.3183,78.4134-15.4487,117.0539-20.0029,41.1859-59.3957,69.7931-69.3208,117.3424-11.9121,57.0691,33.6,106.6982,82.4876,108.25,31.1182.9877,88.7987-4.1184,115.2344-23.84,32.1892-24.0132,71.74,36.9021,109.2657,37.8219,71.4143,1.7511,181.8117-17.55,252.305-5.7974,60.4038,10.07,73.0392-1.7044,134.2571.189,44.958,1.3906,83.1112,2.0159,107.4385-48.1408C980.3492,557.5264,1061.9748,451.0786,1012.9936,380.8344Z" transform="translate(-113.5088 -96.6518)" style="opacity:0.7000000000000001;fill:url(#fe435661-8c89-44d0-b8da-ff576f7f8430)"/></g><g style="opacity:0.8"><path d="M946.9025,216.2154c-1.9-12.999-5.7225-25.5951-10.049-38.0254a4.3672,4.3672,0,0,0-8.1835-.1594c-6.2745,15.7312-20.3614,28.461-35.3835,37.1619-19.1306,11.0807-40.6584,17.7224-59.2517,29.6831-38.2661,24.6162-59.4986,68.6756-71.9873,112.4283s-18.2212,89.523-35.0393,131.8008c-8.0181,20.1564-18.8222,39.7332-35.0746,54.101-15.9608,14.11-37.8546,22.6166-58.7986,18.9716a1.009,1.009,0,0,0-1.1892.9528h0a1.02,1.02,0,0,0,.48.9036c22.748,14.0452,54.2816,5.6676,73.4345-13.0782,19.2938-18.8837,28.4669-45.6984,34.6635-71.9748s10.1853-53.4327,21.7666-77.82a135.9758,135.9758,0,0,1,53.8973-58.6823c21.1949-12.3707,45.28-18.7157,67.8948-28.2466s44.94-23.449,56.0459-45.333C948.27,252.8569,949.5041,234.0162,946.9025,216.2154Z" transform="translate(-113.5088 -96.6518)" style="fill:url(#b4ca03ec-4d42-4b18-9287-dc93fa893f40)"/><g style="opacity:0.9"><g style="opacity:0.6000000000000001"><path d="M988.0694,326.7661c-20.3915,11.73-45.7156,15.4446-69.6918,16.7725-31.3558,1.7362-63.9958.8313-92.5366,13.9319-29.8119,13.6844-51.1649,41.0275-67.032,69.7374s-27.4613,59.7062-44.5886,87.6827c-16.2891,26.6076-38.88,51.0741-68.0359,61.6632,20.9729,3.88,43.0015-7.5456,57.3484-23.7359,15.3026-17.269,23.9553-39.2347,33.6754-60.1609s21.502-42.0617,40.6573-54.9251c37.585-25.24,89.2225-10.6092,132.038-25.3228,22.15-7.6119,41.0227-22.9017,56.28-40.6722,10.3972-12.11,19.2719-25.3932,27.635-39.0122A4.272,4.272,0,0,0,988.0694,326.7661Z" transform="translate(-113.5088 -96.6518)" style="fill:url(#b9955aa0-9901-43ec-a28a-ae5c96912ed4)"/></g></g><path d="M923.7855,213.4829a73.9668,73.9668,0,0,1-7.7681,12.6678,105.4283,105.4283,0,0,1-9.6333,11.2766c-1.6851,1.8176-3.5432,3.4523-5.3362,5.16-1.813,1.6854-3.7394,3.24-5.6159,4.8574-1.9414,1.5333-3.9266,3.0119-5.89,4.5206l-6.114,4.212c-2.0926,1.3193-4.2238,2.5766-6.3348,3.8672-2.12,1.2754-4.3382,2.3735-6.5036,3.5683-4.3476,2.3466-8.7539,4.377-13.0793,6.6268a272.9433,272.9433,0,0,0-25.3528,14.2012,138.1753,138.1753,0,0,0-22.402,18.1311c-3.5,3.31-6.5589,7.0421-9.7257,10.6755-2.8862,3.8651-5.9514,7.6053-8.5141,11.7167-5.4819,7.9778-9.9765,16.6024-14.4274,25.2329-2.0884,4.3866-4.09,8.8212-6.1179,13.2448l-5.5824,13.5046-.0061.0145a.8181.8181,0,0,1-1.5287-.5814c6.4239-18.4663,14.2253-36.624,24.8975-53.2285a136.3783,136.3783,0,0,1,41.1817-42.1052,276.8509,276.8509,0,0,1,25.6495-14.581c4.3309-2.2707,8.7666-4.3986,13.0261-6.6661,2.1157-1.1509,4.2883-2.2054,6.36-3.4341,2.0621-1.2436,4.1464-2.4533,6.1918-3.7233l6.0276-3.9823c1.9356-1.4291,3.8969-2.8287,5.8161-4.2824,1.8576-1.5284,3.7961-2.9666,5.6089-4.5509,1.7985-1.599,3.6546-3.1417,5.3625-4.84a122.8911,122.8911,0,0,0,9.9417-10.4895,84.6074,84.6074,0,0,0,8.3906-11.7137l.03-.0522a.8171.8171,0,0,1,1.4487.7524Z" transform="translate(-113.5088 -96.6518)" style="fill:#fff;opacity:0.5"/><path d="M467.16,583.7876l-.5592-.4652c-1.049-.8719-2.1545-1.8458-3.38-2.9773l-1.2418-1.1458,1.6512.3587c1.2859.28,2.6.5,3.9063.6538l.5218.0614Zm-2.0981-3.011c.5428.4857,1.0637.9406,1.5685,1.3694l.2775-1.0857Q465.9842,580.9393,465.0619,580.7766Z" transform="translate(-113.5088 -96.6518)" style="fill:url(#bc8098e5-1de4-41bc-9e8c-17489a76ddd6)"/><path d="M260.5683,262.04c14.7,16.3208,36.1017,26.9571,56.9983,35.0841,27.3285,10.6281,56.5621,19.2839,78.0984,39.1832,22.4956,20.7859,33.5246,51.244,39.2881,81.3254s7.0719,60.954,14.1665,90.75c6.7475,28.3377,19.7092,56.6014,42.519,74.45-19.74-2.6344-35.9818-19.1595-44.024-37.6878-8.5782-19.7628-9.8926-41.7672-12.4558-63.1584s-6.8958-43.5657-20.17-60.5343c-26.0461-33.295-76.12-35.2737-109.8592-60.7416-17.4547-13.1756-29.7751-32.2161-38.1674-52.4109-5.7191-13.7622-9.7469-28.1242-13.2231-42.6361A3.9886,3.9886,0,0,1,260.5683,262.04Z" transform="translate(-113.5088 -96.6518)" style="opacity:0.6000000000000001;fill:url(#f55fbc32-23e5-4f21-a290-e003bd724fd9)"/><path d="M329.1461,175.8448c5.4535-10.9874,12.4968-21.06,19.9394-30.8394a4.0777,4.0777,0,0,1,7.31,2.23c1.01,15.7815,9.8249,31.163,20.6371,43.24,13.7692,15.3793,30.9527,27.5133,43.99,43.5179,26.8314,32.9392,32.9091,78.2,31.3146,120.6542s-9.7706,84.7417-7.0951,127.1417c1.2757,20.2146,5.192,40.722,15.4539,58.185,10.0777,17.15,27.0457,31.0449,46.6921,33.8794a.9419.9419,0,0,1,.7793,1.19h0a.9515.9515,0,0,1-.6873.663c-24.2618,5.8741-49.8234-10.7-61.3909-32.89-11.6528-22.3527-12.0239-48.8121-9.9092-73.931s6.4442-50.3789,3.2322-75.3812a126.964,126.964,0,0,0-30.8333-67.7063c-15.2279-17.1227-34.7671-29.7343-52.0779-44.7479s-33.0933-33.8371-36.6092-56.48C317.314,207.9718,321.6782,190.8908,329.1461,175.8448Z" transform="translate(-113.5088 -96.6518)" style="fill:url(#a445e8a5-a160-481b-8524-9258b88afe31)"/><path d="M351.9067,179.9341a78.4015,78.4015,0,0,0,4.0167,12.8577,113.8657,113.8657,0,0,0,5.7626,12.218c1.0215,2.0066,2.2209,3.9175,3.3522,5.8622,1.1486,1.9355,2.4507,3.7783,3.6559,5.6767,1.2822,1.85,2.6173,3.6639,3.9213,5.4968l4.1964,5.2914c1.4487,1.7225,2.95,3.4028,4.4206,5.1065,1.4837,1.6935,3.1075,3.2612,4.6534,4.8983,3.1259,3.2512,6.4467,6.4212,9.6328,9.6908A258.3988,258.3988,0,0,1,414.0531,267.39a127.4288,127.4288,0,0,1,24.35,49.24c4.6688,17.8132,6.3556,36.18,6.7368,54.4288a.6976.6976,0,0,1-1.393.0687l-.0011-.0154-1.0193-13.6089c-.5124-4.516-.998-9.0345-1.5746-13.5358-1.4364-8.9563-2.921-17.92-5.47-26.6-1.08-4.3963-2.7152-8.61-4.1548-12.8825-1.7565-4.1491-3.3886-8.354-5.5354-12.3134a129.0453,129.0453,0,0,0-14.6407-22.6184,255.0556,255.0556,0,0,0-18.3943-19.9709l-4.8469-4.8085c-1.6189-1.6086-3.2613-3.164-4.84-4.8646-1.5742-1.6858-3.2239-3.301-4.7345-5.045-1.4985-1.755-3.0246-3.4862-4.4983-5.261l-4.2057-5.5c-1.3056-1.9048-2.6393-3.7892-3.9182-5.71-1.1972-1.9752-2.4587-3.9093-3.5808-5.9269-1.0979-2.0314-2.2745-4.0174-3.246-6.1147a99.048,99.048,0,0,1-5.3044-12.7744,69.3874,69.3874,0,0,1-3.26-13.4663.6966.6966,0,0,1,1.3727-.2291Z" transform="translate(-113.5088 -96.6518)" style="fill:#fff;opacity:0.5"/><path d="M512.2446,669.2431a2.2289,2.2289,0,0,0-1.6745-3.5385c-19.6905-.7691-101.98-8.2973-98.4958-80.4644,3.956-81.9468,10.0886-105.2452-28.2462-133.3543-34.9018-25.592-65.6581-22.272-89.6332-10.6013a1.7851,1.7851,0,0,0,.77,3.3807c16.0071-.0589,52.6768,2.7679,66.1359,28.7228C378.53,506.9989,376.7,590.4489,412.4139,629.8308c35.284,38.9073,65.5689,37.8458,97.9414,40.2894a2.1349,2.1349,0,0,0,1.8893-.8771Z" transform="translate(-113.5088 -96.6518)" style="opacity:0.6000000000000001;fill:url(#b1f89d2d-7da0-43b9-85ff-3a99b1833351)"/><path d="M213.8709,532.4428a3.0891,3.0891,0,0,1-1.2377-5.012c4.1646-4.43,11.1716-13.5394,15.7959-28.3768,4.6372-14.879,18.24-47.8592,60.0481-48.1193s68.951,68.1459,90.6327,136.4782,105.4579,78.39,105.4579,78.39l22.75,4.097s-77.5015,2.3679-116.38-44.4142S340.53,496.8934,294.7442,507.1594C250.7937,517.0138,249.8846,544.6857,213.8709,532.4428Z" transform="translate(-113.5088 -96.6518)" style="fill:url(#bf0a69f4-3551-41d2-9b44-b5c199d71f50)"/><path d="M221.6587,613.52a2.63,2.63,0,0,1-3.8674-3.1453c4.8578-13.6822,17.2453-39.5506,42.4233-43.728,34.5072-5.7257,62.78,4.9934,106.452,54.3133,42.4476,47.9373,119.2154,52.585,139.0769,49.2477a1.9366,1.9366,0,0,1,2.14,1.2786h0a1.95,1.95,0,0,1-1.5263,2.6045c-14.02,1.9987-87.8385,11.6335-128.4461-.7774C335.2752,660.2823,262.2214,587.1871,221.6587,613.52Z" transform="translate(-113.5088 -96.6518)" style="opacity:0.6000000000000001;fill:url(#af1bac1f-fcc0-4b05-8175-859bae7b69b5)"/><path d="M238.2844,592.4391a56.0621,56.0621,0,0,1,16.6028-8,66.092,66.092,0,0,1,18.2411-2.9263,79.592,79.592,0,0,1,35.8355,8.2956,108.4938,108.4938,0,0,1,15.8417,9.4855l3.7138,2.7344,3.5718,2.9067,1.784,1.4558,1.7132,1.5335,3.4212,3.0729c2.2031,2.1137,4.3925,4.2952,6.5442,6.4168l6.39,6.3575,3.1949,3.18c1.095,1.0259,2.2206,2.017,3.3294,3.0274l6.6772,6.0369a192.0681,192.0681,0,0,0,29.2266,20.7185,125.6159,125.6159,0,0,0,33.2841,12.8078c11.6566,2.6929,23.6843,3.6126,35.7189,3.9731,12.0488.34,24.1411-.0111,36.2357-.2036a.4893.4893,0,0,1,.04.9775c-12.073.772-24.1626,1.4325-36.3039,1.51a174.6457,174.6457,0,0,1-36.3579-3.19A122.698,122.698,0,0,1,392.56,660.0413a195.9317,195.9317,0,0,1-30.0581-20.9228l-6.8326-6.0726c-1.1345-1.0165-2.2872-2.0154-3.4068-3.0471L349,626.8073,336.0733,614.13c-8.7393-8.101-18.2942-15.3825-28.8919-20.6987A88.6137,88.6137,0,0,0,290.65,587.11a71.3917,71.3917,0,0,0-17.5017-2.4013,74.0205,74.0205,0,0,0-8.8448.5217,61.3007,61.3007,0,0,0-8.7269,1.639,61.9654,61.9654,0,0,0-8.4389,2.8285,50.0513,50.0513,0,0,0-7.8815,4.0468l-.0489.0321a.8128.8128,0,0,1-.9233-1.3373Z" transform="translate(-113.5088 -96.6518)" style="fill:#fff;opacity:0.71"/><path d="M216.1333,527.5636a25.8263,25.8263,0,0,0,5.6766-2.1391c.9237-.4235,1.7877-.9636,2.664-1.4691.8571-.5388,1.6846-1.1258,2.5048-1.7105a35.4168,35.4168,0,0,0,8.1957-8.7681,45.7643,45.7643,0,0,0,5.0587-10.8774c.2965-.9593.5158-1.9475.7786-2.9177l.7746-3.0061.4074-1.5994.5034-1.5538c.3158-1.047.7173-2.0516,1.1181-3.0577a61.7164,61.7164,0,0,1,6.0885-11.3972,61.0935,61.0935,0,0,1,8.2626-9.9881,50.3087,50.3087,0,0,1,10.542-7.7982c.9928-.49,1.9425-1.0639,2.9753-1.4785l3.1018-1.2379,3.2307-.9033a11.0623,11.0623,0,0,1,1.6453-.33l1.6618-.26a20.4252,20.4252,0,0,1,3.3484-.2785,19.9485,19.9485,0,0,1,3.357.0319c1.1125.1105,2.2392.1436,3.3382.3278l3.2748.6749a43.0847,43.0847,0,0,1,12.0917,5.1689A76.3457,76.3457,0,0,1,325.8077,480.1c.6773.8167,1.3807,1.6136,2.0346,2.4461l1.8925,2.5468c1.2428,1.7094,2.568,3.3641,3.6762,5.1586l3.4533,5.2933c1.1082,1.7879,2.1484,3.615,3.1969,5.4357,2.1643,3.6041,3.9676,7.3977,5.9239,11.1,1.8927,3.7357,3.566,7.5779,5.31,11.3744a.6561.6561,0,0,1-1.1666.598l-.0141-.0248-3.0625-5.4425c-1.0315-1.8058-1.9525-3.6706-3.05-5.4358-2.1691-3.5423-4.184-7.1738-6.5386-10.584a160.0977,160.0977,0,0,0-14.765-19.7954c-5.4264-6.105-11.4482-11.7289-18.3523-15.7255-.8706-.4769-1.7065-1.0337-2.6026-1.448l-2.7012-1.2052a18.1978,18.1978,0,0,0-2.7528-1.023l-1.3934-.4553a7.7565,7.7565,0,0,0-1.4081-.3819l-2.853-.5736c-.9547-.1564-1.9233-.1669-2.8832-.2633a16.03,16.03,0,0,0-2.8856-.0107,16.4022,16.4022,0,0,0-2.8728.2534l-1.4262.2308a8.5655,8.5655,0,0,0-1.4147.29l-2.7946.7713-2.7146,1.06c-.907.35-1.7509.862-2.6317,1.2816a45.5207,45.5207,0,0,0-9.5584,6.9536,62.2759,62.2759,0,0,0-13.8286,19.5468c-.406.9162-.8152,1.8327-1.1355,2.773l-.5162,1.402-.4165,1.4174-.9007,3.0189c-.3234,1.0294-.591,2.0733-.9621,3.0867a49.06,49.06,0,0,1-6.0665,11.4357c-5.2016,6.9208-12.8083,12.1158-21.3459,13.413a.5311.5311,0,0,1-.203-1.0418Z" transform="translate(-113.5088 -96.6518)" style="fill:#fff;opacity:0.71"/><path d="M661.95,669.2431a2.229,2.229,0,0,1,1.6746-3.5385c19.69-.7691,101.98-8.2973,98.4958-80.4644-3.956-81.9468-10.0886-105.2452,28.2463-133.3543,34.9017-25.592,65.6579-22.272,89.6331-10.6013a1.7851,1.7851,0,0,1-.77,3.3807c-16.007-.0589-52.6768,2.7679-66.1357,28.7228-17.4293,33.6108-15.5987,117.0608-51.3129,156.4427-35.2841,38.9073-65.569,37.8458-97.9414,40.2894a2.1351,2.1351,0,0,1-1.8895-.8771Z" transform="translate(-113.5088 -96.6518)" style="opacity:0.6000000000000001;fill:url(#b69b9040-0804-4db3-9399-4d5aaaebf680)"/><path d="M960.3242,532.4428a3.0891,3.0891,0,0,0,1.2377-5.012c-4.1647-4.43-11.1717-13.5394-15.796-28.3768-4.6371-14.879-18.24-47.8592-60.0481-48.1193s-68.9509,68.1459-90.6326,136.4782-105.458,78.39-105.458,78.39l-22.75,4.097s77.5014,2.3679,116.38-44.4142,50.4081-128.5919,96.1934-118.3259C923.4013,517.0138,924.3105,544.6857,960.3242,532.4428Z" transform="translate(-113.5088 -96.6518)" style="fill:url(#f0083571-d54c-4215-9caf-8746de863d82)"/><path d="M952.5364,613.52a2.63,2.63,0,0,0,3.8673-3.1453c-4.8578-13.6822-17.2452-39.5506-42.4232-43.728-34.5072-5.7257-62.78,4.9934-106.4521,54.3133-42.4476,47.9373-119.2154,52.585-139.0768,49.2477a1.9368,1.9368,0,0,0-2.14,1.2786h0a1.95,1.95,0,0,0,1.5263,2.6045c14.02,1.9987,87.8385,11.6335,128.4463-.7774C838.92,660.2823,911.9737,587.1871,952.5364,613.52Z" transform="translate(-113.5088 -96.6518)" style="opacity:0.6000000000000001;fill:url(#ae404e46-c877-46d6-977f-6d61b150e32b)"/><path d="M935.9107,592.4391a56.0645,56.0645,0,0,0-16.6028-8,66.0932,66.0932,0,0,0-18.2411-2.9263,79.5921,79.5921,0,0,0-35.8356,8.2956,108.4938,108.4938,0,0,0-15.8417,9.4855l-3.7138,2.7344-3.5718,2.9067-1.7839,1.4558-1.7132,1.5335-3.4212,3.0729c-2.2032,2.1137-4.3926,4.2952-6.5443,6.4168l-6.39,6.3575-3.1948,3.18c-1.0951,1.0259-2.2207,2.017-3.3294,3.0274l-6.6772,6.0369a192.0772,192.0772,0,0,1-29.2265,20.7185A125.6172,125.6172,0,0,1,746.54,669.5416c-11.6566,2.6929-23.6842,3.6126-35.7189,3.9731-12.0487.34-24.141-.0111-36.2357-.2036a.4893.4893,0,0,0-.04.9775c12.0731.772,24.1626,1.4325,36.3039,1.51a174.6445,174.6445,0,0,0,36.3579-3.19,122.6986,122.6986,0,0,0,34.4285-12.5676,195.9365,195.9365,0,0,0,30.0581-20.9228l6.8325-6.0726c1.1345-1.0165,2.2873-2.0154,3.4069-3.0471l3.2623-3.1915L838.1217,614.13c8.7394-8.101,18.2943-15.3825,28.8919-20.6987a88.6172,88.6172,0,0,1,16.5311-6.3217,71.3909,71.3909,0,0,1,17.5016-2.4013,74.0193,74.0193,0,0,1,8.8448.5217,61.3007,61.3007,0,0,1,8.7271,1.639,61.9628,61.9628,0,0,1,8.4387,2.8285,50.0469,50.0469,0,0,1,7.8815,4.0468l.0489.0321a.8128.8128,0,0,0,.9234-1.3373Z" transform="translate(-113.5088 -96.6518)" style="fill:#fff;opacity:0.71"/><path d="M958.0617,527.5636a25.8236,25.8236,0,0,1-5.6765-2.1391c-.9237-.4235-1.7878-.9636-2.664-1.4691-.8571-.5388-1.6847-1.1258-2.5049-1.7105a35.4187,35.4187,0,0,1-8.1957-8.7681,45.764,45.764,0,0,1-5.0586-10.8774c-.2966-.9593-.5159-1.9475-.7786-2.9177l-.7747-3.0061-.4072-1.5994-.5035-1.5538c-.3159-1.047-.7173-2.0516-1.1181-3.0577a64.6652,64.6652,0,0,0-14.351-21.3853,50.3151,50.3151,0,0,0-10.5422-7.7982c-.9927-.49-1.9424-1.0639-2.9751-1.4785l-3.1019-1.2379-3.2306-.9033a11.0687,11.0687,0,0,0-1.6454-.33l-1.6618-.26a20.427,20.427,0,0,0-3.3484-.2785,19.95,19.95,0,0,0-3.3571.0319c-1.1125.1105-2.2391.1436-3.3381.3278l-3.2748.6749a43.0865,43.0865,0,0,0-12.0918,5.1689A76.3435,76.3435,0,0,0,848.3874,480.1c-.6773.8167-1.3807,1.6136-2.0347,2.4461L844.46,485.093c-1.2426,1.7094-2.5679,3.3641-3.6761,5.1586l-3.4533,5.2933c-1.1082,1.7879-2.1485,3.615-3.197,5.4357-2.1643,3.6041-3.9675,7.3977-5.9239,11.1-1.8926,3.7357-3.5659,7.5779-5.31,11.3744a.6561.6561,0,0,0,1.1667.598l.0139-.0248,3.0625-5.4425c1.0316-1.8058,1.9526-3.6706,3.05-5.4358,2.1691-3.5423,4.1841-7.1738,6.5386-10.584a160.0985,160.0985,0,0,1,14.7651-19.7954c5.4263-6.105,11.4481-11.7289,18.3522-15.7255.8706-.4769,1.7066-1.0337,2.6026-1.448l2.7012-1.2052a18.1989,18.1989,0,0,1,2.7529-1.023l1.3934-.4553a7.7555,7.7555,0,0,1,1.408-.3819l2.853-.5736c.9548-.1564,1.9233-.1669,2.8832-.2633a16.0315,16.0315,0,0,1,2.8857-.0107,16.4,16.4,0,0,1,2.8727.2534l1.4262.2308a8.5688,8.5688,0,0,1,1.4148.29l2.7945.7713,2.7146,1.06c.9071.35,1.751.862,2.6317,1.2816a45.5182,45.5182,0,0,1,9.5584,6.9536A62.2746,62.2746,0,0,1,926.57,492.0716c.406.9162.8152,1.8327,1.1355,2.773l.5161,1.402.4166,1.4174.9008,3.0189c.3233,1.0294.5908,2.0733.9619,3.0867a49.0638,49.0638,0,0,0,6.0665,11.4357c5.2016,6.9208,12.8084,12.1158,21.3459,13.413a.5311.5311,0,0,0,.203-1.0418Z" transform="translate(-113.5088 -96.6518)" style="fill:#fff;opacity:0.71"/></g><path d="M827.445,464.3193c0,132.0121-107.0171,239.0289-239.0289,239.0289S343.4747,591.6552,343.4747,459.6434,456.4041,225.29,588.4161,225.29,827.445,332.3076,827.445,464.3193Z" transform="translate(-113.5088 -96.6518)" style="fill:url(#a74e86bb-cf3d-417e-9a9c-5fc7fbc284c6)"/><path d="M362.2412,405.05a.4873.4873,0,0,1-.1289-.0166.5006.5006,0,0,1-.355-.6123,214.5764,214.5764,0,0,1,9.7124-28.3247.5.5,0,0,1,.9209.39,213.568,213.568,0,0,0-9.6665,28.1929A.5.5,0,0,1,362.2412,405.05Z" transform="translate(-113.5088 -96.6518)" style="fill:#fff"/><path d="M398.77,330.353a.5.5,0,0,1-.3989-.8012c44.07-58.44,115.0615-93.3291,189.9033-93.3291a226.4549,226.4549,0,0,1,91.8623,19.2534.5.5,0,1,1-.4033.915,225.4681,225.4681,0,0,0-91.459-19.1684c-74.53,0-145.2231,34.7407-189.1045,92.9316A.5007.5007,0,0,1,398.77,330.353Z" transform="translate(-113.5088 -96.6518)" style="fill:#fff"/><path d="M794.9245,464.3193c0,114.2712-92.635,206.9057-206.9058,206.9057S375.9952,574.5426,375.9952,460.2718,473.748,257.4136,588.0187,257.4136,794.9245,350.0485,794.9245,464.3193Z" transform="translate(-113.5088 -96.6518)" style="fill:url(#ad4d2881-8aa8-44a0-a93a-a2e64bdc73f6)"/><path d="M794.9241,464.3193c0-114.2708-92.6346-206.9057-206.9057-206.9057-61.8776,0-118.9024,25.9852-158.1947,67.9491L589.21,457.98l32.7657,210.4556C720.0886,652.2341,794.9241,567.0235,794.9241,464.3193Z" transform="translate(-113.5088 -96.6518)" style="fill:url(#a7a0c879-3e7e-4822-b161-cc5c6a507158)"/><path d="M766.762,449.9354c0,103.127-85.338,186.7283-190.6078,186.7283S380.8318,549.41,380.8318,446.2825,470.8846,263.207,576.1542,263.207,766.762,346.8079,766.762,449.9354Z" transform="translate(-113.5088 -96.6518)" style="fill:url(#affc8259-c481-4ce0-8f29-7aa1f6495e63)"/><path d="M428.8711,453.5878a15.93,15.93,0,1,1-14.977-16.828A15.93,15.93,0,0,1,428.8711,453.5878Z" transform="translate(-113.5088 -96.6518)" style="fill:#fff;opacity:0.78"/><path d="M773.0189,473.6187a15.93,15.93,0,1,1-14.9773-16.828A15.93,15.93,0,0,1,773.0189,473.6187Z" transform="translate(-113.5088 -96.6518)" style="fill:#fff;opacity:0.78"/><path d="M556.9342,616.5674a15.93,15.93,0,1,1-18.5326,12.8082A15.93,15.93,0,0,1,556.9342,616.5674Z" transform="translate(-113.5088 -96.6518)" style="fill:#fff;opacity:0.78"/><path d="M618.8748,277.4476a15.9294,15.9294,0,1,1-18.5326,12.8082A15.9292,15.9292,0,0,1,618.8748,277.4476Z" transform="translate(-113.5088 -96.6518)" style="fill:#fff;opacity:0.78"/><path d="M670.1837,625.6723c1.6189,4.0842,1.2144,7.9083-.9033,8.5417s-5.1473-2.1642-6.7658-6.2481-1.2141-7.9087.9034-8.5421S668.5651,621.5883,670.1837,625.6723Z" transform="translate(-113.5088 -96.6518)" style="fill:#fff;opacity:0.78"/><path d="M531.7331,304.0169c1.6187,4.0842,1.2141,7.9084-.9037,8.5418s-5.1469-2.1641-6.7657-6.248-1.2145-7.9087.9034-8.5422S530.1143,299.9331,531.7331,304.0169Z" transform="translate(-113.5088 -96.6518)" style="fill:#fff;opacity:0.78"/><path d="M742.4736,564.5264c3.5043,2.65,5.144,6.1284,3.6628,7.7693s-5.5224.823-9.0266-1.8266-5.1436-6.1289-3.6627-7.77S738.97,561.8766,742.4736,564.5264Z" transform="translate(-113.5088 -96.6518)" style="fill:#fff;opacity:0.78"/><path d="M457.1375,361.5139c3.504,2.65,5.1441,6.1284,3.6629,7.7692s-5.5227.8231-9.0266-1.827-5.144-6.1284-3.6627-7.7693S453.6333,358.8641,457.1375,361.5139Z" transform="translate(-113.5088 -96.6518)" style="fill:#fff;opacity:0.78"/><path d="M751.5528,382.4006c3.9668-1.8885,7.81-1.741,8.5832.33s-1.8142,5.28-5.781,7.1691-7.81,1.741-8.5831-.33S747.5865,384.29,751.5528,382.4006Z" transform="translate(-113.5088 -96.6518)" style="fill:#fff;opacity:0.78"/><path d="M439.8923,542.0833c3.9668-1.8888,7.81-1.741,8.5831.3295s-1.8145,5.2805-5.7809,7.1691-7.81,1.741-8.5832-.3294S435.926,543.9718,439.8923,542.0833Z" transform="translate(-113.5088 -96.6518)" style="fill:#fff;opacity:0.78"/><path d="M685.7032,314.3687c2.4091-3.6741,5.77-5.5432,7.5064-4.1752s1.1907,5.4551-1.2183,9.1289-5.77,5.5427-7.5065,4.1748S683.2938,318.0421,685.7032,314.3687Z" transform="translate(-113.5088 -96.6518)" style="fill:#fff;opacity:0.78"/><path d="M502.2562,612.66c2.4093-3.6733,5.77-5.5424,7.5066-4.1744s1.1908,5.4547-1.2186,9.1284-5.77,5.5429-7.5064,4.1749S499.8471,616.3343,502.2562,612.66Z" transform="translate(-113.5088 -96.6518)" style="fill:#fff;opacity:0.78"/><path d="M660.9719,206.2365V194.8227l11.7187-10.8056c23.285-21.6106,34.2426-33.4813,34.3945-46.57,0-8.8268-4.7181-16.5886-17.6538-16.5886-8.6745,0-16.132,4.4137-21.1544,8.2186l-5.4787-13.2406c7.153-5.7831,17.9586-10.1968,30.4375-10.1968,21.915,0,32.5688,13.8493,32.5688,29.9812,0,17.3494-12.48,31.3507-29.6769,47.33l-8.6745,7.4575v.3044H728.087v15.5231Z" transform="translate(-113.5088 -96.6518)" style="fill:url(#e8bbd183-d9e0-4438-9665-96d3d2b0d38c)"/><path d="M783.79,206.2365V181.1253H739.0465V168.95l40.33-61.6358h22.067v59.6576h12.7838v14.1532H801.4435v25.1112Zm0-39.2644v-26.937c0-5.6312.1519-11.4143.6088-17.1975H783.79c-3.0438,6.24-5.6307,11.2619-8.6745,16.7407l-18.11,27.0894-.1519.3044Z" transform="translate(-113.5088 -96.6518)" style="fill:url(#fed181a6-bbaa-4071-9cfc-9528b06baefe)"/><path d="M818.7949,212.3241l37.1339-110.3364h13.0881L831.8831,212.3241Z" transform="translate(-113.5088 -96.6518)" style="fill:url(#ab720e00-52e7-4a05-8fb6-3481a295fd5f)"/><path d="M943.437,107.3145v12.0231l-41.8519,86.8989H881.8013L923.5,123.1421v-.3045H876.9312V107.3145Z" transform="translate(-113.5088 -96.6518)" style="fill:url(#b5c3d2f8-851a-4b25-9caf-61a8eb490316)"/><path d="M266.6038,163.81s-52.685-14.2391-58.3806,45.0908c0,0,1.8985,45.0908,58.3806,37.4966,0,0-27.529-10.9168-27.0545-43.6669S266.6038,163.81,266.6038,163.81Z" transform="translate(-113.5088 -96.6518)" style="fill:url(#eec57f38-d16c-406e-ac23-5cd17d622673)"/><circle cx="999.8045" cy="173.2116" r="37.9101" transform="translate(56.8481 661.0492) rotate(-45)" style="fill:url(#f71c8e61-d63c-4bfe-b4ba-c859899d4d65)"/><path d="M283.6625,237.091c2.4035-14.27-10.3424-35.5414-37.0283-19.4288-.2484-6.8536-30.8264-30.2838-48.6006,13.2084-1.8155-10.981-25.3912-7.2046-30.7812,10.7593-8.4264-5.1228-30.9193,16.0216-3.4024,21.89,35.14,7.4936,116.506,11.7893,132.72-11.8894S283.6625,237.091,283.6625,237.091Z" transform="translate(-113.5088 -96.6518)" style="opacity:0.29;fill:url(#e8fcd7ae-c053-40a8-b72d-45510076cb64)"/><path d="M419.3271,297.4885c1.9767-11.736-8.5061-29.231-30.4539-15.9792-.2043-5.6368-25.3531-24.9069-39.9715,10.8632-1.4932-9.0313-20.883-5.9254-25.316,8.849-6.93-4.2133-25.43,13.1769-2.7983,18.003,28.901,6.1631,95.82,9.6962,109.1556-9.7784S419.3271,297.4885,419.3271,297.4885Z" transform="translate(-113.5088 -96.6518)" style="opacity:0.29;fill:url(#effaa26d-b98f-42b1-8b90-3de55dfa59e8)"/><path d="M879.1533,239.034c1.7539-10.4128-7.5471-25.9355-27.02-14.1777-.1813-5.0012-22.4948-22.0988-35.4651,9.6385-1.3248-8.0131-18.5286-5.2573-22.4618,7.8514-6.149-3.7383-22.5626,11.6913-2.4828,15.9733,25.6426,5.4683,85.0174,8.603,96.8493-8.676S879.1533,239.034,879.1533,239.034Z" transform="translate(-113.5088 -96.6518)" style="opacity:0.29;fill:url(#a0d4a49c-35e1-4196-aa4c-c38ee1739694)"/><path d="M1071.8356,276.9949c1.9767-11.736-8.5061-29.231-30.454-15.9792-.2043-5.6368-25.3531-24.9069-39.9715,10.8632-1.4931-9.0313-20.883-5.9254-25.316,8.849-6.93-4.2133-25.43,13.1769-2.7983,18.003,28.901,6.1631,95.82,9.6962,109.1557-9.7784S1071.8356,276.9949,1071.8356,276.9949Z" transform="translate(-113.5088 -96.6518)" style="opacity:0.29;fill:url(#b2469e17-9801-4d4b-867f-5a896e33dcad)"/><polygon points="489.495 64.767 491.659 76.487 498.667 69.983 489.495 64.767" style="fill:url(#a2041ba8-a15f-4493-80ae-fe9acc7a9203)"/><path d="M654.4666,144.9606l-26.5259,33.6071a3.0163,3.0163,0,0,1-4.3243.4269l-32.7391-27.9039a1.2091,1.2091,0,0,1,.7075-2.1268Z" transform="translate(-113.5088 -96.6518)" style="fill:url(#e40e61cd-1ac1-4919-98e3-1b09756dcfb7)"/><polygon points="489.499 64.767 540.958 48.309 494.769 69.287 495.231 72.563 489.499 64.767" style="fill:url(#b67778dd-89ff-42cf-ac14-3fe3d31282d4)"/><polygon points="497.913 71.943 491.659 76.487 494.769 69.287 497.913 71.943" style="fill:url(#b45f06f1-c541-423e-97c0-11544005eaf1)"/><path d="M600.5266,177.25c-.7474.4462-1.4767.8432-2.2246,1.24q-1.1178.59-2.2516,1.1421a.7612.7612,0,0,1-.6679-1.3681q1.1125-.5442,2.2061-1.1221c.7238-.385,1.4577-.7871,2.1408-1.1963l.0129-.0076a.7641.7641,0,0,1,.785,1.3111Z" transform="translate(-113.5088 -96.6518)" style="fill:#ce41a4"/><path d="M591.4575,181.7114q-2.3236.9756-4.6968,1.8264a.7554.7554,0,0,1-.5106-1.4218q2.3331-.84,4.6193-1.8025a.7584.7584,0,1,1,.5891,1.3977Z" transform="translate(-113.5088 -96.6518)" style="fill:#ce41a4"/><path d="M581.9716,185.1091q-2.4159.7192-4.8711,1.3008a.75.75,0,0,1-.3455-1.459q2.41-.5724,4.7861-1.2842a.7527.7527,0,0,1,.4314,1.4422Z" transform="translate(-113.5088 -96.6518)" style="fill:#ce41a4"/><path d="M572.1572,187.42q-2.4873.4273-5.0011.6916a.7439.7439,0,0,1-.155-1.48q2.4608-.2593,4.9022-.6838a.7467.7467,0,1,1,.2548,1.4716Z" transform="translate(-113.5088 -96.6518)" style="fill:#ce41a4"/><path d="M562.1157,188.4556q-2.5266.08-5.0563-.034a.7382.7382,0,0,1,.0672-1.4748q2.4678.111,4.9412.0273a.7412.7412,0,0,1,.0487,1.4815Z" transform="translate(-113.5088 -96.6518)" style="fill:#ce41a4"/><path d="M552.0184,187.98q-2.51-.327-4.9871-.8738a.7325.7325,0,0,1,.3162-1.43q2.4089.531,4.86.8459a.7353.7353,0,1,1-.1884,1.4585Z" transform="translate(-113.5088 -96.6518)" style="fill:#ce41a4"/><path d="M542.1415,185.7839c-1.6055-.5166-3.1835-1.0891-4.749-1.6931a.7267.7267,0,1,1,.5233-1.3559c1.5448.594,3.1022,1.1567,4.6705,1.6594a.73.73,0,1,1-.4427,1.39Z" transform="translate(-113.5088 -96.6518)" style="fill:#ce41a4"/><path d="M532.74,182.1748l-4.568-2.1086a.7208.7208,0,1,1,.6042-1.3089l.027.0125,4.5153,2.0779.0273.0127a.7236.7236,0,1,1-.6051,1.3146Z" transform="translate(-113.5088 -96.6518)" style="fill:#ce41a4"/><path d="M523.7019,177.76q-2.21-1.2078-4.3563-2.5344A.7153.7153,0,0,1,520.1,174.01q2.107,1.3047,4.29,2.4895a.7181.7181,0,0,1-.6871,1.2612Z" transform="translate(-113.5088 -96.6518)" style="fill:#ce41a4"/><path d="M515.148,172.418c-1.3657-.9893-2.6949-2.0349-3.9651-3.1568a.7094.7094,0,0,1,.939-1.0637c1.23,1.084,2.5255,2.1011,3.8609,3.0659a.7123.7123,0,0,1-.8339,1.1551Z" transform="translate(-113.5088 -96.6518)" style="fill:#ce41a4"/><path d="M507.5966,165.6379a22.4889,22.4889,0,0,1-2.8962-4.2624.7037.7037,0,1,1,1.2533-.64,21.08,21.08,0,0,0,2.72,3.9883.7066.7066,0,1,1-1.0763.9158Z" transform="translate(-113.5088 -96.6518)" style="fill:#ce41a4"/><path d="M503.162,156.376a11.8188,11.8188,0,0,1,.0279-2.6519,11.9566,11.9566,0,0,1,.2367-1.3056,12.249,12.249,0,0,1,.3812-1.2823.6979.6979,0,0,1,1.3144.47l-.0082.0232a11.0238,11.0238,0,0,0-.3281,1.1135,10.5454,10.5454,0,0,0-.2077,1.1531,10.4134,10.4134,0,0,0-.0218,2.3372.7008.7008,0,1,1-1.3942.1443Z" transform="translate(-113.5088 -96.6518)" style="fill:#ce41a4"/><path d="M507.5422,147.2629a16.0947,16.0947,0,0,1,4.9285-1.6853.6923.6923,0,1,1,.24,1.3636,14.7251,14.7251,0,0,0-4.4958,1.5383.6952.6952,0,0,1-.6779-1.2139Z" transform="translate(-113.5088 -96.6518)" style="fill:#ce41a4"/><path d="M517.6877,145.5142a8.5555,8.5555,0,0,1,2.57.86,5.6144,5.6144,0,0,1,1.155.8225,8.7235,8.7235,0,0,1,.9214.9949.6865.6865,0,0,1-1.0777.8506,7.3425,7.3425,0,0,0-.7775-.8369,4.2214,4.2214,0,0,0-.8778-.6221,7.1975,7.1975,0,0,0-2.1554-.7114.6894.6894,0,0,1,.2366-1.3584Z" transform="translate(-113.5088 -96.6518)" style="fill:#ce41a4"/><path d="M524.0671,153.25a15.0721,15.0721,0,0,1-.9365,5.1294.6808.6808,0,1,1-1.2868-.4448,13.7432,13.7432,0,0,0,.8564-4.6589.6836.6836,0,1,1,1.3669-.0305Z" transform="translate(-113.5088 -96.6518)" style="fill:#ce41a4"/><path d="M521.0049,163.0374a30.5257,30.5257,0,0,1-2.897,4.2063.675.675,0,0,1-1.0456-.8538,29.1664,29.1664,0,0,0,2.7643-4.0232.6779.6779,0,0,1,1.1788.67Z" transform="translate(-113.5088 -96.6518)" style="fill:#ce41a4"/><path d="M514.5985,170.9355a41.8442,41.8442,0,0,1-3.9582,3.1829.6692.6692,0,0,1-.7766-1.09,40.5135,40.5135,0,0,0,3.828-3.0849.6721.6721,0,1,1,.9074.9917Z" transform="translate(-113.5088 -96.6518)" style="fill:#ce41a4"/><path d="M506.3676,176.8384q-2.1978,1.2543-4.4912,2.3169a.6635.6635,0,0,1-.5618-1.2022q2.2421-1.0491,4.3917-2.2717a.6663.6663,0,1,1,.662,1.1565Z" transform="translate(-113.5088 -96.6518)" style="fill:#ce41a4"/><path d="M497.2331,181.127c-.7814.3083-1.5786.5761-2.3747.8466l-2.3867.8157a.6575.6575,0,0,1-.4252-1.2444l.0327-.0112,2.3437-.8042c.7817-.2666,1.5644-.53,2.3335-.8347a.6605.6605,0,1,1,.4865,1.2282l-.0008.0005Z" transform="translate(-113.5088 -96.6518)" style="fill:#ce41a4"/><path d="M487.6125,184.1326q-2.45.5928-4.9324,1.0332a.652.652,0,0,1-.2293-1.2837q2.4418-.4377,4.8528-1.0222a.6548.6548,0,1,1,.31,1.2724Z" transform="translate(-113.5088 -96.6518)" style="fill:#ce41a4"/><path d="M477.6987,185.9063q-2.5.3006-5.0107.4709a.6463.6463,0,0,1-.0892-1.29q2.4783-.1728,4.944-.47a.6492.6492,0,0,1,.1566,1.2889Z" transform="translate(-113.5088 -96.6518)" style="fill:#ce41a4"/><path d="M467.6639,186.605l-5.0255.0134a.64.64,0,1,1-.0034-1.2808h.0241l4.9744-.019.0262,0a.6433.6433,0,0,1,.0049,1.2866Z" transform="translate(-113.5088 -96.6518)" style="fill:#ce41a4"/><path d="M457.62,186.4468l-5.0072-.3279a.6347.6347,0,1,1,.083-1.2666l.0167.0012,4.9714.32.0187.0013a.6375.6375,0,1,1-.0819,1.2724Z" transform="translate(-113.5088 -96.6518)" style="fill:#ce41a4"/><path d="M447.6192,185.6624l-4.98-.5586a.6289.6289,0,1,1,.14-1.25l.01.0009,4.9581.5506.0118.0012a.6318.6318,0,1,1-.1394,1.2559Z" transform="translate(-113.5088 -96.6518)" style="fill:#ce41a4"/><path d="M437.6714,184.4683l-4.9576-.6878a.6232.6232,0,1,1,.1752-1.2341l4.9482.6807.0056.0009a.6261.6261,0,0,1-.1707,1.24Z" transform="translate(-113.5088 -96.6518)" style="fill:#ce41a4"/><path d="M427.7632,183.064l-4.9469-.7224a.6176.6176,0,1,1,.1767-1.2225l4.949.7171a.62.62,0,1,1-.1779,1.2278Z" transform="translate(-113.5088 -96.6518)" style="fill:#ce41a4"/><path d="M417.87,181.6362l-4.9492-.665-.0068-.001a.6117.6117,0,0,1,.1622-1.2126l4.9627.6611a.6146.6146,0,1,1-.1623,1.2185l-.0007,0Z" transform="translate(-113.5088 -96.6518)" style="fill:#ce41a4"/><path d="M407.9661,180.37l-4.9614-.5132-.0127-.0012a.606.606,0,0,1,.124-1.2056l4.9864.51a.6089.6089,0,1,1-.1239,1.2114h-.0007Z" transform="translate(-113.5088 -96.6518)" style="fill:#ce41a4"/><path d="M398.036,179.457l-4.9748-.26-.019-.001a.6.6,0,0,1,.062-1.1987l5.012.2561a.6031.6031,0,0,1-.0615,1.2046h-.0007Z" transform="translate(-113.5088 -96.6518)" style="fill:#ce41a4"/><path d="M388.0838,179.104l-4.974.1016-.0255.0007a.5944.5944,0,0,1-.025-1.1885l5.0239-.1086a.5973.5973,0,1,1,.0257,1.1943h-.0006Z" transform="translate(-113.5088 -96.6518)" style="fill:#ce41a4"/><path d="M378.1483,179.53c-1.6494.1587-3.2986.3579-4.9482.5347l-.023.0024a.58.58,0,0,1-.1263-1.1523c1.6638-.1863,3.3229-.4,4.991-.5633a.5917.5917,0,0,1,.1155,1.1778h-.0011Z" transform="translate(-113.5088 -96.6518)" style="fill:#ce41a4"/><path d="M368.2794,180.7986q-2.45.4233-4.8734.9734a.5532.5532,0,0,1-.2494-1.0779q2.45-.5734,4.9268-1.0115a.5665.5665,0,0,1,.1989,1.1155Z" transform="translate(-113.5088 -96.6518)" style="fill:#ce41a4"/><path d="M358.6022,183.0264q-2.3794.7046-4.7021,1.5783a.5266.5266,0,0,1-.3752-.9841q2.3533-.9045,4.768-1.6287a.54.54,0,0,1,.3121,1.0337Z" transform="translate(-113.5088 -96.6518)" style="fill:#ce41a4"/><path d="M349.343,186.5476q-2.2285,1.0664-4.3493,2.3369a.5.5,0,0,1-.5177-.8557q2.1516-1.3095,4.4214-2.406a.5133.5133,0,1,1,.4481.9236Z" transform="translate(-113.5088 -96.6518)" style="fill:#ce41a4"/><path d="M677.7423,497.9524a7.672,7.672,0,0,0-8.0544,3.5655q-1.7488,2.8838-3.7237,5.6817a96.5705,96.5705,0,0,1-155.8576,2.5587l-44.3376,18.82a143.7563,143.7563,0,0,0,238.68,5.8126,145.5791,145.5791,0,0,0,11.3638-18.9847,7.6686,7.6686,0,0,0-5.3589-10.953C699.8549,502.3473,688.776,500.1456,677.7423,497.9524Z" transform="translate(-113.5088 -96.6518)" style="fill:url(#a68d4e0a-e755-4211-86b9-1040fdf430d6)"/><path d="M528.9738,528.2747l-55.6424,24.1734a11.4832,11.4832,0,0,1-16.0422-11.15l3.6477-67.7291a11.4832,11.4832,0,0,1,18.8405-8.1852L531.7722,508.94A11.4833,11.4833,0,0,1,528.9738,528.2747Z" transform="translate(-113.5088 -96.6518)" style="fill:url(#a51e79c6-4227-4175-a836-5b74bfa9bd31)"/><path d="M499.5794,399.141a7.6968,7.6968,0,0,0,8.6692-2.7489,96.4382,96.4382,0,0,1,134.1334-20.79c12.3005-11.3324,24.3352-22.4207,35.1845-32.4185a143.9955,143.9955,0,0,0-138.4647-25.23,142.5581,142.5581,0,0,0-74.8818,59.34,7.6521,7.6521,0,0,0,4.0931,11.3022C477.241,391.5708,487.6907,395.095,499.5794,399.141Z" transform="translate(-113.5088 -96.6518)" style="fill:url(#e72b9ba0-ebb5-46e3-bdf9-cf6b35562432)"/><path d="M623.5023,364.4543l46.332-39.1635a11.4832,11.4832,0,0,1,18.5722,6.0615l15.9975,65.9138a11.4831,11.4831,0,0,1-15.688,13.2607l-62.33-26.75A11.4832,11.4832,0,0,1,623.5023,364.4543Z" transform="translate(-113.5088 -96.6518)" style="fill:url(#fa44d691-1964-47fd-b4b6-6ccf83e4b356)"/><path d="M975.8965,312.7227a.9984.9984,0,0,1-.8277-.4375c-.7338-1.0782-1.5053-2.1636-2.2929-3.2251a1,1,0,1,1,1.6064-1.1914c.8032,1.0834,1.5908,2.1909,2.34,3.2915a1,1,0,0,1-.8257,1.5625Z" transform="translate(-113.5088 -96.6518)" style="fill:#eac4f9"/><path d="M892.3018,469.23h-.0083c-2.6216-.0215-5.2754-.1484-7.8887-.376a1,1,0,1,1,.1738-1.9922c2.561.2237,5.1621.3467,7.7315.3682a1,1,0,0,1-.0083,2Zm12.68-.708a1,1,0,0,1-.1181-1.9932c2.5493-.3066,5.1216-.7187,7.6445-1.2236a1,1,0,1,1,.3926,1.9609c-2.5737.5157-5.1973.9356-7.7979,1.249A1.0081,1.0081,0,0,1,904.9814,468.5215Zm19.9957-4.5059a1,1,0,0,1-.3174-1.9482c2.4443-.8184,4.88-1.7393,7.24-2.7373a1,1,0,1,1,.7793,1.8418c-2.4072,1.0185-4.8916,1.958-7.3843,2.792A1.003,1.003,0,0,1,924.9771,464.0156Zm18.6684-8.4472a1,1,0,0,1-.5044-1.8643c2.2168-1.292,4.4126-2.69,6.5259-4.1553a1,1,0,1,1,1.14,1.6426c-2.1562,1.4961-4.3964,2.9229-6.6587,4.2412A.999.999,0,0,1,943.6455,455.5684Zm16.5361-12.084a1,1,0,0,1-.67-1.7422c1.9034-1.7178,3.7671-3.5361,5.5381-5.4053a1,1,0,0,1,1.4522,1.375c-1.8072,1.9072-3.7085,3.7627-5.65,5.5147A.9954.9954,0,0,1,960.1816,443.4844Zm13.7212-15.2119a1.0007,1.0007,0,0,1-.8061-1.5909c1.518-2.0742,2.9731-4.2343,4.3247-6.42a1,1,0,0,1,1.7012,1.0528c-1.3789,2.2285-2.8633,4.4326-4.4117,6.5488A.9988.9988,0,0,1,973.9028,428.2725Zm10.3545-17.6846a.9995.9995,0,0,1-.9092-1.415c1.0674-2.3409,2.0547-4.751,2.9346-7.1622a1,1,0,0,1,1.8789.6856c-.8974,2.46-1.9048,4.918-2.9941,7.3066A.9991.9991,0,0,1,984.2573,410.5879Zm6.5562-19.4175a1,1,0,0,1-.9761-1.2212c.5689-2.5078,1.0449-5.0683,1.415-7.61a1,1,0,0,1,1.98.288c-.3779,2.5933-.8637,5.2056-1.4443,7.7642A1,1,0,0,1,990.8135,391.17Zm2.4536-20.3506H993.25a1,1,0,0,1-.9834-1.0166q.0139-.824.0142-1.6489c0-2.0288-.0645-4.08-.1895-6.0952a1,1,0,1,1,1.9961-.124c.1279,2.0561.1929,4.1489.1934,6.2192q0,.8415-.0142,1.6821A1,1,0,0,1,993.2671,370.82Zm-1.771-20.4233a1.0007,1.0007,0,0,1-.9815-.812c-.4814-2.5161-1.07-5.0537-1.75-7.543a1,1,0,0,1,1.93-.5264c.6929,2.5381,1.2935,5.127,1.7847,7.6934a1.0015,1.0015,0,0,1-.9834,1.188Zm-5.8687-19.6382a1.0014,1.0014,0,0,1-.9248-.6182c-.9848-2.3818-2.0727-4.748-3.2338-7.0327a1,1,0,1,1,1.7832-.9062c1.1845,2.331,2.2944,4.7451,3.2993,7.1743a1.0008,1.0008,0,0,1-.9239,1.3828Z" transform="translate(-113.5088 -96.6518)" style="fill:#eac4f9"/><path d="M871.8843,466.94a1.018,1.018,0,0,1-.2149-.0235c-1.3261-.29-2.6469-.6064-3.9257-.9394a1,1,0,0,1,.5048-1.9356c1.253.3272,2.5479.6367,3.8487.9219a1,1,0,0,1-.2129,1.9766Z" transform="translate(-113.5088 -96.6518)" style="fill:#eac4f9"/><path d="M807.9854,421.7432a1.0007,1.0007,0,0,1-.8521-.4746c-.7017-1.1377-1.3921-2.3077-2.0513-3.4786a1,1,0,0,1,1.7422-.9824c.647,1.1485,1.3233,2.2959,2.0112,3.41a1,1,0,0,1-.85,1.5254Z" transform="translate(-113.5088 -96.6518)" style="fill:#eac4f9"/><path d="M800.5176,407.0449a1,1,0,0,1-.9263-.622c-.9726-2.3829-1.8672-4.84-2.6592-7.3008a1,1,0,1,1,1.9043-.6123c.7764,2.4131,1.6533,4.8213,2.6065,7.1572a1,1,0,0,1-.9253,1.3779Zm-5.7246-19.3388a1,1,0,0,1-.9815-.813c-.4824-2.5367-.8725-5.1221-1.1582-7.6846a1,1,0,1,1,1.9873-.2217c.28,2.5117.6626,5.0459,1.1358,7.5322a1.0006,1.0006,0,0,1-.7954,1.1695A.9882.9882,0,0,1,794.793,387.7061Zm-1.75-20.0953h-.0152a1,1,0,0,1-.9853-1.0146c.0376-2.5786.1772-5.19.4145-7.76a1,1,0,1,1,1.9912.1836c-.2324,2.5191-.3691,5.0781-.4057,7.6055A1,1,0,0,1,793.0435,367.6108Zm2.34-20.0327a.9994.9994,0,0,1-.9775-1.2158c.5576-2.519,1.22-5.0483,1.9682-7.5166a1,1,0,0,1,1.9141.58c-.7339,2.42-1.3833,4.8989-1.9292,7.3681A1,1,0,0,1,795.3833,347.5781Zm6.3125-19.1513a1.0012,1.0012,0,0,1-.9131-1.4073c1.0508-2.3589,2.2046-4.7041,3.43-6.9712a1,1,0,0,1,1.76.9512c-1.2012,2.2222-2.3326,4.5215-3.3623,6.8335A1.0005,1.0005,0,0,1,801.6958,328.4268Zm10.0059-17.5054a1,1,0,0,1-.813-1.5806c1.5-2.1025,3.0981-4.1709,4.7509-6.1479a1,1,0,1,1,1.5342,1.2832c-1.62,1.9375-3.187,3.9648-4.6572,6.0259A.9983.9983,0,0,1,811.7017,310.9214ZM824.999,295.769a1,1,0,0,1-.6811-1.7319c1.89-1.7593,3.87-3.4648,5.8862-5.0693a1,1,0,1,1,1.2451,1.5644c-1.9756,1.5728-3.9165,3.2442-5.769,4.9688A.9963.9963,0,0,1,824.999,295.769Zm16.0747-12.1709a1,1,0,0,1-.5205-1.8544c2.2027-1.3394,4.4868-2.61,6.7891-3.7774a1,1,0,0,1,.9043,1.7842c-2.2569,1.1435-4.4956,2.3891-6.6543,3.7021A.9938.9938,0,0,1,841.0737,283.5981Zm18.1953-8.6806a1,1,0,0,1-.3374-1.9419c1.9468-.6983,3.9424-1.3462,5.9312-1.9258q.7376-.2153,1.4761-.4185a1,1,0,0,1,.5293,1.9288q-.723.1985-1.4453.41c-1.9507.5684-3.9073,1.2041-5.8165,1.8887A.9973.9973,0,0,1,859.269,274.9175Zm19.5635-4.8906a1,1,0,0,1-.143-1.99c2.5546-.3721,5.1547-.6494,7.728-.8237a1,1,0,0,1,.1347,1.9951c-2.5219.1709-5.07.4429-7.5737.8081A1.0638,1.0638,0,0,1,878.8325,270.0269Zm27.8086-.1309a.9864.9864,0,0,1-.1367-.0093c-2.5068-.3418-5.0576-.5893-7.5806-.7363a1,1,0,0,1,.1162-1.9971c2.5743.15,5.1768.4033,7.7349.752a1,1,0,0,1-.1338,1.9907Z" transform="translate(-113.5088 -96.6518)" style="fill:#eac4f9"/><path d="M922.7793,273.4819a.9961.9961,0,0,1-.2969-.0454c-1.26-.3906-2.539-.76-3.8022-1.0986a1,1,0,0,1,.5166-1.9316c1.289.3447,2.5937.7216,3.8784,1.12a1,1,0,0,1-.2959,1.9555Z" transform="translate(-113.5088 -96.6518)" style="fill:#eac4f9"/><path d="M924.9885,298.1083a1.2014,1.2014,0,0,0-1.39.1193l-11.1355,9.4771a63.6887,63.6887,0,0,0-20.4311-2.9058l-8.055-12.1924a1.2014,1.2014,0,0,0-1.3017-.5013l-16.9863,4.369a1.2022,1.2022,0,0,0-.8984,1.0669l-1.172,14.5661a63.6984,63.6984,0,0,0-16.4932,12.4034l-14.3263-2.9274a1.2013,1.2013,0,0,0-1.2747.5658L822.6029,337.25a1.2011,1.2011,0,0,0,.1193,1.39l9.4769,11.1356a63.6951,63.6951,0,0,0-2.9056,20.431l-12.1926,8.055a1.2011,1.2011,0,0,0-.5013,1.3016l4.3693,16.9867a1.2012,1.2012,0,0,0,1.0671.8981l14.5659,1.1721a63.69,63.69,0,0,0,12.4035,16.4931l-2.9278,14.3265a1.2017,1.2017,0,0,0,.5661,1.2746l15.1005,8.9216a1.2013,1.2013,0,0,0,1.39-.1194l11.1354-9.4769a63.6884,63.6884,0,0,0,20.4311,2.9059l8.0551,12.1926a1.2012,1.2012,0,0,0,1.3013.5013L921.044,441.27a1.2011,1.2011,0,0,0,.8979-1.0672l1.1721-14.566a63.685,63.685,0,0,0,16.4934-12.4036l14.3261,2.9277a1.2009,1.2009,0,0,0,1.2749-.5659L964.13,400.494a1.202,1.202,0,0,0-.12-1.39l-9.4767-11.1355a63.6933,63.6933,0,0,0,2.9056-20.4311l12.1927-8.055a1.2014,1.2014,0,0,0,.5011-1.3014l-4.3693-16.9864a1.2017,1.2017,0,0,0-1.0669-.8985l-14.5659-1.1721a63.7062,63.7062,0,0,0-12.4035-16.493l2.9274-14.3263a1.2013,1.2013,0,0,0-.5659-1.275Z" transform="translate(-113.5088 -96.6518)" style="fill:url(#ff3d343f-8542-4e44-92d0-07fe272e24e8)"/><path d="M893.39,385.9536a17.1492,17.1492,0,0,1-4.8466-.7031,16.9714,16.9714,0,1,1,4.8466.7031Zm-.0429-31.1621a14.1156,14.1156,0,1,0,3.9946.58A14.0016,14.0016,0,0,0,893.3472,354.7915Z" transform="translate(-113.5088 -96.6518)" style="fill:#fff"/><path d="M893.21,413.0342a43.8244,43.8244,0,0,1-10.9228-86.2671h0a44.2034,44.2034,0,0,1,8.32-1.312q.4548-.0279.91-.0459l.1182,2.998a41.1151,41.1151,0,0,0-8.6006,1.2652q-.5178.1332-1.0308.2793l-.0044.0009-.0112.0035A40.4956,40.4956,0,0,0,859.48,346.2012q-.7434,1.0928-1.4224,2.2417a40.5757,40.5757,0,0,0-5.6924,20.69,40.8294,40.8294,0,1,0,69.55-28.9536l2.1075-2.1348A43.835,43.835,0,0,1,893.21,413.0342Z" transform="translate(-113.5088 -96.6518)" style="fill:#fff"/><path d="M1060.3735,433.7734a1,1,0,0,1-.8486-.4687c-.6909-1.1035-1.4346-2.1924-2.21-3.2383a1,1,0,0,1,1.6065-1.1914c.8066,1.0869,1.58,2.2207,2.2988,3.3672a1,1,0,0,1-.8467,1.5312Z" transform="translate(-113.5088 -96.6518)" style="fill:#eac4f9"/><path d="M1020.854,512.377a1,1,0,0,1-.0786-1.9971,50.55,50.55,0,0,0,7.7793-1.24,1,1,0,0,1,.4678,1.9454,52.7548,52.7548,0,0,1-8.0879,1.289C1020.9077,512.376,1020.8809,512.377,1020.854,512.377Zm20.125-5.8731a1,1,0,0,1-.47-1.8828,50.2882,50.2882,0,0,0,6.6426-4.2305,1,1,0,0,1,1.2031,1.5977,52.2791,52.2791,0,0,1-6.9072,4.3984A.9876.9876,0,0,1,1040.979,506.5039Zm16.0967-13.416a1,1,0,0,1-.7832-1.6211,50.8273,50.8273,0,0,0,4.3984-6.5342,1,1,0,0,1,1.7412.9844,52.8713,52.8713,0,0,1-4.5722,6.792A.9986.9986,0,0,1,1057.0757,493.0879Zm9.42-18.7266a1,1,0,0,1-.9663-1.2588,50.3533,50.3533,0,0,0,1.435-7.7431,1,1,0,0,1,1.9893.209,52.387,52.387,0,0,1-1.4927,8.0517A1,1,0,0,1,1066.4961,474.3613Zm1.1577-20.9267a1.0007,1.0007,0,0,1-.9873-.85,51.1707,51.1707,0,0,0-1.4556-6.587q-.16-.5463-.3305-1.0869a1,1,0,0,1,1.9072-.6035q.1773.561.3433,1.1319a53.1961,53.1961,0,0,1,1.5131,6.8447,1.002,1.002,0,0,1-.99,1.15Z" transform="translate(-113.5088 -96.6518)" style="fill:#eac4f9"/><path d="M1007.7876,511.7422a1.003,1.003,0,0,1-.1772-.0156c-1.3331-.2383-2.6724-.5332-3.9805-.8741a1,1,0,1,1,.5049-1.9355c1.2583.3281,2.5464.6113,3.8281.8408a1,1,0,0,1-.1753,1.9844Z" transform="translate(-113.5088 -96.6518)" style="fill:#eac4f9"/><path d="M973.0566,488.1465a1.0006,1.0006,0,0,1-.852-.4746c-.709-1.1485-1.3833-2.3438-2.0039-3.5508a1,1,0,1,1,1.7783-.9141c.5972,1.1612,1.2456,2.31,1.9277,3.4141a1,1,0,0,1-.85,1.5254Z" transform="translate(-113.5088 -96.6518)" style="fill:#eac4f9"/><path d="M966.69,472.6182a1,1,0,0,1-.9736-.7754,52.7212,52.7212,0,0,1-1.2036-7.9639,1,1,0,0,1,1.9951-.1465,50.6346,50.6346,0,0,0,1.1577,7.6612,1,1,0,0,1-.9756,1.2246Zm-.5-20.6123a.9987.9987,0,0,1-.9848-1.1778,52.5783,52.5783,0,0,1,2.0371-7.792,1,1,0,1,1,1.8906.6524,50.5315,50.5315,0,0,0-1.96,7.4951A1,1,0,0,1,966.19,452.0059Zm7.6509-19.1446a1,1,0,0,1-.8349-1.5488,52.8145,52.8145,0,0,1,4.9223-6.373,1,1,0,1,1,1.4844,1.34,50.8226,50.8226,0,0,0-4.7349,6.1309A.9977.9977,0,0,1,973.8408,432.8613Zm14.542-14.6172a1,1,0,0,1-.5532-1.8339,52.3232,52.3232,0,0,1,7.0376-3.9161,1,1,0,0,1,.834,1.8184,50.0994,50.0994,0,0,0-6.7671,3.7656A.9972.9972,0,0,1,988.3828,418.2441Zm19.12-7.7089a1,1,0,0,1-.1811-1.9834,52.3887,52.3887,0,0,1,8.01-.8536,1,1,0,0,1,.0577,2,50.3822,50.3822,0,0,0-7.7037.82A.98.98,0,0,1,1007.5024,410.5352Z" transform="translate(-113.5088 -96.6518)" style="fill:#eac4f9"/><path d="M1032.0239,411.9873a1.008,1.008,0,0,1-.2968-.0449c-1.2486-.3877-2.5225-.73-3.7862-1.0166a1,1,0,0,1,.4434-1.9512c1.3139.2988,2.6382.6543,3.9355,1.0576a1,1,0,0,1-.2959,1.9551Z" transform="translate(-113.5088 -96.6518)" style="fill:#eac4f9"/><path d="M1033.1583,424.1514a.6172.6172,0,0,0-.7139.0612l-5.72,4.8682a32.7151,32.7151,0,0,0-10.495-1.4926l-4.1377-6.263a.6172.6172,0,0,0-.6687-.2575l-8.7255,2.2442a.6178.6178,0,0,0-.4614.5481l-.6021,7.4823a32.719,32.719,0,0,0-8.4722,6.3715l-7.3592-1.5038a.6171.6171,0,0,0-.6548.2907l-4.5829,7.7569a.6171.6171,0,0,0,.0613.7139l4.8681,5.72a32.716,32.716,0,0,0-1.4925,10.4951l-6.2632,4.1377a.617.617,0,0,0-.2575.6686l2.2445,8.7257a.6169.6169,0,0,0,.5482.4614l7.4821.602a32.7181,32.7181,0,0,0,6.3714,8.4723l-1.5039,7.3591a.6176.6176,0,0,0,.2907.6548l7.757,4.5829a.6169.6169,0,0,0,.714-.0613l5.72-4.8681a32.7183,32.7183,0,0,0,10.495,1.4927l4.1377,6.2632a.6175.6175,0,0,0,.6686.2574l8.7259-2.2443a.617.617,0,0,0,.4611-.5483l.6022-7.4823a32.71,32.71,0,0,0,8.4723-6.3716l7.359,1.5041a.6173.6173,0,0,0,.655-.2908l4.5829-7.757a.6173.6173,0,0,0-.0614-.7139l-4.868-5.72a32.7184,32.7184,0,0,0,1.4925-10.4951l6.2632-4.1377a.6171.6171,0,0,0,.2574-.6685l-2.2444-8.7255a.6174.6174,0,0,0-.5481-.4616l-7.4822-.602a32.7268,32.7268,0,0,0-6.3715-8.4723l1.5038-7.3592a.6172.6172,0,0,0-.2907-.6549Z" transform="translate(-113.5088 -96.6518)" style="fill:url(#adac696c-3052-482e-a670-c06a6b61372b)"/><path d="M1016.9277,470.0059a9.5414,9.5414,0,0,1-2.6967-.3916,9.4393,9.4393,0,1,1,2.6967.3916Zm-.0214-16.0079a6.4585,6.4585,0,0,0-3.1021.7969h0a6.4564,6.4564,0,1,0,3.1026-.7969Zm-3.82-.52h0Z" transform="translate(-113.5088 -96.6518)" style="fill:#fff"/><path d="M1016.834,483.917a23.2416,23.2416,0,0,1-5.792-45.751h0c.0561-.0137.1128-.0283.1694-.043a23.4083,23.4083,0,0,1,4.1944-.6494c.1128-.0068.2255-.0136.3379-.0185l.1923-.0088.1182,2.998a20.2366,20.2366,0,1,0,15.0132,5.8379l2.1074-2.1347a23.248,23.248,0,0,1-16.3408,39.7695Z" transform="translate(-113.5088 -96.6518)" style="fill:#fff"/><path d="M901.1136,446.832s-25.73,32.9426,3.626,66.4476l11.0365-1.0282s-21.245-34.1126-11.7824-61.3049l15.6333,1.1413,8.6452-5.635Z" transform="translate(-113.5088 -96.6518)" style="fill:url(#ac691cfc-ea92-47fb-bfb6-e55c6af3349e)"/><path d="M915.2055,608.1173s20.8466,45.4354,31.7839,64.2547c0,0,2.1723,11.8414,0,15.5651l-1.8513.8228,8.64-.2571s.7676-15.928.1682-16.8177a2.2009,2.2009,0,0,0-1.7983-.8315s-3.7049-29.3513-14.4341-35.6155l-10.3981-35.8138Z" transform="translate(-113.5088 -96.6518)" style="fill:url(#ee3d02f8-8f05-4b9d-abed-133f9a53a8ac)"/><path d="M941.448,690.9906c-.0128.2083,6.7468.1131,10.4187.0461a2.9212,2.9212,0,0,0,2.8008-2.3027l2.7729-14.5684a2.6194,2.6194,0,0,0-1.99-3.0433l-1.5477-.3537s-2.2081,3.029-1.5131,5.8806,1.3137,10.2388-.4428,11.1-6.8091,1.0111-6.8091,1.0111S941.5636,689.1144,941.448,690.9906Z" transform="translate(-113.5088 -96.6518)" style="fill:url(#ba08976f-d4b8-40bf-bdcf-ee091d082118)"/><path d="M895.4468,691.2549a.7626.7626,0,0,0,.385,1.4254c6.1449-.0617,19.9141-.256,21.1376-.7649,1.58-.6569-.5756-6.3332-2.8439-8.2543l-12.5247,4.0877Z" transform="translate(-113.5088 -96.6518)" style="fill:url(#bdacabd5-7484-4b19-aa9d-aecc2296cb77)"/><path d="M891.559,605.22s13.4714,65.17,17.2823,77.8829l-9.0151,5.6574s4.5177-.7683,7.8676-1.0111,6.4317-4.0877,6.4317-4.0877l-1.08-1.7227s-3.3783-64.8154-2.5559-72.1753Z" transform="translate(-113.5088 -96.6518)" style="fill:url(#fa9a00ac-6b4b-4ffe-ad93-2be86a82a482)"/><path d="M858.1179,453.2094s-1.8581,33.9011,29.0067,51.2245l-7.4309,16.9476s-27.944-16.9019-26.9106-63a5.3574,5.3574,0,0,0-1.3115-3.61l-5.939-6.89a10.6611,10.6611,0,0,1-2.2673-9.5482l.7818-3.1249a1.62,1.62,0,0,1,2.3858-1.0078l.621.3608a10.9023,10.9023,0,0,1,4.4769,4.9762l2.9162,6.5189a6.2657,6.2657,0,0,0,6.2586,3.6839l1.8032-.1557Z" transform="translate(-113.5088 -96.6518)" style="fill:url(#fc195ee0-455a-4148-85bd-4f1b079873e8)"/><path d="M886.05,501.8935c5.1636,1.4321,22.6573,6.0339,33.5781,5.8458l-6.7052,37.8388.5337,6.1717-21.862-.098s-6.1543-14.2928-11.01-21.4186c-1.4025-2.058-.3588-4.5127.4361-6.8729l-1.0921-.7271a2.9732,2.9732,0,0,1-1.1784-3.3986l5.3238-16.2884A1.6255,1.6255,0,0,1,886.05,501.8935Z" transform="translate(-113.5088 -96.6518)" style="fill:url(#a768de82-3b84-4907-a335-10d748692a83)"/><path d="M889.8431,548.4222l.43,3.7391s-6.1781,18.5021,3.0892,61.7161c0,0,20.0708,5.686,36.5668-7.92,0,0-4.6533-40.7875-5.9243-42.6873-6.3307-9.4632-10.548-11.52-10.548-11.52l-.19-4.0849S895.6232,550.8549,889.8431,548.4222Z" transform="translate(-113.5088 -96.6518)" style="fill:url(#e39eca4c-2474-4b5f-a7d8-f5485fec2f94)"/><path d="M898.401,504.9431c-.0766-.1012,4.5641-14.0113,4.5641-14.0113l6.6477.6031,2.5967,15.78S901.7915,509.418,898.401,504.9431Z" transform="translate(-113.5088 -96.6518)" style="fill:url(#aa94662c-8a31-439a-b85b-2af2f910e9b3)"/><path d="M908.0212,468.9954c-.4432.2761-14.2049,5.9634-11.2482,20.25a2.6821,2.6821,0,0,0,1.5256,1.9111,23.3163,23.3163,0,0,0,11.5669,1.9147c7.21-.7326,11.9334-13.313,11.7325-16.9739S912.4145,466.26,908.0212,468.9954Z" transform="translate(-113.5088 -96.6518)" style="fill:url(#ba492fe0-ac9c-4f4e-b322-94babbb8a4d4)"/><path d="M912.21,463.441c-.3618.0475-7.9527,2.6912-4.1883,8.1919s5.1765,8.7386,3.3961,11.1541c-1.6222,2.2006-5.2156.9463-4.902,5.5247a2.568,2.568,0,0,1-1.0942,2.321c-3.3863,2.2922-11.6476,9.3473-3.4626,19.4088a2.5622,2.5622,0,0,1,.289,2.8675c-2.3973,4.3-7.4329,16.8966,10.798,23.8841,18.0149,6.9047,24.5194-4.8714,26.3365-9.5782a2.5123,2.5123,0,0,1,2.4855-1.59c1.98.0935,4.7847-.2359,4.6557-2.8813a6.61,6.61,0,0,0-2.2657-4.2011,2.5094,2.5094,0,0,1,.4827-3.9521,4.917,4.917,0,0,0,2.4286-3.0533c1.0916-4.0455-1.0878-16.1419-12.6826-18.1919a2.7365,2.7365,0,0,1-2.1208-2.05l-.0067-.0434a2.5072,2.5072,0,0,1,.9309-2.4648,6.5069,6.5069,0,0,0,2.2972-8.4774,9.5013,9.5013,0,0,0-7.4273-5.619,2.5256,2.5256,0,0,1-2.07-3.0182C926.9117,467.8037,926.1953,461.6072,912.21,463.441Z" transform="translate(-113.5088 -96.6518)" style="fill:url(#bd025281-0b4c-4e5e-914e-71c6bbe52380)"/><path d="M588.2555,465.2089l125.0536-4.0662a3.6629,3.6629,0,0,1,3.3078,5.3475l-7.5811,14.6327a3.6634,3.6634,0,0,0,4.2456,5.2113l118.6647-33.4027a3.6633,3.6633,0,0,0-.132-7.0871L713.3723,417.2159a3.6632,3.6632,0,0,0-4.3078,4.7994l6.6239,18.4395a3.663,3.663,0,0,1-3.1748,4.8914l-124.5864,12.547a3.6629,3.6629,0,0,0-3.3855,3.8419h0A3.6633,3.6633,0,0,0,588.2555,465.2089Z" transform="translate(-113.5088 -96.6518)" style="fill:url(#b47b5434-c95a-43ef-8646-3c32f7a73f14)"/><path d="M792.2793,458.1807a.5.5,0,0,1-.12-.9854l25.4951-6.3291a1.0072,1.0072,0,0,0-.0059-1.958c-26.9834-6.3984-89.87-21.3242-91.0254-21.7383a.5.5,0,0,1,.3355-.9424c1.3828.4668,69.9409,16.7334,90.9209,21.708a2.0072,2.0072,0,0,1,.0161,3.9014L792.4,458.166A.5148.5148,0,0,1,792.2793,458.1807Z" transform="translate(-113.5088 -96.6518)" style="fill:#fff"/><path d="M581.5666,452.0585,513.8761,326.0966a3.6631,3.6631,0,0,1,3.2265-5.3971h16.48a3.6631,3.6631,0,0,0,2.674-6.1666l-84.2452-89.999a3.6632,3.6632,0,0,0-6.2318,3.3772l29.0641,118.3355a3.6632,3.6632,0,0,0,6.2431,1.6175L494.4125,333.5a3.6634,3.6634,0,0,1,5.8037.5687l75.0053,121.6462a3.6633,3.6633,0,0,0,4.9689,1.2389h0A3.6634,3.6634,0,0,0,581.5666,452.0585Z" transform="translate(-113.5088 -96.6518)" style="fill:url(#a09e1de8-7fba-4b4e-aba0-af3dbc9722f9)"/><path d="M477.0913,330.4692a.5.5,0,0,1-.4946-.4311c-.18-1.16-11.7661-47.62-22.55-90.7158a2.0071,2.0071,0,0,1,3.4565-1.8091L474.85,257.24a.5.5,0,0,1-.751.66L456.752,238.1733a1.0073,1.0073,0,0,0-1.7359.9058c5.252,20.9873,22.4,89.5615,22.5713,90.8232a.5.5,0,0,1-.4287.5625A.5141.5141,0,0,1,477.0913,330.4692Z" transform="translate(-113.5088 -96.6518)" style="fill:#fff"/><path d="M603.9628,458.33a17.0131,17.0131,0,1,1-17.013-17.013A17.0132,17.0132,0,0,1,603.9628,458.33Z" transform="translate(-113.5088 -96.6518)" style="fill:url(#ebde0514-c12f-4a2a-9eef-f1c766362139)"/><path d="M312.9712,340.2422a.9988.9988,0,0,1-.834-.4468c-.7217-1.0874-1.4849-2.1738-2.2681-3.2295a1,1,0,0,1,1.6065-1.1914c.8037,1.083,1.5869,2.1983,2.3276,3.3145a1,1,0,0,1-.832,1.5532Z" transform="translate(-113.5088 -96.6518)" style="fill:#eac4f9"/><path d="M248.4609,460.4863q-1.2531,0-2.5009-.041a1,1,0,0,1-.9673-1.0312.971.971,0,0,1,1.0317-.9668,76.5551,76.5551,0,0,0,7.9595-.1621,1,1,0,1,1,.1455,1.9941C252.2515,460.417,250.3442,460.4863,248.4609,460.4863Zm18.5318-2.2627a1,1,0,0,1-.2388-1.9707c1.0444-.2578,2.0947-.541,3.1231-.84,1.518-.4443,3.0327-.9375,4.5014-1.4639a1,1,0,1,1,.6748,1.8828c-1.5053.54-3.0586,1.045-4.6162,1.501-1.0552.3066-2.1328.5967-3.2036.8613A1.0171,1.0171,0,0,1,266.9927,458.2236ZM286.625,450.44a1,1,0,0,1-.4927-1.8711,75.7417,75.7417,0,0,0,6.7154-4.2724,1,1,0,0,1,1.1611,1.6289,78.04,78.04,0,0,1-6.8931,4.3857A1.0034,1.0034,0,0,1,286.625,450.44Zm16.78-12.8086a1,1,0,0,1-.71-1.7041,76.8719,76.8719,0,0,0,5.3028-5.9355,1,1,0,0,1,1.5586,1.2539,78.8612,78.8612,0,0,1-5.4415,6.09A.9956.9956,0,0,1,303.4048,437.6318Zm12.6865-16.8759a1.0008,1.0008,0,0,1-.8725-1.4873,77.24,77.24,0,0,0,3.5112-7.1456,1,1,0,1,1,1.8379.7872,79.1882,79.1882,0,0,1-3.6021,7.333A1,1,0,0,1,316.0913,420.7559Zm7.6831-19.6719a1.018,1.018,0,0,1-.2348-.0274,1,1,0,0,1-.7383-1.2065,76.51,76.51,0,0,0,1.4526-7.83,1,1,0,0,1,1.9824.2617,78.3379,78.3379,0,0,1-1.4907,8.0357A1,1,0,0,1,323.7744,401.084Zm2.0679-21.021a1,1,0,0,1-.9985-.96,76.2718,76.2718,0,0,0-.733-7.9277,1,1,0,1,1,1.98-.2881,78.269,78.269,0,0,1,.7515,8.1367,1,1,0,0,1-.9595,1.0386C325.8691,380.063,325.8555,380.063,325.8423,380.063Zm-3.7105-20.7905a1.0005,1.0005,0,0,1-.9516-.6934,77.3267,77.3267,0,0,0-2.8345-7.4419,1,1,0,0,1,1.83-.8076,79.44,79.44,0,0,1,2.9077,7.6352,1.0016,1.0016,0,0,1-.9517,1.3077Z" transform="translate(-113.5088 -96.6518)" style="fill:#eac4f9"/><path d="M232.9409,458.9014a1.04,1.04,0,0,1-.2031-.0205c-1.3213-.2725-2.648-.5821-3.9429-.92a1,1,0,1,1,.5049-1.9355c1.2617.3291,2.5547.6309,3.8423.8965a1,1,0,0,1-.2012,1.98Z" transform="translate(-113.5088 -96.6518)" style="fill:#eac4f9"/><path d="M182.6538,423.7715a1,1,0,0,1-.852-.4746c-.7076-1.1475-1.3931-2.3252-2.0367-3.501a1,1,0,0,1,1.7539-.9609c.6275,1.1464,1.2955,2.2939,1.9849,3.4111a1,1,0,0,1-.3262,1.376A.99.99,0,0,1,182.6538,423.7715Z" transform="translate(-113.5088 -96.6518)" style="fill:#eac4f9"/><path d="M175.4175,408.5332a1,1,0,0,1-.9448-.6719c-.4356-1.2549-.8487-2.5478-1.2266-3.8427-.3726-1.2784-.7168-2.5811-1.0239-3.8731a1,1,0,1,1,1.9453-.4629c.3,1.26.6357,2.53.9985,3.7764.3687,1.2627.771,2.5234,1.1963,3.7461a.9993.9993,0,0,1-.6167,1.2724A.9875.9875,0,0,1,175.4175,408.5332Zm-4.1533-20.3608a1,1,0,0,1-.9966-.9331c-.1153-1.7212-.1738-3.4688-.1738-5.1939q0-1.4281.0522-2.85a.98.98,0,0,1,1.0366-.9624,1.0005,1.0005,0,0,1,.9624,1.0366q-.0513,1.3844-.0512,2.7759c0,1.6807.0571,3.3833.1689,5.06a.9994.9994,0,0,1-.9307,1.0644C171.3091,388.1719,171.2866,388.1724,171.2642,388.1724Zm1.4321-20.7329a1.0133,1.0133,0,0,1-.2041-.021,1,1,0,0,1-.7759-1.1822,78.6868,78.6868,0,0,1,2.0332-7.7783,1,1,0,1,1,1.9063.6045,76.6684,76.6684,0,0,0-1.9815,7.58A1,1,0,0,1,172.6963,367.44Zm6.9048-19.5977a1,1,0,0,1-.8892-1.4556,79.1624,79.1624,0,0,1,4.02-6.959,1,1,0,0,1,1.6787,1.0879,76.9829,76.9829,0,0,0-3.9189,6.7823A1,1,0,0,1,179.6011,347.8418ZM191.45,330.7764a1,1,0,0,1-.7373-1.6748,78.329,78.329,0,0,1,5.7207-5.6412,1,1,0,0,1,1.3291,1.4942,76.553,76.553,0,0,0-5.5742,5.4966A.9972.9972,0,0,1,191.45,330.7764Zm15.9609-13.2954a1,1,0,0,1-.5312-1.8477,78.318,78.318,0,0,1,7.0249-3.9058,1,1,0,0,1,.8809,1.7959,76.1648,76.1648,0,0,0-6.8453,3.8052A.9966.9966,0,0,1,207.4106,317.481Zm18.9327-8.5464a1,1,0,0,1-.2852-1.959l.501-.148c2.4082-.7016,4.8657-1.2934,7.3076-1.76a1,1,0,1,1,.375,1.9648c-2.38.4546-4.7754,1.0318-7.1206,1.7149l-.4917.1455A1.0031,1.0031,0,0,1,226.3433,308.9346Zm28.46-3.003c-.0273,0-.0547-.0009-.0825-.0034a75.8391,75.8391,0,0,0-7.8291-.2348,1.0276,1.0276,0,0,1-1.022-.9781,1.0006,1.0006,0,0,1,.9781-1.0219,77.8117,77.8117,0,0,1,8.0361.2417,1,1,0,0,1-.0806,1.9965Z" transform="translate(-113.5088 -96.6518)" style="fill:#eac4f9"/><path d="M271.4,309.1528a1.0014,1.0014,0,0,1-.2978-.0454c-1.24-.3862-2.5181-.7475-3.7969-1.0742a1,1,0,1,1,.4951-1.9375c1.312.335,2.623.7056,3.8965,1.1016a1,1,0,0,1-.2969,1.9555Z" transform="translate(-113.5088 -96.6518)" style="fill:#eac4f9"/><path d="M273.1077,327.9639a.9289.9289,0,0,0-1.0744.0923l-8.6087,7.3266a49.2376,49.2376,0,0,0-15.7951-2.2464l-6.2272-9.4258a.9288.9288,0,0,0-1.0064-.3876l-13.1319,3.3777a.9292.9292,0,0,0-.6946.8248l-.9061,11.2608a49.2438,49.2438,0,0,0-12.7507,9.5891l-11.0756-2.2632a.9287.9287,0,0,0-.9854.4374l-6.8973,11.6742a.9285.9285,0,0,0,.0923,1.0745l7.3264,8.6088a49.2412,49.2412,0,0,0-2.2462,15.795l-9.426,6.2273a.9285.9285,0,0,0-.3876,1.0062l3.3779,13.1323a.9285.9285,0,0,0,.825.6943l11.2607.9061a49.236,49.236,0,0,0,9.5891,12.7507l-2.2635,11.0757a.9289.9289,0,0,0,.4376.9854l11.6741,6.8972a.9287.9287,0,0,0,1.0746-.0923l8.6087-7.3265a49.2392,49.2392,0,0,0,15.7951,2.2465l6.2273,9.426a.9285.9285,0,0,0,1.006.3875l13.1325-3.3777a.9286.9286,0,0,0,.6941-.8251l.9061-11.2608a49.2325,49.2325,0,0,0,12.7509-9.5891l11.0754,2.2633a.9284.9284,0,0,0,.9857-.4375l6.8972-11.6742a.9291.9291,0,0,0-.0923-1.0744l-7.3264-8.6087a49.2433,49.2433,0,0,0,2.2463-15.7952l9.426-6.2272a.9286.9286,0,0,0,.3874-1.0061l-3.3778-13.132a.9291.9291,0,0,0-.8249-.6947l-11.2607-.9061a49.25,49.25,0,0,0-9.589-12.7506l2.2631-11.0756a.9285.9285,0,0,0-.4375-.9856Z" transform="translate(-113.5088 -96.6518)" style="fill:url(#bb85607a-22a6-4195-94e4-125ef8b77eba)"/><path d="M248.68,396.2173a13.5936,13.5936,0,0,1-3.8433-.5581,13.54,13.54,0,0,1-2.6552-24.877h0a13.54,13.54,0,1,1,6.4985,25.4351Zm-.0332-24.0918a10.4861,10.4861,0,0,0-5.03,1.2905h0a10.5393,10.5393,0,1,0,8.0215-.8564A10.59,10.59,0,0,0,248.6465,372.1255Zm-5.7476-.0264h0Z" transform="translate(-113.5088 -96.6518)" style="fill:#fff"/><path d="M248.4761,417.1631a34.258,34.258,0,0,1-33.0806-25.709,34.423,34.423,0,0,1-1.0928-8.5859,34.2583,34.2583,0,0,1,25.7085-33.0777h0q.1143-.0292.2285-.0581a34.492,34.492,0,0,1,6.1124-.957c.1469-.01.2939-.0181.4409-.0259q.2124-.0109.4248-.0195l.1181,2.998a31.3836,31.3836,0,0,0-6.5776.9678,31.256,31.256,0,0,0-23.4546,30.1777,31.4208,31.4208,0,0,0,.9971,7.8335,31.2283,31.2283,0,0,0,61.4663-7.72,31.3722,31.3722,0,0,0-9.2744-22.2558l2.1074-2.1348a34.2516,34.2516,0,0,1-24.124,58.5669Z" transform="translate(-113.5088 -96.6518)" style="fill:#fff"/><path d="M205.6631,474.1875a.9989.9989,0,0,1-.86-.4883,38.6428,38.6428,0,0,0-2.1606-3.2441,1,1,0,1,1,1.6064-1.1914,40.8618,40.8618,0,0,1,2.273,3.4121,1,1,0,0,1-.8584,1.5117Z" transform="translate(-113.5088 -96.6518)" style="fill:#eac4f9"/><path d="M177.47,533.8516a1,1,0,0,1-.1494-1.9883,39.2192,39.2192,0,0,0,5.0322-1.1153q1-.2914,1.9707-.6318a1.0005,1.0005,0,0,1,.6612,1.8887q-1.0211.356-2.0718.6631a41.1727,41.1727,0,0,1-5.29,1.1718A1,1,0,0,1,177.47,533.8516Zm17.7837-7.4121a1,1,0,0,1-.5981-1.8018,38.7058,38.7058,0,0,0,5.3554-4.83,1,1,0,1,1,1.4727,1.3535,40.6887,40.6887,0,0,1-5.6338,5.08A.9935.9935,0,0,1,195.2539,526.44ZM207.4482,511.53a.9994.9994,0,0,1-.9033-1.4278,38.989,38.989,0,0,0,2.4673-6.7812,1,1,0,1,1,1.9346.5058,40.9259,40.9259,0,0,1-2.5943,7.1309A.9991.9991,0,0,1,207.4482,511.53Zm3.773-18.8907a1,1,0,0,1-.9981-.9511,38.7938,38.7938,0,0,0-1.0229-7.1436,1,1,0,0,1,1.9453-.4668,40.8487,40.8487,0,0,1,1.0757,7.5127,1.0012,1.0012,0,0,1-.9507,1.0479C211.2544,492.64,211.2378,492.64,211.2212,492.64Z" transform="translate(-113.5088 -96.6518)" style="fill:#eac4f9"/><path d="M165.4316,533.8389a1.025,1.025,0,0,1-.1547-.0118,40.7266,40.7266,0,0,1-4.0127-.832,1,1,0,1,1,.5039-1.9355,38.8352,38.8352,0,0,0,3.8154.791,1,1,0,0,1-.1519,1.9883Z" transform="translate(-113.5088 -96.6518)" style="fill:#eac4f9"/><path d="M137.6851,515.4482a1,1,0,0,1-.8521-.4746,40.8447,40.8447,0,0,1-1.9736-3.5937,1,1,0,1,1,1.7988-.8731,38.8605,38.8605,0,0,0,1.877,3.4161.9993.9993,0,0,1-.3262,1.3759A.9889.9889,0,0,1,137.6851,515.4482Z" transform="translate(-113.5088 -96.6518)" style="fill:#eac4f9"/><path d="M132.2271,500.6777a1,1,0,0,1-.9869-.8447,40.6211,40.6211,0,0,1-.4941-6.3057c0-.3808.0054-.7627.0161-1.1425a.9775.9775,0,0,1,1.0274-.9727,1,1,0,0,1,.9716,1.0274q-.0146.5435-.0151,1.0878a38.6844,38.6844,0,0,0,.47,5.9952,1,1,0,0,1-.832,1.1435A1.0749,1.0749,0,0,1,132.2271,500.6777Zm1.6245-18.8769a.9993.9993,0,0,1-.9468-1.3213,41.0055,41.0055,0,0,1,3.0312-6.8154,1,1,0,1,1,1.7461.9746,39.1033,39.1033,0,0,0-2.8838,6.4834A.9992.9992,0,0,1,133.8516,481.8008Zm10.1709-15.9844a1,1,0,0,1-.6919-1.7217,40.6151,40.6151,0,0,1,5.8388-4.6445,1,1,0,1,1,1.0948,1.6738,38.51,38.51,0,0,0-5.55,4.4141A.9936.9936,0,0,1,144.0225,465.8164Zm16.416-9.45a1,1,0,0,1-.2779-1.96,41.0519,41.0519,0,0,1,7.3238-1.42,1,1,0,0,1,.1992,1.99,39.0307,39.0307,0,0,0-6.9663,1.35A.986.986,0,0,1,160.4385,456.3662Z" transform="translate(-113.5088 -96.6518)" style="fill:#eac4f9"/><path d="M183.272,456.57a1.0139,1.0139,0,0,1-.2974-.0449c-1.2373-.3848-2.5073-.71-3.7744-.9688a1,1,0,1,1,.3984-1.9589,40.7456,40.7456,0,0,1,3.97,1.0175,1,1,0,0,1-.2964,1.9551Z" transform="translate(-113.5088 -96.6518)" style="fill:#eac4f9"/><path d="M184.1492,465.7471a.4772.4772,0,0,0-.5519.0473l-4.4222,3.7636a25.2918,25.2918,0,0,0-8.1136-1.154l-3.1988-4.8418a.477.477,0,0,0-.517-.1991l-6.7456,1.735a.4775.4775,0,0,0-.3567.4237l-.4655,5.7845a25.2948,25.2948,0,0,0-6.55,4.9257l-5.6893-1.1625a.4769.4769,0,0,0-.5062.2247l-3.543,5.9968a.477.477,0,0,0,.0474.5519L147.3,486.265a25.2955,25.2955,0,0,0-1.1538,8.1137l-4.842,3.1989a.4767.4767,0,0,0-.199.5168l1.7351,6.7458a.4768.4768,0,0,0,.4239.3567l5.7843.4654a25.2942,25.2942,0,0,0,4.9257,6.55l-1.1627,5.6894a.4775.4775,0,0,0,.2248.5062l5.9968,3.543a.477.477,0,0,0,.552-.0475l4.4221-3.7634a25.2921,25.2921,0,0,0,8.1136,1.1539l3.1988,4.8421a.4773.4773,0,0,0,.5169.199l6.7459-1.7351a.4771.4771,0,0,0,.3565-.4238l.4656-5.7845a25.2907,25.2907,0,0,0,6.55-4.9258l5.6891,1.1627a.4771.4771,0,0,0,.5064-.2248l3.543-5.9968a.4772.4772,0,0,0-.0474-.5519l-3.7634-4.4221a25.2982,25.2982,0,0,0,1.1538-8.1137l4.8421-3.1989a.4771.4771,0,0,0,.1989-.5168l-1.7351-6.7456a.4772.4772,0,0,0-.4238-.3568l-5.7844-.4654a25.3,25.3,0,0,0-4.9257-6.55l1.1626-5.6894a.4772.4772,0,0,0-.2248-.5063Z" transform="translate(-113.5088 -96.6518)" style="fill:url(#bb1d90ba-0a5a-4f36-a4bb-91a048d90b8f)"/><path d="M171.6021,501.5371a7.6866,7.6866,0,0,1-3.6885-14.4355h0a7.6847,7.6847,0,1,1,3.6885,14.4355Zm-.0181-12.3721a4.6521,4.6521,0,0,0-2.2349.5713h0a4.6863,4.6863,0,1,0,2.2349-.5713Zm-2.9527-.7461h0Z" transform="translate(-113.5088 -96.6518)" style="fill:#fff"/><path d="M171.5308,512.291a18.3079,18.3079,0,0,1-4.5645-36.039h.0005a18.5163,18.5163,0,0,1,3.6343-.5567c.0737-.0029.1469-.0068.2207-.01l.1172,2.9981a15.4079,15.4079,0,0,0-3.2256.4746h0a15.2995,15.2995,0,1,0,14.58,3.9395l2.1074-2.1348a18.311,18.311,0,0,1-12.87,31.3281Z" transform="translate(-113.5088 -96.6518)" style="fill:#fff"/><path d="M281.2108,682.6258s-.9038,5.1173-1.347,10.1829a3.49,3.49,0,0,0,3.3386,3.7814c6.746.2809,21.1756.8273,26.3535.5962a1.1354,1.1354,0,0,0,.9992-1.5556h0a2.5419,2.5419,0,0,0-1.3-1.37L285.42,683.3064Z" transform="translate(-113.5088 -96.6518)" style="fill:url(#bcb6769a-514b-4a53-962d-30ef5131f8f7)"/><path d="M280.47,679.619l.7263,6.121s4.1753,1.9436,7.0267-.245l-1.7291-6.8212Z" transform="translate(-113.5088 -96.6518)" style="fill:url(#be2bceb8-f0f0-41f9-b835-8c803f3b5a12)"/><path d="M281.0162,564.5428c-.3137,1.5984-1.6839,79.7667,6.6717,114.7966a1.1889,1.1889,0,0,1-.6974,1.383,20.7019,20.7019,0,0,1-6.8049,1.383,2.048,2.048,0,0,1-2.0315-1.47c-2.3884-8.1273-13.8333-48.8483-15.3263-87.7478-1.6683-43.4664,0-1.48,0-1.48l.9784-26.8682Z" transform="translate(-113.5088 -96.6518)" style="fill:url(#a96babc7-8edf-4a0e-8a82-9c9d6a313f40)"/><path d="M253.7926,685.2955s-1.4389,2.5834-2.8319,9.4481a2.1293,2.1293,0,0,0,1.8736,2.55c2.2274.219,5.6565.5007,8.4034.4818a2.1229,2.1229,0,0,0,2.1019-2.3684,17.9073,17.9073,0,0,0-4.18-9.8208Z" transform="translate(-113.5088 -96.6518)" style="fill:url(#b26906db-3709-4470-82dc-3f41a003f7c0)"/><path d="M252.5288,677.4224l1.697,9.2566s1.6778,1.248,4.997.3433l-.81-9.9595Z" transform="translate(-113.5088 -96.6518)" style="fill:url(#a2e6d783-a77e-41d5-b422-ab40333d872c)"/><path d="M247.9445,566.9416c-6.8337,41.2421,1.4824,101.9335,4.287,113.8123a1.8524,1.8524,0,0,0,1.4959,1.4066,12.4386,12.4386,0,0,0,5.345-.2132,1.6982,1.6982,0,0,0,1.2206-1.5634c.3762-9.6036-.301-68.5606,6.0665-91.8607a5.2927,5.2927,0,0,1,2.0415-2.92l12.3589-8.7861.9475-14.2021Z" transform="translate(-113.5088 -96.6518)" style="fill:url(#a50fe61e-02e9-41da-bfad-e32ffc545767)"/><path d="M291.49,488.7954c-20.48-.3383-43.0764,5.3773-43.0764,5.3773-6.1045,35.62-1.0675,76.7044-1.0675,76.7044,15.8548,4.1578,33.74-2.5421,33.74-2.5421,2.6351-14.8881,14.93-56.7883,14.93-56.7883a67.4632,67.4632,0,0,0,25.0373-7.9455c-5.1778-6.002-7.6188-13.6391-8.6791-18.1537A68.7053,68.7053,0,0,1,291.49,488.7954Z" transform="translate(-113.5088 -96.6518)" style="fill:url(#bb3f4f37-19af-42ac-abd5-16a9e342d588)"/><path d="M351.9822,458.63a3.9183,3.9183,0,0,0-4.5579-1.28c-3.0138,12.73-18.816,23.0524-35.0506,28.0977,1.06,4.5146,3.5013,12.1517,8.6791,18.1537C347.9955,488.4524,351.9822,458.63,351.9822,458.63Z" transform="translate(-113.5088 -96.6518)" style="fill:url(#b40caffe-264c-4ee6-a069-2843767dfaa7)"/><path d="M351.4939,459.2482c.2105.6692-2.2272,1.6882-3.6624-1.0488-.05-1.3118-.8479-6.9315-.0642-8,4.1747-5.6914,12.2684-12.8259,12.2684-12.8259a1.9259,1.9259,0,0,1,.2409,2.6756l-3.9263,4.09a19.01,19.01,0,0,1,2.2925,4.5319,5.5019,5.5019,0,0,1-.5486,4.0494c-.6893,1.2417-1.63,2.8558-2.5185,4.119A5.4327,5.4327,0,0,1,351.4939,459.2482Z" transform="translate(-113.5088 -96.6518)" style="fill:url(#fb57e68d-7916-4ccf-9d6a-bb10cb0c1060)"/><path d="M354.6329,446.7932l-3.5779,3.0331-1.1234,3.02,3.19,3.5391s1.0726-5.9921,1.87-7.289S355.3753,447.1725,354.6329,446.7932Z" transform="translate(-113.5088 -96.6518)" style="fill:url(#efea36e2-ba99-4415-8184-d5342ea53b1b)"/><path d="M256.2682,514.0029l-7.8551-19.83s-19.129,12.9973-22.2747,29.4766a45.2693,45.2693,0,0,1,16.629,4.4569C244.1821,520.325,256.2682,514.0029,256.2682,514.0029Z" transform="translate(-113.5088 -96.6518)" style="fill:url(#a7ba5e2f-eb71-4dcb-8057-5c2b663233b9)"/><path d="M272.9848,532.6625s-21.477,12.1378-28.7237,1.7735a8.1466,8.1466,0,0,1-1.4937-6.33,45.2693,45.2693,0,0,0-16.629-4.4569,22.7437,22.7437,0,0,0,2.4721,15.5918c12.6938,23.22,47.2166-1.2833,47.2166-1.2833Z" transform="translate(-113.5088 -96.6518)" style="fill:url(#b3c9bae3-ca78-4cc5-81f8-857c0fd6ae04)"/><path d="M270.4043,548.0181l11.7213-40.9337a1.1937,1.1937,0,0,1,1.01-.86c2.1238-.2478,8.2774-.9434,15.3825-1.5444,8.5582-.724,18.4969-1.31,24.4359-.8115a1.1977,1.1977,0,0,1,.9791,1.7236c-3.3773,6.8327-17.2694,34.6264-24.2261,43.7314a1.2017,1.2017,0,0,1-.9665.4744l-27.1955-.253A1.1977,1.1977,0,0,1,270.4043,548.0181Z" transform="translate(-113.5088 -96.6518)" style="fill:url(#ad1ece16-ed63-49eb-8669-b19a67de67a2)"/><path d="M299.7335,501.1317l8.4982-1.416a.61.61,0,0,1,.6794.7928l-.8411,2.5491a.61.61,0,0,1-.4986.4135l-8.1777,1.0924a.61.61,0,0,1-.6746-.7436l.5207-2.2255A.61.61,0,0,1,299.7335,501.1317Z" transform="translate(-113.5088 -96.6518)" style="fill:url(#b2c9d9c7-83ba-445e-a6ed-a93d2964a032)"/><path d="M293.37,508.3261l.7-3.6467a.8431.8431,0,0,1,.7427-.68l17.1645-1.7416a.8429.8429,0,0,1,.9047,1.0354l-1.0914,4.544a.8431.8431,0,0,1-.7772.6451l-16.7732.8443A.8429.8429,0,0,1,293.37,508.3261Z" transform="translate(-113.5088 -96.6518)" style="fill:url(#e5864c2e-8106-441b-bc9b-54bcf9927b21)"/><path d="M273.2362,538.1285s-1.6328-6.714-.9741-9.096,1.9346-5.4446,6.1883-4.7641a62.2484,62.2484,0,0,1,9.271,2.4724,2.4348,2.4348,0,0,1-3.4862,2.1017l2.0046,1.5511s-.2864,2.4843-3.017,1.1571l1.8645,2.0571a2.173,2.173,0,0,1-3.1817.7317C279.8966,533.0308,278.9335,538.9369,273.2362,538.1285Z" transform="translate(-113.5088 -96.6518)" style="fill:url(#bdceae5b-b984-4fa6-9a30-9635a99ad90f)"/><path d="M270.7453,472.1693l-6.5162,18.8445a.6789.6789,0,0,0,.3095.8177c1.7762.9821,8.1758,3.8209,15.8878-1.0687a3.197,3.197,0,0,0,1.4722-2.2835l2.11-16.31Z" transform="translate(-113.5088 -96.6518)" style="fill:url(#a9f52307-8aec-407d-a396-a14319c907e1)"/><path d="M284.9238,454.7187s7.1555,13.4695,6.2383,18.9105-9.7854,5.05-17.5293.6313l-5.4114-14.544Z" transform="translate(-113.5088 -96.6518)" style="fill:url(#a06886cc-b7f0-4c45-a9da-8b740bc6c3f8)"/><path d="M273.9751,467.1179a.555.555,0,0,0,.2423-.8124,14.4954,14.4954,0,0,1-1.9908-4.2268s-1.2863-.8238,3.274-1.9154,11.3611-2.7858,12.7906-6.6675c1.3936-3.7846-2.2683-13.3021-8.11-5.7187a.5549.5549,0,0,1-.88.0061c-.9578-1.2465-3.4757-3.8337-6.9714-2.2652-3.2713,1.4678-3.64,3.8649-3.5949,5.0731a.5517.5517,0,0,1-.6539.5651c-1.654-.3153-5.6229-.5863-7.4754,3.4853-1.526,3.3536-.5341,5.2521.3691,6.18a.5534.5534,0,0,1-.2369.919c-1.087.3327-2.4907,1.2544-2.35,3.801.1943,3.5208,4.1306,3.2106,5.2514,3.05a.5554.5554,0,0,1,.4929.1744c.961,1.0633,5.2905,5.5787,9.9764,6.1229a.56.56,0,0,0,.5873-.74l-2.0279-5.8948a.5576.5576,0,0,1,.3015-.6913Z" transform="translate(-113.5088 -96.6518)" style="fill:url(#a4e88332-4b8a-405d-b3e0-87be26d571a3)"/><path d="M274.79,467.9547s-5.0948-3.4955-5.4671-.5519,4.5879,4.2639,7.0447,3.1664Z" transform="translate(-113.5088 -96.6518)" style="fill:url(#a9e1a603-cd6d-4512-8e61-d5d36df3de36)"/></svg>