<svg xmlns="http://www.w3.org/2000/svg" xmlns:xlink="http://www.w3.org/1999/xlink" viewBox="0 0 700 425.6452"><defs><filter id="f773423d-934e-4f6f-8212-0eff791e3b0a" x="24.5676" y="-8404.5726" width="641.8249" height="32766" filterUnits="userSpaceOnUse" color-interpolation-filters="sRGB"><feFlood flood-color="#fff" result="bg"/><feBlend in="SourceGraphic" in2="bg"/></filter><mask id="b416d712-2c83-4aab-98c0-26a3ef526bec" x="24.5676" y="-8404.5726" width="641.8249" height="32766" maskUnits="userSpaceOnUse"><g style="filter:url(#f773423d-934e-4f6f-8212-0eff791e3b0a)"/></mask><linearGradient id="fc8cd9de-c0a2-43fa-9b9d-83f35966f6df" x1="636.7981" y1="73.7905" x2="-3.0198" y2="403.4456" gradientUnits="userSpaceOnUse"><stop offset="0" stop-color="gray"/><stop offset="1" stop-color="#333"/></linearGradient><filter id="af08ce4d-a221-498f-b9bb-ad9068aaee98" x="24.5676" y="18.4671" width="641.8249" height="392.1008" filterUnits="userSpaceOnUse" color-interpolation-filters="sRGB"><feFlood flood-color="#fff" result="bg"/><feBlend in="SourceGraphic" in2="bg"/></filter><mask id="b99148c4-b1b4-4045-bed2-b01256b49985" x="24.5676" y="18.4671" width="641.8249" height="392.1008" maskUnits="userSpaceOnUse"><g style="mask:url(#b416d712-2c83-4aab-98c0-26a3ef526bec);filter:url(#af08ce4d-a221-498f-b9bb-ad9068aaee98)"><path d="M661.2292,197.6189c-.2856-2.8663-.672-5.698-1.1359-8.5a130.5679,130.5679,0,0,0-176-159.9639,130.9157,130.9157,0,0,0-98.7644-.8928A130.7037,130.7037,0,0,0,259.7132,55.5667,130.6679,130.6679,0,0,0,112.3038,156.7244a130.5362,130.5362,0,1,0,95.9981,242.5281A129.8671,129.8671,0,0,0,279.0551,377.62a130.555,130.555,0,0,0,152.4635-12.5779,131.2942,131.2942,0,0,0,23.0039,2.0222,129.9278,129.9278,0,0,0,61.8331-15.5534,131.8275,131.8275,0,0,0,15.0052.8637A130.5119,130.5119,0,0,0,661.8727,221.8624c0-1.8347-.0478-3.6581-.1226-5.4744A131.5738,131.5738,0,0,0,661.2292,197.6189Z" style="mix-blend-mode:multiply;fill:url(#fc8cd9de-c0a2-43fa-9b9d-83f35966f6df)"/></g></mask><linearGradient id="e342859d-4e21-4968-85af-906fe8182866" x1="636.7981" y1="73.7905" x2="-3.0198" y2="403.4456" gradientUnits="userSpaceOnUse"><stop offset="0" stop-color="#b3d8ff"/><stop offset="1" stop-color="#b3feff"/></linearGradient></defs><g id="b296264f-7915-4495-8883-2ca5b6b527f4" data-name="sky"><g style="mask:url(#b99148c4-b1b4-4045-bed2-b01256b49985)"><path d="M661.2292,197.6189c-.2856-2.8663-.672-5.698-1.1359-8.5a130.5679,130.5679,0,0,0-176-159.9639,130.9157,130.9157,0,0,0-98.7644-.8928A130.7037,130.7037,0,0,0,259.7132,55.5667,130.6679,130.6679,0,0,0,112.3038,156.7244a130.5362,130.5362,0,1,0,95.9981,242.5281A129.8671,129.8671,0,0,0,279.0551,377.62a130.555,130.555,0,0,0,152.4635-12.5779,131.2942,131.2942,0,0,0,23.0039,2.0222,129.9278,129.9278,0,0,0,61.8331-15.5534,131.8275,131.8275,0,0,0,15.0052.8637A130.5119,130.5119,0,0,0,661.8727,221.8624c0-1.8347-.0478-3.6581-.1226-5.4744A131.5738,131.5738,0,0,0,661.2292,197.6189Z" style="fill:url(#e342859d-4e21-4968-85af-906fe8182866)"/></g></g><g id="b6cdb905-eddc-44ac-85b9-060732d01da0" data-name="clouds"><path d="M243.2646,99.0847c-1.7925-6.6056,1.8825-14.3889,7.8663-16.66s13.32,1.3327,15.7032,7.7141a19.447,19.447,0,0,1,10.0634-1.0683c2.0047.3355,4.995.8359,7.338,3.3284,1.7238,1.8337,1.6042,3.1572,2.5648,4.6444,3.8171,5.91,15.0037-.5909,23.0828,4.6444,4.37,2.832,8.2271,9.3546,6.8394,13.4686-1.8354,5.4411-12.0253,4.2421-48.3029,4.18-23.5612-.04-32.1421.4434-34.838-5.3411-2.4558-5.27.2678-15.1073,4.6929-16.368C239.1875,97.3671,240.83,97.2849,243.2646,99.0847Z" style="fill:#fff"/><path d="M257.27,109.7252c1.2074-4.45-1.268-9.6923-5.2987-11.2221s-8.9722.8977-10.5775,5.1962a13.0986,13.0986,0,0,0-6.7786-.72,8.1266,8.1266,0,0,0-4.9429,2.242c-1.161,1.2351-1.0805,2.1266-1.7276,3.1284-2.5712,3.9807-10.1063-.398-15.5483,3.1284-2.9439,1.9076-5.5418,6.3012-4.6069,9.0724,1.2362,3.6651,8.1,2.8573,32.5363,2.8156,15.8706-.0272,21.6507.2986,23.4666-3.5977,1.6543-3.55-.18-10.1762-3.161-11.0254C260.0167,108.5682,258.91,108.5128,257.27,109.7252Z" style="fill:#efffff"/><path d="M546.3249,267.4456c-1.243-4.5807,1.3055-9.978,5.455-11.553s9.2368.9242,10.8894,5.35a13.4847,13.4847,0,0,1,6.9786-.7409,8.3654,8.3654,0,0,1,5.0886,2.3082c1.1954,1.2715,1.1124,2.1893,1.7786,3.2206,2.647,4.0981,10.4044-.41,16.0069,3.2207,3.0307,1.9638,5.7051,6.487,4.7429,9.34-1.2728,3.7733-8.339,2.9417-33.4961,2.8986-16.3386-.028-22.2891.3075-24.1586-3.7038-1.7031-3.6542.1857-10.4762,3.2543-11.35C543.4976,266.2546,544.6367,266.1976,546.3249,267.4456Z" style="fill:#fff"/><path d="M558.78,272.4736c.8372-3.0855-.8794-6.7212-3.6745-7.782a5.9121,5.9121,0,0,0-7.335,3.6033,9.0833,9.0833,0,0,0-4.7008-.499,5.6352,5.6352,0,0,0-3.4277,1.5547c-.805.8565-.7492,1.4747-1.198,2.1694-1.7829,2.7605-7.0083-.276-10.7821,2.1694-2.0414,1.3229-3.8429,4.37-3.1947,6.2914.8573,2.5416,5.6171,1.9814,22.5627,1.9524,11.0055-.0188,15.0138.2072,16.273-2.4948,1.1472-2.4615-.1251-7.0568-2.192-7.6456A2.6389,2.6389,0,0,0,558.78,272.4736Z" style="fill:#efffff"/></g><g id="eac129cb-5c58-4c41-b319-67b669107f0a" data-name="smoke"><path d="M294.2808,379.7141a14.12,14.12,0,0,0-25.1532,1.113,14.1242,14.1242,0,0,0-18.7971,5.938,15.0429,15.0429,0,0,0-1.678-.1017,14.07,14.07,0,0,0-5.0849.9492,14.1126,14.1126,0,0,0-21.52,2.7741,14.12,14.12,0,0,0-21.701,3.1978,14.1284,14.1284,0,0,0-10.9269,8.2375,14.12,14.12,0,0,0-22.1249,3.5537,14.1631,14.1631,0,0,0-6.9267-6.3A14.13,14.13,0,0,0,148.65,377.0586a13.927,13.927,0,0,0-1.695.1074v-.1074a14.1706,14.1706,0,0,0-.791-4.6667A14.124,14.124,0,0,0,154.65,348.99a14.4165,14.4165,0,0,0,.2147-2.4407c0-.3334-.017-.6611-.04-.9888a14.1192,14.1192,0,0,0,17.0965-10.1358,14.0921,14.0921,0,0,0,12.119-2.7176,14.1217,14.1217,0,0,0,23.8254-15.0908,14.6394,14.6394,0,0,0,1.8023.1186,14.126,14.126,0,0,0,13.9439-11.876,14.1091,14.1091,0,0,0,11.2715-6.1357A14.1251,14.1251,0,0,0,255.5,293.1751v-.0057a14.1362,14.1362,0,0,0-5.9041-17.5541,14.1151,14.1151,0,0,0-12.2432-21.1588,14.1372,14.1372,0,0,0-13.232,9.17,14.1173,14.1173,0,0,0-22.17,2.9944,14.1169,14.1169,0,0,0-21.8593,8.3731,14.1216,14.1216,0,0,0-21.317,2.9492,14.1242,14.1242,0,0,0-24.2266,9.04,14.1309,14.1309,0,0,0-12.3506-.0621,14.1261,14.1261,0,0,0-26.3793,3.7346,14.1283,14.1283,0,0,0-24.7238-1.2487,14.1215,14.1215,0,0,0-20.961-16.3733,14.1232,14.1232,0,0,0-11.1415-6.1358c.0283-.3729.0508-.757.0508-1.1412v-.0339a14.1264,14.1264,0,1,0-20.9045-12.3958v.0339a14.1293,14.1293,0,0,0-.4576,24.526,15.4375,15.4375,0,0,0-5.7572,2.5594,20.9144,20.9144,0,0,0-6.2149,7.5369v60.2163c6.6612,25.2041,20.1192,52.7472,40.5492,74.6235H164.04a14.281,14.281,0,0,0,3.2543-4.0227,14.2831,14.2831,0,0,0,3.2544,4.0227h18.3451a14.1288,14.1288,0,0,0,3.7346-4.9889,14.1155,14.1155,0,0,0,21.8423-3.0621,14.12,14.12,0,0,0,9.9381-6.407,14.1119,14.1119,0,0,0,14.6388,2.7741,14.1188,14.1188,0,0,0,22.0515-3.6725,15.0429,15.0429,0,0,0,1.678.1017,14.1207,14.1207,0,0,0,12.8591-8.2884,14.1218,14.1218,0,0,0,18.6445-19.5654ZM69.7043,292.39a13.6522,13.6522,0,0,0-.5763,2.4691c-.3277-.1357-.65-.2713-.9774-.4069A14.6031,14.6031,0,0,0,69.7043,292.39Z" style="fill:#fff"/></g><g id="b5f53cf8-befa-464b-9c17-219c52e40139" data-name="rocket"><path d="M309.1991,258.4437v.0048a17.2771,17.2771,0,0,1-2.0576,3.6932,44.4554,44.4554,0,0,1-7.9882,8.24c-.98.8154-2.0188,1.6307-3.12,2.4557-1.5044,1.1307-3.12,2.2664-4.8336,3.4068h-.0049q-2.06,1.3686-4.3046,2.7274c-3.106,1.8976-6.474,3.7757-10.06,5.62a211.8476,211.8476,0,0,1-23.3674,10.2109c-34.7673,12.8411-69.85,4.5861-69.85,4.5861s21.29-29.0795,56.0624-41.9207a208.4768,208.4768,0,0,1,27.6188-8.1628c2.776-.6018,5.4694-1.1162,8.0609-1.5384q2.5989-.4222,5.0569-.7231h.0049c2.0431-.2475,4.0085-.4368,5.8867-.5533,1.1308-.0728,2.2325-.1262,3.3-.15a45.3843,45.3843,0,0,1,12.0938,1.0531,17.7085,17.7085,0,0,1,3.9649,1.47c.0049,0,.0049.0048.01.0048a6.9561,6.9561,0,0,1,3.5281,9.5751Z" style="fill:#f7bd3c"/><path d="M310.5082,252.5177c2.6477,7.1682-14.8041,20.2178-38.9795,29.1473s-48.5673,3.1893-48.5673,3.1893,14.8041-20.2178,38.9794-29.1472S307.8606,245.35,310.5082,252.5177Z" style="fill:#ea942d"/><polygon points="358.754 227.059 312.732 244.059 300.279 234.096 296.004 230.67 268.516 208.676 314.537 191.675 337.347 209.928 344.5 215.654 358.754 227.059" style="fill:#19c6d8"/><polygon points="363.718 240.502 361.132 254.091 358.589 267.432 353.119 296.133 307.098 313.133 313.688 278.55 315.416 269.48 317.697 257.502 363.718 240.502" style="fill:#19c6d8"/><path d="M486.3842,192.2383a301.4579,301.4579,0,0,1-37.7956,32.03c-17.1361,12.2831-38.6352,25.0176-63.4731,34.19-9.0267,3.3293-17.9078,6.3285-26.5268,8.9734A387.3185,387.3185,0,0,1,313.6882,278.55c-.15.0291-.3009.0582-.4514.0826h-.0048c-7.197,1.2811-13.9185,2.1886-20.0576,2.7128-.0292.0048-.0631.0048-.0922.01l-1.5191-4.1057-.3688-1.0046-1.0774-2.9167-1.7228-4.6638-6.9059-18.7036v-.0049l-.0486-.1262-1.0288-2.7856-.3688-1.0046h-.0049l-1.1938-3.2467-.32-.859c.0243-.0194.0485-.034.0727-.0533,5.0036-3.5914,10.7059-7.2748,17.01-10.9777.1311-.0776.2669-.1553.398-.2329a388.2466,388.2466,0,0,1,41.3432-20.742c8.2744-3.5913,16.9711-7.0855,25.9929-10.4195a271.61,271.61,0,0,1,70.4567-15.2823,303.6985,303.6985,0,0,1,46.5748-.4513c.2087.0145.4173.0291.6211.0437.82.0582,1.6016.1164,2.3489.18A4.8435,4.8435,0,0,1,486.3842,192.2383Z" style="fill:#ecf5f7"/><polygon points="296.931 275.264 291.568 277.244 291.563 277.249 286.89 278.972 286.201 279.229 284.992 275.954 283.065 270.741 275.883 251.295 275.587 250.49 274.675 248.019 275.354 247.767 280.037 246.039 280.042 246.039 285.405 244.059 286.302 246.491 286.827 247.908 287.191 248.888 294.766 269.407 295.145 270.431 296.033 272.838 296.931 275.264" style="fill:#6ee1f4"/><path d="M313.2515,278.6809l-13.545,5.0084a5.3923,5.3923,0,0,1-6.5321-2.344,5.1187,5.1187,0,0,1-.4077-.8542l-1.1987-3.2467-.3688-1-1.0775-2.9167-1.7228-4.6638-6.9107-18.7036v-.0049l-.0486-.1262-1.0239-2.7856h-.0049l-.3688-1.0046-1.1987-3.2467a5.2085,5.2085,0,0,1-.2476-.9123,5.4,5.4,0,0,1,3.4409-6.0276l13.55-5.0035.0194.0534,2.2858,6.1828,3.8048,10.3079.2815.7668L306.86,261.375l.2815.7667,3.1253,8.4541,2.9652,8.0367Z" style="fill:#19c6d8"/><path d="M486.3842,192.2383a301.4579,301.4579,0,0,1-37.7956,32.03l-3.8824-10.5116-8.5657-23.188-2.344-6.3429a303.6985,303.6985,0,0,1,46.5748-.4513c.2087.0145.4173.0291.6211.0437.82.0582,1.6016.1164,2.3489.18A4.8435,4.8435,0,0,1,486.3842,192.2383Z" style="fill:#6ee1f4"/><path d="M486.3842,192.2383a301.4579,301.4579,0,0,1-37.7956,32.03c-17.1361,12.2831-38.6352,25.0176-63.4731,34.19-9.0267,3.3293-17.9078,6.3285-26.5268,8.9734l-5.4694,28.7009-46.0215,17,6.59-34.5829c-.15.0291-.3009.0582-.4514.0826h-.0048l.0195.0484-13.545,5.0084a5.3923,5.3923,0,0,1-6.5321-2.344c-.0292.0048-.0631.0048-.0922.01l-1.5191-4.1057-4.6734,1.7228-.6892.2573-1.2084-3.2759-1.9267-5.2121a10.3067,10.3067,0,0,1,1.33-.8784,9.6832,9.6832,0,0,1,3.9989-1.1988h.0048a20.9577,20.9577,0,0,1,6.3672.7426c.4853.1116.9755.228,1.4706.3445.8929.2087,1.8.4223,2.7176.597.068.0145.1359.0242.199.0339a32.4347,32.4347,0,0,0,11.1135.2136,42.41,42.41,0,0,0,5.1491-1.1163c6.042-1.6742,12.584-4.5861,21.3923-7.8667a193.54,193.54,0,0,1,24.3235-7.5223c17.3254-3.98,22.7365-1.718,39.2515-10.9194,8.4977-4.7365,11.5648-7.8425,16.7237-12.0113l.0048-.0048c1.1308-.9124,2.3634-1.8782,3.7805-2.9265a154.4167,154.4167,0,0,1,14.433-9.3226c3.7029-2.15,6.77-3.81,9.381-5.1491,10.6282-5.4549,13.6419-5.581,20.708-11.8367a73.5314,73.5314,0,0,0,12.2782-14.2145,13.9885,13.9885,0,0,0,1.7956-1.8,12.9811,12.9811,0,0,0,1.5044-2.0868c.82.0582,1.6016.1164,2.3489.18A4.8435,4.8435,0,0,1,486.3842,192.2383Z" style="fill:gray;opacity:0.11"/><path d="M480.9924,183.8183a12.9811,12.9811,0,0,1-1.5044,2.0868,13.9885,13.9885,0,0,1-1.7956,1.8c-7.8523,6.5758-21.4651,2.9215-41.5519,2.8632-2.5866-.0048-5.285.0486-8.0949.1893a158.4985,158.4985,0,0,0-46.5893,9.7061c-12.5161,4.8-15.3842,7.9736-32.03,13.5886-1.7762.5969-3.3777,1.1162-4.9259,1.6015-5.6392,1.7665-10.5553,3.14-20.31,6.6487-18.3008,6.5808-21.4408,9.1-23.78,11.6473l-.1311.1456a31.1894,31.1894,0,0,0-2.3877,2.9895c-2.4265,3.3923-3.81,6.3381-8.289,9.2548-.1165.0776-.233.15-.3543.2281a24.6638,24.6638,0,0,1-2.4216,1.3394,25.7866,25.7866,0,0,1-5.387,1.9218,24.9773,24.9773,0,0,1-4.324.6212c-.4611.0243-.98.0388-1.5287.0388l-.9124-2.47.6794-.2524,4.6832-1.7277-1.1938-3.2467-.32-.859c.0243-.0194.0485-.034.0727-.0533a5.4,5.4,0,0,1,3.4409-6.0276l13.55-5.0035.0194.0534c.1311-.0776.2669-.1553.398-.2329L268.516,208.6756l46.0215-17,22.8094,18.2523c8.2744-3.5913,16.9711-7.0855,25.9929-10.4195a271.61,271.61,0,0,1,70.4567-15.2823,303.6985,303.6985,0,0,1,46.5748-.4513C480.58,183.7891,480.7886,183.8037,480.9924,183.8183Z" style="fill:#fff;opacity:0.2"/><circle cx="408.6155" cy="216.2806" r="17.1301" transform="translate(-1.1306 2.1496) rotate(-0.301)" style="fill:#6ee1f4"/><circle cx="408.6154" cy="216.2806" r="9.8677" transform="translate(-29.9412 362.609) rotate(-46.3441)" style="fill:#f7dfad"/></g><g id="f32cd7aa-3673-465e-a0ce-8e8bb2a0b18c" data-name="girl"><path d="M401.9133,157.06a3.4083,3.4083,0,0,0,3.0786-3.3863,2.5477,2.5477,0,0,0-.3085-1.2554c-1.1962-2.14-5.09-1.0439-14.8128-1.8016-6.2492-.487-8.2121-.716-8.2121-.716-4.8648-.5675-7.3729-1.12-9.3866.4055a6.0218,6.0218,0,0,0-2.0127,3.037,2.8576,2.8576,0,0,0,.1508,1.4688c.511,1.2784,1.96,1.8174,2.8986,2.1118,5.2226,1.6387,12.5374,1.3244,15.9582,1.1375.318-.0174,1.1513-.0636,2.4219-.1469C395.7842,157.6461,399.2472,157.3328,401.9133,157.06Z" style="fill:#efaf70"/><path d="M398.4122,156.394c-.9239-1.0957-.3313-3.1928.55-4.5717,1.25-1.9569,3.1472-2.5779,5.6095-3.8421a43.448,43.448,0,0,0,8.77-6.1418c1.3547-1.1541,6.1658-5.3994,9.3-8.6706a7.05,7.05,0,0,1,3.0793-2.0283c.383-.1091,1.984-.6335,2.3843-.0826.1754.2413.498,1.2064-6.1554,8.6053-2.1826,2.4271-4.1166,4.4354-7.3128,7.6315-7.2882,7.2881-9.4215,8.0342-11.9315,9.4981A3.3526,3.3526,0,0,1,398.4122,156.394Z" style="fill:#efaf70"/><path d="M428.16,131.6972a10.5777,10.5777,0,0,0,.6093-4.397,1.6666,1.6666,0,0,0-.56-1.14c-.608-.4081-1.44.1838-2.0033.8437a10.4957,10.4957,0,0,0-2.3895,5.967,2.4466,2.4466,0,0,0,.2957,1.61,1.23,1.23,0,0,0,.6339.4082,2.4113,2.4113,0,0,0,2.2852-.695A5.1845,5.1845,0,0,0,428.16,131.6972Z" style="fill:#efaf70"/><path d="M377.562,121.0709a9.2839,9.2839,0,0,0-6.257.5124,6.9205,6.9205,0,0,0-2.8222,1.8828c-1.4337,1.7439-1.3445,4.2256-1.5785,6.4711s-1.2651,4.8415-3.4854,5.25c1.0769,2.2655,3.4031,3.68,5.76,4.54a21.335,21.335,0,0,0,14.4375.0169q-.2181-4.4883-.4364-8.9765C383.014,127.3584,381.1666,122.2362,377.562,121.0709Z" style="fill:#1c68da"/><rect x="353.9808" y="259.5837" width="1.4925" height="4.2061" transform="matrix(0.7694, 0.6388, -0.6388, 0.7694, 248.9726, -166.2469)" style="fill:#195fb2"/><path d="M364.94,272.5051a1.19,1.19,0,0,1-1.181.1553,7.296,7.296,0,0,1-1.0588-.5421c-3.08-1.9123-3.0359-5.1489-5.6549-8.4488a12.9963,12.9963,0,0,0-1.3506-1.4567,2.5082,2.5082,0,0,1,.1746-3.8272l.7946-.6111a1.1921,1.1921,0,0,1,1.2737-.1119,7.3749,7.3749,0,0,1,2.6286,2.1734c2.38,3.22.6286,6.8978,3.1061,9.7062a5.8662,5.8662,0,0,0,1.1912,1.0261,1.1879,1.1879,0,0,1,.0765,1.9368Z" style="fill:#195fb2"/><path d="M362.1675,264.9143c-.0091.2-.0265.29-.0932.3313-.1419.0868-.4566-.082-.6-.3191a.5638.5638,0,0,1-.0451-.09,18.0671,18.0671,0,0,0-3.1068-5.526c-.2075-.2521.27-.5478.3528-.6375.3721-.4014.7473-.35,1.8558-.6541.9287-.2548,1.128-.4178,1.2941-.28.25.2076-.0828.6738-.1344,1.75a13.6163,13.6163,0,0,0,.1771,2.0816c.0343.3415.0674.7551.0925,1.2831h0a11.2454,11.2454,0,0,0,.1659,1.19A4.0228,4.0228,0,0,1,362.1675,264.9143Z" style="fill:#f7c589"/><path d="M359.8139,261.4255a17.2328,17.2328,0,0,0-2.2714-3.024.9009.9009,0,0,1-.0938-1.0784,75.8661,75.8661,0,0,0,7.5286-16.4259c1.6806-4.647,2.4707-7.9634,5.2127-12.1333a34.8138,34.8138,0,0,1,10.5205-10.1929,4.17,4.17,0,1,1,7.3372,3.902,62.819,62.819,0,0,0-5.2289,4.37,71.6628,71.6628,0,0,0-10.5456,12.7593,93.8257,93.8257,0,0,0-9.61,16.6763c-.8069,1.8309-1.4557,3.4722-1.9606,4.83C360.4257,261.8526,360.1777,262.1311,359.8139,261.4255Z" style="fill:#f7c589"/><path d="M383.9948,224.4543l-31.4762-22.41c-2.5409-1.85-2.8015-5.8206-.5822-8.8693h0a10.3655,10.3655,0,0,1,4.6039-3.0122c4.8077-1.3242,7.4421,3.3484,15.1916,10.5959,4.5415,4.2474,16.4513,14.6281,16.4963,19.2251a4.705,4.705,0,0,1-.6261,2.3972A5.3487,5.3487,0,0,1,383.9948,224.4543Z" style="fill:#f7c589"/><path d="M380,208.2291c-7.28,7.28-16.3724,11.0059-23.78,9.7062-12.89-2.2618-10.73-2.9128-18.4416-8.25,5.3383-3.8825,3.953-5.7814,5.6836-10.6832,0,0,3.6979-10.5038,7.1406-14.5108,1.9706-2.2935,4.0432-4.647,4.0432-4.647.8377-.9515.839-.9459,1.0584-1.2027a40.1224,40.1224,0,0,0,3.8837-5.4335c-.2795-3.89-.4607-7.25-.5821-9.9232-.3615-7.9659-.19-9.8.5894-11.96a13.1132,13.1132,0,0,1,5.3543-7.1178,8.5542,8.5542,0,0,1,5.56-1.4154c3.0151.4125,4.8417,2.7179,6.3747,4.7549.7622,1.0129,4.6089,6.0344,3.6921,12.2843a7.0443,7.0443,0,0,1-.2667,1.2033,13.5917,13.5917,0,0,1-1.24,2.6244c-.241.4347-.5737,1.2484-1.2394,2.8758a116.53,116.53,0,0,0-4.0658,13.4859C372.5666,186.3112,368.353,194.1553,380,208.2291Z" style="fill:#19517f"/><path d="M375.6718,142.0675a38.5924,38.5924,0,0,0-.4894,4.8413,7.5046,7.5046,0,0,1-4.11.062,7.7647,7.7647,0,0,1-4.5076-3.4969,15.56,15.56,0,0,0,3.1963-3.7128,16.0523,16.0523,0,0,0,2.3244-8.4164c.17.0438.34.0868.51.1306q2.8847.7394,5.77,1.48a38.7859,38.7859,0,0,0-2.4091,7.5942Q375.8011,141.2911,375.6718,142.0675Z" style="fill:#f2b879"/><path d="M378.2543,133.5687a38.7754,38.7754,0,0,0-2.4092,7.5941c-2.0876-1.0574-3.61-4.4348-3.5629-7.3208a9.3752,9.3752,0,0,1,.2025-1.7536Q375.3692,132.8279,378.2543,133.5687Z" style="fill:#eda966"/><path d="M382.0228,127.808c.6086,1.0711.5993,2.2371.5806,4.5693a9.7756,9.7756,0,0,1-.5139,4.0915c-.5667,1.3113-2.0548,3.5309-4,3.6587-2.691.1767-5.2564-3.7141-5.5447-7.1346-.26-3.0811,1.1869-7.4523,4.2648-7.9665A5.506,5.506,0,0,1,382.0228,127.808Z" style="fill:#f7c589"/><path d="M382.0163,126.5443a5.0809,5.0809,0,0,1,.4263,2.7971,1.016,1.016,0,0,0,1.0252,1.1318h0a1.0184,1.0184,0,0,0,.8878-.558,5.8651,5.8651,0,0,0-.3807-5.8915,3.859,3.859,0,0,0-1.4644-1.3106,4.0121,4.0121,0,0,0-1.1767-.3256,2.2434,2.2434,0,0,0-2.1587.6246c-.8768,1.208-.0709,1.314.7473,1.68A3.9181,3.9181,0,0,1,382.0163,126.5443Z" style="fill:#1c68da"/><path d="M371.9024,133.49l-.4695-.31a1.4453,1.4453,0,0,1-.6253-1.4679l.6265-3.4026a5.9974,5.9974,0,0,1,6.9843-4.8121h0a1.4464,1.4464,0,0,1,1.1535,1.126,4.0505,4.0505,0,0,1-.3276,3.0387c-.9348,1.5415-2.7385,1.337-4.1049,2.9224a4.8922,4.8922,0,0,0-1.0258,2.0564A1.4521,1.4521,0,0,1,371.9024,133.49Z" style="fill:#1c68da"/><path d="M367.228,178.7292a3.4084,3.4084,0,0,0,4.0757,2.0819,2.5492,2.5492,0,0,0,1.13-.6273c1.7509-1.7159-.3288-5.1857-2.15-14.7663-1.17-6.1578-1.4647-8.1121-1.4647-8.1121-.7294-4.8431-.8548-7.4082-2.8552-8.9509a6.0215,6.0215,0,0,0-3.4588-1.145,2.8573,2.8573,0,0,0-1.3778.5311c-1.0993.8286-1.239,2.3685-1.2768,3.3513-.21,5.47,2.013,12.4453,3.0913,15.6972.1.3023.3636,1.0942.7776,2.2984C365.0537,172.969,366.2651,176.2283,367.228,178.7292Z" style="fill:#f7c589"/><path d="M366.9361,176.0087c.615-1.2947,2.7691-1.6236,4.3891-1.3928,2.2987.3275,3.65,1.7973,5.82,3.5151a43.4479,43.4479,0,0,0,9.222,5.44c1.6114.7552,7.4678,3.3767,11.743,4.8749a7.0477,7.0477,0,0,1,3.1213,1.963c.258.3034,1.3982,1.5437,1.0626,2.1362-.1471.26-.892.9527-10.3818-2.04-3.113-.9817-5.7418-1.9105-9.9745-3.4964-9.6518-3.6163-11.2143-5.2492-13.5861-6.9277A3.3531,3.3531,0,0,1,366.9361,176.0087Z" style="fill:#f7c589"/><path d="M399.6337,193.8291a10.5785,10.5785,0,0,0,3.7606,2.3583,1.6664,1.6664,0,0,0,1.27-.0437c.6215-.3872.423-1.389.0518-2.1731a10.4941,10.4941,0,0,0-4.4627-4.6255,2.4456,2.4456,0,0,0-1.59-.39,1.2306,1.2306,0,0,0-.6322.4109,2.4112,2.4112,0,0,0-.303,2.3691C398.0542,192.6747,398.8578,193.1749,399.6337,193.8291Z" style="fill:#f7c589"/></g><g id="a04a50a9-a017-462e-b1c2-3c13d4bba1b3" data-name="money"><circle cx="584.7335" cy="89.6637" r="40.5901" transform="translate(221.7921 556.8108) rotate(-60.8731)" style="fill:#cc9126"/><path d="M617.8979,105.0381a36.3016,36.3016,0,0,1-10.5385,13.3408.3878.3878,0,0,1-.08.07A36.5635,36.5635,0,0,1,560.1622,62.59a.418.418,0,0,1,.08-.07,36.5573,36.5573,0,0,1,57.6558,42.5183Z" style="fill:#d8a536"/><path d="M615.9524,106.6754a36.4075,36.4075,0,0,1-8.593,11.7035.3878.3878,0,0,1-.08.07A36.5635,36.5635,0,0,1,560.1622,62.59a.418.418,0,0,1,.08-.07,36.5613,36.5613,0,0,1,55.71,44.1556Z" style="fill:#e7bb49"/><path d="M582.0036,119.3936l-.167-7.0691a20.39,20.39,0,0,1-10.7816-2.8265l1.5693-4.7293a18.6634,18.6634,0,0,0,10.15,2.772c4.9692-.1175,8.2609-3.0672,8.1667-7.0557-.091-3.85-2.8767-6.1649-8.1057-8.1425C575.63,89.7113,571.1443,86.5962,571,80.5067c-.1372-5.809,3.888-10.3166,10.3023-11.5177l-.1671-7.0691,4.34-.1025.16,6.7885a18.6737,18.6737,0,0,1,9.1565,2.2349l-1.64,4.66a16.9246,16.9246,0,0,0-8.8753-2.1711c-5.39.1273-7.343,3.3946-7.2769,6.1945.0861,3.64,2.7188,5.3978,8.8673,7.7742,7.2789,2.7693,11.0041,6.323,11.1513,12.5513.1306,5.5294-3.5964,10.8-10.7772,12.16l.172,7.2793Z" style="fill:#cc9126"/></g></svg>