<svg id="f35dd2df-b058-4540-92d0-bab2dc73486d" data-name="Illustration" xmlns="http://www.w3.org/2000/svg" xmlns:xlink="http://www.w3.org/1999/xlink" viewBox="0 0 570 380"><defs><linearGradient id="a5bde2c3-cf13-45c5-8a90-3730f89522c7" x1="-5140.4834" y1="187.7857" x2="-4609.3121" y2="187.7857" gradientTransform="matrix(-1, 0, 0, 1, -4585.2142, 0)" gradientUnits="userSpaceOnUse"><stop offset="0" stop-color="#b37cff"/><stop offset="1" stop-color="#f895e7"/></linearGradient><linearGradient id="bc59e1b8-6a84-4992-80f2-7188424f52cb" x1="-3413.2363" y1="179.588" x2="-2950.897" y2="179.588" gradientTransform="translate(3478.3618)" xlink:href="#a5bde2c3-cf13-45c5-8a90-3730f89522c7"/><linearGradient id="ac0c54f6-fb3d-4d63-b0aa-9f73aca33852" x1="195.507" y1="102.9583" x2="255.4267" y2="213.7401" gradientUnits="userSpaceOnUse"><stop offset="0" stop-color="#a737d5"/><stop offset="1" stop-color="#ef497a"/></linearGradient><linearGradient id="a6fe4865-8774-45da-afaf-86e0d0ac7019" x1="249.4352" y1="210.0448" x2="221.5655" y2="149.4283" xlink:href="#ac0c54f6-fb3d-4d63-b0aa-9f73aca33852"/><linearGradient id="a2cca3f7-41e0-48e0-bfb2-3b3f30541a06" x1="288.6013" y1="160.1725" x2="348.521" y2="270.9543" xlink:href="#ac0c54f6-fb3d-4d63-b0aa-9f73aca33852"/><linearGradient id="f38d85af-cb60-41f0-8953-7c2bce3f4d46" x1="342.5296" y1="267.2591" x2="314.6599" y2="206.6425" xlink:href="#ac0c54f6-fb3d-4d63-b0aa-9f73aca33852"/><linearGradient id="bf302644-cf71-4640-86b0-b196b7c451b4" x1="296.3591" y1="47.6836" x2="356.2789" y2="158.4654" xlink:href="#ac0c54f6-fb3d-4d63-b0aa-9f73aca33852"/><linearGradient id="f88fafaf-e520-4c9d-b519-5e80dec42c23" x1="350.2874" y1="154.7701" x2="322.4177" y2="94.1535" xlink:href="#ac0c54f6-fb3d-4d63-b0aa-9f73aca33852"/><linearGradient id="bc6ea721-0b48-4b31-8ef3-fd1f3f16d1bc" x1="-1086.486" y1="208.7543" x2="-1031.6296" y2="132.9094" gradientTransform="matrix(-1, 0, 0, 1, -984.7545, 0)" xlink:href="#a5bde2c3-cf13-45c5-8a90-3730f89522c7"/><linearGradient id="a8d14efd-827e-4baf-ac05-befd1ec66b57" x1="3475.9456" y1="121.5133" x2="3430.3311" y2="342.8059" gradientTransform="matrix(-1, 0, 0, 1, 3557.6653, 0)" gradientUnits="userSpaceOnUse"><stop offset="0" stop-color="#2b3582"/><stop offset="1" stop-color="#150e42"/></linearGradient><linearGradient id="bcdc9ee0-b7ac-436f-96c4-45b2b4a2e850" x1="3548.237" y1="176.019" x2="3384.3324" y2="464.2023" gradientTransform="matrix(-1, 0, 0, 1, 3557.6653, 0)" xlink:href="#ac0c54f6-fb3d-4d63-b0aa-9f73aca33852"/><linearGradient id="a4c5408c-3051-48e7-8674-051074a56a40" x1="3499.6989" y1="219.2935" x2="3473.5051" y2="346.3693" xlink:href="#a8d14efd-827e-4baf-ac05-befd1ec66b57"/><linearGradient id="bae6647a-68b6-4c60-8e3e-8f22ad4b2a73" x1="2143.8816" y1="-490.4644" x2="2475.3703" y2="-824.3384" gradientTransform="matrix(0.9764, -0.2161, 0.2161, 0.9764, -876.6902, -90.0443)" gradientUnits="userSpaceOnUse"><stop offset="0" stop-color="#fdf53f"/><stop offset="1" stop-color="#d93c65"/></linearGradient><linearGradient id="b2720978-0b1d-4225-8546-f71a8caea701" x1="1078.4222" y1="636.6575" x2="1164.6899" y2="636.6575" gradientTransform="matrix(0.9764, -0.2161, 0.2161, 0.9764, -876.6902, -90.0443)" gradientUnits="userSpaceOnUse"><stop offset="0" stop-color="#f9b776"/><stop offset="1" stop-color="#f47960"/></linearGradient><linearGradient id="ff83bd7f-26aa-41e3-87cf-03f48c16c03b" x1="228.1221" y1="185.6647" x2="110.838" y2="318.4576" gradientTransform="matrix(1, 0, 0, 1, 0, 0)" xlink:href="#bae6647a-68b6-4c60-8e3e-8f22ad4b2a73"/><linearGradient id="ba9005fe-1c73-478a-bdde-8801f71e3361" x1="982.6582" y1="484.4638" x2="1039.8948" y2="484.4638" xlink:href="#b2720978-0b1d-4225-8546-f71a8caea701"/><linearGradient id="e560e907-c9bf-4629-8e93-50106cc4e26e" x1="178.6287" y1="141.9514" x2="61.3442" y2="274.7447" gradientTransform="matrix(1, 0, 0, 1, 0, 0)" xlink:href="#bae6647a-68b6-4c60-8e3e-8f22ad4b2a73"/><linearGradient id="a814cf5c-f94f-4beb-8e12-951e986fc3ae" x1="1242.7774" y1="149.3669" x2="1052.29" y2="480.378" gradientTransform="matrix(0.9952, 0.0978, -0.0978, 0.9952, -1079.1155, 40.134)" xlink:href="#b2720978-0b1d-4225-8546-f71a8caea701"/><linearGradient id="b5eccb01-1588-4342-a038-3909b6b874fc" x1="780.6029" y1="-920.5838" x2="709.0465" y2="-825.9206" gradientTransform="translate(-485.3229 1071.7606) rotate(-2.3153)" xlink:href="#b2720978-0b1d-4225-8546-f71a8caea701"/><linearGradient id="ad97c789-a23d-404a-b506-e432785cc1a0" x1="725.9533" y1="-897.7485" x2="811.4277" y2="-897.7485" gradientTransform="translate(-485.3229 1071.7606) rotate(-2.3153)" xlink:href="#a8d14efd-827e-4baf-ac05-befd1ec66b57"/><linearGradient id="a437cf86-26d5-4f84-a517-3e5219d30dce" x1="675.8019" y1="-845.6175" x2="733.195" y2="-904.5013" gradientTransform="translate(-485.3229 1071.7606) rotate(-2.3153)" xlink:href="#b2720978-0b1d-4225-8546-f71a8caea701"/><linearGradient id="b632effb-b382-4f21-abdc-0135a80b04ee" x1="8997.4964" y1="347.7826" x2="9500.2368" y2="347.7826" gradientTransform="matrix(-1, 0, 0, 1, 9532.8829, 0)" gradientUnits="userSpaceOnUse"><stop offset="0" stop-color="#9cfffb"/><stop offset="1" stop-color="#9bfffa"/></linearGradient><linearGradient id="ae0fd291-be8b-4f9b-8f66-cfc8849ae917" x1="9248.0448" y1="889.4787" x2="9135.8362" y2="920.2321" gradientTransform="matrix(-0.9988, -0.0494, -0.0494, 0.9988, 9493.9849, -134.5888)" xlink:href="#a8d14efd-827e-4baf-ac05-befd1ec66b57"/><linearGradient id="a8709f49-2346-4e28-a8b4-3137bc87cc3d" x1="9167.9164" y1="224.4814" x2="9088.2993" y2="308.6317" gradientTransform="matrix(-1, 0, 0, 1, 9532.8829, 0)" xlink:href="#a8d14efd-827e-4baf-ac05-befd1ec66b57"/><linearGradient id="e24427ce-8c3e-4584-b09e-f0ab2a078243" x1="9119.7842" y1="245.4343" x2="9083.6592" y2="299.8344" gradientTransform="matrix(-1, 0, 0, 1, 9532.8829, 0)" gradientUnits="userSpaceOnUse"><stop offset="0" stop-color="#53d8ff"/><stop offset="1" stop-color="#3840f7"/></linearGradient><linearGradient id="bafb3f94-e98c-4914-a45f-993e51ec754b" x1="-59.4231" y1="153.7359" x2="-66.9436" y2="161.0542" gradientTransform="translate(480.859 -29.4832) rotate(0.3781)" xlink:href="#e24427ce-8c3e-4584-b09e-f0ab2a078243"/><linearGradient id="a8865438-2fc6-4692-844e-e0caad9405c7" x1="-61.6279" y1="154.9148" x2="-71.3861" y2="169.6567" gradientTransform="translate(480.859 -29.4832) rotate(0.3781)" xlink:href="#e24427ce-8c3e-4584-b09e-f0ab2a078243"/><linearGradient id="b3b6b52b-39f0-4c1f-854b-6f3741102449" x1="-59.3246" y1="168.65" x2="-66.8451" y2="175.9683" gradientTransform="translate(480.859 -29.4832) rotate(0.3781)" xlink:href="#e24427ce-8c3e-4584-b09e-f0ab2a078243"/><linearGradient id="ab66bfe2-a2e7-4af5-b17d-f84f1290291d" x1="-61.5295" y1="169.8289" x2="-71.2877" y2="184.5707" gradientTransform="translate(480.859 -29.4832) rotate(0.3781)" xlink:href="#e24427ce-8c3e-4584-b09e-f0ab2a078243"/><linearGradient id="f031cf64-8795-4daf-9877-2cbdf101154a" x1="-59.2262" y1="183.5641" x2="-66.7467" y2="190.8824" gradientTransform="translate(480.859 -29.4832) rotate(0.3781)" xlink:href="#e24427ce-8c3e-4584-b09e-f0ab2a078243"/><linearGradient id="ab229413-2203-4f69-835c-2745213938ea" x1="-61.4311" y1="184.743" x2="-71.1892" y2="199.4848" gradientTransform="translate(480.859 -29.4832) rotate(0.3781)" xlink:href="#e24427ce-8c3e-4584-b09e-f0ab2a078243"/><linearGradient id="eb4cc0ab-a00f-4b62-9df3-2936f3bb8de8" x1="-2701.7983" y1="257.4425" x2="-2709.3188" y2="264.7608" gradientTransform="matrix(-1, 0.0066, 0.0066, 1, -2573.4631, -29.4832)" xlink:href="#e24427ce-8c3e-4584-b09e-f0ab2a078243"/><linearGradient id="b2ea5b71-aaef-4d06-b8c2-c9a539c31f6a" x1="-2704.0031" y1="258.6214" x2="-2713.7613" y2="273.3632" gradientTransform="matrix(-1, 0.0066, 0.0066, 1, -2573.4631, -29.4832)" xlink:href="#e24427ce-8c3e-4584-b09e-f0ab2a078243"/><linearGradient id="a31e37f6-f18b-4825-80b2-28bd18f8968e" x1="-2701.6999" y1="272.3566" x2="-2709.2203" y2="279.6749" gradientTransform="matrix(-1, 0.0066, 0.0066, 1, -2573.4631, -29.4832)" xlink:href="#e24427ce-8c3e-4584-b09e-f0ab2a078243"/><linearGradient id="f162d831-582b-4cf8-b418-9d7febbde35e" x1="-2703.9047" y1="273.5355" x2="-2713.6629" y2="288.2773" gradientTransform="matrix(-1, 0.0066, 0.0066, 1, -2573.4631, -29.4832)" xlink:href="#e24427ce-8c3e-4584-b09e-f0ab2a078243"/><linearGradient id="fa7eb1f5-c867-4936-835a-3313d98afd49" x1="-2701.6014" y1="287.2707" x2="-2709.1219" y2="294.589" gradientTransform="matrix(-1, 0.0066, 0.0066, 1, -2573.4631, -29.4832)" xlink:href="#e24427ce-8c3e-4584-b09e-f0ab2a078243"/><linearGradient id="ad26c3f3-bb43-47f4-8518-28ea2fbbcfaf" x1="-2703.8063" y1="288.4496" x2="-2713.5644" y2="303.1913" gradientTransform="matrix(-1, 0.0066, 0.0066, 1, -2573.4631, -29.4832)" xlink:href="#e24427ce-8c3e-4584-b09e-f0ab2a078243"/><linearGradient id="ab679ab6-b062-4754-8c7b-110a2575b0dd" x1="5365.2511" y1="1899.3305" x2="5419.462" y2="1899.3305" gradientTransform="translate(-4583.3887 -3118.0292) rotate(15.6762)" xlink:href="#e24427ce-8c3e-4584-b09e-f0ab2a078243"/><linearGradient id="b2720b42-50e4-4936-ace7-de7ec5dce0a3" x1="5336.7367" y1="1875.451" x2="5364.5838" y2="1875.451" gradientTransform="translate(-4583.3887 -3118.0292) rotate(15.6762)" xlink:href="#e24427ce-8c3e-4584-b09e-f0ab2a078243"/><linearGradient id="b16546f9-9f0c-49d5-b034-58f564cac959" x1="10821.9618" y1="302.7235" x2="10786.0101" y2="323.2442" gradientTransform="matrix(-1, 0, 0, 1, 11251.9829, 0)" xlink:href="#b2720978-0b1d-4225-8546-f71a8caea701"/><linearGradient id="a23a8cd0-41d2-4abd-aba6-8731a1ea3457" x1="-4268.5015" y1="-3184.3732" x2="-4271.2614" y2="-3142.055" gradientTransform="translate(5670.2197 1297.6352) rotate(-26.1807)" gradientUnits="userSpaceOnUse"><stop offset="0" stop-color="#cb236d"/><stop offset="1" stop-color="#4c246d"/></linearGradient><linearGradient id="e092184b-176f-4fa1-ac63-341249e41eae" x1="10818.4839" y1="307.8412" x2="10941.4929" y2="230.8357" gradientTransform="matrix(-1, 0, 0, 1, 11251.9829, 0)" xlink:href="#b2720978-0b1d-4225-8546-f71a8caea701"/><linearGradient id="ae9df7fd-c690-4021-b293-58fe7fb4dd99" x1="-3288.2351" y1="-4511.2518" x2="-3290.9948" y2="-4468.9365" gradientTransform="matrix(0.7895, -0.6137, 0.6137, 0.7895, 5805.6182, 1877.1103)" xlink:href="#a23a8cd0-41d2-4abd-aba6-8731a1ea3457"/><linearGradient id="ba7f3765-9947-4ddf-96dc-ac4e88e7b7a1" x1="482.5475" y1="299.7923" x2="495.3906" y2="323.2976" gradientTransform="matrix(1, 0, 0, 1, 0, 0)" xlink:href="#bae6647a-68b6-4c60-8e3e-8f22ad4b2a73"/><linearGradient id="b8ef0257-b411-4568-b800-5b828984188c" x1="468.1343" y1="243.682" x2="521.2003" y2="256.0398" gradientTransform="matrix(1, 0, 0, 1, 0, 0)" xlink:href="#a23a8cd0-41d2-4abd-aba6-8731a1ea3457"/><linearGradient id="bec76312-71d7-40c3-868d-9081efacaaf5" x1="10780.8832" y1="263.5355" x2="10696.1311" y2="345.2877" gradientTransform="matrix(-1, 0, 0, 1, 11251.9829, 0)" xlink:href="#a23a8cd0-41d2-4abd-aba6-8731a1ea3457"/><linearGradient id="ee961be4-fa6e-4e1f-b177-c6113a1f4a18" x1="-5502.5306" y1="290.8952" x2="-5466.7173" y2="290.8952" gradientTransform="translate(5995.5198)" xlink:href="#b2720978-0b1d-4225-8546-f71a8caea701"/><linearGradient id="fba85aad-a60e-48f0-96a7-3ebbbe25eebc" x1="-7300.1649" y1="-238.3747" x2="-7298.4142" y2="-251.1824" gradientTransform="translate(7776.6888 -11.8886) rotate(-4.1117)" xlink:href="#b2720978-0b1d-4225-8546-f71a8caea701"/><linearGradient id="ac76d03c-35cf-4e87-a42b-e9bbce1efeba" x1="-8548.5265" y1="-929.7024" x2="-8532.0427" y2="-959.0382" gradientTransform="translate(5924.4154 -6392.5152) rotate(-56.9202)" xlink:href="#b2720978-0b1d-4225-8546-f71a8caea701"/><linearGradient id="f8a349c1-e9d3-4b5b-9f4a-df5e202ab0f7" x1="467.2568" y1="247.4498" x2="520.3228" y2="259.8076" gradientTransform="matrix(1, 0, 0, 1, 0, 0)" xlink:href="#a23a8cd0-41d2-4abd-aba6-8731a1ea3457"/><linearGradient id="e3cdde77-d4a9-4e5c-bf47-c09faf257f7f" x1="-8545.0176" y1="-927.7312" x2="-8528.5339" y2="-957.0666" gradientTransform="translate(5924.4154 -6392.5152) rotate(-56.9202)" xlink:href="#b2720978-0b1d-4225-8546-f71a8caea701"/><linearGradient id="f3926b10-5c17-46b6-80a1-991f13f3ca52" x1="-5557.1854" y1="150.7263" x2="-5575.9203" y2="155.8611" gradientTransform="translate(6034.4178 -134.5888) rotate(-2.8315)" xlink:href="#e24427ce-8c3e-4584-b09e-f0ab2a078243"/><linearGradient id="ec399f8e-823f-401e-a8f5-f98c59710f26" x1="5998.3118" y1="287.4659" x2="6166.8138" y2="273.2891" gradientTransform="translate(-5555.5898)" xlink:href="#e24427ce-8c3e-4584-b09e-f0ab2a078243"/><linearGradient id="a7a6f177-c14b-4aa3-a697-8c6eceed1bc9" x1="-5537.5662" y1="281.8769" x2="-5543.5979" y2="290.9601" gradientTransform="translate(5995.5198)" xlink:href="#e24427ce-8c3e-4584-b09e-f0ab2a078243"/><linearGradient id="b80e8219-8ae5-4b1c-a0da-3372d0cbc412" x1="477.9755" y1="306.9894" x2="504.5248" y2="356.0746" gradientTransform="matrix(1, 0, 0, 1, 0, 0)" xlink:href="#e24427ce-8c3e-4584-b09e-f0ab2a078243"/><linearGradient id="bdb91164-5d68-4267-a966-719d1faa1815" x1="501.8701" y1="354.4373" x2="489.5216" y2="327.5793" gradientTransform="matrix(1, 0, 0, 1, 0, 0)" xlink:href="#e24427ce-8c3e-4584-b09e-f0ab2a078243"/><linearGradient id="ac864f5a-287f-418c-98e5-fbbe87b0f879" x1="521.109" y1="280.3339" x2="547.6582" y2="329.4191" gradientTransform="matrix(1, 0, 0, 1, 0, 0)" xlink:href="#e24427ce-8c3e-4584-b09e-f0ab2a078243"/><linearGradient id="ec0be0ec-9b76-4e52-8304-dcfaa2cc40a5" x1="545.0035" y1="327.7818" x2="532.655" y2="300.9238" gradientTransform="matrix(1, 0, 0, 1, 0, 0)" xlink:href="#e24427ce-8c3e-4584-b09e-f0ab2a078243"/></defs><path d="M460.8148,37.7146c41.2017,34.0515-13.8753,77.76,14.6581,96.841s146.7045,56.2943,27.7021,130.12S380.9037,387.4193,295.951,340.6744,217.1,285.53,147.1909,317.1306,4.2118,299.5661,29.0554,241.2151s40.6615-57.6234,12.2931-94.8872S57.3438,5.9456,154.9957,85.6364s158.7752,20.1953,169.4978-9.6084S395.7025-16.098,460.8148,37.7146Z" style="opacity:0.5;fill:url(#a5bde2c3-cf13-45c5-8a90-3730f89522c7)"/><path d="M172.73,40.2626c-28.18,32.7416-95.0467,7.9745-105.9865,58.85-14.8616,69.1135,78.358,89.3626,47.2356,139.0411s3.2455,105.3629,128.31,104.3142S568.5474,279.07,520.0765,211.3526s-16.1762-71.1917-13.8117-101.12-22.1575-95.5752-119.019-40.83S244.0914-42.649,172.73,40.2626Z" style="opacity:0.26;fill:url(#bc59e1b8-6a84-4992-80f2-7188424f52cb)"/><path d="M247.7633,109.9569H205.8421a14.5575,14.5575,0,0,0-12.6071,7.2788L172.2745,153.54a14.5575,14.5575,0,0,0,0,14.5574l20.9605,36.3047a14.5574,14.5574,0,0,0,12.6071,7.2787h41.9212a14.557,14.557,0,0,0,12.607-7.2787l20.9607-36.3047a14.558,14.558,0,0,0,0-14.5574L260.37,117.2357A14.5574,14.5574,0,0,0,247.7633,109.9569Z" style="fill:url(#ac0c54f6-fb3d-4d63-b0aa-9f73aca33852)"/><path d="M205.8421,204.7138a7.6109,7.6109,0,0,1-6.573-3.7947l-20.9607-36.305a7.6119,7.6119,0,0,1,0-7.59l20.96-36.3046a7.6108,7.6108,0,0,1,6.5731-3.795h41.9212a7.61,7.61,0,0,1,6.5729,3.7947l20.9608,36.305a7.6126,7.6126,0,0,1,0,7.59l-20.96,36.3045a7.6106,7.6106,0,0,1-6.5731,3.795Z" style="opacity:0.49;fill:url(#a6fe4865-8774-45da-afaf-86e0d0ac7019)"/><path d="M340.8576,167.1712H298.9365a14.5575,14.5575,0,0,0-12.6072,7.2787l-20.96,36.3046a14.5574,14.5574,0,0,0,0,14.5576l20.96,36.3046a14.5576,14.5576,0,0,0,12.6072,7.2788h41.9211a14.5571,14.5571,0,0,0,12.607-7.2788l20.9607-36.3046a14.5579,14.5579,0,0,0,0-14.5576L353.4646,174.45A14.5573,14.5573,0,0,0,340.8576,167.1712Z" style="fill:url(#a2cca3f7-41e0-48e0-bfb2-3b3f30541a06)"/><path d="M298.9365,261.928a7.6108,7.6108,0,0,1-6.5731-3.7948l-20.9607-36.3049a7.6119,7.6119,0,0,1,0-7.59l20.96-36.3046a7.6109,7.6109,0,0,1,6.5732-3.795h41.9211a7.61,7.61,0,0,1,6.5729,3.7948l20.9608,36.3049a7.6121,7.6121,0,0,1,0,7.59l-20.9605,36.3046a7.6107,7.6107,0,0,1-6.5731,3.7949Z" style="opacity:0.49;fill:url(#f38d85af-cb60-41f0-8953-7c2bce3f4d46)"/><path d="M348.6154,54.6822H306.6943a14.5577,14.5577,0,0,0-12.6072,7.2787l-20.96,36.3047a14.5577,14.5577,0,0,0,0,14.5575l20.96,36.3047a14.5577,14.5577,0,0,0,12.6072,7.2787h41.9211a14.5571,14.5571,0,0,0,12.6071-7.2787l20.9606-36.3047a14.5577,14.5577,0,0,0,0-14.5575L361.2225,61.9609A14.5573,14.5573,0,0,0,348.6154,54.6822Z" style="fill:url(#bf302644-cf71-4640-86b0-b196b7c451b4)"/><path d="M306.6943,149.439a7.6107,7.6107,0,0,1-6.573-3.7947l-20.9607-36.305a7.6118,7.6118,0,0,1,0-7.59l20.96-36.3047a7.6108,7.6108,0,0,1,6.5731-3.795h41.9211a7.61,7.61,0,0,1,6.5729,3.7948l20.9609,36.3049a7.6126,7.6126,0,0,1,0,7.59l-20.96,36.3046a7.6106,7.6106,0,0,1-6.5732,3.7949Z" style="opacity:0.49;fill:url(#f88fafaf-e520-4c9d-b519-5e80dec42c23)"/><path d="M122.1447,335.5824c-18.3026,3.6595-41.6757-16.2947-49.2053-38.0944-7.7488-22.4338,6.4587-31.8317,6.3491-62.9616-.1246-35.3626-18.52-40.6921-30.6872-88.3579C45.856,135.4142,29.97,73.18,49.6594,61.5142c18.2054-10.7858,69.3425,20.1683,78.3053,59.7871,6.3909,28.25-13.3654,40.1113-5.82,73.0143,6.6206,28.87,24.0206,29.2879,30.6872,57.1417C160.9481,285.367,146.1763,330.7776,122.1447,335.5824Z" style="fill:url(#bc6ea721-0b48-4b31-8ef3-fd1f3f16d1bc)"/><path d="M120.8155,344.15c4.9339-38.1-4.6912-96.88-13.6345-139.4814-9.6825-46.123-20.6721-83.7446-20.7818-84.12l-1.5233.447c.11.374,11.0844,37.9458,20.7541,84.01,8.9168,42.4772,18.5164,101.0628,13.6112,138.9405Z" style="fill:url(#a8d14efd-827e-4baf-ac05-befd1ec66b57)"/><path d="M100.5939,335.7637c20.752-10.8127,27.8551-47.9423,16.059-60.01-7.9705-8.1536-19.4005.4225-30.4275-8.0295-14.0788-10.7913-3.7221-31.1153-14.7911-57.474-9.42-22.4314-32.0148-43.6572-45.2184-39.302-13.8214,4.5589-21.1012,38.3847-9.2973,58.7418,7.6761,13.2385,19.4262,13.8887,21.9753,26.2014,2.9578,14.2869-11.3323,20.8024-11.41,34.6533C27.3437,315.4259,73.1406,350.0681,100.5939,335.7637Z" style="fill:url(#bcdc9ee0-b7ac-436f-96c4-45b2b4a2e850)"/><path d="M89.3956,345.2725a.8457.8457,0,0,0,.76-1.2143c-27.5115-56.69-35.5788-122.4561-35.6571-123.1137a.8452.8452,0,1,0-1.6785.2c.0786.6606,8.1805,66.7087,35.8148,123.6518A.8453.8453,0,0,0,89.3956,345.2725Z" style="fill:url(#a4c5408c-3051-48e7-8674-051074a56a40)"/><path d="M32.952,237.9759a.4038.4038,0,0,0,.3185-.6521c-8.6838-11.1466-18.3083-27.8927-14.8437-44.3725a28.8812,28.8812,0,0,1,7.9294-14.984.4038.4038,0,1,0-.5286-.6106c-.2469.2134-6.0725,5.35-8.1914,15.4286-1.9475,9.2631-.9263,24.5958,14.9968,45.0348A.4042.4042,0,0,0,32.952,237.9759Z" style="fill:#f0f0f0"/><path d="M102.4649,330.8131a.4038.4038,0,0,0,.3336-.1755c13.3453-19.4769,17.8963-34.5264,13.526-44.73-3.8854-9.0718-13.6959-10.76-13.7945-10.7764a.404.404,0,0,0-.13.7976c.0943.0154,9.4811,1.6427,13.1857,10.3066,4.2468,9.9329-.28,24.718-13.4539,43.9453a.4037.4037,0,0,0,.3327.6323Z" style="fill:#f0f0f0"/><path d="M314.7337,294.3175c-31.5266,9-45.6376-79.7271-45.511-81.8851l-48.3369,56.5163s28.8009,50.6792,72.2913,56.0734a51.3244,51.3244,0,0,0,28.2131-4.1356A45.186,45.186,0,0,1,314.7337,294.3175Z" style="fill:url(#bae6647a-68b6-4c60-8e3e-8f22ad4b2a73)"/><path d="M373.1165,265.2763c-13.74-5.6465-25.3964,5.6219-25.3964,5.6219-13.6155,13.9362-24.4137,20.9719-32.9864,23.4193a45.186,45.186,0,0,0,6.6565,26.569c16.9868-7.7819,26.8891-23.5142,30.9676-31.3647a5.8985,5.8985,0,0,1,7.7787-2.6367c2.9128,1.4083,5.914,3.5565,6.1021,6.4746.3707,5.755,7.219,6.0942,7.2592,3.9688s-5.3035-13.4919-5.3035-13.4919,15.7879,10.127,21.9333,14.0008,11.38-2.5191,11.38-2.5191S386.857,270.9232,373.1165,265.2763Z" style="fill:url(#b2720978-0b1d-4225-8546-f71a8caea701)"/><path d="M118.4606,175.9225s42.3658-28.9029,144.6878,23.37c0,0,10.5372,13.3578,5.6012,28.416S203.0609,312.3577,200.7,350.617c0,0-41.53,24.4461-95.4406.21C105.26,350.8275,87.181,261.7091,118.4606,175.9225Z" style="fill:url(#ff83bd7f-26aa-41e3-87cf-03f48c16c03b)"/><path d="M206.6812,138.97l-16.7427,32.8074a9.3285,9.3285,0,0,0,.9663,10.0578c4.6106,5.7763,14.235,13.5406,30.6608,8.5365a14.3867,14.3867,0,0,0,9.8034-10.4341l8.6786-36.6193Z" style="fill:url(#ba9005fe-1c73-478a-bdde-8801f71e3361)"/><path d="M87.0871,290.4826c-2.8675-19.943,49.8306-58.5958,49.8306-58.5958l-18.4571-55.9643S17.9,247.6856,39.0483,306.2908c3.0318,8.4013,7.5535,14.5221,13.0671,18.86C62.7643,303.3109,77.2058,294.2346,87.0871,290.4826Z" style="fill:url(#e560e907-c9bf-4629-8e93-50106cc4e26e)"/><path d="M160.6072,296.0165s-59.6126,16.65-71.98-1.4965a9.4578,9.4578,0,0,1-1.54-4.0374c-9.8813,3.752-24.3228,12.8283-34.9717,34.6679,28.3036,22.2662,82.8763-2.6937,97.7045-10.1757a10.4727,10.4727,0,0,1,7.8522-.6574c5.2738,1.6458,14.4124,4.2012,19.5043,3.9215,7.4489-.4093,15.4446,26.51,28.122,19.6954C205.2984,337.9343,199.5363,291.9423,160.6072,296.0165Z" style="fill:url(#a814cf5c-f94f-4beb-8e12-951e986fc3ae)"/><path d="M271.4771,119.395c.0383.9427-18.6418,60.4543-18.6418,60.4543l-33.7539-11.3882,9.325-59.0353S270.8385,103.6142,271.4771,119.395Z" style="fill:url(#b5eccb01-1588-4342-a038-3909b6b874fc)"/><path d="M234.8143,123.4568,227.4719,154.15a4.35,4.35,0,0,0-.1187,1.1923c.097,2.4754,1.0545,10.967,9.6825,9.4574,7.8292-1.3695,14.9946-2.5031,19.66-.5321a4.4042,4.4042,0,0,1,2.492,5.38c-1.6985,5.4066-5.7515,17.5193-10.8783,27.5053a4.3961,4.3961,0,0,1-5.5769,2.0378c-6.3575-2.5876-19.613-8.42-29.1782-15.61a4.409,4.409,0,0,1-1.73-4.1663c1.1422-7.8219,4.5259-31.6078,4.4433-38.3818-.0773-6.3581-7.4-10.9181-10.6111-12.6137a4.3312,4.3312,0,0,1-2.15-2.6554c-1.15-4.0479-2.3606-13.2654,9.3575-15.7819a4.4148,4.4148,0,0,0,3.3663-5.3913c-1.1966-4.8483-1.1685-12.0557,8.0082-15.0811,9.3273-3.0752,15.4947,2.3644,18.6911,6.5976a4.4109,4.4109,0,0,0,5.5216,1.2369,3.4877,3.4877,0,0,1,3.9338.5414,4.3421,4.3421,0,0,0,6.308-1.2223c2.5875-4.1615,7.4227-8.4065,15.9961-6.0109,15.2133,4.2509,15.1962,21.5936,10.0728,31.2286s-21.3556,4.0887-29.1737-1.842c-5.9442-4.51-14.5879-1.3184-18.39.4706A4.3721,4.3721,0,0,0,234.8143,123.4568Z" style="fill:url(#ad97c789-a23d-404a-b506-e432785cc1a0)"/><path d="M213.706,152.2342s8.2069-17.1717,2.1164-22.213-16.0126-3.7746-15.2128,9.3613C201.6047,155.7216,213.706,152.2342,213.706,152.2342Z" style="fill:url(#a437cf86-26d5-4f84-a517-3e5219d30dce)"/><path d="M32.7347,340.0053a7.4512,7.4512,0,0,1,1.0247-5.1089,4.5485,4.5485,0,0,1,3.7553-2.2479H529.7838a5.443,5.443,0,0,1,4.72,3.2817,8.8023,8.8023,0,0,1,.3662,6.8175l-5.3346,14.6615c-1.2215,3.3578-3.8683,5.5075-6.7807,5.5075H40.8923c-2.7091,0-5.0379-2.44-5.5524-5.8179Z" style="fill:url(#b632effb-b382-4f21-abdc-0135a80b04ee)"/><g style="opacity:0.76"><path d="M156.7311,247.9227a6.668,6.668,0,0,1-6.5981-5.8012c-2.9125-22.5428-17.6167-136.279-21.0814-161.6545a6.654,6.654,0,0,1,6.3457-7.55l189.0385-7.0831a6.6552,6.6552,0,0,1,6.9051,6.6511V230.188a6.6723,6.6723,0,0,1-6.2177,6.6416l-167.951,11.0785C157.0244,247.9177,156.8771,247.9227,156.7311,247.9227ZM324.688,70.0205c-.0316,0-.0634,0-.0953.0018L135.5542,77.1055a2.463,2.463,0,0,0-2.35,2.7944h0c3.4667,25.39,18.1726,139.14,21.0855,161.6845a2.4655,2.4655,0,0,0,2.6068,2.1419l167.951-11.0786a2.4709,2.4709,0,0,0,2.3028-2.46V72.4854a2.4649,2.4649,0,0,0-2.462-2.4649Z" style="fill:#fff"/><rect x="359.9789" y="215.6755" width="2.3287" height="72.9544" transform="translate(-34.5447 445.638) rotate(-60.9809)" style="fill:#fff"/><path d="M228.7963,263.5123a6.6577,6.6577,0,0,1-6.5982-5.8258c-2.9758-23.7632-12.8979-102.9154-15.6323-123.7312h0a6.6543,6.6543,0,0,1,6.3426-7.515l140.1576-5.4192a6.6557,6.6557,0,0,1,6.9131,6.6509V248.38a6.6748,6.6748,0,0,1-6.2039,6.6408l-124.521,8.4755Q229.024,263.5121,228.7963,263.5123ZM210.721,133.41c2.736,20.8275,12.66,99.99,15.6358,123.7564a2.4707,2.4707,0,0,0,2.6126,2.15L353.4905,250.84a2.4723,2.4723,0,0,0,2.2976-2.46V127.672a2.4647,2.4647,0,0,0-2.56-2.4631L213.07,130.6281a2.4633,2.4633,0,0,0-2.3492,2.7814Z" style="fill:#fff"/><rect x="260.5604" y="7.7668" width="2.3283" height="321.5995" transform="translate(-27.2767 284.2933) rotate(-54.607)" style="fill:#fff"/><rect x="261.9574" y="158.7692" width="2.3282" height="226.3483" transform="translate(-62.1316 465.3251) rotate(-76.6785)" style="fill:#fff"/><rect x="369.4087" y="58.8232" width="2.3283" height="187.1232" transform="translate(-28.6927 186.0361) rotate(-27.1708)" style="fill:#fff"/></g><path d="M236.7258,333.9724q.1594.008.32.0073l139.2677-.1521A6.2333,6.2333,0,1,0,376.3,321.361l-139.2677.1519a6.2337,6.2337,0,0,0-.3065,12.4595Z" style="fill:url(#ae0fd291-be8b-4f9b-8f66-cfc8849ae917)"/><path d="M501.5091,207.5259H385.5262a22.1046,22.1046,0,0,0-19.9934,12.6764L311.914,333.8978H456.05a13.4343,13.4343,0,0,0,12.4942-8.4968l41.5792-105.2084A9.2624,9.2624,0,0,0,501.5091,207.5259Z" style="fill:url(#a8709f49-2346-4e28-a8b4-3137bc87cc3d)"/><path d="M419.7979,265.8213c-2.5134,7.8084-.6566,15.3923,4.1471,16.9384s10.7355-3.5306,13.2489-11.3392.6566-15.3923-4.1469-16.9386S422.3113,258.0124,419.7979,265.8213Z" style="fill:url(#e24427ce-8c3e-4584-b09e-f0ab2a078243)"/><path d="M418.8529,127.7456a2.46,2.46,0,1,1-2.444-2.4765A2.46,2.46,0,0,1,418.8529,127.7456Z" style="fill:url(#bafb3f94-e98c-4914-a45f-993e51ec754b)"/><path d="M418.7711,127.7451a2.3785,2.3785,0,1,1-2.3628-2.3941A2.3785,2.3785,0,0,1,418.7711,127.7451Z" style="fill:url(#a8865438-2fc6-4692-844e-e0caad9405c7)"/><path d="M414.2014,128.083l-.0286-.0007a.485.485,0,0,1-.4558-.5121,2.7147,2.7147,0,0,1,.0412-.3363.4846.4846,0,0,1,.9527.178,1.6817,1.6817,0,0,0-.026.2146A.4848.4848,0,0,1,414.2014,128.083Z" style="fill:#fff"/><path d="M414.4374,127.2131a.4847.4847,0,0,1-.4307-.7059,2.6621,2.6621,0,0,1,2.4036-1.4582,2.73,2.73,0,0,1,.4822.0466.4847.4847,0,0,1-.1789.9528,1.7452,1.7452,0,0,0-.31-.03h-.0111a1.7049,1.7049,0,0,0-1.5238.9314A.4846.4846,0,0,1,414.4374,127.2131Z" style="fill:#fff"/><path d="M418.8529,142.66a2.46,2.46,0,1,1-2.444-2.4764A2.46,2.46,0,0,1,418.8529,142.66Z" style="fill:url(#b3b6b52b-39f0-4c1f-854b-6f3741102449)"/><path d="M418.7711,142.66a2.3785,2.3785,0,1,1-2.3628-2.3941A2.3787,2.3787,0,0,1,418.7711,142.66Z" style="fill:url(#ab66bfe2-a2e7-4af5-b17d-f84f1290291d)"/><path d="M414.2014,142.9979l-.0286-.0007a.485.485,0,0,1-.4558-.5121,2.7107,2.7107,0,0,1,.0412-.3362.4845.4845,0,1,1,.9527.1774,1.69,1.69,0,0,0-.026.2151A.4849.4849,0,0,1,414.2014,142.9979Z" style="fill:#fff"/><path d="M414.4374,142.1278a.4847.4847,0,0,1-.4307-.7059,2.6684,2.6684,0,0,1,2.3856-1.458h.0182a2.7417,2.7417,0,0,1,.482.0464.4847.4847,0,1,1-.1789.9527,1.7482,1.7482,0,0,0-.31-.03h-.0116a1.7038,1.7038,0,0,0-1.5233.9312A.4846.4846,0,0,1,414.4374,142.1278Z" style="fill:#fff"/><path d="M418.8529,157.5751a2.46,2.46,0,1,1-2.444-2.4765A2.46,2.46,0,0,1,418.8529,157.5751Z" style="fill:url(#f031cf64-8795-4daf-9877-2cbdf101154a)"/><path d="M418.7711,157.5745a2.3785,2.3785,0,1,1-2.3628-2.3941A2.3785,2.3785,0,0,1,418.7711,157.5745Z" style="fill:url(#ab229413-2203-4f69-835c-2745213938ea)"/><path d="M414.2014,157.9126l-.0286-.0007a.485.485,0,0,1-.4558-.5121,2.7147,2.7147,0,0,1,.0412-.3363.4845.4845,0,0,1,.9527.1775,1.69,1.69,0,0,0-.026.2151A.4849.4849,0,0,1,414.2014,157.9126Z" style="fill:#fff"/><path d="M414.4374,157.0425a.4847.4847,0,0,1-.4307-.7059,2.6684,2.6684,0,0,1,2.3856-1.458h.0182a2.69,2.69,0,0,1,.483.0469.4846.4846,0,0,1-.1808.9522,1.7218,1.7218,0,0,0-.3088-.03h-.0116a1.7038,1.7038,0,0,0-1.5233.9312A.4846.4846,0,0,1,414.4374,157.0425Z" style="fill:#fff"/><path d="M422.6378,127.6176l.0113.419a1.8963,1.8963,0,0,0,1.605,2.0389l65.8956.1a1.9132,1.9132,0,0,0,1.6187-2.1173h0a1.9274,1.9274,0,0,0-1.58-2.11l-65.9069-.5188C423.3561,125.4048,422.6049,126.4048,422.6378,127.6176Z" style="fill:#fff;opacity:0.62"/><path d="M422.6378,142.46l.0113.419a1.8963,1.8963,0,0,0,1.605,2.0388l65.8956.1a1.9132,1.9132,0,0,0,1.6187-2.1173h0a1.9271,1.9271,0,0,0-1.58-2.11l-65.9069-.519C423.3561,140.2469,422.6049,141.2467,422.6378,142.46Z" style="fill:#fff;opacity:0.62"/><path d="M422.6378,157.3015l.0113.4191a1.8963,1.8963,0,0,0,1.605,2.0388l65.8956.1a1.9133,1.9133,0,0,0,1.6187-2.1173h0a1.9271,1.9271,0,0,0-1.58-2.11l-65.9069-.519C423.3561,155.0888,422.6049,156.0887,422.6378,157.3015Z" style="fill:#fff;opacity:0.62"/><path d="M460.1074,111.3857H372.3866a.4847.4847,0,0,1-.4847-.4846v-54.28a.4847.4847,0,0,1,.4847-.4847h87.7208a.4847.4847,0,0,1,.4846.4847v54.28A.4846.4846,0,0,1,460.1074,111.3857Zm-87.2362-.9693h86.7516V57.1054H372.8712Z" style="fill:#fff"/><path d="M418.3472,103.3084c-17.708,0-31.7185-16.1422-32.3063-16.8294a1.6957,1.6957,0,0,1,0-2.205c.5878-.6873,14.5983-16.8294,32.3063-16.8294s31.7184,16.1421,32.3063,16.8294a1.6957,1.6957,0,0,1,0,2.205C450.0656,87.1662,436.0552,103.3084,418.3472,103.3084Zm-28.71-17.9319a58.97,58.97,0,0,0,7.8384,6.7914c4.9032,3.5345,12.5044,7.7479,20.8719,7.7479s15.9687-4.2134,20.8719-7.7479a58.96,58.96,0,0,0,7.8383-6.7914,58.9648,58.9648,0,0,0-7.8383-6.7915c-4.9032-3.5345-12.5045-7.7479-20.8719-7.7479s-15.9687,4.2134-20.8719,7.7479A58.9684,58.9684,0,0,0,389.6369,85.3765Zm-2.307,0h0Z" style="fill:#fff"/><path d="M418.3472,99.9158a14.5394,14.5394,0,1,1,14.5394-14.5393A14.5558,14.5558,0,0,1,418.3472,99.9158Zm0-25.6862A11.1469,11.1469,0,1,0,429.494,85.3765,11.16,11.16,0,0,0,418.3472,74.23Z" style="fill:#fff"/><circle cx="418.3471" cy="85.3764" r="7.0274" style="fill:#fff"/><path d="M457.3585,202.2567a.727.727,0,0,1-.7269-.7269V172.2087H401.6243a.7269.7269,0,0,1-.727-.727V118.6554a.727.727,0,1,1,1.454,0v52.0994h55.0072a.7269.7269,0,0,1,.727.7269V201.53A.727.727,0,0,1,457.3585,202.2567Z" style="fill:#fff"/><path d="M131.6026,214.0125a2.46,2.46,0,1,0,2.4441-2.4765A2.46,2.46,0,0,0,131.6026,214.0125Z" style="fill:url(#eb4cc0ab-a00f-4b62-9df3-2936f3bb8de8)"/><path d="M131.6844,214.0119a2.3786,2.3786,0,1,0,2.3628-2.3941A2.3785,2.3785,0,0,0,131.6844,214.0119Z" style="fill:url(#b2ea5b71-aaef-4d06-b8c2-c9a539c31f6a)"/><path d="M136.2542,214.35a.4847.4847,0,0,1-.4835-.4567,1.7039,1.7039,0,0,0-.0262-.2153.4847.4847,0,1,1,.9532-.177,2.7131,2.7131,0,0,1,.0409.3365.4847.4847,0,0,1-.4558.5116Z" style="fill:#fff"/><path d="M136.0182,213.48a.4848.4848,0,0,1-.4316-.2632,1.7042,1.7042,0,0,0-1.5233-.9314h-.0116a1.7867,1.7867,0,0,0-.31.03.4845.4845,0,1,1-.1794-.9522,2.692,2.692,0,0,1,.4823-.0469h.0182a2.6685,2.6685,0,0,1,2.3856,1.4577.4848.4848,0,0,1-.4307.7062Z" style="fill:#fff"/><path d="M131.6026,228.9272a2.46,2.46,0,1,0,2.4441-2.4764A2.46,2.46,0,0,0,131.6026,228.9272Z" style="fill:url(#a31e37f6-f18b-4825-80b2-28bd18f8968e)"/><path d="M131.6844,228.9267a2.3786,2.3786,0,1,0,2.3628-2.3941A2.3787,2.3787,0,0,0,131.6844,228.9267Z" style="fill:url(#f162d831-582b-4cf8-b418-9d7febbde35e)"/><path d="M136.2542,229.2648a.4847.4847,0,0,1-.4835-.4567,1.7054,1.7054,0,0,0-.0262-.2154.4847.4847,0,0,1,.9532-.1769,2.7138,2.7138,0,0,1,.0409.3364.4848.4848,0,0,1-.4558.5117Z" style="fill:#fff"/><path d="M136.0182,228.3949a.4843.4843,0,0,1-.4316-.2636,1.7042,1.7042,0,0,0-1.5233-.9314h-.0116a1.7867,1.7867,0,0,0-.31.03.4845.4845,0,1,1-.1794-.9522,2.7012,2.7012,0,0,1,.4823-.0469h.0182a2.668,2.668,0,0,1,2.3856,1.4587.4844.4844,0,0,1-.4307.7056Z" style="fill:#fff"/><path d="M131.6026,243.842a2.46,2.46,0,1,0,2.4441-2.4765A2.46,2.46,0,0,0,131.6026,243.842Z" style="fill:url(#fa7eb1f5-c867-4936-835a-3313d98afd49)"/><path d="M131.6844,243.8414a2.3786,2.3786,0,1,0,2.3628-2.3941A2.3785,2.3785,0,0,0,131.6844,243.8414Z" style="fill:url(#ad26c3f3-bb43-47f4-8518-28ea2fbbcfaf)"/><path d="M136.2542,244.18a.4848.4848,0,0,1-.4835-.4567,1.6764,1.6764,0,0,0-.026-.2144.4846.4846,0,1,1,.9527-.178,2.7062,2.7062,0,0,1,.0412.3365.4848.4848,0,0,1-.4558.5117Z" style="fill:#fff"/><path d="M136.0182,243.31a.4844.4844,0,0,1-.4316-.2636,1.7041,1.7041,0,0,0-1.5233-.931,1.3928,1.3928,0,0,0-.3211.0294.4845.4845,0,1,1-.1794-.9523,2.686,2.686,0,0,1,2.8861,1.4118.4846.4846,0,0,1-.4307.7057Z" style="fill:#fff"/><path d="M127.8178,213.8845l-.0113.419a1.8964,1.8964,0,0,1-1.6051,2.0389l-65.8955.1a1.9131,1.9131,0,0,1-1.6187-2.1173h0a1.9273,1.9273,0,0,1,1.58-2.11l65.9068-.5188C127.1,211.6717,127.8506,212.6717,127.8178,213.8845Z" style="fill:#fff;opacity:0.62"/><path d="M127.8178,228.7265l-.0113.419a1.8964,1.8964,0,0,1-1.6051,2.0388l-65.8955.1a1.9131,1.9131,0,0,1-1.6187-2.1173h0a1.9272,1.9272,0,0,1,1.58-2.11l65.9068-.5189C127.1,226.5138,127.8506,227.5136,127.8178,228.7265Z" style="fill:#fff;opacity:0.62"/><path d="M127.8178,243.5684l-.0113.4191a1.8964,1.8964,0,0,1-1.6051,2.0388l-65.8955.1a1.9132,1.9132,0,0,1-1.6187-2.1173h0a1.9271,1.9271,0,0,1,1.58-2.11l65.9068-.519C127.1,241.3557,127.8506,242.3556,127.8178,243.5684Z" style="fill:#fff;opacity:0.62"/><path d="M73.5309,140.1061a.4846.4846,0,0,1-.2939-.87c.5178-.394,1.055-.78,1.5962-1.1454a.4845.4845,0,0,1,.5429.8027c-.5264.3562-1.0486.731-1.5522,1.1141A.4819.4819,0,0,1,73.5309,140.1061Z" style="fill:#eac4f9"/><path d="M130.2177,168.8505h-.0086a.485.485,0,0,1-.4763-.4929q.0052-.3036.0054-.6068c0-1-.0442-2.0131-.1313-3.0113a.4846.4846,0,0,1,.9655-.0842c.09,1.0261.1351,2.0676.1351,3.0955q0,.3122-.0054.6233A.4849.4849,0,0,1,130.2177,168.8505ZM129.07,159.31a.4845.4845,0,0,1-.4686-.3623q-.1772-.6765-.3824-1.3517c-.2142-.7038-.4536-1.41-.7118-2.1a.4846.4846,0,1,1,.9077-.34c.2653.7085.5114,1.4345.7313,2.1577q.2111.6936.3928,1.3887a.4845.4845,0,0,1-.3462.5913A.48.48,0,0,1,129.07,159.31Zm-3.66-8.8841a.4847.4847,0,0,1-.4193-.2406,34.6491,34.6491,0,0,0-1.9826-3.0281.4846.4846,0,0,1,.7819-.5727,35.6528,35.6528,0,0,1,2.0384,3.1128.4844.4844,0,0,1-.4184.7286Zm-5.9269-7.561a.4823.4823,0,0,1-.337-.1362,34.8435,34.8435,0,0,0-2.7278-2.3776.4847.4847,0,0,1,.5982-.7629,35.8571,35.8571,0,0,1,2.8035,2.4438.4846.4846,0,0,1-.3369.8329Zm-7.7485-5.681a.4794.4794,0,0,1-.23-.0587,35.2311,35.2311,0,0,0-3.2673-1.5585.4848.4848,0,1,1,.3715-.8955,36.1313,36.1313,0,0,1,3.3577,1.6021.4846.4846,0,0,1-.2315.9106Zm-31.4264-1.1156a.4848.4848,0,0,1-.2-.9264,36.2961,36.2961,0,0,1,3.4645-1.3562.4847.4847,0,0,1,.3067.92,35.2622,35.2622,0,0,0-3.3717,1.32A.4825.4825,0,0,1,80.3084,136.0678ZM102.746,133.79a.4769.4769,0,0,1-.1086-.0124,34.8842,34.8842,0,0,0-3.567-.6221.4846.4846,0,0,1,.1164-.9622,35.7938,35.7938,0,0,1,3.6668.64.4847.4847,0,0,1-.1076.9571Zm-13.2279-.467a.4847.4847,0,0,1-.0739-.9636,35.8071,35.8071,0,0,1,3.7021-.3793.489.489,0,0,1,.5081.46.4842.4842,0,0,1-.46.508,34.8608,34.8608,0,0,0-3.6013.37A.5058.5058,0,0,1,89.5181,133.3225Z" style="fill:#eac4f9"/><path d="M129.1887,176.6917a.4843.4843,0,0,1-.4709-.6016c.1524-.6131.29-1.2411.4089-1.8661a.4847.4847,0,0,1,.9523.1812c-.1224.6425-.2636,1.2881-.42,1.9187A.4849.4849,0,0,1,129.1887,176.6917Z" style="fill:#eac4f9"/><path d="M112.1618,199.036a.4846.4846,0,0,1-.2369-.9078c.5549-.31,1.1075-.6394,1.642-.9782a.4846.4846,0,1,1,.5188.8187c-.5493.3484-1.1172.6868-1.688,1.0058A.4845.4845,0,0,1,112.1618,199.036Z" style="fill:#eac4f9"/><path d="M94.9488,203.5412a34.1593,34.1593,0,0,1-3.5163-.1689.4846.4846,0,1,1,.0942-.9646,34.095,34.095,0,0,0,3.4207.1642c.2023,0,.4037-.0023.6056-.0061a.4782.4782,0,0,1,.4938.4756.4849.4849,0,0,1-.4754.4937Q95.26,203.5408,94.9488,203.5412Zm7.2015-.7586a.4847.4847,0,0,1-.1-.959c1.0046-.212,2.0124-.4713,2.9959-.7709q.4494-.1371.8931-.2845a.4845.4845,0,1,1,.3067.9192q-.4548.152-.917.2924c-1.0107.3082-2.0465.5746-3.0785.7923A.4892.4892,0,0,1,102.15,202.7826ZM84.97,202.11a.475.475,0,0,1-.137-.02,36.1307,36.1307,0,0,1-3.8982-1.3953.4848.4848,0,0,1,.3786-.8927,35.2,35.2,0,0,0,3.7932,1.3584.4845.4845,0,0,1-.1366.9494Zm-9.681-4.526a.4837.4837,0,0,1-.2686-.0815,36.1555,36.1555,0,0,1-3.3047-2.4918.4847.4847,0,1,1,.6271-.7393,35.0552,35.0552,0,0,0,3.2157,2.4247.4848.4848,0,0,1-.27.8879Zm-7.8874-7.2035a.4838.4838,0,0,1-.3776-.1805,35.7027,35.7027,0,0,1-2.4062-3.3691.4846.4846,0,1,1,.82-.5163,34.7954,34.7954,0,0,0,2.3407,3.2772.4845.4845,0,0,1-.3771.7887Zm-5.3609-9.2416a.485.485,0,0,1-.4515-.3081c-.3422-.873-.6538-1.7708-.9266-2.6681q-.1924-.6319-.3607-1.2659a.4847.4847,0,0,1,.9371-.2485q.1632.6166.3507,1.232c.2658.8737.5691,1.7474.9021,2.5969a.4852.4852,0,0,1-.4511.6617Zm-2.3654-10.4222a.4847.4847,0,0,1-.483-.45c-.06-.8434-.0911-1.6986-.0911-2.5413,0-.532.012-1.07.0359-1.5993a.4912.4912,0,0,1,.506-.4624.4847.4847,0,0,1,.4624.506c-.0232.5147-.035,1.0381-.035,1.5557,0,.82.03,1.6515.0887,2.4722a.4847.4847,0,0,1-.4489.518Z" style="fill:#eac4f9"/><path d="M60.55,160.0462a.4937.4937,0,0,1-.1131-.0132.4849.4849,0,0,1-.3588-.5841c.1517-.6344.3228-1.2727.5086-1.8969a.4846.4846,0,1,1,.929.2764c-.1807.6074-.3474,1.2284-.4948,1.8458A.4848.4848,0,0,1,60.55,160.0462Z" style="fill:#eac4f9"/><path d="M70.0811,156.8035a.4238.4238,0,0,0,.0479.49l3.3893,3.888a22.469,22.469,0,0,0-.9394,7.2186l-4.2667,2.8922a.4238.4238,0,0,0-.1714.4612l1.6122,5.973a.424.424,0,0,0,.38.3125l5.1425.3524a22.47,22.47,0,0,0,4.4441,5.7655l-.9726,5.0654a.4238.4238,0,0,0,.2049.4473l5.3636,3.0836a.4235.4235,0,0,0,.49-.048l3.888-3.3892a22.469,22.469,0,0,0,7.2186.9393l2.8922,4.2668a.4237.4237,0,0,0,.4612.1714l5.9732-1.6123a.4236.4236,0,0,0,.3123-.38l.3524-5.1426a22.4656,22.4656,0,0,0,5.7655-4.4439l5.0655.9727a.4239.4239,0,0,0,.4472-.205l3.0836-5.3636a.4238.4238,0,0,0-.0479-.49l-3.3893-3.888a22.4683,22.4683,0,0,0,.9394-7.2186l4.2668-2.8922a.4237.4237,0,0,0,.1714-.4611l-1.6123-5.9733a.4236.4236,0,0,0-.38-.3122l-5.1426-.3524a22.4642,22.4642,0,0,0-4.444-5.7656l.9726-5.0653a.4235.4235,0,0,0-.2049-.4473l-5.3636-3.0836a.424.424,0,0,0-.49.0479l-3.888,3.3892a22.4631,22.4631,0,0,0-7.2185-.9392L91.5419,140.8a.4236.4236,0,0,0-.4611-.1712l-5.9731,1.6122a.4239.4239,0,0,0-.3124.38l-.3524,5.1425a22.4743,22.4743,0,0,0-5.7655,4.444l-5.0654-.9726a.4237.4237,0,0,0-.4473.205Z" style="fill:url(#ab679ab6-b062-4754-8c7b-110a2575b0dd)"/><path d="M95.1824,173.8844a6.2494,6.2494,0,0,1-1.6953-.2357,6.1821,6.1821,0,1,1,1.6953.2357Zm-.0173-10.9893a4.7657,4.7657,0,0,0-4.15,7.0965h0a4.7665,4.7665,0,1,0,4.15-7.0965Z" style="fill:#fff"/><path d="M95.2668,183.3792a15.6755,15.6755,0,0,1-15.09-11.5825v0a15.777,15.777,0,0,1-.5021-2.94c-.0046-.0609-.0086-.1217-.0124-.1824-.0035-.0562-.0068-.1122-.01-.1683l1.452-.0748a14.31,14.31,0,0,0,.476,2.9872v0a14.1925,14.1925,0,0,0,17.2671,10.0486c.0485-.0125.0963-.0253.1446-.0383a14.2018,14.2018,0,1,0-13.917-23.5792l-1.0469-1.009a15.65,15.65,0,1,1,11.2379,26.54Z" style="fill:#fff"/><path d="M50.3631,119.4846a.4847.4847,0,0,1-.2937-.8706,18.6175,18.6175,0,0,1,1.6466-1.1172.4846.4846,0,1,1,.5.83,17.6547,17.6547,0,0,0-1.56,1.059A.4827.4827,0,0,1,50.3631,119.4846Z" style="fill:#eac4f9"/><path d="M78.9153,129.4378a.4848.4848,0,0,1-.4693-.3644q-.099-.3862-.2161-.7717a17.8035,17.8035,0,0,0-1.2826-3.1183.4847.4847,0,0,1,.8572-.4525,18.7509,18.7509,0,0,1,1.3526,3.2887q.1236.4061.2279.8133a.4845.4845,0,0,1-.47.6049Zm-5.8946-9.39a.4822.4822,0,0,1-.3114-.1136,17.7764,17.7764,0,0,0-3.4858-2.2872.4846.4846,0,0,1,.4331-.8671,18.7284,18.7284,0,0,1,3.676,2.4122.4846.4846,0,0,1-.3119.8557Zm-14.54-4.0334a.4846.4846,0,0,1-.0767-.9631,18.5563,18.5563,0,0,1,4.395-.1787.4847.4847,0,1,1-.0763.9664,17.6017,17.6017,0,0,0-4.1644.1693A.49.49,0,0,1,58.4809,116.0149Z" style="fill:#eac4f9"/><path d="M78.9536,138.2779a.4909.4909,0,0,1-.1171-.0142.4847.4847,0,0,1-.3538-.5871,17.7176,17.7176,0,0,0,.3554-1.8518.4846.4846,0,1,1,.96.1316,18.7335,18.7335,0,0,1-.3748,1.9535A.4849.4849,0,0,1,78.9536,138.2779Z" style="fill:#eac4f9"/><path d="M69.3719,150.1943a.4847.4847,0,0,1-.2144-.92,17.509,17.509,0,0,0,1.6449-.9225.4848.4848,0,1,1,.5192.8188,18.6029,18.6029,0,0,1-1.7362.9735A.4823.4823,0,0,1,69.3719,150.1943Z" style="fill:#eac4f9"/><path d="M61.3357,152.07a18.5567,18.5567,0,0,1-2.8226-.2168.4846.4846,0,1,1,.1476-.9579,17.6561,17.6561,0,0,0,4.0949.1479.4846.4846,0,1,1,.0786.966C62.3393,152.05,61.8353,152.07,61.3357,152.07Zm-9.1711-2.4975a.4833.4833,0,0,1-.2447-.0665,18.6963,18.6963,0,0,1-3.4512-2.6027.4846.4846,0,0,1,.6693-.7009A17.7221,17.7221,0,0,0,52.41,148.67a.4847.4847,0,0,1-.2457.9028Zm-7.3127-8.0873a.4848.4848,0,0,1-.4411-.2835,18.8777,18.8777,0,0,1-.8834-2.3348c-.1782-.5847-.3289-1.1827-.4482-1.7772a.4847.4847,0,0,1,.95-.1907c.1131.5637.256,1.1307.425,1.6854a17.917,17.917,0,0,0,.8379,2.2145.4852.4852,0,0,1-.4406.6863Z" style="fill:#eac4f9"/><path d="M43.5,130.65a.4849.4849,0,0,1-.4771-.5727,18.6945,18.6945,0,0,1,.465-1.9339.4847.4847,0,0,1,.9291.2765,17.7044,17.7044,0,0,0-.4409,1.8335A.4849.4849,0,0,1,43.5,130.65Z" style="fill:#eac4f9"/><path d="M48.5909,127.8261a.2178.2178,0,0,0,.0245.2516l1.7411,1.9971a11.5373,11.5373,0,0,0-.4825,3.7081l-2.1917,1.4857a.2175.2175,0,0,0-.0881.2369l.8281,3.0683a.2178.2178,0,0,0,.1953.16l2.6416.1811a11.5445,11.5445,0,0,0,2.2828,2.9616l-.5,2.602a.2179.2179,0,0,0,.1053.23l2.7552,1.5839a.2173.2173,0,0,0,.2515-.0246l1.9972-1.741a11.5428,11.5428,0,0,0,3.7081.4825l1.4857,2.1918a.2177.2177,0,0,0,.2369.0881l3.0683-.8283a.2175.2175,0,0,0,.16-.1952l.181-2.6416a11.5387,11.5387,0,0,0,2.9616-2.2829l2.6021.5a.2177.2177,0,0,0,.23-.1053l1.584-2.7552a.2176.2176,0,0,0-.0246-.2515l-1.7411-1.9972a11.54,11.54,0,0,0,.4826-3.7081l2.1918-1.4856a.2176.2176,0,0,0,.088-.2369l-.8281-3.0684a.2179.2179,0,0,0-.1954-.16l-2.6416-.181a11.5406,11.5406,0,0,0-2.2828-2.9617l.5-2.6019a.2176.2176,0,0,0-.1052-.23l-2.7552-1.584a.218.218,0,0,0-.2516.0246l-1.9971,1.741a11.5432,11.5432,0,0,0-3.7081-.4825l-1.4857-2.1918a.2177.2177,0,0,0-.2369-.088l-3.0682.8282a.2179.2179,0,0,0-.1606.1952l-.181,2.6417a11.5418,11.5418,0,0,0-2.9616,2.2828l-2.6019-.5a.2176.2176,0,0,0-.23.1053Z" style="fill:url(#b2720b42-50e4-4936-ace7-de7ec5dce0a3)"/><path d="M61.486,136.9517a3.5468,3.5468,0,1,1,1.7294-.4524A3.5515,3.5515,0,0,1,61.486,136.9517Zm-.0094-5.643a2.0949,2.0949,0,1,0,1.8309,1.07A2.08,2.08,0,0,0,61.4766,131.3087Z" style="fill:#fff"/><path d="M61.5277,141.8313a8.4063,8.4063,0,0,1-8.0918-6.2114v0l-.0109-.0407a8.425,8.425,0,0,1-.2669-1.6648l-.0033-.0591,1.452-.0748a6.973,6.973,0,0,0,.2328,1.46,6.89,6.89,0,0,0,2.9749,4.0475q.1314.0836.2669.1617a6.9406,6.9406,0,1,0-1.5334-10.8418l-1.0469-1.0091a8.3923,8.3923,0,1,1,6.0266,14.232Z" style="fill:#fff"/><path d="M435.487,336.1771c.0424-.0162,22.8463-39.9512,25.9276-43.7093a2.3885,2.3885,0,0,1,2.1326-.8572l6.365.7584,7.4773,16.1764-12.4571-7.2549c1.2326,8.5251-14.77,21.1943-20.2586,25.8172a1.2608,1.2608,0,0,0-.1,1.8361l2.1911,2.2936a25.1655,25.1655,0,0,1-12.4331,7.0705Z" style="fill:url(#b16546f9-9f0c-49d5-b034-58f564cac959)"/><path d="M445.4978,330a3.2274,3.2274,0,0,1,1.8719,1.6972,1.4247,1.4247,0,0,1-.5359,1.642c-2.3027,1.65-9.8982,6.976-13.4032,8.019a.3964.3964,0,0,1-.4961-.4671,12.6284,12.6284,0,0,1,2.6362-4.8206l-.1683.34a.4872.4872,0,0,0,.6742.6427C438.421,335.73,443.1961,332.8329,445.4978,330Z" style="fill:url(#a23a8cd0-41d2-4abd-aba6-8731a1ea3457)"/><path d="M444.3693,345.9784c.0382-.0245,3.4595-8.2675,3.4978-8.2921a145.1477,145.1477,0,0,1,13.0475-39.76,2.3889,2.3889,0,0,1,1.915-1.2711l6.3867-.5452,10.5964,14.3283-13.6677-4.5836c2.9325,8.0991-10.1754,23.7448-14.6145,29.3827a1.2608,1.2608,0,0,0,.2739,1.8183l2.61,1.8028a25.1653,25.1653,0,0,1-10.7449,9.44Z" style="fill:url(#e092184b-176f-4fa1-ac63-341249e41eae)"/><path d="M452.9226,337.9028a3.2265,3.2265,0,0,1,2.1767,1.2833,1.4248,1.4248,0,0,1-.1924,1.7166c-1.9212,2.0815-8.2817,8.8346-11.5031,10.5655a.3965.3965,0,0,1-.58-.3571,12.6292,12.6292,0,0,1,1.6062-5.2544l-.096.3672a.4871.4871,0,0,0,.79.4928C447.1519,344.9462,451.242,341.1432,452.9226,337.9028Z" style="fill:url(#ae9df7fd-c690-4021-b293-58fe7fb4dd99)"/><path d="M499.1117,293.0925s5.7776,8.5934,6.2518,12.5133-1.5976,5.2756-7.645,5.7754c-17.9955,1.4877-26.8665-3.9056-26.8665-3.9056-1.231-7.8489-2.1069-9.8458-12.3881-14.1134,0,0,13.0038,1.0324,15.6211.0168S499.1117,293.0925,499.1117,293.0925Z" style="fill:url(#ba7f3765-9947-4ddf-96dc-ac4e88e7b7a1)"/><path d="M474.0663,255.0842c-3.278-.0271-6.69.833-8.0873-1.1219-2.0552-2.8753,1.0726-10.684,6.3152-12.717,5.4729-2.1222,9.2792,3.59,15.1285,1.4955,4.5692-1.636,4.2167-5.8272,8.4757-8.99,7.0658-5.2469,21.1638-3.46,26.4355,3.53,8.6179,11.4271-6.1749,36.9954-17.3852,37.3036C495.0045,274.8578,489.4644,255.2115,474.0663,255.0842Z" style="fill:url(#b8ef0257-b411-4568-b800-5b828984188c)"/><path d="M483.4867,291.9548a131.9131,131.9131,0,0,1-10.04-10.65,9.0035,9.0035,0,0,1-1.5246-8.1027,111.8509,111.8509,0,0,1,4.4443-11.1914c.3756-1.2587,7.92-1.2062,7.92-1.2062s14.8451,9.6344,20.6777,25.9546l-6.55,2.0393a76.5449,76.5449,0,0,0-7.7057-10.6371s6.6267,8.7543,6.86,12.338Z" style="fill:url(#bec76312-71d7-40c3-868d-9081efacaaf5)"/><path d="M470.6676,294.4829l5.0554-5.5,5.8386,1.5722s6.8067,1.0546,10.7025,0L496.16,289.5l8.8038-2.7408,1.3826,3.9076a2.3529,2.3529,0,0,1-.8595,2.7031,15.55,15.55,0,0,1-2.2234,1.385c-1.1594.5072-26.7071.16-26.7071.16Z" style="fill:url(#ee961be4-fa6e-4e1f-b177-c6113a1f4a18)"/><path d="M479.1013,251.7342l5.07,9.4284c-.3347,2.0581-5.5185,2.1162-6.3193.8872a1.2178,1.2178,0,0,1-.159-.4158l-3.033-6.3c-.13-.6144,1.5539-2.6842,2.1081-2.9793l2.0153-1.0727C479.56,250.8693,476.3216,250.8367,479.1013,251.7342Z" style="fill:url(#fba85aad-a60e-48f0-96a7-3ebbbe25eebc)"/><path d="M468.84,249.5215s-.5724,3.1854,1.9313,7.2355,4.9968,3.8672,6.2635,2.4228a8.9013,8.9013,0,0,0,2.0934-7.8894C478.4379,247.2509,469.7047,245.4594,468.84,249.5215Z" style="fill:url(#ac76d03c-35cf-4e87-a42b-e9bbce1efeba)"/><path d="M476.0974,251.7294s-4.0542-5.325-7.1666-.683l.0525,1.6035s-2.3259,1.2814-1.8869-2.4491,2.0216-7.7495,6.6026-6.475,7.2577,2.7261,7.7749,5.9067-2.08,2.6608-2.08,2.6608-.992-2.1946-2.19-2.3445-.765,1.5861-.765,1.5861Z" style="fill:url(#f8a349c1-e9d3-4b5b-9f4a-df5e202ab0f7)"/><path d="M477.0277,251.5873s-2.1-2.7251-.1885-3.2906,1.84,2.67,1.7157,3.874Z" style="fill:url(#e3cdde77-d4a9-4e5c-bf47-c09faf257f7f)"/><path d="M487.4019,296.66c-.0178.001-.0356.0014-.0535.0013l-23.253-.0255a1.0407,1.0407,0,1,1,.0024-2.0813l23.2529.0253a1.0408,1.0408,0,0,1,.0512,2.08Z" style="fill:url(#f3926b10-5c17-46b6-80a1-991f13f3ca52)"/><path d="M443.1921,275.5476h19.3652a3.6911,3.6911,0,0,1,3.3382,2.1165l8.9526,18.9833H450.7822a2.2434,2.2434,0,0,1-2.0862-1.4187l-6.9422-17.5662A1.5465,1.5465,0,0,1,443.1921,275.5476Z" style="fill:url(#ec399f8e-823f-401e-a8f5-f98c59710f26)"/><path d="M456.835,285.2809c.42,1.3038.11,2.57-.6923,2.8282s-1.7926-.5895-2.2122-1.8933-.11-2.57.6924-2.8281S456.4154,283.9771,456.835,285.2809Z" style="fill:url(#a7a6f177-c14b-4aa3-a697-8c6eceed1bc9)"/><path d="M493.84,252.2377q-.0926,0-.1852-.0026c-2.4182-.0726-4.9-1.2464-7.587-3.5886-4.1844-3.6481-5.7779-4.2467-9.0838-4.2467-.0962,0-.1937,0-.293.0016l-.001-.1346q.14-.0012.2769-.0013c3.308,0,4.9985.6256,9.1892,4.2795,2.6625,2.3209,5.1167,3.484,7.5028,3.5554,2.5735.0761,5.2559-1.5041,7.3488-4.34a36.6043,36.6043,0,0,0,2.4147-3.9282,39.3483,39.3483,0,0,1,2.2466-3.6981,8.2824,8.2824,0,0,1,2.92-2.7228,3.8152,3.8152,0,0,1,3.873.1577l-.0795.1088a3.681,3.681,0,0,0-3.7347-.1456,8.1614,8.1614,0,0,0-2.8691,2.68,39.194,39.194,0,0,0-2.2384,3.6856,36.7423,36.7423,0,0,1-2.424,3.9423C499.0468,250.6447,496.4049,252.2377,493.84,252.2377Z" style="fill:#fff;opacity:0.39"/><path d="M494.6154,255.6279a6.4741,6.4741,0,0,1-.75-.0429,4.646,4.646,0,0,1-3.9576-2.879l.1283-.04a4.5116,4.5116,0,0,0,3.8448,2.7861,9.0837,9.0837,0,0,0,6.2865-2.023,30.33,30.33,0,0,0,3.7352-3.4743c.3853-.401.784-.816,1.1829-1.2161a45.7125,45.7125,0,0,1,5.6864-4.8377,7.8355,7.8355,0,0,1,4.3853-1.8427c.0533,0,.1066.0011.16.0029a3.4931,3.4931,0,0,1,2.5438,1.3292,2.292,2.292,0,0,1,.47,1.9268l-.1309-.0306a2.1612,2.1612,0,0,0-.446-1.8145,3.3533,3.3533,0,0,0-2.442-1.2764,7.4968,7.4968,0,0,0-4.4619,1.8145,45.5792,45.5792,0,0,0-5.67,4.8235c-.3979.3992-.7959.8137-1.181,1.2144a30.4286,30.4286,0,0,1-3.7523,3.4893A9.6928,9.6928,0,0,1,494.6154,255.6279Z" style="fill:#fff;opacity:0.39"/><path d="M496.2042,257.6582a4.0219,4.0219,0,0,1-1.8354-.4228l.0606-.12c2.1414,1.0819,4.7065-.3032,5.71-.9492a32.8779,32.8779,0,0,0,3.2023-2.46,19.3508,19.3508,0,0,1,5.5259-3.6365,5.8317,5.8317,0,0,1,2.92-.3821,3.2861,3.2861,0,0,1,2.414,1.6055l-.1188.0629a3.1516,3.1516,0,0,0-2.3167-1.5354,5.71,5.71,0,0,0-2.852.3753,19.2508,19.2508,0,0,0-5.4857,3.6135,33.0059,33.0059,0,0,1-3.2158,2.47A7.8742,7.8742,0,0,1,496.2042,257.6582Z" style="fill:#fff;opacity:0.39"/><path d="M501.1293,310.09H482.5548a6.45,6.45,0,0,0-5.586,3.2251l-9.2871,16.0859a6.45,6.45,0,0,0,0,6.45l9.2871,16.0859a6.45,6.45,0,0,0,5.586,3.2251h18.5745a6.45,6.45,0,0,0,5.5859-3.2251l9.2872-16.0859a6.45,6.45,0,0,0,0-6.45l-9.2872-16.0859A6.45,6.45,0,0,0,501.1293,310.09Z" style="fill:url(#b80e8219-8ae5-4b1c-a0da-3372d0cbc412)"/><path d="M482.5548,352.0752a3.3722,3.3722,0,0,1-2.9124-1.6814l-9.2872-16.086a3.3724,3.3724,0,0,1,0-3.363l9.2872-16.0858a3.3721,3.3721,0,0,1,2.9124-1.6815h18.5745a3.3719,3.3719,0,0,1,2.9123,1.6814l9.2873,16.086a3.3727,3.3727,0,0,1,0,3.363l-9.2871,16.0859a3.3722,3.3722,0,0,1-2.9124,1.6814Z" style="opacity:0.49;fill:url(#bdb91164-5d68-4267-a966-719d1faa1815)"/><path d="M544.2627,283.4348H525.6883a6.45,6.45,0,0,0-5.586,3.2251l-9.2872,16.0859a6.45,6.45,0,0,0,0,6.45l9.2872,16.0859a6.45,6.45,0,0,0,5.586,3.2251h18.5744a6.45,6.45,0,0,0,5.5859-3.2251l9.2873-16.0859a6.4506,6.4506,0,0,0,0-6.45L549.8486,286.66A6.45,6.45,0,0,0,544.2627,283.4348Z" style="fill:url(#ac864f5a-287f-418c-98e5-fbbe87b0f879)"/><path d="M525.6883,325.42a3.3722,3.3722,0,0,1-2.9124-1.6814l-9.2873-16.086a3.3727,3.3727,0,0,1,0-3.363l9.2871-16.0858a3.3723,3.3723,0,0,1,2.9125-1.6815h18.5744a3.3717,3.3717,0,0,1,2.9123,1.6814l9.2873,16.086a3.3724,3.3724,0,0,1,0,3.363l-9.2872,16.0859a3.3719,3.3719,0,0,1-2.9124,1.6814Z" style="opacity:0.49;fill:url(#ec0be0ec-9b76-4e52-8304-dcfaa2cc40a5)"/></svg>