<?xml version="1.0" encoding="utf-8"?>
<!-- Generator: Adobe Illustrator 18.0.0, SVG Export Plug-In . SVG Version: 6.00 Build 0)  -->
<!DOCTYPE svg PUBLIC "-//W3C//DTD SVG 1.1//EN" "http://www.w3.org/Graphics/SVG/1.1/DTD/svg11.dtd">
<svg version="1.1" id="Calque_1" xmlns="http://www.w3.org/2000/svg" xmlns:xlink="http://www.w3.org/1999/xlink" x="0px" y="0px"
	 viewBox="0 0 56 36" style="enable-background:new 0 0 56 36;" xml:space="preserve">
<style type="text/css">
	.st0{fill:#A9A398;}
</style>
<g>
	<path class="st0" d="M1.66,23.124V11.365h5.208c1.4,0,2.434,0.364,3.1,1.092s1,1.624,1,2.688c0,0.459-0.079,0.904-0.235,1.335
		c-0.157,0.432-0.393,0.832-0.706,1.201c-0.313,0.37-0.744,0.667-1.293,0.891c-0.549,0.225-1.171,0.336-1.865,0.336H4.213v4.217
		H1.66z M6.968,16.505c0.448,0,0.784-0.134,1.009-0.403c0.224-0.269,0.336-0.588,0.336-0.957c0-0.358-0.106-0.675-0.319-0.949
		s-0.555-0.412-1.025-0.412H4.213v2.721H6.968z"/>
	<path class="st0" d="M19.686,23.124v-4.821h-4.671v4.821h-2.554V11.365h2.554v4.501h4.671v-4.501h2.57v11.759H19.686z"/>
	<path class="st0" d="M24.759,23.124V11.365h5.208c1.4,0,2.434,0.364,3.1,1.092s1,1.624,1,2.688c0,0.459-0.079,0.904-0.235,1.335
		c-0.157,0.432-0.393,0.832-0.706,1.201c-0.313,0.37-0.744,0.667-1.293,0.891c-0.549,0.225-1.171,0.336-1.865,0.336h-2.654v4.217
		H24.759z M30.068,16.505c0.448,0,0.784-0.134,1.009-0.403c0.224-0.269,0.336-0.588,0.336-0.957c0-0.358-0.106-0.675-0.319-0.949
		s-0.555-0.412-1.025-0.412h-2.755v2.721H30.068z"/>
	<path class="st0" d="M39.914,23.292c-0.885,0-1.66-0.176-2.327-0.529c-0.666-0.353-1.184-0.825-1.554-1.419
		c-0.369-0.594-0.642-1.232-0.814-1.915c-0.174-0.684-0.261-1.412-0.261-2.185c0-0.705,0.09-1.396,0.269-2.074
		c0.18-0.678,0.454-1.322,0.823-1.932c0.37-0.61,0.888-1.103,1.555-1.479c0.666-0.375,1.437-0.563,2.31-0.563
		c1.064,0,1.971,0.275,2.721,0.823c0.75,0.549,1.282,1.215,1.596,1.999l-2.284,1.025c-0.325-0.481-0.636-0.835-0.933-1.059
		c-0.296-0.224-0.664-0.336-1.1-0.336c-0.414,0-0.778,0.109-1.092,0.328c-0.313,0.218-0.555,0.509-0.723,0.874
		c-0.168,0.363-0.291,0.745-0.369,1.142c-0.079,0.398-0.118,0.815-0.118,1.252c0,0.594,0.076,1.154,0.228,1.68
		c0.15,0.527,0.408,0.978,0.772,1.353c0.363,0.376,0.798,0.563,1.302,0.563c0.728,0,1.394-0.504,1.999-1.513l2.336,0.874
		C43.296,22.262,41.851,23.292,39.914,23.292z"/>
	<path class="st0" d="M50.632,23.326c-0.874,0-1.652-0.171-2.335-0.513c-0.684-0.342-1.227-0.804-1.63-1.386
		s-0.708-1.227-0.916-1.933c-0.207-0.705-0.311-1.455-0.311-2.251c0-0.739,0.106-1.459,0.319-2.158
		c0.213-0.7,0.523-1.347,0.933-1.94c0.408-0.594,0.954-1.072,1.638-1.437c0.684-0.364,1.45-0.546,2.302-0.546
		c1.042,0,1.896,0.241,2.562,0.722c0.667,0.482,1.258,1.137,1.772,1.966l-2.234,1.259c-0.627-0.996-1.327-1.495-2.1-1.495
		c-0.604,0-1.108,0.199-1.512,0.596s-0.675,0.854-0.815,1.369c-0.14,0.516-0.21,1.069-0.21,1.663c0,1.02,0.21,1.879,0.63,2.579
		s1.056,1.05,1.907,1.05c0.481,0,0.901-0.156,1.26-0.471c0.358-0.313,0.538-0.677,0.538-1.092v-0.084h-1.915v-2.436h4.535v1.848
		c0,1.468-0.411,2.615-1.234,3.444S51.931,23.326,50.632,23.326z"/>
</g>
</svg>
