<?xml version="1.0" standalone="no"?>
<!DOCTYPE svg PUBLIC "-//W3C//DTD SVG 1.1//EN" "http://www.w3.org/Graphics/SVG/1.1/DTD/svg11.dtd" >
<svg xmlns="http://www.w3.org/2000/svg">
<metadata>Generated by IcoMoon</metadata>
<defs>
<font id="icomoon" horiz-adv-x="1024">
<font-face units-per-em="1024" ascent="960" descent="-64" />
<missing-glyph horiz-adv-x="1024" />
<glyph unicode="&#x20;" horiz-adv-x="512" d="" />
<glyph unicode="&#xe900;" glyph-name="question-circle" horiz-adv-x="878" d="M512 173.714v109.714c0 10.286-8 18.286-18.286 18.286h-109.714c-10.286 0-18.286-8-18.286-18.286v-109.714c0-10.286 8-18.286 18.286-18.286h109.714c10.286 0 18.286 8 18.286 18.286zM658.286 557.714c0 104.571-109.714 182.857-208 182.857-93.143 0-162.857-40-212-121.714-5.143-8-2.857-18.286 4.571-24l75.429-57.143c2.857-2.286 6.857-3.429 10.857-3.429 5.143 0 10.857 2.286 14.286 6.857 26.857 34.286 38.286 44.571 49.143 52.571 9.714 6.857 28.571 13.714 49.143 13.714 36.571 0 70.286-23.429 70.286-48.571 0-29.714-15.429-44.571-50.286-60.571-40.571-18.286-96-65.714-96-121.143v-20.571c0-10.286 8-18.286 18.286-18.286h109.714c10.286 0 18.286 8 18.286 18.286v0c0 13.143 16.571 41.143 43.429 56.571 43.429 24.571 102.857 57.714 102.857 144.571zM877.714 448c0-242.286-196.571-438.857-438.857-438.857s-438.857 196.571-438.857 438.857 196.571 438.857 438.857 438.857 438.857-196.571 438.857-438.857z" />
<glyph unicode="&#xe901;" glyph-name="bars" horiz-adv-x="878" d="M877.714 192v-73.143c0-20-16.571-36.571-36.571-36.571h-804.571c-20 0-36.571 16.571-36.571 36.571v73.143c0 20 16.571 36.571 36.571 36.571h804.571c20 0 36.571-16.571 36.571-36.571zM877.714 484.571v-73.143c0-20-16.571-36.571-36.571-36.571h-804.571c-20 0-36.571 16.571-36.571 36.571v73.143c0 20 16.571 36.571 36.571 36.571h804.571c20 0 36.571-16.571 36.571-36.571zM877.714 777.143v-73.143c0-20-16.571-36.571-36.571-36.571h-804.571c-20 0-36.571 16.571-36.571 36.571v73.143c0 20 16.571 36.571 36.571 36.571h804.571c20 0 36.571-16.571 36.571-36.571z" />
<glyph unicode="&#xe902;" glyph-name="tools" d="M889.056 706.048c30.688-74.016 16.064-162.368-44.128-222.56-66.272-66.272-166.432-76.64-244.288-32.704l-56.288-61.472 40.16-40.32 24 24c12.256 12.288 32.16 12.288 44.416 0l194.624-196.608c12.288-12.256 12.288-32.16 0-44.416l-88.832-88.832c-12.256-12.288-32.16-12.288-44.416 0l-194.624 196.608c-12.288 12.256-12.288 32.16 0 44.416l21.92 21.92-38.272 38.368-269.152-294.048c-24.544-24.544-64.32-24.544-88.832 0l-22.208 22.208c-24.544 24.544-24.544 64.32 0 88.832l306.624 256.8-203.648 204.192-64.32 0.032-74.432 119.68 59.904 60 122.4-74.912 0.8-62.976 206.016-206.816 59.936 50.176c-58.592 79.872-52.48 192.384 19.712 264.576 59.904 59.904 147.776 74.784 221.6 44.672l-131.968-130.144 111.072-111.072 132.224 130.4zM196.8 130.112c-12.256 12.256-32.128 12.256-44.416 0-12.288-12.288-12.288-32.16 0-44.448 12.288-12.256 32.16-12.256 44.416 0 12.288 12.32 12.288 32.192 0 44.448z" />
<glyph unicode="&#xe903;" glyph-name="lifebuoy" d="M512 960c-282.77 0-512-229.23-512-512s229.23-512 512-512 512 229.23 512 512-229.23 512-512 512zM320 448c0 106.040 85.96 192 192 192s192-85.96 192-192-85.96-192-192-192-192 85.96-192 192zM925.98 276.524v0l-177.42 73.49c12.518 30.184 19.44 63.276 19.44 97.986s-6.922 67.802-19.44 97.986l177.42 73.49c21.908-52.822 34.020-110.73 34.020-171.476s-12.114-118.654-34.020-171.476v0zM683.478 861.98v0 0l-73.49-177.42c-30.184 12.518-63.276 19.44-97.988 19.44s-67.802-6.922-97.986-19.44l-73.49 177.422c52.822 21.904 110.732 34.018 171.476 34.018 60.746 0 118.654-12.114 171.478-34.020zM98.020 619.476l177.422-73.49c-12.518-30.184-19.442-63.276-19.442-97.986s6.922-67.802 19.44-97.986l-177.42-73.49c-21.906 52.822-34.020 110.73-34.020 171.476s12.114 118.654 34.020 171.476zM340.524 34.020l73.49 177.42c30.184-12.518 63.276-19.44 97.986-19.44s67.802 6.922 97.986 19.44l73.49-177.42c-52.822-21.904-110.73-34.020-171.476-34.020-60.744 0-118.654 12.114-171.476 34.020z" />
<glyph unicode="&#xe904;" glyph-name="upload1" d="M0 64h1024v-64h-1024zM1024 192v-64h-1024v64l128 256h256v-128h256v128h256zM224 640l288 288 288-288h-224v-256h-128v256z" />
<glyph unicode="&#xe905;" glyph-name="code" horiz-adv-x="1280" d="M832 224l96-96 320 320-320 320-96-96 224-224zM448 672l-96 96-320-320 320-320 96 96-224 224zM701.298 809.481l69.468-18.944-191.987-704.026-69.468 18.944 191.987 704.026z" />
<glyph unicode="&#xe906;" glyph-name="eye" d="M512 768c-223.318 0-416.882-130.042-512-320 95.118-189.958 288.682-320 512-320 223.312 0 416.876 130.042 512 320-95.116 189.958-288.688 320-512 320zM764.45 598.296c60.162-38.374 111.142-89.774 149.434-150.296-38.292-60.522-89.274-111.922-149.436-150.296-75.594-48.218-162.89-73.704-252.448-73.704-89.56 0-176.858 25.486-252.452 73.704-60.158 38.372-111.138 89.772-149.432 150.296 38.292 60.524 89.274 111.924 149.434 150.296 3.918 2.5 7.876 4.922 11.86 7.3-9.96-27.328-15.41-56.822-15.41-87.596 0-141.382 114.616-256 256-256 141.382 0 256 114.618 256 256 0 30.774-5.452 60.268-15.408 87.598 3.978-2.378 7.938-4.802 11.858-7.302v0zM512 544c0-53.020-42.98-96-96-96s-96 42.98-96 96 42.98 96 96 96 96-42.982 96-96z" />
<glyph unicode="&#xe907;" glyph-name="download1" d="M896 448h-160l-224-224-224 224h-160l-128-256v-64h1024v64l-128 256zM0 64h1024v-64h-1024v64zM576 640v256h-128v-256h-224l288-288 288 288h-224z" />
<glyph unicode="&#xe908;" glyph-name="btn-group" horiz-adv-x="2014" d="M1615.189 730.965c55.637 0 98.304-42.325 98.304-97.28v-370.688c0-54.955-40.277-97.963-95.915-97.963h-1234.944c-55.637-0.341-95.915 43.008-95.915 97.621v370.688c0 54.955 40.277 97.963 95.915 97.963h1231.872zM1617.579 789.333h-1234.944c-88.064 0-157.355-68.267-157.355-155.989v-370.688c0-87.723 68.949-155.989 157.013-155.989h1235.285c88.064 0 157.696 68.267 157.696 155.989v370.688c-0.341 87.723-69.632 155.989-157.696 155.989v0zM976.213 212.48h-589.141c-29.696 0-52.565 26.283-52.565 55.637v360.107c0 29.696 22.869 55.296 52.565 55.296h589.141v-471.040zM1613.141 212.48h-575.488v471.040h575.488c29.696 0 52.565-25.6 52.565-55.296v-359.765c0-30.037-22.869-55.979-52.565-55.979z" />
<glyph unicode="&#xe909;" glyph-name="radio-checked" d="M512 832c-211.2 0-384-172.8-384-384s172.8-384 384-384 384 172.8 384 384-172.8 384-384 384zM512 160c-160 0-288 128-288 288s128 288 288 288 288-128 288-288-128-288-288-288zM368 448c0 80 64 144 144 144s144-64 144-144-64-144-144-144-144 64-144 144z" />
<glyph unicode="&#xe90a;" glyph-name="input" d="M992 640h-960c-16 0-32-12.8-32-32v-316.8c0-19.2 16-32 32-32h960c16 0 32 12.8 32 32v316.8c0 19.2-16 32-32 32zM944 323.2h-864c-9.6 0-16 6.4-16 16v217.6c0 9.6 6.4 16 16 16h864c9.6 0 16-6.4 16-16v-217.6c0-9.6-6.4-16-16-16zM208 192v512c0 16 6.4 28.8 19.2 35.2l48 28.8h-185.6l48-28.8c6.4-6.4 12.8-19.2 12.8-35.2v-512c0-16-6.4-28.8-19.2-35.2l-48-28.8h185.6l-48 28.8c-6.4 6.4-12.8 19.2-12.8 35.2z" />
<glyph unicode="&#xe90b;" glyph-name="select" d="M752 492.8l73.6-96c3.2-3.2 6.4-3.2 9.6 0l73.6 96c3.2 3.2 0 9.6-6.4 9.6h-147.2c-3.2 0-6.4-6.4-3.2-9.6zM992 640h-960c-16 0-32-12.8-32-32v-316.8c0-19.2 16-32 32-32h960c16 0 32 12.8 32 32v316.8c0 19.2-16 32-32 32zM944 323.2h-864c-9.6 0-16 6.4-16 16v217.6c0 9.6 6.4 16 16 16h864c9.6 0 16-6.4 16-16v-217.6c0-9.6-6.4-16-16-16z" />
<glyph unicode="&#xe90c;" glyph-name="textarea" d="M515.2 320h-380.8c-19.2 0-32 16-32 32s16 32 32 32h380.8c19.2 0 32-16 32-32s-12.8-32-32-32zM611.2 480h-476.8c-19.2 0-32 16-32 32s16 32 32 32h476.8c19.2 0 32-16 32-32s-12.8-32-32-32zM707.2 640h-572.8c-19.2 0-32 16-32 32s16 32 32 32h572.8c19.2 0 32-16 32-32s-12.8-32-32-32zM992 860.8h-960c-16 0-32-12.8-32-32v-758.4c0-19.2 16-32 32-32h960c16 0 32 12.8 32 32v758.4c0 19.2-16 32-32 32zM944 99.2h-864c-9.6 0-16 6.4-16 16v665.6c0 9.6 6.4 16 16 16h864c9.6 0 16-6.4 16-16v-662.4c0-9.6-6.4-19.2-16-19.2z" />
<glyph unicode="&#xe90d;" glyph-name="outlink" d="M192 896v-768h768v768h-768zM896 192h-640v640h640v-640zM128 64v672l-64 64v-800h800l-64 64h-672zM352 704l160-160-192-192 96-96 192 192 160-160v416z" />
<glyph unicode="&#xe90e;" glyph-name="move" d="M575.488 770.528v-258.016h256v128l192.512-192.512-192.512-192.48v130.976h-256v-258.016h128.992l-192.48-192.48-192.512 192.48h128v258.016h-256v-129.984l-191.488 191.488 191.488 191.488v-126.976h256v258.016h-124.992l189.504 189.472 189.504-189.472h-126.016z" />
<glyph unicode="&#xe90f;" glyph-name="delete" d="M512 960c-282.77 0-512-229.23-512-512s229.23-512 512-512 512 229.23 512 512-229.23 512-512 512zM512 32c-229.75 0-416 186.25-416 416s186.25 416 416 416 416-186.25 416-416-186.25-416-416-416zM672 704l-160-160-160 160-96-96 160-160-160-160 96-96 160 160 160-160 96 96-160 160 160 160z" />
<glyph unicode="&#xe910;" glyph-name="expand" d="M1024 960v-416l-160 160-192-192-96 96 192 192-160 160zM448 288l-192-192 160-160h-416v416l160-160 192 192z" />
<glyph unicode="&#xe911;" glyph-name="shrink" d="M448 384v-416l-160 160-192-192-96 96 192 192-160 160zM1024 864l-192-192 160-160h-416v416l160-160 192 192z" />
<glyph unicode="&#xe912;" glyph-name="plus-circle" horiz-adv-x="878" d="M694.857 402.286v73.143c0 20-16.571 36.571-36.571 36.571h-146.286v146.286c0 20-16.571 36.571-36.571 36.571h-73.143c-20 0-36.571-16.571-36.571-36.571v-146.286h-146.286c-20 0-36.571-16.571-36.571-36.571v-73.143c0-20 16.571-36.571 36.571-36.571h146.286v-146.286c0-20 16.571-36.571 36.571-36.571h73.143c20 0 36.571 16.571 36.571 36.571v146.286h146.286c20 0 36.571 16.571 36.571 36.571zM877.714 438.857c0-242.286-196.571-438.857-438.857-438.857s-438.857 196.571-438.857 438.857 196.571 438.857 438.857 438.857 438.857-196.571 438.857-438.857z" />
<glyph unicode="&#xe913;" glyph-name="short_text" d="M170 384.667h428v-86h-428v86zM170 554.667h684v-86h-684v86z" />
<glyph unicode="&#xe914;" glyph-name="bubbles" horiz-adv-x="1152" d="M480 832c-50.666 0-99.582-7.95-145.386-23.628-42.924-14.694-81.114-35.436-113.502-61.646-60.044-48.59-93.112-110.802-93.112-175.174 0-35.99 10.066-70.948 29.92-103.898 20.686-34.34 51.898-65.794 90.26-90.958 30.44-19.968 50.936-51.952 56.362-87.95 0.902-5.99 1.63-12.006 2.18-18.032 2.722 2.52 5.424 5.114 8.114 7.794 24.138 24.040 56.688 37.312 90.322 37.312 5.348 0 10.718-0.336 16.094-1.018 19.36-2.452 39.124-3.696 58.748-3.696 50.666 0 99.58 7.948 145.384 23.628 42.926 14.692 81.116 35.434 113.504 61.644 60.046 48.59 93.112 110.802 93.112 175.174s-33.066 126.582-93.112 175.174c-32.388 26.212-70.578 46.952-113.504 61.646-45.804 15.678-94.718 23.628-145.384 23.628zM480 960v0c265.096 0 480-173.914 480-388.448s-214.904-388.448-480-388.448c-25.458 0-50.446 1.62-74.834 4.71-103.106-102.694-222.172-121.108-341.166-123.814v25.134c64.252 31.354 116 88.466 116 153.734 0 9.106-0.712 18.048-2.030 26.794-108.558 71.214-177.97 179.988-177.97 301.89 0 214.534 214.904 388.448 480 388.448zM996 89.314c0-55.942 36.314-104.898 92-131.772v-21.542c-103.126 2.318-197.786 18.102-287.142 106.126-21.14-2.65-42.794-4.040-64.858-4.040-95.47 0-183.408 25.758-253.614 69.040 144.674 0.506 281.26 46.854 384.834 130.672 52.208 42.252 93.394 91.826 122.414 147.348 30.766 58.866 46.366 121.582 46.366 186.406 0 10.448-0.45 20.836-1.258 31.168 72.57-59.934 117.258-141.622 117.258-231.676 0-104.488-60.158-197.722-154.24-258.764-1.142-7.496-1.76-15.16-1.76-22.966z" />
<glyph unicode="&#xe915;" glyph-name="html-five" d="M60.538 960l82.144-921.63 368.756-102.37 369.724 102.524 82.3 921.476h-902.924zM810.762 97.176l-297.226-82.376v-0.466l-0.776 0.234-0.782-0.234v0.466l-297.222 82.376-70.242 787.486h736.496l-70.248-787.486zM650.754 429.796l-13.070-146.552-126.21-34.070-125.862 33.916-8.050 90.234h-113.49l15.83-177.512 232.076-64.176 231.342 64.176 31.040 347.012h-411.966l-10.302 115.748h432.534l10.112 113.026h-566.218l30.498-341.802z" />
<glyph unicode="&#xe916;" glyph-name="button" horiz-adv-x="2014" d="M1614.848 728.576c55.637 0 97.963-41.984 97.963-96.939v-366.592c0-54.955-42.325-96.939-97.963-96.939h-1228.8c-55.637 0-97.963 41.984-97.963 96.939v366.251c0 54.955 42.325 96.939 97.963 96.939h1228.8zM1614.848 787.968h-1228.8c-88.064 0-157.355-68.949-157.355-156.672v-366.592c0-87.723 68.949-156.672 157.013-156.672h1228.8c88.064 0 157.013 68.608 157.013 156.672v366.592c0.683 87.723-68.608 156.672-156.672 156.672v0zM1610.069 216.576h-1219.584c-29.696 0-53.931 24.235-53.931 53.931v355.669c0 29.696 24.235 53.931 53.931 53.931h1219.584c29.696 0 53.931-24.235 53.931-53.931v-355.669c0-29.696-24.235-53.931-53.931-53.931z" />
<glyph unicode="&#xe917;" glyph-name="fieldset" horiz-adv-x="2014" d="M1659.904 124.075h-1305.941c-81.92 0-145.749 63.829-145.749 145.067v396.288c0 81.579 64.171 145.067 145.749 145.067h93.867c18.773 0 34.133-15.36 34.133-34.133s-15.36-34.133-34.133-34.133h-93.867c-44.373 0-77.824-33.109-77.824-77.141v-396.288c0-44.032 33.451-77.141 77.824-77.141h1305.941c44.373 0 77.824 33.109 77.824 77.141v396.629c0 44.032-33.451 77.141-77.824 77.141h-478.891c-18.773 0-34.133 15.36-34.133 34.133s15.36 34.133 34.133 34.133h478.891c81.92 0 145.749-63.829 145.749-145.067v-396.288c0-81.579-64.171-145.408-145.749-145.408zM590.507 778.752l-34.475 55.637h44.373l17.067-31.744 17.749 31.744h44.373l-35.499-55.637 36.864-57.685h-44.373l-19.115 34.475-19.115-34.475h-44.373l36.523 57.685zM754.005 834.389h41.301l19.115-64.853c1.024-3.413 1.707-7.509 2.048-12.288h0.683c0.683 4.437 1.365 8.533 2.389 11.947l19.797 65.195h39.936l-44.715-120.491c-5.803-15.36-12.629-26.283-21.163-32.427-8.533-6.485-19.115-9.557-32.768-9.557-5.12 0-10.581 0.683-16.043 1.707v30.72c3.413-0.683 7.509-1.365 11.947-1.365 3.413 0 6.485 0.683 9.216 2.048s4.779 3.072 6.827 5.803c2.048 2.389 4.096 6.485 6.144 11.947l-44.715 111.616zM1049.941 721.067h-93.867v22.187l46.763 61.099h-43.691v30.037h88.747v-24.235l-45.056-59.051h47.104v-30.037z" />
<glyph unicode="&#xe918;" glyph-name="checkbox-checked" d="M800 832h-576c-54.4 0-96-41.6-96-96v-576c0-54.4 41.6-96 96-96h576c54.4 0 96 41.6 96 96v576c0 54.4-41.6 96-96 96zM464 236.8l-179.2 179.2 67.2 67.2 108.8-108.8 230.4 230.4 67.2-67.2c3.2-3.2-294.4-300.8-294.4-300.8z" />
<glyph unicode="&#xe919;" glyph-name="recaptcha" d="M983.723 448.683c0 6.827 0 13.653-0.683 20.48v381.611l-105.813-105.813c-86.016 105.813-217.088 173.397-364.544 173.397-152.917 0-289.451-73.045-375.467-186.368l173.397-174.763c17.067 31.403 40.96 58.027 70.315 78.507 30.037 23.893 73.045 43.008 132.437 43.008 6.827 0 12.971-0.683 17.067-2.731 73.045-5.461 137.216-46.421 174.080-105.131l-122.88-122.197c154.965 0.683 330.411 1.365 402.091 0zM509.952 918.357c-6.827 0-13.653 0-20.48-0.683h-381.611l105.813-105.813c-105.813-86.016-173.397-217.088-173.397-364.544 0-152.917 73.045-289.451 186.368-375.467l174.763 172.715c-31.403 17.067-58.027 40.96-78.507 70.315-23.893 30.72-43.008 73.045-43.008 132.437 0 6.827 0.683 12.971 2.731 17.067 5.461 73.045 46.421 137.216 105.131 174.080l122.197-122.197c-0.683 154.965-1.365 329.728 0 402.091zM40.277 447.317c0-6.827 0-13.653 0.683-20.48v-381.611l105.813 105.813c86.699-105.813 217.771-173.397 365.227-173.397 152.917 0 289.451 73.045 375.467 186.368l-174.080 174.763c-17.067-31.403-40.96-58.027-70.315-78.507-30.037-23.893-73.045-43.008-132.437-43.008-6.827 0-12.971 0.683-17.067 2.731-73.045 5.461-137.216 46.421-174.080 105.131l122.197 122.197c-154.283-0.683-329.728-1.365-401.408 0z" />
<glyph unicode="&#xe91a;" glyph-name="title" horiz-adv-x="2014" d="M1873.92 147.285c0-8.192 0.341-14.336 0.683-18.432s1.024-7.509 2.048-9.899c1.024-2.389 2.048-4.437 3.755-6.144 1.365-1.707 3.413-3.072 6.144-4.096 2.731-1.365 6.827-2.731 12.288-4.096v-10.581h-89.429v10.581c7.851 2.048 13.312 4.096 16.384 6.485s5.461 6.144 6.485 11.264c1.365 5.12 1.707 13.312 1.707 25.259v89.429h-118.443v-89.429c0-9.557 0.341-16.384 1.024-20.821s1.707-7.851 3.072-10.581 3.755-4.779 6.485-6.485c3.072-1.707 7.509-3.413 14.336-5.12v-10.581h-89.771v10.581c8.875 2.389 14.677 4.779 17.749 7.509s4.779 6.827 5.803 11.947c1.024 5.12 1.365 12.971 1.365 23.552v184.32c0 9.899-0.341 17.067-1.024 21.504s-2.048 7.851-3.413 10.581c-1.707 2.389-3.755 4.437-6.485 6.144-2.731 1.365-7.168 3.072-13.995 5.12v10.581h89.771v-10.581c-6.144-1.707-10.923-3.072-13.653-4.779s-5.12-3.413-6.485-5.803c-1.707-2.389-2.731-5.803-3.755-10.581-0.683-4.779-1.024-11.947-1.024-21.845v-75.435h118.443v75.093c0 12.288-0.683 20.821-1.707 25.259-1.365 4.437-3.072 8.192-6.144 10.581-2.731 2.389-8.533 4.779-16.725 7.168v10.581h89.429v-10.581c-7.851-2.048-13.653-4.096-16.725-6.827-3.072-2.389-5.12-6.144-6.485-11.264-1.024-5.12-1.707-13.312-1.707-24.917v-184.661zM1910.101 232.619v24.235c9.899 4.779 19.115 8.192 27.648 10.581s17.067 3.413 24.917 3.413c9.557 0 18.091-1.365 25.259-4.437s12.629-7.168 16.725-12.971c3.755-5.461 5.803-12.288 5.803-20.139 0-7.168-1.365-13.653-4.437-19.115s-6.827-10.24-12.288-14.336c-5.12-4.096-11.947-8.192-20.48-11.947v-1.024c5.12-1.024 10.24-2.389 15.019-4.779s9.216-5.12 12.971-8.875c3.755-3.413 6.827-7.851 8.875-12.971 2.389-5.12 3.413-10.581 3.413-17.067 0-9.899-2.048-18.773-6.485-26.283-4.437-7.851-10.923-13.653-19.797-18.091s-19.797-6.485-32.427-6.485c-7.509 0-15.36 0.683-23.893 2.389s-16.384 3.755-23.211 6.485v26.965h15.36c3.072-8.875 6.827-15.36 11.947-19.456 4.779-4.096 11.605-6.144 20.139-6.144 11.264 0 19.456 3.072 25.259 9.216s8.533 15.019 8.533 26.965c0 12.288-3.755 21.845-11.264 28.672-7.509 6.485-18.432 9.899-33.109 9.899h-11.605v11.264c11.605 0.683 21.163 2.731 29.013 6.827 7.851 3.755 13.653 8.533 17.749 14.336s5.803 12.629 5.803 19.797c0 9.557-2.389 16.725-7.509 21.845s-12.288 7.851-21.845 7.851c-8.192 0-14.677-2.048-19.456-6.485-5.12-4.437-8.875-10.923-11.264-19.797h-15.36zM1292.971 174.251c0-12.971 0.341-22.869 1.024-29.355s1.707-11.605 3.413-15.701c1.707-3.755 3.413-7.168 5.803-9.557s5.461-4.779 9.557-6.827c4.096-2.048 10.581-4.096 19.456-6.485v-16.384h-140.971v16.725c12.288 3.072 20.821 6.485 25.941 10.24 4.779 3.755 8.192 9.557 10.24 17.408s2.731 21.163 2.731 39.595v140.971h-186.368v-140.629c0-15.019 0.341-25.941 1.365-32.768s2.731-12.288 5.12-16.384c2.389-4.096 5.803-7.509 10.24-9.899 4.437-2.731 11.947-5.461 22.187-8.192v-16.384h-141.312v16.043c13.995 3.413 23.211 7.509 27.989 11.947s7.851 10.581 9.216 18.773c1.365 8.192 2.048 20.48 2.048 36.864v290.133c0 15.36-0.683 26.624-1.707 33.792s-3.072 12.629-5.461 16.384c-2.731 3.755-6.144 7.168-10.24 9.557s-11.605 5.12-21.845 7.851v16.384h141.312v-16.384c-9.899-2.389-17.067-4.779-21.163-7.509-4.437-2.389-7.851-5.461-10.24-9.216-2.731-3.755-4.437-9.216-5.803-16.725s-1.707-18.773-1.707-34.133v-118.784h186.368v118.784c0 19.456-1.024 32.768-2.731 39.936-2.048 7.168-5.12 12.629-9.557 16.384s-13.312 7.509-26.624 10.923v16.384h140.629v-16.384c-12.629-3.072-21.163-6.485-26.283-10.581-4.779-3.755-8.192-9.899-9.899-17.749s-2.731-20.821-2.731-39.253v-289.792zM1459.2 122.709c6.485 0 11.947 0.341 16.043 1.365 4.096 0.683 7.168 2.048 9.557 4.096 2.389 1.707 4.437 4.437 5.803 7.509s3.072 7.851 5.461 13.995h17.067l-3.413-58.709h-165.547v8.875c5.803 13.995 13.653 28.672 23.211 43.349 9.899 14.677 23.552 32.085 41.643 52.224 15.701 17.067 26.624 30.037 33.451 38.912 7.509 9.557 12.971 18.091 16.725 24.917 3.755 7.168 6.485 13.653 7.851 19.797 1.707 6.144 2.389 12.629 2.389 18.773 0 9.899-1.707 19.115-4.779 26.624-3.072 7.851-8.192 13.653-14.677 18.091s-15.019 6.485-24.917 6.485c-25.259 0-41.984-13.995-50.859-41.984h-24.235v38.571c16.384 7.509 31.403 13.312 45.739 16.725 13.995 3.413 26.965 5.12 38.229 5.12 24.917 0 43.691-5.461 56.661-16.384 12.629-10.923 19.115-26.965 19.115-47.445 0-7.168-0.683-13.653-2.048-19.797-1.365-5.803-3.755-11.947-6.485-17.749-3.072-5.803-7.168-11.947-12.288-18.773s-10.581-13.653-17.067-20.48c-6.144-6.827-16.725-18.432-32.085-34.475-25.6-26.965-44.373-50.517-56.32-70.656h75.776zM495.275 205.995c0-18.432 0.341-32.085 1.365-41.301s2.389-16.384 4.779-21.845c2.048-5.461 4.779-9.899 8.192-13.653 3.072-3.413 7.509-6.485 13.653-9.557 5.803-2.731 15.019-5.803 27.307-8.875v-23.211h-198.315v23.211c17.408 4.437 29.355 9.216 36.523 14.677 6.827 5.461 11.605 13.653 14.336 24.576s4.096 29.696 4.096 55.979v198.315h-263.509v-198.315c0-21.163 0.683-36.523 2.048-46.421s3.755-17.408 7.168-23.211c3.413-5.803 8.192-10.24 14.677-14.336 6.485-3.755 17.067-7.509 31.403-11.264v-23.211h-198.997v23.211c19.456 5.12 32.768 10.581 39.253 16.725s10.923 15.019 12.971 26.283c2.048 11.264 3.072 28.672 3.072 52.224v409.259c0 21.845-0.683 37.547-2.389 47.445s-4.096 17.749-7.851 23.211c-3.755 5.461-8.533 9.899-14.336 13.312-6.144 3.413-16.384 7.168-30.72 11.264v23.211h199.339v-23.211c-13.995-3.413-23.893-6.827-30.037-10.24s-10.923-7.851-14.677-12.971c-3.755-5.12-6.485-12.971-8.192-23.552-1.707-10.24-2.731-26.624-2.731-48.128v-167.595h263.168v167.253c0 27.307-1.365 46.080-4.096 56.32s-7.168 17.749-13.653 23.211c-6.144 5.461-18.773 10.581-37.547 15.701v23.211h198.315v-23.211c-17.749-4.437-30.037-9.557-36.864-15.019s-11.605-13.653-14.336-24.917c-2.389-10.923-3.755-29.355-3.755-55.296v-409.259zM727.723 161.621c0-10.923 0.683-19.115 1.707-24.917 1.365-5.461 3.413-10.24 6.485-13.653s7.509-6.144 13.653-8.192c5.803-2.048 13.312-3.413 22.187-4.437s20.48-1.707 35.157-2.048v-20.821h-209.579v20.821c21.163 1.024 35.84 2.389 45.056 3.755 8.875 1.707 15.701 4.096 20.48 7.168s8.192 7.851 10.24 13.653c2.048 5.803 3.413 15.36 3.413 28.672v230.4c0 7.509-1.365 12.971-4.096 16.725-2.731 3.413-6.485 5.12-11.605 5.12-6.144 0-14.677-3.072-25.941-9.216s-24.917-15.019-41.301-25.941l-12.629 21.845 132.779 79.189h15.701c-1.024-18.091-1.707-43.349-1.707-75.435v-242.688z" />
<glyph unicode="&#xe91b;" glyph-name="download" horiz-adv-x="951" d="M731.429 182.857c0 20-16.571 36.571-36.571 36.571s-36.571-16.571-36.571-36.571 16.571-36.571 36.571-36.571 36.571 16.571 36.571 36.571zM877.714 182.857c0 20-16.571 36.571-36.571 36.571s-36.571-16.571-36.571-36.571 16.571-36.571 36.571-36.571 36.571 16.571 36.571 36.571zM950.857 310.857v-182.857c0-30.286-24.571-54.857-54.857-54.857h-841.143c-30.286 0-54.857 24.571-54.857 54.857v182.857c0 30.286 24.571 54.857 54.857 54.857h265.714l77.143-77.714c21.143-20.571 48.571-32 77.714-32s56.571 11.429 77.714 32l77.714 77.714h265.143c30.286 0 54.857-24.571 54.857-54.857zM765.143 636c5.714-13.714 2.857-29.714-8-40l-256-256c-6.857-7.429-16.571-10.857-25.714-10.857s-18.857 3.429-25.714 10.857l-256 256c-10.857 10.286-13.714 26.286-8 40 5.714 13.143 18.857 22.286 33.714 22.286h146.286v256c0 20 16.571 36.571 36.571 36.571h146.286c20 0 36.571-16.571 36.571-36.571v-256h146.286c14.857 0 28-9.143 33.714-22.286z" />
<glyph unicode="&#xe91c;" glyph-name="upload" horiz-adv-x="951" d="M731.429 109.714c0 20-16.571 36.571-36.571 36.571s-36.571-16.571-36.571-36.571 16.571-36.571 36.571-36.571 36.571 16.571 36.571 36.571zM877.714 109.714c0 20-16.571 36.571-36.571 36.571s-36.571-16.571-36.571-36.571 16.571-36.571 36.571-36.571 36.571 16.571 36.571 36.571zM950.857 237.714v-182.857c0-30.286-24.571-54.857-54.857-54.857h-841.143c-30.286 0-54.857 24.571-54.857 54.857v182.857c0 30.286 24.571 54.857 54.857 54.857h244c15.429-42.286 56-73.143 103.429-73.143h146.286c47.429 0 88 30.857 103.429 73.143h244c30.286 0 54.857-24.571 54.857-54.857zM765.143 608c-5.714-13.714-18.857-22.857-33.714-22.857h-146.286v-256c0-20-16.571-36.571-36.571-36.571h-146.286c-20 0-36.571 16.571-36.571 36.571v256h-146.286c-14.857 0-28 9.143-33.714 22.857-5.714 13.143-2.857 29.143 8 39.429l256 256c6.857 7.429 16.571 10.857 25.714 10.857s18.857-3.429 25.714-10.857l256-256c10.857-10.286 13.714-26.286 8-39.429z" />
</font>
</defs>
</svg>
